%TF.GenerationSoftware,KiCad,Pcbnew,9.0.6+1*%
%TF.CreationDate,2026-03-15T16:38:23+01:00*%
%TF.ProjectId,rc2014_nvram,72633230-3134-45f6-9e76-72616d2e6b69,rev?*%
%TF.SameCoordinates,Original*%
%TF.FileFunction,Copper,L2,Bot*%
%TF.FilePolarity,Positive*%
%FSLAX46Y46*%
G04 Gerber Fmt 4.6, Leading zero omitted, Abs format (unit mm)*
G04 Created by KiCad (PCBNEW 9.0.6+1) date 2026-03-15 16:38:23*
%MOMM*%
%LPD*%
G01*
G04 APERTURE LIST*
G04 Aperture macros list*
%AMRoundRect*
0 Rectangle with rounded corners*
0 $1 Rounding radius*
0 $2 $3 $4 $5 $6 $7 $8 $9 X,Y pos of 4 corners*
0 Add a 4 corners polygon primitive as box body*
4,1,4,$2,$3,$4,$5,$6,$7,$8,$9,$2,$3,0*
0 Add four circle primitives for the rounded corners*
1,1,$1+$1,$2,$3*
1,1,$1+$1,$4,$5*
1,1,$1+$1,$6,$7*
1,1,$1+$1,$8,$9*
0 Add four rect primitives between the rounded corners*
20,1,$1+$1,$2,$3,$4,$5,0*
20,1,$1+$1,$4,$5,$6,$7,0*
20,1,$1+$1,$6,$7,$8,$9,0*
20,1,$1+$1,$8,$9,$2,$3,0*%
G04 Aperture macros list end*
%TA.AperFunction,ComponentPad*%
%ADD10C,1.700000*%
%TD*%
%TA.AperFunction,ComponentPad*%
%ADD11R,1.700000X1.700000*%
%TD*%
%TA.AperFunction,ComponentPad*%
%ADD12RoundRect,0.250000X0.550000X-0.950000X0.550000X0.950000X-0.550000X0.950000X-0.550000X-0.950000X0*%
%TD*%
%TA.AperFunction,ComponentPad*%
%ADD13O,1.600000X2.400000*%
%TD*%
%TA.AperFunction,ComponentPad*%
%ADD14C,1.600000*%
%TD*%
%TA.AperFunction,ComponentPad*%
%ADD15RoundRect,0.250000X0.550000X-0.550000X0.550000X0.550000X-0.550000X0.550000X-0.550000X-0.550000X0*%
%TD*%
%TA.AperFunction,ComponentPad*%
%ADD16R,2.500000X2.000000*%
%TD*%
%TA.AperFunction,ComponentPad*%
%ADD17RoundRect,0.300000X-0.950000X-0.700000X0.950000X-0.700000X0.950000X0.700000X-0.950000X0.700000X0*%
%TD*%
%TA.AperFunction,ComponentPad*%
%ADD18C,1.400000*%
%TD*%
%TA.AperFunction,ViaPad*%
%ADD19C,0.600000*%
%TD*%
%TA.AperFunction,ViaPad*%
%ADD20C,0.900000*%
%TD*%
%TA.AperFunction,Conductor*%
%ADD21C,0.400000*%
%TD*%
%TA.AperFunction,Conductor*%
%ADD22C,0.500000*%
%TD*%
%TA.AperFunction,Conductor*%
%ADD23C,1.000000*%
%TD*%
G04 APERTURE END LIST*
D10*
%TO.P,Z80_BUS1,40,SPARE4*%
%TO.N,unconnected-(Z80_BUS1-SPARE4-Pad40)*%
X181780000Y-130000000D03*
%TO.P,Z80_BUS1,39,SPARE3*%
%TO.N,unconnected-(Z80_BUS1-SPARE3-Pad39)*%
X179240000Y-130000000D03*
%TO.P,Z80_BUS1,38,SPARE2*%
%TO.N,unconnected-(Z80_BUS1-SPARE2-Pad38)*%
X176700000Y-130000000D03*
%TO.P,Z80_BUS1,37,SPARE1*%
%TO.N,Net-(Z80_BUS1-SPARE1)*%
X174160000Y-130000000D03*
%TO.P,Z80_BUS1,36,Rx*%
%TO.N,unconnected-(Z80_BUS1-Rx-Pad36)*%
X171620000Y-130000000D03*
%TO.P,Z80_BUS1,35,Tx*%
%TO.N,unconnected-(Z80_BUS1-Tx-Pad35)*%
X169080000Y-130000000D03*
%TO.P,Z80_BUS1,34,D7*%
%TO.N,/D7*%
X166540000Y-130000000D03*
%TO.P,Z80_BUS1,33,D6*%
%TO.N,/D6*%
X164000000Y-130000000D03*
%TO.P,Z80_BUS1,32,D5*%
%TO.N,/D5*%
X161460000Y-130000000D03*
%TO.P,Z80_BUS1,31,D4*%
%TO.N,/D4*%
X158920000Y-130000000D03*
%TO.P,Z80_BUS1,30,D3*%
%TO.N,/D3*%
X156380000Y-130000000D03*
%TO.P,Z80_BUS1,29,D2*%
%TO.N,/D2*%
X153840000Y-130000000D03*
%TO.P,Z80_BUS1,28,D1*%
%TO.N,/D1*%
X151300000Y-130000000D03*
%TO.P,Z80_BUS1,27,D0*%
%TO.N,/D0*%
X148760000Y-130000000D03*
%TO.P,Z80_BUS1,26,IORQ*%
%TO.N,unconnected-(Z80_BUS1-IORQ-Pad26)*%
X146220000Y-130000000D03*
%TO.P,Z80_BUS1,25,RD*%
%TO.N,Net-(Z80_BUS1-RD)*%
X143680000Y-130000000D03*
%TO.P,Z80_BUS1,24,WR*%
%TO.N,Net-(Z80_BUS1-WR)*%
X141140000Y-130000000D03*
%TO.P,Z80_BUS1,23,MREQ*%
%TO.N,Net-(Z80_BUS1-MREQ)*%
X138600000Y-130000000D03*
%TO.P,Z80_BUS1,22,INT*%
%TO.N,unconnected-(Z80_BUS1-INT-Pad22)*%
X136060000Y-130000000D03*
%TO.P,Z80_BUS1,21,CLK*%
%TO.N,unconnected-(Z80_BUS1-CLK-Pad21)*%
X133520000Y-130000000D03*
%TO.P,Z80_BUS1,20,RESET*%
%TO.N,unconnected-(Z80_BUS1-RESET-Pad20)*%
X130980000Y-130000000D03*
%TO.P,Z80_BUS1,19,M1*%
%TO.N,unconnected-(Z80_BUS1-M1-Pad19)*%
X128440000Y-130000000D03*
%TO.P,Z80_BUS1,18,5V*%
%TO.N,+5V*%
X125900000Y-130000000D03*
%TO.P,Z80_BUS1,17,Gnd*%
%TO.N,GND*%
X123360000Y-130000000D03*
%TO.P,Z80_BUS1,16,A0*%
%TO.N,/A0*%
X120820000Y-130000000D03*
%TO.P,Z80_BUS1,15,A1*%
%TO.N,/A1*%
X118280000Y-130000000D03*
%TO.P,Z80_BUS1,14,A2*%
%TO.N,/A2*%
X115740000Y-130000000D03*
%TO.P,Z80_BUS1,13,A3*%
%TO.N,/A3*%
X113200000Y-130000000D03*
%TO.P,Z80_BUS1,12,A4*%
%TO.N,/A4*%
X110660000Y-130000000D03*
%TO.P,Z80_BUS1,11,A5*%
%TO.N,/A5*%
X108120000Y-130000000D03*
%TO.P,Z80_BUS1,10,A6*%
%TO.N,/A6*%
X105580000Y-130000000D03*
%TO.P,Z80_BUS1,9,A7*%
%TO.N,/A7*%
X103040000Y-130000000D03*
%TO.P,Z80_BUS1,8,A8*%
%TO.N,/A8*%
X100500000Y-130000000D03*
%TO.P,Z80_BUS1,7,A9*%
%TO.N,/A9*%
X97960000Y-130000000D03*
%TO.P,Z80_BUS1,6,A10*%
%TO.N,/A10*%
X95420000Y-130000000D03*
%TO.P,Z80_BUS1,5,A11*%
%TO.N,/A11*%
X92880000Y-130000000D03*
%TO.P,Z80_BUS1,4,A12*%
%TO.N,/A12*%
X90340000Y-130000000D03*
%TO.P,Z80_BUS1,3,A13*%
%TO.N,/A13*%
X87800000Y-130000000D03*
%TO.P,Z80_BUS1,2,A14*%
%TO.N,/A14*%
X85260000Y-130000000D03*
D11*
%TO.P,Z80_BUS1,1,A15*%
%TO.N,/A15*%
X82720000Y-130000000D03*
%TD*%
D12*
%TO.P,U5,1*%
%TO.N,Net-(Z80_BUS1-MREQ)*%
X110960000Y-116750000D03*
D13*
%TO.P,U5,2*%
%TO.N,Net-(Z80_BUS1-RD)*%
X113500000Y-116750000D03*
%TO.P,U5,3*%
%TO.N,MEMRD*%
X116040000Y-116750000D03*
%TO.P,U5,4*%
%TO.N,Net-(Z80_BUS1-WR)*%
X118580000Y-116750000D03*
%TO.P,U5,5*%
%TO.N,Net-(Z80_BUS1-MREQ)*%
X121120000Y-116750000D03*
%TO.P,U5,6*%
%TO.N,MEMWR*%
X123660000Y-116750000D03*
%TO.P,U5,7,GND*%
%TO.N,GND*%
X126200000Y-116750000D03*
%TO.P,U5,8*%
%TO.N,Net-(U4-~{CE})*%
X126200000Y-109130000D03*
%TO.P,U5,9*%
%TO.N,/A15*%
X123660000Y-109130000D03*
%TO.P,U5,10*%
%TO.N,Net-(U5-Pad10)*%
X121120000Y-109130000D03*
%TO.P,U5,11*%
%TO.N,unconnected-(U5-Pad11)*%
X118580000Y-109130000D03*
%TO.P,U5,12*%
%TO.N,GND*%
X116040000Y-109130000D03*
%TO.P,U5,13*%
X113500000Y-109130000D03*
%TO.P,U5,14,VCC*%
%TO.N,+5V*%
X110960000Y-109130000D03*
%TD*%
D14*
%TO.P,U1,28,VCC*%
%TO.N,Net-(U1-VCC)*%
X144990000Y-86260000D03*
%TO.P,U1,27,~{WE}*%
%TO.N,MEMWR*%
X147530000Y-86260000D03*
%TO.P,U1,26,A13*%
%TO.N,/A12*%
X150070000Y-86260000D03*
%TO.P,U1,25,A8*%
%TO.N,/A10*%
X152610000Y-86260000D03*
%TO.P,U1,24,A9*%
%TO.N,/A8*%
X155150000Y-86260000D03*
%TO.P,U1,23,A11*%
%TO.N,/A6*%
X157690000Y-86260000D03*
%TO.P,U1,22,~{OE}*%
%TO.N,MEMRD*%
X160230000Y-86260000D03*
%TO.P,U1,21,A10*%
%TO.N,/A3*%
X162770000Y-86260000D03*
%TO.P,U1,20,~{CS}*%
%TO.N,Net-(U1-~{CS})*%
X165310000Y-86260000D03*
%TO.P,U1,19,Q7*%
%TO.N,/D0*%
X167850000Y-86260000D03*
%TO.P,U1,18,Q6*%
%TO.N,/D1*%
X170390000Y-86260000D03*
%TO.P,U1,17,Q5*%
%TO.N,/D3*%
X172930000Y-86260000D03*
%TO.P,U1,16,Q4*%
%TO.N,/D5*%
X175470000Y-86260000D03*
%TO.P,U1,15,Q3*%
%TO.N,/D7*%
X178010000Y-86260000D03*
%TO.P,U1,14,GND*%
%TO.N,GND*%
X178010000Y-101500000D03*
%TO.P,U1,13,Q2*%
%TO.N,/D6*%
X175470000Y-101500000D03*
%TO.P,U1,12,Q1*%
%TO.N,/D4*%
X172930000Y-101500000D03*
%TO.P,U1,11,Q0*%
%TO.N,/D2*%
X170390000Y-101500000D03*
%TO.P,U1,10,A0*%
%TO.N,/A0*%
X167850000Y-101500000D03*
%TO.P,U1,9,A1*%
%TO.N,/A1*%
X165310000Y-101500000D03*
%TO.P,U1,8,A2*%
%TO.N,/A2*%
X162770000Y-101500000D03*
%TO.P,U1,7,A3*%
%TO.N,/A4*%
X160230000Y-101500000D03*
%TO.P,U1,6,A4*%
%TO.N,/A5*%
X157690000Y-101500000D03*
%TO.P,U1,5,A5*%
%TO.N,/A7*%
X155150000Y-101500000D03*
%TO.P,U1,4,A6*%
%TO.N,/A9*%
X152610000Y-101500000D03*
%TO.P,U1,3,A7*%
%TO.N,/A11*%
X150070000Y-101500000D03*
%TO.P,U1,2,A12*%
%TO.N,/A13*%
X147530000Y-101500000D03*
D15*
%TO.P,U1,1,A14*%
%TO.N,/A14*%
X144990000Y-101500000D03*
%TD*%
%TO.P,U2,1,A14*%
%TO.N,/A14*%
X144990000Y-119250000D03*
D14*
%TO.P,U2,2,A12*%
%TO.N,/A13*%
X147530000Y-119250000D03*
%TO.P,U2,3,A7*%
%TO.N,/A11*%
X150070000Y-119250000D03*
%TO.P,U2,4,A6*%
%TO.N,/A9*%
X152610000Y-119250000D03*
%TO.P,U2,5,A5*%
%TO.N,/A7*%
X155150000Y-119250000D03*
%TO.P,U2,6,A4*%
%TO.N,/A5*%
X157690000Y-119250000D03*
%TO.P,U2,7,A3*%
%TO.N,/A4*%
X160230000Y-119250000D03*
%TO.P,U2,8,A2*%
%TO.N,/A2*%
X162770000Y-119250000D03*
%TO.P,U2,9,A1*%
%TO.N,/A1*%
X165310000Y-119250000D03*
%TO.P,U2,10,A0*%
%TO.N,/A0*%
X167850000Y-119250000D03*
%TO.P,U2,11,Q0*%
%TO.N,/D2*%
X170390000Y-119250000D03*
%TO.P,U2,12,Q1*%
%TO.N,/D4*%
X172930000Y-119250000D03*
%TO.P,U2,13,Q2*%
%TO.N,/D6*%
X175470000Y-119250000D03*
%TO.P,U2,14,GND*%
%TO.N,GND*%
X178010000Y-119250000D03*
%TO.P,U2,15,Q3*%
%TO.N,/D7*%
X178010000Y-104010000D03*
%TO.P,U2,16,Q4*%
%TO.N,/D5*%
X175470000Y-104010000D03*
%TO.P,U2,17,Q5*%
%TO.N,/D3*%
X172930000Y-104010000D03*
%TO.P,U2,18,Q6*%
%TO.N,/D1*%
X170390000Y-104010000D03*
%TO.P,U2,19,Q7*%
%TO.N,/D0*%
X167850000Y-104010000D03*
%TO.P,U2,20,~{CS}*%
%TO.N,Net-(U2-~{CS})*%
X165310000Y-104010000D03*
%TO.P,U2,21,A10*%
%TO.N,/A3*%
X162770000Y-104010000D03*
%TO.P,U2,22,~{OE}*%
%TO.N,MEMRD*%
X160230000Y-104010000D03*
%TO.P,U2,23,A11*%
%TO.N,/A6*%
X157690000Y-104010000D03*
%TO.P,U2,24,A9*%
%TO.N,/A8*%
X155150000Y-104010000D03*
%TO.P,U2,25,A8*%
%TO.N,/A10*%
X152610000Y-104010000D03*
%TO.P,U2,26,A13*%
%TO.N,/A12*%
X150070000Y-104010000D03*
%TO.P,U2,27,~{WE}*%
%TO.N,MEMWR*%
X147530000Y-104010000D03*
%TO.P,U2,28,VCC*%
%TO.N,Net-(U2-VCC)*%
X144990000Y-104010000D03*
%TD*%
%TO.P,R1,2*%
%TO.N,Net-(Z80_BUS1-SPARE1)*%
X85750000Y-116830000D03*
%TO.P,R1,1*%
%TO.N,+5V*%
X85750000Y-106670000D03*
%TD*%
D13*
%TO.P,U6,14,VCC*%
%TO.N,+5V*%
X89135000Y-109190000D03*
%TO.P,U6,13*%
%TO.N,GND*%
X91675000Y-109190000D03*
%TO.P,U6,12*%
%TO.N,unconnected-(U6-Pad12)*%
X94215000Y-109190000D03*
%TO.P,U6,11*%
%TO.N,GND*%
X96755000Y-109190000D03*
%TO.P,U6,10*%
%TO.N,unconnected-(U6-Pad10)*%
X99295000Y-109190000D03*
%TO.P,U6,9*%
%TO.N,GND*%
X101835000Y-109190000D03*
%TO.P,U6,8*%
%TO.N,unconnected-(U6-Pad8)*%
X104375000Y-109190000D03*
%TO.P,U6,7,GND*%
%TO.N,GND*%
X104375000Y-116810000D03*
%TO.P,U6,6*%
%TO.N,unconnected-(U6-Pad6)*%
X101835000Y-116810000D03*
%TO.P,U6,5*%
%TO.N,GND*%
X99295000Y-116810000D03*
%TO.P,U6,4*%
%TO.N,Net-(U5-Pad10)*%
X96755000Y-116810000D03*
%TO.P,U6,3*%
%TO.N,Net-(Z80_BUS1-SPARE1)*%
X94215000Y-116810000D03*
%TO.P,U6,2*%
%TO.N,Net-(U3-~{CE})*%
X91675000Y-116810000D03*
D12*
%TO.P,U6,1*%
%TO.N,/A15*%
X89135000Y-116810000D03*
%TD*%
D16*
%TO.P,BT1,1,+*%
%TO.N,Net-(BT1-+)*%
X141000000Y-96000000D03*
D17*
%TO.P,BT1,2,-*%
%TO.N,GND*%
X90000000Y-90920000D03*
X90000000Y-101080000D03*
%TD*%
D18*
%TO.P,C3,1*%
%TO.N,+5V*%
X131000000Y-84000000D03*
%TO.P,C3,2*%
%TO.N,GND*%
X131000000Y-86500000D03*
%TD*%
%TO.P,C1,1*%
%TO.N,+5V*%
X135500000Y-112250000D03*
%TO.P,C1,2*%
%TO.N,GND*%
X138000000Y-112250000D03*
%TD*%
%TO.P,C4,1*%
%TO.N,+5V*%
X110715000Y-105940000D03*
%TO.P,C4,2*%
%TO.N,GND*%
X113215000Y-105940000D03*
%TD*%
%TO.P,C2,1*%
%TO.N,+5V*%
X88750000Y-105940000D03*
%TO.P,C2,2*%
%TO.N,GND*%
X91250000Y-105940000D03*
%TD*%
D19*
%TO.N,GND*%
X159000000Y-123250000D03*
X164750000Y-123750000D03*
X164000000Y-98750000D03*
X164000000Y-88000000D03*
D20*
X178000000Y-127500000D03*
D19*
X160250000Y-106500000D03*
X165250000Y-106500000D03*
D20*
X119750000Y-83750000D03*
X107000000Y-91500000D03*
X99375000Y-99125000D03*
X104375000Y-99125000D03*
X112125000Y-91375000D03*
X127000000Y-83750000D03*
X126250000Y-107000000D03*
X129000000Y-104750000D03*
X125500000Y-104000000D03*
X106250000Y-122250000D03*
X95000000Y-124750000D03*
D19*
X159000000Y-120500000D03*
X159000000Y-115250000D03*
X164059000Y-120500000D03*
X164250000Y-115250000D03*
D20*
X135250000Y-96000000D03*
X138000000Y-97250000D03*
X137750000Y-94750000D03*
D19*
X120000000Y-119500000D03*
X143250000Y-98250000D03*
D20*
X132750000Y-110500000D03*
D19*
X139711000Y-104250000D03*
D20*
X137250000Y-128449000D03*
X144949000Y-128449000D03*
X117051000Y-128449000D03*
D19*
%TO.N,/A1*%
X141750000Y-114750000D03*
X122500000Y-113750000D03*
X165250000Y-116250000D03*
D20*
%TO.N,GND*%
X127199000Y-128449000D03*
X161000000Y-83750000D03*
X83500000Y-126250000D03*
X109000000Y-117750000D03*
X128750000Y-112000000D03*
X175500000Y-127500000D03*
X173000000Y-127500000D03*
X114750000Y-83750000D03*
X90500000Y-120750000D03*
D19*
%TO.N,MEMRD*%
X141500000Y-105250000D03*
X121250000Y-113500000D03*
%TO.N,/A0*%
X124433787Y-113848001D03*
X167850000Y-117050000D03*
X142250000Y-115750000D03*
%TO.N,Net-(Z80_BUS1-SPARE1)*%
X121908630Y-118750000D03*
X136193000Y-118700000D03*
%TO.N,Net-(U3-~{CE})*%
X132000000Y-82439800D03*
D20*
%TO.N,GND*%
X138250000Y-89000000D03*
X132700000Y-113750000D03*
D19*
%TO.N,Net-(U4-~{CE})*%
X132750000Y-105750000D03*
%TO.N,Net-(U2-~{CS})*%
X135500000Y-102750000D03*
X140750000Y-102750000D03*
D20*
%TO.N,+5V*%
X93500000Y-104000000D03*
D19*
%TO.N,Net-(Z80_BUS1-RD)*%
X140500000Y-118300000D03*
%TO.N,Net-(Z80_BUS1-WR)*%
X139500000Y-118300000D03*
%TO.N,Net-(Z80_BUS1-MREQ)*%
X138600000Y-119450000D03*
D20*
%TO.N,GND*%
X165500000Y-83750000D03*
%TD*%
D21*
%TO.N,Net-(U4-~{CE})*%
X127929528Y-108649000D02*
X127448528Y-109130000D01*
X131851000Y-108649000D02*
X127929528Y-108649000D01*
X132750000Y-105750000D02*
X132750000Y-107750000D01*
X132750000Y-107750000D02*
X131851000Y-108649000D01*
X127448528Y-109130000D02*
X126200000Y-109130000D01*
%TO.N,/A8*%
X155150000Y-86260000D02*
X153949000Y-87461000D01*
X153949000Y-87461000D02*
X153949000Y-102199000D01*
X153949000Y-102199000D02*
X155150000Y-103400000D01*
X155150000Y-103400000D02*
X155150000Y-104010000D01*
%TO.N,/A9*%
X152610000Y-101500000D02*
X152610000Y-102110000D01*
X153811000Y-107439000D02*
X152610000Y-108640000D01*
X152610000Y-102110000D02*
X153811000Y-103311000D01*
X153811000Y-103311000D02*
X153811000Y-107439000D01*
X152610000Y-108640000D02*
X152610000Y-119250000D01*
%TO.N,/A14*%
X103648406Y-123442000D02*
X107028522Y-123442000D01*
X111610638Y-122240000D02*
X113562638Y-120288000D01*
X102590406Y-124500000D02*
X103648406Y-123442000D01*
X89902058Y-127048000D02*
X93282174Y-127048000D01*
X108230522Y-122240000D02*
X111610638Y-122240000D01*
X99210290Y-124500000D02*
X102590406Y-124500000D01*
X113562638Y-120288000D02*
X143952000Y-120288000D01*
X94484174Y-125846000D02*
X97864290Y-125846000D01*
X93282174Y-127048000D02*
X94484174Y-125846000D01*
X107028522Y-123442000D02*
X108230522Y-122240000D01*
X88700058Y-128250000D02*
X89902058Y-127048000D01*
X143952000Y-120288000D02*
X144990000Y-119250000D01*
X97864290Y-125846000D02*
X99210290Y-124500000D01*
X87010000Y-128250000D02*
X88700058Y-128250000D01*
X85260000Y-130000000D02*
X87010000Y-128250000D01*
D22*
%TO.N,GND*%
X159000000Y-120500000D02*
X159000000Y-123250000D01*
X164368000Y-123750000D02*
X164059000Y-123441000D01*
X164750000Y-123750000D02*
X164368000Y-123750000D01*
X164059000Y-123441000D02*
X164059000Y-120500000D01*
X164000000Y-88000000D02*
X164000000Y-98750000D01*
X164250000Y-83750000D02*
X165500000Y-83750000D01*
X164250000Y-83750000D02*
X164059000Y-83941000D01*
X164059000Y-87941000D02*
X164000000Y-88000000D01*
X164059000Y-83941000D02*
X164059000Y-87941000D01*
D21*
%TO.N,/A13*%
X147022370Y-120889000D02*
X147530000Y-120381370D01*
X108479464Y-122841000D02*
X111859580Y-122841000D01*
X107277464Y-124043000D02*
X108479464Y-122841000D01*
X111859580Y-122841000D02*
X113811580Y-120889000D01*
X103897348Y-124043000D02*
X107277464Y-124043000D01*
X102839348Y-125101000D02*
X103897348Y-124043000D01*
X99459232Y-125101000D02*
X102839348Y-125101000D01*
X98113232Y-126447000D02*
X99459232Y-125101000D01*
X94733116Y-126447000D02*
X98113232Y-126447000D01*
X93531116Y-127649000D02*
X94733116Y-126447000D01*
X90151000Y-127649000D02*
X93531116Y-127649000D01*
X113811580Y-120889000D02*
X147022370Y-120889000D01*
X87800000Y-130000000D02*
X90151000Y-127649000D01*
X147530000Y-120381370D02*
X147530000Y-119250000D01*
%TO.N,/A9*%
X152610000Y-119250000D02*
X152610000Y-121880638D01*
X112855348Y-125245000D02*
X109475232Y-125245000D01*
X152610000Y-121880638D02*
X151399638Y-123091000D01*
X151399638Y-123091000D02*
X150559522Y-123091000D01*
X114807348Y-123293000D02*
X112855348Y-125245000D01*
X108273232Y-126447000D02*
X104893116Y-126447000D01*
X150559522Y-123091000D02*
X150357522Y-123293000D01*
X150357522Y-123293000D02*
X114807348Y-123293000D01*
X109475232Y-125245000D02*
X108273232Y-126447000D01*
X104893116Y-126447000D02*
X103835116Y-127505000D01*
X103835116Y-127505000D02*
X100455000Y-127505000D01*
X100455000Y-127505000D02*
X97960000Y-130000000D01*
%TO.N,/A10*%
X151271000Y-108729000D02*
X152500000Y-107500000D01*
X151271000Y-121479000D02*
X151271000Y-108729000D01*
X114558406Y-122692000D02*
X150058000Y-122692000D01*
X112606406Y-124644000D02*
X114558406Y-122692000D01*
X100206058Y-126904000D02*
X103586174Y-126904000D01*
X108024290Y-125846000D02*
X109226290Y-124644000D01*
X150058000Y-122692000D02*
X151271000Y-121479000D01*
X104644174Y-125846000D02*
X108024290Y-125846000D01*
X103586174Y-126904000D02*
X104644174Y-125846000D01*
X97170000Y-128250000D02*
X98860058Y-128250000D01*
X98860058Y-128250000D02*
X100206058Y-126904000D01*
X109226290Y-124644000D02*
X112606406Y-124644000D01*
X152500000Y-104120000D02*
X152610000Y-104010000D01*
X95420000Y-130000000D02*
X97170000Y-128250000D01*
X152500000Y-107500000D02*
X152500000Y-104120000D01*
%TO.N,/A11*%
X150070000Y-119250000D02*
X150070000Y-120930000D01*
X98611116Y-127649000D02*
X95231000Y-127649000D01*
X150070000Y-120930000D02*
X148909000Y-122091000D01*
X114309464Y-122091000D02*
X112357464Y-124043000D01*
X148909000Y-122091000D02*
X114309464Y-122091000D01*
X112357464Y-124043000D02*
X108977348Y-124043000D01*
X108977348Y-124043000D02*
X107775348Y-125245000D01*
X107775348Y-125245000D02*
X104395232Y-125245000D01*
X103337232Y-126303000D02*
X99957116Y-126303000D01*
X104395232Y-125245000D02*
X103337232Y-126303000D01*
X99957116Y-126303000D02*
X98611116Y-127649000D01*
X95231000Y-127649000D02*
X92880000Y-130000000D01*
%TO.N,/A12*%
X107526406Y-124644000D02*
X104146290Y-124644000D01*
X108728406Y-123442000D02*
X107526406Y-124644000D01*
X92090000Y-128250000D02*
X90340000Y-130000000D01*
X99708174Y-125702000D02*
X98362174Y-127048000D01*
X112108522Y-123442000D02*
X108728406Y-123442000D01*
X147760000Y-121490000D02*
X114060522Y-121490000D01*
X104146290Y-124644000D02*
X103088290Y-125702000D01*
X114060522Y-121490000D02*
X112108522Y-123442000D01*
X148750000Y-120500000D02*
X147760000Y-121490000D01*
X103088290Y-125702000D02*
X99708174Y-125702000D01*
X148750000Y-108924971D02*
X148750000Y-120500000D01*
X93780058Y-128250000D02*
X92090000Y-128250000D01*
X150000000Y-107674971D02*
X148750000Y-108924971D01*
X150000000Y-104080000D02*
X150000000Y-107674971D01*
X150070000Y-104010000D02*
X150000000Y-104080000D01*
X98362174Y-127048000D02*
X94982058Y-127048000D01*
X94982058Y-127048000D02*
X93780058Y-128250000D01*
D22*
%TO.N,GND*%
X95000000Y-124750000D02*
X95500000Y-124750000D01*
X97750000Y-122500000D02*
X106000000Y-122500000D01*
X95500000Y-124750000D02*
X97750000Y-122500000D01*
X106000000Y-122500000D02*
X106250000Y-122250000D01*
D23*
X112125000Y-91375000D02*
X104375000Y-99125000D01*
X112125000Y-91375000D02*
X119750000Y-83750000D01*
X107000000Y-91500000D02*
X99375000Y-99125000D01*
X114750000Y-83750000D02*
X107000000Y-91500000D01*
X119750000Y-83750000D02*
X127000000Y-83750000D01*
D22*
X126250000Y-104750000D02*
X126250000Y-107000000D01*
X129000000Y-104750000D02*
X126250000Y-104750000D01*
X126250000Y-104750000D02*
X125500000Y-104000000D01*
X135250000Y-96000000D02*
X129000000Y-102250000D01*
X129000000Y-102250000D02*
X129000000Y-104750000D01*
X106250000Y-122250000D02*
X109000000Y-119500000D01*
X109000000Y-119500000D02*
X110750000Y-119500000D01*
X164059000Y-120500000D02*
X164059000Y-115441000D01*
X164059000Y-115441000D02*
X164250000Y-115250000D01*
X158980409Y-120480409D02*
X159000000Y-120500000D01*
X159000000Y-115250000D02*
X158980409Y-115269591D01*
X158980409Y-115269591D02*
X158980409Y-120480409D01*
X137750000Y-94750000D02*
X138250000Y-94250000D01*
X137750000Y-94750000D02*
X137500000Y-95000000D01*
X137500000Y-95000000D02*
X137500000Y-96750000D01*
X137500000Y-96750000D02*
X138000000Y-97250000D01*
X138250000Y-94250000D02*
X138250000Y-89000000D01*
X137750000Y-97000000D02*
X136250000Y-97000000D01*
X138000000Y-97250000D02*
X137750000Y-97000000D01*
X136250000Y-97000000D02*
X135250000Y-96000000D01*
D23*
X122699000Y-128449000D02*
X124021000Y-128449000D01*
X123360000Y-129110000D02*
X124021000Y-128449000D01*
X124021000Y-128449000D02*
X127199000Y-128449000D01*
D21*
%TO.N,/A15*%
X89135000Y-116810000D02*
X89135000Y-126865000D01*
X89135000Y-126865000D02*
X88351000Y-127649000D01*
X88351000Y-127649000D02*
X86761058Y-127649000D01*
X86761058Y-127649000D02*
X86160058Y-128250000D01*
X86160058Y-128250000D02*
X84470000Y-128250000D01*
X84470000Y-128250000D02*
X82720000Y-130000000D01*
D22*
%TO.N,GND*%
X120000000Y-119500000D02*
X110750000Y-119500000D01*
X110750000Y-119500000D02*
X109000000Y-117750000D01*
D21*
%TO.N,MEMRD*%
X124176470Y-110750000D02*
X124157470Y-110731000D01*
X125750000Y-110731000D02*
X125750000Y-110750000D01*
X125750000Y-110750000D02*
X124176470Y-110750000D01*
X126697470Y-110731000D02*
X125750000Y-110731000D01*
X124157470Y-110731000D02*
X124019000Y-110731000D01*
X128178470Y-109250000D02*
X126697470Y-110731000D01*
X124019000Y-110731000D02*
X121250000Y-113500000D01*
X141500000Y-105250000D02*
X137500000Y-109250000D01*
X137500000Y-109250000D02*
X128178470Y-109250000D01*
%TO.N,Net-(U2-~{CS})*%
X140750000Y-102750000D02*
X135500000Y-102750000D01*
%TO.N,MEMWR*%
X139209636Y-119001000D02*
X138958636Y-118750000D01*
X141041364Y-118750000D02*
X140790364Y-119001000D01*
X125702530Y-118351000D02*
X125601530Y-118250000D01*
X140208636Y-119000000D02*
X139791364Y-119000000D01*
X141250000Y-118750000D02*
X141041364Y-118750000D01*
X139790364Y-119001000D02*
X139209636Y-119001000D01*
X139791364Y-119000000D02*
X139790364Y-119001000D01*
X140209636Y-119001000D02*
X140208636Y-119000000D01*
X140790364Y-119001000D02*
X140209636Y-119001000D01*
X138958636Y-118750000D02*
X137355364Y-118750000D01*
X136605364Y-118000000D02*
X127048470Y-118000000D01*
X143500000Y-116500000D02*
X141250000Y-118750000D01*
X143500000Y-100500000D02*
X143500000Y-116500000D01*
X123660000Y-118160000D02*
X123660000Y-116750000D01*
X144000000Y-100000000D02*
X143500000Y-100500000D01*
X146000000Y-100000000D02*
X144000000Y-100000000D01*
X137355364Y-118750000D02*
X136605364Y-118000000D01*
X127048470Y-118000000D02*
X126697470Y-118351000D01*
X126697470Y-118351000D02*
X125702530Y-118351000D01*
X125601530Y-118250000D02*
X123750000Y-118250000D01*
X123750000Y-118250000D02*
X123660000Y-118160000D01*
D23*
%TO.N,GND*%
X132750000Y-110500000D02*
X132750000Y-113700000D01*
X132750000Y-113700000D02*
X132700000Y-113750000D01*
X137250000Y-128449000D02*
X144949000Y-128449000D01*
X127199000Y-128449000D02*
X137250000Y-128449000D01*
D21*
%TO.N,/A8*%
X153949000Y-108551000D02*
X155000000Y-107500000D01*
X115056290Y-123894000D02*
X150606464Y-123894000D01*
X150606464Y-123894000D02*
X150808464Y-123692000D01*
X153949000Y-122051000D02*
X153949000Y-108551000D01*
X113104290Y-125846000D02*
X115056290Y-123894000D01*
X108522174Y-127048000D02*
X109724174Y-125846000D01*
X155000000Y-104160000D02*
X155150000Y-104010000D01*
X109724174Y-125846000D02*
X113104290Y-125846000D01*
X105142058Y-127048000D02*
X108522174Y-127048000D01*
X155000000Y-107500000D02*
X155000000Y-104160000D01*
X152308000Y-123692000D02*
X153949000Y-122051000D01*
X150808464Y-123692000D02*
X152308000Y-123692000D01*
X103940058Y-128250000D02*
X105142058Y-127048000D01*
X102250000Y-128250000D02*
X103940058Y-128250000D01*
X100500000Y-130000000D02*
X102250000Y-128250000D01*
%TO.N,/A3*%
X152053174Y-126697000D02*
X151851174Y-126899000D01*
X158325348Y-125495000D02*
X156635290Y-125495000D01*
X153743232Y-126697000D02*
X152053174Y-126697000D01*
X162770000Y-104010000D02*
X162770000Y-107730000D01*
X154344232Y-126096000D02*
X153743232Y-126697000D01*
X161500000Y-123750000D02*
X160356000Y-124894000D01*
X156034290Y-126096000D02*
X154344232Y-126096000D01*
X156635290Y-125495000D02*
X156034290Y-126096000D01*
X160356000Y-124894000D02*
X158926348Y-124894000D01*
X158926348Y-124894000D02*
X158325348Y-125495000D01*
X116301000Y-126899000D02*
X113200000Y-130000000D01*
X161500000Y-109000000D02*
X161500000Y-123750000D01*
X162770000Y-107730000D02*
X161500000Y-109000000D01*
X151851174Y-126899000D02*
X116301000Y-126899000D01*
D23*
%TO.N,GND*%
X119551000Y-128449000D02*
X117051000Y-128449000D01*
D21*
%TO.N,/A2*%
X152100116Y-127500000D02*
X116549942Y-127500000D01*
X152302116Y-127298000D02*
X152100116Y-127500000D01*
X154593174Y-126697000D02*
X153992174Y-127298000D01*
X162770000Y-119250000D02*
X162770000Y-124230000D01*
X153992174Y-127298000D02*
X152302116Y-127298000D01*
X161466348Y-124894000D02*
X160865348Y-125495000D01*
X158574290Y-126096000D02*
X156884232Y-126096000D01*
X156884232Y-126096000D02*
X156283232Y-126697000D01*
X160865348Y-125495000D02*
X159175290Y-125495000D01*
X162106000Y-124894000D02*
X161466348Y-124894000D01*
X159175290Y-125495000D02*
X158574290Y-126096000D01*
X162770000Y-124230000D02*
X162106000Y-124894000D01*
X156283232Y-126697000D02*
X154593174Y-126697000D01*
X116549942Y-127500000D02*
X115740000Y-128309942D01*
X115740000Y-128309942D02*
X115740000Y-130000000D01*
%TO.N,/A7*%
X155150000Y-119250000D02*
X155150000Y-122600000D01*
X155150000Y-122600000D02*
X154058000Y-123692000D01*
X154058000Y-123692000D02*
X153348464Y-123692000D01*
X151057406Y-124293000D02*
X150855406Y-124495000D01*
X153348464Y-123692000D02*
X152747464Y-124293000D01*
X152747464Y-124293000D02*
X151057406Y-124293000D01*
X150855406Y-124495000D02*
X115305232Y-124495000D01*
X115305232Y-124495000D02*
X113353232Y-126447000D01*
X113353232Y-126447000D02*
X109973116Y-126447000D01*
X109973116Y-126447000D02*
X108771116Y-127649000D01*
X108771116Y-127649000D02*
X105391000Y-127649000D01*
X105391000Y-127649000D02*
X103040000Y-130000000D01*
%TO.N,/A6*%
X109020058Y-128250000D02*
X107330000Y-128250000D01*
X113602174Y-127048000D02*
X110222058Y-127048000D01*
X115554174Y-125096000D02*
X113602174Y-127048000D01*
X151104348Y-125096000D02*
X115554174Y-125096000D01*
X157690000Y-107560000D02*
X156489000Y-108761000D01*
X153597406Y-124293000D02*
X152996406Y-124894000D01*
X155207000Y-124293000D02*
X153597406Y-124293000D01*
X156489000Y-108761000D02*
X156489000Y-123011000D01*
X110222058Y-127048000D02*
X109020058Y-128250000D01*
X157690000Y-104010000D02*
X157690000Y-107560000D01*
X152996406Y-124894000D02*
X151306348Y-124894000D01*
X151306348Y-124894000D02*
X151104348Y-125096000D01*
X156489000Y-123011000D02*
X155207000Y-124293000D01*
X107330000Y-128250000D02*
X105580000Y-130000000D01*
%TO.N,/A5*%
X157690000Y-119250000D02*
X157690000Y-123560000D01*
X157690000Y-123560000D02*
X156957000Y-124293000D01*
X151555290Y-125495000D02*
X151353290Y-125697000D01*
X156957000Y-124293000D02*
X156137406Y-124293000D01*
X156137406Y-124293000D02*
X155536406Y-124894000D01*
X155536406Y-124894000D02*
X153846348Y-124894000D01*
X153846348Y-124894000D02*
X153245348Y-125495000D01*
X153245348Y-125495000D02*
X151555290Y-125495000D01*
X110471000Y-127649000D02*
X108120000Y-130000000D01*
X151353290Y-125697000D02*
X115803116Y-125697000D01*
X115803116Y-125697000D02*
X113851116Y-127649000D01*
X113851116Y-127649000D02*
X110471000Y-127649000D01*
%TO.N,/A4*%
X114100058Y-128250000D02*
X112410000Y-128250000D01*
X151602232Y-126298000D02*
X116052058Y-126298000D01*
X159517522Y-124293000D02*
X158677406Y-124293000D01*
X155785348Y-125495000D02*
X154095290Y-125495000D01*
X156386348Y-124894000D02*
X155785348Y-125495000D01*
X153494290Y-126096000D02*
X151804232Y-126096000D01*
X154095290Y-125495000D02*
X153494290Y-126096000D01*
X160230000Y-119250000D02*
X160230000Y-123580522D01*
X158076406Y-124894000D02*
X156386348Y-124894000D01*
X158677406Y-124293000D02*
X158076406Y-124894000D01*
X116052058Y-126298000D02*
X114100058Y-128250000D01*
X151804232Y-126096000D02*
X151602232Y-126298000D01*
X160230000Y-123580522D02*
X159517522Y-124293000D01*
X112410000Y-128250000D02*
X110660000Y-130000000D01*
%TO.N,/D6*%
X164000000Y-130000000D02*
X165500000Y-128500000D01*
X170851000Y-127899000D02*
X175470000Y-123280000D01*
X165500000Y-128500000D02*
X167190058Y-128500000D01*
X167190058Y-128500000D02*
X167791058Y-127899000D01*
X167791058Y-127899000D02*
X170851000Y-127899000D01*
X175470000Y-123280000D02*
X175470000Y-119250000D01*
%TO.N,/D5*%
X161460000Y-130000000D02*
X162960000Y-128500000D01*
X162960000Y-128500000D02*
X164650058Y-128500000D01*
X164650058Y-128500000D02*
X165251058Y-127899000D01*
X165251058Y-127899000D02*
X166941116Y-127899000D01*
X166941116Y-127899000D02*
X167542116Y-127298000D01*
X167542116Y-127298000D02*
X170452000Y-127298000D01*
X170452000Y-127298000D02*
X174250000Y-123500000D01*
X174250000Y-108875000D02*
X175470000Y-107655000D01*
X175470000Y-107655000D02*
X175470000Y-104010000D01*
X174250000Y-123500000D02*
X174250000Y-108875000D01*
%TO.N,/D4*%
X158920000Y-130000000D02*
X160420000Y-128500000D01*
X160420000Y-128500000D02*
X162110058Y-128500000D01*
X162110058Y-128500000D02*
X162711058Y-127899000D01*
X162711058Y-127899000D02*
X164401116Y-127899000D01*
X164401116Y-127899000D02*
X165002116Y-127298000D01*
X165002116Y-127298000D02*
X166692174Y-127298000D01*
X166692174Y-127298000D02*
X167293174Y-126697000D01*
X167293174Y-126697000D02*
X170053000Y-126697000D01*
X170053000Y-126697000D02*
X172930000Y-123820000D01*
X172930000Y-123820000D02*
X172930000Y-119250000D01*
%TO.N,/D3*%
X171729000Y-108771000D02*
X172930000Y-107570000D01*
X171729000Y-123771000D02*
X171729000Y-108771000D01*
X159570058Y-128500000D02*
X160171058Y-127899000D01*
X164152174Y-127298000D02*
X164753174Y-126697000D01*
X162462116Y-127298000D02*
X164152174Y-127298000D01*
X167044232Y-126096000D02*
X169404000Y-126096000D01*
X166443232Y-126697000D02*
X167044232Y-126096000D01*
X164753174Y-126697000D02*
X166443232Y-126697000D01*
X169404000Y-126096000D02*
X171729000Y-123771000D01*
X161861116Y-127899000D02*
X162462116Y-127298000D01*
X157880000Y-128500000D02*
X159570058Y-128500000D01*
X156380000Y-130000000D02*
X157880000Y-128500000D01*
X160171058Y-127899000D02*
X161861116Y-127899000D01*
X172930000Y-107570000D02*
X172930000Y-104010000D01*
%TO.N,Net-(Z80_BUS1-SPARE1)*%
X136193000Y-118700000D02*
X135807000Y-119086000D01*
X135807000Y-119086000D02*
X122244630Y-119086000D01*
X122244630Y-119086000D02*
X121908630Y-118750000D01*
%TO.N,Net-(Z80_BUS1-MREQ)*%
X138600000Y-119450000D02*
X138600000Y-119465000D01*
X138600000Y-119465000D02*
X138378000Y-119687000D01*
X138378000Y-119687000D02*
X121445636Y-119687000D01*
X121445636Y-119687000D02*
X121049000Y-119290364D01*
X121049000Y-119290364D02*
X121049000Y-118709636D01*
%TO.N,/A0*%
X141250000Y-115750000D02*
X142250000Y-115750000D01*
X124781788Y-113500000D02*
X130000000Y-113500000D01*
X124433787Y-113848001D02*
X124781788Y-113500000D01*
X130000000Y-113500000D02*
X132000000Y-115500000D01*
X132000000Y-115500000D02*
X141000000Y-115500000D01*
X141000000Y-115500000D02*
X141250000Y-115750000D01*
%TO.N,/A1*%
X130248942Y-112899000D02*
X123351000Y-112899000D01*
X141750000Y-114750000D02*
X132099942Y-114750000D01*
X123351000Y-112899000D02*
X122500000Y-113750000D01*
X132099942Y-114750000D02*
X130248942Y-112899000D01*
X165250000Y-116250000D02*
X165250000Y-119190000D01*
%TO.N,/A4*%
X160250000Y-116250000D02*
X160250000Y-108750000D01*
D23*
%TO.N,GND*%
X119551000Y-128449000D02*
X122699000Y-128449000D01*
X122699000Y-128449000D02*
X123360000Y-129110000D01*
X123360000Y-129110000D02*
X123360000Y-130000000D01*
D21*
%TO.N,Net-(Z80_BUS1-WR)*%
X139500000Y-118300000D02*
X139500000Y-118250000D01*
X139500000Y-118250000D02*
X138351000Y-117101000D01*
X138351000Y-117101000D02*
X128649470Y-117101000D01*
X128649470Y-117101000D02*
X126697470Y-115149000D01*
X126697470Y-115149000D02*
X120181000Y-115149000D01*
X120181000Y-115149000D02*
X118580000Y-116750000D01*
%TO.N,Net-(Z80_BUS1-RD)*%
X140500000Y-118300000D02*
X140500000Y-118250000D01*
X140500000Y-118250000D02*
X138750000Y-116500000D01*
X138750000Y-116500000D02*
X128898412Y-116500000D01*
X128898412Y-116500000D02*
X126946412Y-114548000D01*
X126946412Y-114548000D02*
X115702000Y-114548000D01*
X115702000Y-114548000D02*
X113500000Y-116750000D01*
D22*
%TO.N,GND*%
X161000000Y-83750000D02*
X164250000Y-83750000D01*
D21*
%TO.N,Net-(Z80_BUS1-MREQ)*%
X121078000Y-118500000D02*
X111750000Y-118500000D01*
X111750000Y-118500000D02*
X110960000Y-117710000D01*
X110960000Y-117710000D02*
X110960000Y-116750000D01*
D23*
%TO.N,GND*%
X132700000Y-113750000D02*
X136500000Y-113750000D01*
X136500000Y-113750000D02*
X138000000Y-112250000D01*
X175500000Y-127500000D02*
X173024206Y-127500000D01*
X173024206Y-127500000D02*
X173012103Y-127512103D01*
D21*
%TO.N,/D7*%
X166540000Y-130000000D02*
X168040000Y-128500000D01*
X168040000Y-128500000D02*
X176250000Y-128500000D01*
X176250000Y-128500000D02*
X176671000Y-128079000D01*
X176671000Y-108954000D02*
X178000000Y-107625000D01*
X176671000Y-128079000D02*
X176671000Y-108954000D01*
X178000000Y-107625000D02*
X178000000Y-104020000D01*
X178000000Y-104020000D02*
X178010000Y-104010000D01*
%TO.N,MEMWR*%
X146329000Y-100000000D02*
X146329000Y-100250000D01*
X146079000Y-100000000D02*
X146329000Y-100250000D01*
X146000000Y-100000000D02*
X146329000Y-100000000D01*
X146329000Y-87461000D02*
X146329000Y-99750000D01*
X146000000Y-100000000D02*
X146079000Y-100000000D01*
X146079000Y-100000000D02*
X146329000Y-99750000D01*
%TO.N,/A7*%
X155150000Y-101500000D02*
X155150000Y-101900000D01*
X155150000Y-101900000D02*
X156351000Y-103101000D01*
X156351000Y-103101000D02*
X156351000Y-107649000D01*
X156351000Y-107649000D02*
X155150000Y-108850000D01*
X155150000Y-108850000D02*
X155150000Y-119250000D01*
%TO.N,/D2*%
X170390000Y-101500000D02*
X170390000Y-101890000D01*
X170390000Y-101890000D02*
X171729000Y-103229000D01*
X171729000Y-107521000D02*
X170390000Y-108860000D01*
X171729000Y-103229000D02*
X171729000Y-107521000D01*
X170390000Y-108860000D02*
X170390000Y-119250000D01*
%TO.N,/A0*%
X167850000Y-117050000D02*
X167850000Y-108900000D01*
X167850000Y-108900000D02*
X169189000Y-107561000D01*
X169189000Y-107561000D02*
X169189000Y-103512529D01*
X169189000Y-103512529D02*
X167850000Y-102173529D01*
X167850000Y-102173529D02*
X167850000Y-101500000D01*
%TO.N,/A1*%
X165310000Y-101500000D02*
X165310000Y-102311529D01*
X165310000Y-102311529D02*
X166511000Y-103512529D01*
X165250000Y-108850014D02*
X165250000Y-116250000D01*
X166511000Y-103512529D02*
X166511000Y-107589014D01*
X166511000Y-107589014D02*
X165250000Y-108850014D01*
X165250000Y-119190000D02*
X165310000Y-119250000D01*
%TO.N,/D1*%
X165945348Y-125495000D02*
X166546348Y-124894000D01*
X155091058Y-127899000D02*
X156781116Y-127899000D01*
X164255290Y-125495000D02*
X165945348Y-125495000D01*
X163654290Y-126096000D02*
X164255290Y-125495000D01*
X159673174Y-126697000D02*
X161363232Y-126697000D01*
X159072174Y-127298000D02*
X159673174Y-126697000D01*
X157382116Y-127298000D02*
X159072174Y-127298000D01*
X151300000Y-130000000D02*
X152800000Y-128500000D01*
X156781116Y-127899000D02*
X157382116Y-127298000D01*
X169051000Y-108949000D02*
X170250000Y-107750000D01*
X154490058Y-128500000D02*
X155091058Y-127899000D01*
X167606000Y-124894000D02*
X169051000Y-123449000D01*
X152800000Y-128500000D02*
X154490058Y-128500000D01*
X166546348Y-124894000D02*
X167606000Y-124894000D01*
X169051000Y-123449000D02*
X169051000Y-108949000D01*
X161964232Y-126096000D02*
X163654290Y-126096000D01*
X170250000Y-107750000D02*
X170250000Y-104150000D01*
X161363232Y-126697000D02*
X161964232Y-126096000D01*
X170250000Y-104150000D02*
X170390000Y-104010000D01*
%TO.N,/D4*%
X172930000Y-101500000D02*
X172930000Y-101930000D01*
X172930000Y-101930000D02*
X174250000Y-103250000D01*
X174250000Y-103250000D02*
X174250000Y-107750000D01*
X174250000Y-107750000D02*
X172930000Y-109070000D01*
X172930000Y-109070000D02*
X172930000Y-119250000D01*
%TO.N,/D6*%
X175470000Y-101500000D02*
X175470000Y-101970000D01*
X175470000Y-101970000D02*
X176671000Y-103171000D01*
X176671000Y-103171000D02*
X176671000Y-107579000D01*
X176671000Y-107579000D02*
X175470000Y-108780000D01*
X175470000Y-108780000D02*
X175470000Y-119250000D01*
%TO.N,/D5*%
X175470000Y-86260000D02*
X174269000Y-87461000D01*
X174269000Y-87461000D02*
X174269000Y-102019000D01*
X174269000Y-102019000D02*
X175470000Y-103220000D01*
X175470000Y-103220000D02*
X175470000Y-104010000D01*
%TO.N,/D1*%
X170390000Y-104010000D02*
X170390000Y-103198471D01*
X170390000Y-103198471D02*
X169189000Y-101997471D01*
X169189000Y-101997471D02*
X169189000Y-87461000D01*
X169189000Y-87461000D02*
X170390000Y-86260000D01*
%TO.N,/A11*%
X150070000Y-101500000D02*
X150070000Y-102065764D01*
X150070000Y-108930000D02*
X150070000Y-119250000D01*
X150070000Y-102065764D02*
X151409000Y-103404764D01*
X151409000Y-103404764D02*
X151409000Y-107591000D01*
X151409000Y-107591000D02*
X150070000Y-108930000D01*
%TO.N,/A13*%
X147530000Y-101500000D02*
X147530000Y-102030000D01*
X147530000Y-102030000D02*
X148731000Y-103231000D01*
X148731000Y-103231000D02*
X148731000Y-107519000D01*
X148731000Y-107519000D02*
X147530000Y-108720000D01*
X147530000Y-108720000D02*
X147530000Y-119250000D01*
%TO.N,/A5*%
X157690000Y-101500000D02*
X157690000Y-101940000D01*
X157690000Y-101940000D02*
X158891000Y-103141000D01*
X157750000Y-119190000D02*
X157690000Y-119250000D01*
X158891000Y-103141000D02*
X158891000Y-107609000D01*
X158891000Y-107609000D02*
X157750000Y-108750000D01*
X157750000Y-108750000D02*
X157750000Y-119190000D01*
%TO.N,/A4*%
X160230000Y-119250000D02*
X160250000Y-119230000D01*
X160250000Y-119230000D02*
X160250000Y-116250000D01*
X160250000Y-108750000D02*
X161431000Y-107569000D01*
X161431000Y-107569000D02*
X161431000Y-103181000D01*
X161431000Y-103181000D02*
X160230000Y-101980000D01*
X160230000Y-101980000D02*
X160230000Y-101500000D01*
%TO.N,/A0*%
X167850000Y-117050000D02*
X167850000Y-119250000D01*
%TO.N,Net-(Z80_BUS1-MREQ)*%
X121000000Y-118500000D02*
X121120000Y-118380000D01*
X121120000Y-118380000D02*
X121120000Y-116750000D01*
D22*
%TO.N,Net-(U5-Pad10)*%
X121120000Y-109130000D02*
X117250000Y-113000000D01*
X100565000Y-113000000D02*
X96755000Y-116810000D01*
X117250000Y-113000000D02*
X100565000Y-113000000D01*
D21*
%TO.N,/A15*%
X89135000Y-116810000D02*
X89135000Y-117359834D01*
X89135000Y-117359834D02*
X90887166Y-119112000D01*
X90887166Y-119112000D02*
X106170420Y-119112000D01*
X106170420Y-119112000D02*
X111532420Y-113750000D01*
X111532420Y-113750000D02*
X119040000Y-113750000D01*
X119040000Y-113750000D02*
X123660000Y-109130000D01*
D22*
%TO.N,Net-(Z80_BUS1-SPARE1)*%
X85750000Y-116830000D02*
X87421000Y-115159000D01*
X87421000Y-115159000D02*
X89982292Y-115159000D01*
X89982292Y-115159000D02*
X90424000Y-115600708D01*
X90424000Y-115600708D02*
X90424000Y-117728181D01*
X90424000Y-117728181D02*
X91156819Y-118461000D01*
X91156819Y-118461000D02*
X92564000Y-118461000D01*
X92564000Y-118461000D02*
X94215000Y-116810000D01*
D23*
%TO.N,GND*%
X131750000Y-89000000D02*
X131000000Y-88250000D01*
X138250000Y-89000000D02*
X131750000Y-89000000D01*
X131000000Y-88250000D02*
X131000000Y-86500000D01*
%TO.N,+5V*%
X89250000Y-104000000D02*
X88750000Y-104500000D01*
X93500000Y-104000000D02*
X89250000Y-104000000D01*
X88750000Y-104500000D02*
X88750000Y-105940000D01*
D21*
%TO.N,/D0*%
X163405348Y-125495000D02*
X164006348Y-124894000D01*
X161715290Y-125495000D02*
X163405348Y-125495000D01*
X161114290Y-126096000D02*
X161715290Y-125495000D01*
X166511000Y-123739000D02*
X166511000Y-108989000D01*
X159424232Y-126096000D02*
X161114290Y-126096000D01*
X158823232Y-126697000D02*
X159424232Y-126096000D01*
X152551058Y-127899000D02*
X154241116Y-127899000D01*
X154842116Y-127298000D02*
X156532174Y-127298000D01*
X154241116Y-127899000D02*
X154842116Y-127298000D01*
X157133174Y-126697000D02*
X158823232Y-126697000D01*
X156532174Y-127298000D02*
X157133174Y-126697000D01*
X151950058Y-128500000D02*
X152551058Y-127899000D01*
X150260000Y-128500000D02*
X151950058Y-128500000D01*
X148760000Y-130000000D02*
X150260000Y-128500000D01*
X164006348Y-124894000D02*
X165356000Y-124894000D01*
X166511000Y-108989000D02*
X167850000Y-107650000D01*
X165356000Y-124894000D02*
X166511000Y-123739000D01*
X167850000Y-107650000D02*
X167850000Y-104010000D01*
%TO.N,/A14*%
X144990000Y-101500000D02*
X144990000Y-102311529D01*
X144990000Y-102311529D02*
X146191000Y-103512529D01*
X146191000Y-103512529D02*
X146191000Y-107559000D01*
X146191000Y-107559000D02*
X144990000Y-108760000D01*
X144990000Y-108760000D02*
X144990000Y-119250000D01*
%TO.N,MEMWR*%
X146329000Y-99750000D02*
X146329000Y-100000000D01*
%TO.N,/A2*%
X162770000Y-101500000D02*
X163971000Y-102701000D01*
X163971000Y-102701000D02*
X163971000Y-107779000D01*
X163971000Y-107779000D02*
X162770000Y-108980000D01*
X162770000Y-108980000D02*
X162770000Y-119250000D01*
%TO.N,/D2*%
X168404000Y-125495000D02*
X170390000Y-123509000D01*
X166194290Y-126096000D02*
X166795290Y-125495000D01*
X164504232Y-126096000D02*
X166194290Y-126096000D01*
X162213174Y-126697000D02*
X163903232Y-126697000D01*
X163903232Y-126697000D02*
X164504232Y-126096000D01*
X159922116Y-127298000D02*
X161612174Y-127298000D01*
X157631058Y-127899000D02*
X159321116Y-127899000D01*
X159321116Y-127899000D02*
X159922116Y-127298000D01*
X161612174Y-127298000D02*
X162213174Y-126697000D01*
X157030058Y-128500000D02*
X157631058Y-127899000D01*
X166795290Y-125495000D02*
X168404000Y-125495000D01*
X155340000Y-128500000D02*
X157030058Y-128500000D01*
X153840000Y-130000000D02*
X155340000Y-128500000D01*
X170390000Y-123509000D02*
X170390000Y-119250000D01*
%TO.N,MEMWR*%
X147530000Y-86260000D02*
X146329000Y-87461000D01*
X146329000Y-100250000D02*
X146329000Y-102079000D01*
X146329000Y-102079000D02*
X147530000Y-103280000D01*
X147530000Y-103280000D02*
X147530000Y-104010000D01*
%TO.N,/A12*%
X150070000Y-86260000D02*
X148869000Y-87461000D01*
X148869000Y-87461000D02*
X148869000Y-102119000D01*
X148869000Y-102119000D02*
X150070000Y-103320000D01*
X150070000Y-103320000D02*
X150070000Y-104010000D01*
%TO.N,/A10*%
X152610000Y-86260000D02*
X151409000Y-87461000D01*
X151409000Y-87461000D02*
X151409000Y-102159000D01*
X151409000Y-102159000D02*
X152610000Y-103360000D01*
X152610000Y-103360000D02*
X152610000Y-104010000D01*
%TO.N,/A6*%
X157690000Y-86260000D02*
X156489000Y-87461000D01*
X156489000Y-87461000D02*
X156489000Y-101997471D01*
X156489000Y-101997471D02*
X157192529Y-102701000D01*
X157192529Y-102701000D02*
X157201000Y-102701000D01*
X157201000Y-102701000D02*
X157690000Y-103190000D01*
X157690000Y-103190000D02*
X157690000Y-104010000D01*
%TO.N,MEMRD*%
X160230000Y-86260000D02*
X159029000Y-87461000D01*
X159029000Y-87461000D02*
X159029000Y-102029000D01*
X159029000Y-102029000D02*
X160230000Y-103230000D01*
X160230000Y-103230000D02*
X160230000Y-104010000D01*
%TO.N,/A3*%
X162770000Y-86260000D02*
X161569000Y-87461000D01*
X161569000Y-87461000D02*
X161569000Y-102069000D01*
X161569000Y-102069000D02*
X162770000Y-103270000D01*
X162770000Y-103270000D02*
X162770000Y-104010000D01*
%TO.N,/D0*%
X167850000Y-104010000D02*
X167850000Y-103350000D01*
X167850000Y-103350000D02*
X166649000Y-102149000D01*
X166649000Y-102149000D02*
X166649000Y-87461000D01*
X166649000Y-87461000D02*
X167850000Y-86260000D01*
%TO.N,/D3*%
X172930000Y-104010000D02*
X172930000Y-103180000D01*
X172930000Y-103180000D02*
X172451000Y-102701000D01*
X172451000Y-102701000D02*
X172432529Y-102701000D01*
X172432529Y-102701000D02*
X171729000Y-101997471D01*
X171729000Y-87461000D02*
X172930000Y-86260000D01*
X171729000Y-101997471D02*
X171729000Y-87461000D01*
%TO.N,/D7*%
X178010000Y-104010000D02*
X178010000Y-103260000D01*
X176809000Y-102059000D02*
X176809000Y-87461000D01*
X178010000Y-103260000D02*
X176809000Y-102059000D01*
X176809000Y-87461000D02*
X178010000Y-86260000D01*
D22*
%TO.N,Net-(U3-~{CE})*%
X132000000Y-82439800D02*
X118796019Y-82439800D01*
X118796019Y-82439800D02*
X92926000Y-108309819D01*
X92926000Y-108309819D02*
X92926000Y-112324000D01*
X92926000Y-112324000D02*
X91675000Y-113575000D01*
X91675000Y-113575000D02*
X91675000Y-116810000D01*
D23*
%TO.N,GND*%
X129750000Y-86500000D02*
X131000000Y-86500000D01*
X127000000Y-83750000D02*
X129750000Y-86500000D01*
%TD*%
%TA.AperFunction,Conductor*%
%TO.N,GND*%
G36*
X149577941Y-128120185D02*
G01*
X149623696Y-128172989D01*
X149633640Y-128242147D01*
X149604615Y-128305703D01*
X149598583Y-128312181D01*
X149164532Y-128746231D01*
X149103209Y-128779716D01*
X149057453Y-128781023D01*
X148858422Y-128749500D01*
X148858417Y-128749500D01*
X148661583Y-128749500D01*
X148661578Y-128749500D01*
X148467173Y-128780290D01*
X148279970Y-128841117D01*
X148104594Y-128930476D01*
X148018529Y-128993007D01*
X147945354Y-129046172D01*
X147945352Y-129046174D01*
X147945351Y-129046174D01*
X147806174Y-129185351D01*
X147806174Y-129185352D01*
X147806172Y-129185354D01*
X147798136Y-129196415D01*
X147690476Y-129344594D01*
X147600485Y-129521213D01*
X147552511Y-129572009D01*
X147484690Y-129588804D01*
X147418555Y-129566267D01*
X147379515Y-129521213D01*
X147352397Y-129467992D01*
X147289524Y-129344595D01*
X147173828Y-129185354D01*
X147034646Y-129046172D01*
X146875405Y-128930476D01*
X146857035Y-128921116D01*
X146700029Y-128841117D01*
X146512826Y-128780290D01*
X146318422Y-128749500D01*
X146318417Y-128749500D01*
X146121583Y-128749500D01*
X146121578Y-128749500D01*
X145927173Y-128780290D01*
X145739970Y-128841117D01*
X145564594Y-128930476D01*
X145478529Y-128993007D01*
X145405354Y-129046172D01*
X145405352Y-129046174D01*
X145405351Y-129046174D01*
X145266174Y-129185351D01*
X145266174Y-129185352D01*
X145266172Y-129185354D01*
X145258136Y-129196415D01*
X145150476Y-129344594D01*
X145060485Y-129521213D01*
X145012511Y-129572009D01*
X144944690Y-129588804D01*
X144878555Y-129566267D01*
X144839515Y-129521213D01*
X144812397Y-129467992D01*
X144749524Y-129344595D01*
X144633828Y-129185354D01*
X144494646Y-129046172D01*
X144335405Y-128930476D01*
X144317035Y-128921116D01*
X144160029Y-128841117D01*
X143972826Y-128780290D01*
X143778422Y-128749500D01*
X143778417Y-128749500D01*
X143581583Y-128749500D01*
X143581578Y-128749500D01*
X143387173Y-128780290D01*
X143199970Y-128841117D01*
X143024594Y-128930476D01*
X142938529Y-128993007D01*
X142865354Y-129046172D01*
X142865352Y-129046174D01*
X142865351Y-129046174D01*
X142726174Y-129185351D01*
X142726174Y-129185352D01*
X142726172Y-129185354D01*
X142718136Y-129196415D01*
X142610476Y-129344594D01*
X142520485Y-129521213D01*
X142472511Y-129572009D01*
X142404690Y-129588804D01*
X142338555Y-129566267D01*
X142299515Y-129521213D01*
X142272397Y-129467992D01*
X142209524Y-129344595D01*
X142093828Y-129185354D01*
X141954646Y-129046172D01*
X141795405Y-128930476D01*
X141777035Y-128921116D01*
X141620029Y-128841117D01*
X141432826Y-128780290D01*
X141238422Y-128749500D01*
X141238417Y-128749500D01*
X141041583Y-128749500D01*
X141041578Y-128749500D01*
X140847173Y-128780290D01*
X140659970Y-128841117D01*
X140484594Y-128930476D01*
X140398529Y-128993007D01*
X140325354Y-129046172D01*
X140325352Y-129046174D01*
X140325351Y-129046174D01*
X140186174Y-129185351D01*
X140186174Y-129185352D01*
X140186172Y-129185354D01*
X140178136Y-129196415D01*
X140070476Y-129344594D01*
X139980485Y-129521213D01*
X139932511Y-129572009D01*
X139864690Y-129588804D01*
X139798555Y-129566267D01*
X139759515Y-129521213D01*
X139732397Y-129467992D01*
X139669524Y-129344595D01*
X139553828Y-129185354D01*
X139414646Y-129046172D01*
X139255405Y-128930476D01*
X139237035Y-128921116D01*
X139080029Y-128841117D01*
X138892826Y-128780290D01*
X138698422Y-128749500D01*
X138698417Y-128749500D01*
X138501583Y-128749500D01*
X138501578Y-128749500D01*
X138307173Y-128780290D01*
X138119970Y-128841117D01*
X137944594Y-128930476D01*
X137858529Y-128993007D01*
X137785354Y-129046172D01*
X137785352Y-129046174D01*
X137785351Y-129046174D01*
X137646174Y-129185351D01*
X137646174Y-129185352D01*
X137646172Y-129185354D01*
X137638136Y-129196415D01*
X137530476Y-129344594D01*
X137440485Y-129521213D01*
X137392511Y-129572009D01*
X137324690Y-129588804D01*
X137258555Y-129566267D01*
X137219515Y-129521213D01*
X137192397Y-129467992D01*
X137129524Y-129344595D01*
X137013828Y-129185354D01*
X136874646Y-129046172D01*
X136715405Y-128930476D01*
X136697035Y-128921116D01*
X136540029Y-128841117D01*
X136352826Y-128780290D01*
X136158422Y-128749500D01*
X136158417Y-128749500D01*
X135961583Y-128749500D01*
X135961578Y-128749500D01*
X135767173Y-128780290D01*
X135579970Y-128841117D01*
X135404594Y-128930476D01*
X135318529Y-128993007D01*
X135245354Y-129046172D01*
X135245352Y-129046174D01*
X135245351Y-129046174D01*
X135106174Y-129185351D01*
X135106174Y-129185352D01*
X135106172Y-129185354D01*
X135098136Y-129196415D01*
X134990476Y-129344594D01*
X134900485Y-129521213D01*
X134852511Y-129572009D01*
X134784690Y-129588804D01*
X134718555Y-129566267D01*
X134679515Y-129521213D01*
X134652397Y-129467992D01*
X134589524Y-129344595D01*
X134473828Y-129185354D01*
X134334646Y-129046172D01*
X134175405Y-128930476D01*
X134157035Y-128921116D01*
X134000029Y-128841117D01*
X133812826Y-128780290D01*
X133618422Y-128749500D01*
X133618417Y-128749500D01*
X133421583Y-128749500D01*
X133421578Y-128749500D01*
X133227173Y-128780290D01*
X133039970Y-128841117D01*
X132864594Y-128930476D01*
X132778529Y-128993007D01*
X132705354Y-129046172D01*
X132705352Y-129046174D01*
X132705351Y-129046174D01*
X132566174Y-129185351D01*
X132566174Y-129185352D01*
X132566172Y-129185354D01*
X132558136Y-129196415D01*
X132450476Y-129344594D01*
X132360485Y-129521213D01*
X132312511Y-129572009D01*
X132244690Y-129588804D01*
X132178555Y-129566267D01*
X132139515Y-129521213D01*
X132112397Y-129467992D01*
X132049524Y-129344595D01*
X131933828Y-129185354D01*
X131794646Y-129046172D01*
X131635405Y-128930476D01*
X131617035Y-128921116D01*
X131460029Y-128841117D01*
X131272826Y-128780290D01*
X131078422Y-128749500D01*
X131078417Y-128749500D01*
X130881583Y-128749500D01*
X130881578Y-128749500D01*
X130687173Y-128780290D01*
X130499970Y-128841117D01*
X130324594Y-128930476D01*
X130238529Y-128993007D01*
X130165354Y-129046172D01*
X130165352Y-129046174D01*
X130165351Y-129046174D01*
X130026174Y-129185351D01*
X130026174Y-129185352D01*
X130026172Y-129185354D01*
X130018136Y-129196415D01*
X129910476Y-129344594D01*
X129820485Y-129521213D01*
X129772511Y-129572009D01*
X129704690Y-129588804D01*
X129638555Y-129566267D01*
X129599515Y-129521213D01*
X129572397Y-129467992D01*
X129509524Y-129344595D01*
X129393828Y-129185354D01*
X129254646Y-129046172D01*
X129095405Y-128930476D01*
X129077035Y-128921116D01*
X128920029Y-128841117D01*
X128732826Y-128780290D01*
X128538422Y-128749500D01*
X128538417Y-128749500D01*
X128341583Y-128749500D01*
X128341578Y-128749500D01*
X128147173Y-128780290D01*
X127959970Y-128841117D01*
X127784594Y-128930476D01*
X127698529Y-128993007D01*
X127625354Y-129046172D01*
X127625352Y-129046174D01*
X127625351Y-129046174D01*
X127486174Y-129185351D01*
X127486174Y-129185352D01*
X127486172Y-129185354D01*
X127478136Y-129196415D01*
X127370476Y-129344594D01*
X127280485Y-129521213D01*
X127232511Y-129572009D01*
X127164690Y-129588804D01*
X127098555Y-129566267D01*
X127059515Y-129521213D01*
X127032397Y-129467992D01*
X126969524Y-129344595D01*
X126853828Y-129185354D01*
X126714646Y-129046172D01*
X126555405Y-128930476D01*
X126537035Y-128921116D01*
X126380029Y-128841117D01*
X126192826Y-128780290D01*
X125998422Y-128749500D01*
X125998417Y-128749500D01*
X125801583Y-128749500D01*
X125801578Y-128749500D01*
X125607173Y-128780290D01*
X125419970Y-128841117D01*
X125244594Y-128930476D01*
X125158529Y-128993007D01*
X125085354Y-129046172D01*
X125085352Y-129046174D01*
X125085351Y-129046174D01*
X124946174Y-129185351D01*
X124946174Y-129185352D01*
X124946172Y-129185354D01*
X124904909Y-129242147D01*
X124830474Y-129344597D01*
X124796319Y-129411630D01*
X124748345Y-129462425D01*
X124680524Y-129479220D01*
X124614389Y-129456682D01*
X124575350Y-129411629D01*
X124514624Y-129292449D01*
X124475270Y-129238282D01*
X124475269Y-129238282D01*
X123842962Y-129870589D01*
X123825925Y-129807007D01*
X123760099Y-129692993D01*
X123667007Y-129599901D01*
X123552993Y-129534075D01*
X123489409Y-129517037D01*
X124121716Y-128884728D01*
X124067550Y-128845375D01*
X123878217Y-128748904D01*
X123676129Y-128683242D01*
X123466246Y-128650000D01*
X123253754Y-128650000D01*
X123043872Y-128683242D01*
X123043869Y-128683242D01*
X122841782Y-128748904D01*
X122652439Y-128845380D01*
X122598282Y-128884727D01*
X122598282Y-128884728D01*
X123230591Y-129517037D01*
X123167007Y-129534075D01*
X123052993Y-129599901D01*
X122959901Y-129692993D01*
X122894075Y-129807007D01*
X122877037Y-129870591D01*
X122244728Y-129238282D01*
X122244727Y-129238282D01*
X122205380Y-129292440D01*
X122205378Y-129292443D01*
X122144648Y-129411630D01*
X122096673Y-129462426D01*
X122028852Y-129479220D01*
X121962717Y-129456682D01*
X121923679Y-129411628D01*
X121889525Y-129344596D01*
X121855224Y-129297386D01*
X121773828Y-129185354D01*
X121634646Y-129046172D01*
X121475405Y-128930476D01*
X121457035Y-128921116D01*
X121300029Y-128841117D01*
X121112826Y-128780290D01*
X120918422Y-128749500D01*
X120918417Y-128749500D01*
X120721583Y-128749500D01*
X120721578Y-128749500D01*
X120527173Y-128780290D01*
X120339970Y-128841117D01*
X120164594Y-128930476D01*
X120078529Y-128993007D01*
X120005354Y-129046172D01*
X120005352Y-129046174D01*
X120005351Y-129046174D01*
X119866174Y-129185351D01*
X119866174Y-129185352D01*
X119866172Y-129185354D01*
X119858136Y-129196415D01*
X119750476Y-129344594D01*
X119660485Y-129521213D01*
X119612511Y-129572009D01*
X119544690Y-129588804D01*
X119478555Y-129566267D01*
X119439515Y-129521213D01*
X119412397Y-129467992D01*
X119349524Y-129344595D01*
X119233828Y-129185354D01*
X119094646Y-129046172D01*
X118935405Y-128930476D01*
X118917035Y-128921116D01*
X118760029Y-128841117D01*
X118572826Y-128780290D01*
X118378422Y-128749500D01*
X118378417Y-128749500D01*
X118181583Y-128749500D01*
X118181578Y-128749500D01*
X117987173Y-128780290D01*
X117799970Y-128841117D01*
X117624594Y-128930476D01*
X117538529Y-128993007D01*
X117465354Y-129046172D01*
X117465352Y-129046174D01*
X117465351Y-129046174D01*
X117326174Y-129185351D01*
X117326174Y-129185352D01*
X117326172Y-129185354D01*
X117318136Y-129196415D01*
X117210476Y-129344594D01*
X117120485Y-129521213D01*
X117072511Y-129572009D01*
X117004690Y-129588804D01*
X116938555Y-129566267D01*
X116899515Y-129521213D01*
X116872397Y-129467992D01*
X116809524Y-129344595D01*
X116693828Y-129185354D01*
X116554646Y-129046172D01*
X116481471Y-128993007D01*
X116391614Y-128927721D01*
X116388273Y-128923388D01*
X116383297Y-128921116D01*
X116367164Y-128896013D01*
X116348949Y-128872390D01*
X116347696Y-128865719D01*
X116345523Y-128862338D01*
X116340500Y-128827403D01*
X116340500Y-128610039D01*
X116360185Y-128543000D01*
X116376819Y-128522358D01*
X116762358Y-128136819D01*
X116823681Y-128103334D01*
X116850039Y-128100500D01*
X149510902Y-128100500D01*
X149577941Y-128120185D01*
G37*
%TD.AperFunction*%
%TA.AperFunction,Conductor*%
G36*
X174922502Y-82140417D02*
G01*
X175322259Y-82157871D01*
X175332995Y-82158811D01*
X175727020Y-82210685D01*
X175737658Y-82212560D01*
X176125667Y-82298580D01*
X176136107Y-82301378D01*
X176515120Y-82420880D01*
X176525281Y-82424578D01*
X176892449Y-82576665D01*
X176902241Y-82581231D01*
X177254742Y-82764731D01*
X177264109Y-82770138D01*
X177446510Y-82886341D01*
X177599288Y-82983671D01*
X177608149Y-82989876D01*
X177923432Y-83231801D01*
X177931719Y-83238755D01*
X178224714Y-83507236D01*
X178232363Y-83514885D01*
X178500844Y-83807880D01*
X178507798Y-83816167D01*
X178749723Y-84131450D01*
X178755928Y-84140311D01*
X178969460Y-84475489D01*
X178974868Y-84484857D01*
X179158365Y-84837352D01*
X179162937Y-84847156D01*
X179315020Y-85214316D01*
X179318720Y-85224482D01*
X179438220Y-85603488D01*
X179441020Y-85613936D01*
X179527037Y-86001933D01*
X179528915Y-86012587D01*
X179580786Y-86406585D01*
X179581729Y-86417361D01*
X179599182Y-86817097D01*
X179599277Y-86820129D01*
X179599300Y-86821328D01*
X179599300Y-86885692D01*
X179600628Y-86890651D01*
X179600877Y-86903594D01*
X179600769Y-86903986D01*
X179600900Y-86905971D01*
X179600900Y-128645887D01*
X179581215Y-128712926D01*
X179528411Y-128758681D01*
X179459253Y-128768625D01*
X179457502Y-128768360D01*
X179338422Y-128749500D01*
X179338417Y-128749500D01*
X179141583Y-128749500D01*
X179141578Y-128749500D01*
X178947173Y-128780290D01*
X178759970Y-128841117D01*
X178584594Y-128930476D01*
X178498529Y-128993007D01*
X178425354Y-129046172D01*
X178425352Y-129046174D01*
X178425351Y-129046174D01*
X178286174Y-129185351D01*
X178286174Y-129185352D01*
X178286172Y-129185354D01*
X178278136Y-129196415D01*
X178170476Y-129344594D01*
X178080485Y-129521213D01*
X178032511Y-129572009D01*
X177964690Y-129588804D01*
X177898555Y-129566267D01*
X177859515Y-129521213D01*
X177832397Y-129467992D01*
X177769524Y-129344595D01*
X177653828Y-129185354D01*
X177514646Y-129046172D01*
X177355405Y-128930476D01*
X177180025Y-128841116D01*
X177054028Y-128800177D01*
X177051759Y-128798625D01*
X177049014Y-128798429D01*
X177023092Y-128779024D01*
X176996354Y-128760741D01*
X176995282Y-128758204D01*
X176993081Y-128756557D01*
X176981768Y-128726226D01*
X176969156Y-128696382D01*
X176969625Y-128693670D01*
X176968664Y-128691093D01*
X176975548Y-128659446D01*
X176981071Y-128627536D01*
X176983109Y-128624687D01*
X176983516Y-128622820D01*
X177004664Y-128594569D01*
X177039713Y-128559521D01*
X177039716Y-128559520D01*
X177151520Y-128447716D01*
X177201639Y-128360904D01*
X177230577Y-128310785D01*
X177271501Y-128158057D01*
X177271501Y-127999943D01*
X177271501Y-127992348D01*
X177271500Y-127992330D01*
X177271500Y-120535089D01*
X177291185Y-120468050D01*
X177343989Y-120422295D01*
X177413147Y-120412351D01*
X177451795Y-120424605D01*
X177510963Y-120454753D01*
X177705582Y-120517990D01*
X177907683Y-120550000D01*
X178112317Y-120550000D01*
X178314417Y-120517990D01*
X178509031Y-120454755D01*
X178691349Y-120361859D01*
X178735921Y-120329474D01*
X178056447Y-119650000D01*
X178062661Y-119650000D01*
X178164394Y-119622741D01*
X178255606Y-119570080D01*
X178330080Y-119495606D01*
X178382741Y-119404394D01*
X178410000Y-119302661D01*
X178410000Y-119296447D01*
X179089474Y-119975921D01*
X179121859Y-119931349D01*
X179214755Y-119749031D01*
X179277990Y-119554417D01*
X179310000Y-119352317D01*
X179310000Y-119147682D01*
X179277990Y-118945582D01*
X179214755Y-118750968D01*
X179121859Y-118568650D01*
X179089474Y-118524077D01*
X179089474Y-118524076D01*
X178410000Y-119203551D01*
X178410000Y-119197339D01*
X178382741Y-119095606D01*
X178330080Y-119004394D01*
X178255606Y-118929920D01*
X178164394Y-118877259D01*
X178062661Y-118850000D01*
X178056446Y-118850000D01*
X178735922Y-118170524D01*
X178735921Y-118170523D01*
X178691359Y-118138147D01*
X178691350Y-118138141D01*
X178509031Y-118045244D01*
X178314417Y-117982009D01*
X178112317Y-117950000D01*
X177907683Y-117950000D01*
X177705582Y-117982009D01*
X177510965Y-118045245D01*
X177451794Y-118075395D01*
X177383125Y-118088291D01*
X177318385Y-118062014D01*
X177278128Y-118004907D01*
X177271500Y-117964910D01*
X177271500Y-109254096D01*
X177291185Y-109187057D01*
X177307814Y-109166419D01*
X178358506Y-108115727D01*
X178358511Y-108115724D01*
X178368714Y-108105520D01*
X178368716Y-108105520D01*
X178480520Y-107993716D01*
X178545143Y-107881785D01*
X178559577Y-107856785D01*
X178600501Y-107704057D01*
X178600501Y-107545943D01*
X178600501Y-107538348D01*
X178600500Y-107538330D01*
X178600500Y-105128057D01*
X178620185Y-105061018D01*
X178651615Y-105027739D01*
X178691490Y-104998768D01*
X178792073Y-104925690D01*
X178925690Y-104792073D01*
X179036760Y-104639199D01*
X179122547Y-104470832D01*
X179180940Y-104291118D01*
X179185448Y-104262658D01*
X179210500Y-104104486D01*
X179210500Y-103915513D01*
X179180940Y-103728881D01*
X179153846Y-103645497D01*
X179122547Y-103549168D01*
X179122545Y-103549165D01*
X179122545Y-103549163D01*
X179036759Y-103380800D01*
X178925690Y-103227927D01*
X178792073Y-103094310D01*
X178639199Y-102983240D01*
X178535929Y-102930621D01*
X178528041Y-102924232D01*
X178521726Y-102922146D01*
X178500310Y-102901771D01*
X178495842Y-102898152D01*
X178491109Y-102892305D01*
X178490520Y-102891284D01*
X178489275Y-102890039D01*
X178485181Y-102884981D01*
X178474143Y-102858497D01*
X178460398Y-102833324D01*
X178460874Y-102826658D01*
X178458303Y-102820488D01*
X178463335Y-102792243D01*
X178465382Y-102763632D01*
X178469387Y-102758281D01*
X178470560Y-102751702D01*
X178490061Y-102730665D01*
X178507254Y-102707699D01*
X178516945Y-102701664D01*
X178518060Y-102700462D01*
X178519452Y-102700103D01*
X178525270Y-102696481D01*
X178691346Y-102611861D01*
X178691347Y-102611861D01*
X178735921Y-102579474D01*
X178056447Y-101900000D01*
X178062661Y-101900000D01*
X178164394Y-101872741D01*
X178255606Y-101820080D01*
X178330080Y-101745606D01*
X178382741Y-101654394D01*
X178410000Y-101552661D01*
X178410000Y-101546447D01*
X179089474Y-102225921D01*
X179121859Y-102181349D01*
X179214755Y-101999031D01*
X179277990Y-101804417D01*
X179310000Y-101602317D01*
X179310000Y-101397682D01*
X179277990Y-101195582D01*
X179214755Y-101000968D01*
X179121859Y-100818650D01*
X179089474Y-100774077D01*
X179089474Y-100774076D01*
X178410000Y-101453551D01*
X178410000Y-101447339D01*
X178382741Y-101345606D01*
X178330080Y-101254394D01*
X178255606Y-101179920D01*
X178164394Y-101127259D01*
X178062661Y-101100000D01*
X178056446Y-101100000D01*
X178735922Y-100420524D01*
X178735921Y-100420523D01*
X178691359Y-100388147D01*
X178691350Y-100388141D01*
X178509031Y-100295244D01*
X178314417Y-100232009D01*
X178112317Y-100200000D01*
X177907683Y-100200000D01*
X177705581Y-100232010D01*
X177705578Y-100232010D01*
X177571818Y-100275472D01*
X177501977Y-100277467D01*
X177442144Y-100241387D01*
X177411316Y-100178686D01*
X177409500Y-100157541D01*
X177409500Y-87761096D01*
X177429185Y-87694057D01*
X177445815Y-87673419D01*
X177649169Y-87470064D01*
X177710490Y-87436581D01*
X177756246Y-87435274D01*
X177915514Y-87460500D01*
X177915519Y-87460500D01*
X178104486Y-87460500D01*
X178291118Y-87430940D01*
X178321753Y-87420986D01*
X178470832Y-87372547D01*
X178639199Y-87286760D01*
X178792073Y-87175690D01*
X178925690Y-87042073D01*
X179036760Y-86889199D01*
X179122547Y-86720832D01*
X179180940Y-86541118D01*
X179185184Y-86514323D01*
X179210500Y-86354486D01*
X179210500Y-86165513D01*
X179180940Y-85978881D01*
X179145906Y-85871059D01*
X179122547Y-85799168D01*
X179122545Y-85799165D01*
X179122545Y-85799163D01*
X179036759Y-85630800D01*
X178925690Y-85477927D01*
X178792073Y-85344310D01*
X178639199Y-85233240D01*
X178638451Y-85232859D01*
X178470836Y-85147454D01*
X178291118Y-85089059D01*
X178104486Y-85059500D01*
X178104481Y-85059500D01*
X177915519Y-85059500D01*
X177915514Y-85059500D01*
X177728881Y-85089059D01*
X177549163Y-85147454D01*
X177380800Y-85233240D01*
X177376648Y-85236257D01*
X177227927Y-85344310D01*
X177227925Y-85344312D01*
X177227924Y-85344312D01*
X177094312Y-85477924D01*
X177094312Y-85477925D01*
X177094310Y-85477927D01*
X177084001Y-85492116D01*
X176983240Y-85630800D01*
X176897454Y-85799163D01*
X176857931Y-85920803D01*
X176818493Y-85978478D01*
X176754134Y-86005676D01*
X176685288Y-85993761D01*
X176633812Y-85946516D01*
X176622069Y-85920803D01*
X176605906Y-85871059D01*
X176582547Y-85799168D01*
X176582545Y-85799165D01*
X176582545Y-85799163D01*
X176496759Y-85630800D01*
X176385690Y-85477927D01*
X176252073Y-85344310D01*
X176099199Y-85233240D01*
X176098451Y-85232859D01*
X175930836Y-85147454D01*
X175751118Y-85089059D01*
X175564486Y-85059500D01*
X175564481Y-85059500D01*
X175375519Y-85059500D01*
X175375514Y-85059500D01*
X175188881Y-85089059D01*
X175009163Y-85147454D01*
X174840800Y-85233240D01*
X174836648Y-85236257D01*
X174687927Y-85344310D01*
X174687925Y-85344312D01*
X174687924Y-85344312D01*
X174554312Y-85477924D01*
X174554312Y-85477925D01*
X174554310Y-85477927D01*
X174544001Y-85492116D01*
X174443240Y-85630800D01*
X174357454Y-85799163D01*
X174317931Y-85920803D01*
X174278493Y-85978478D01*
X174214134Y-86005676D01*
X174145288Y-85993761D01*
X174093812Y-85946516D01*
X174082069Y-85920803D01*
X174065906Y-85871059D01*
X174042547Y-85799168D01*
X174042545Y-85799165D01*
X174042545Y-85799163D01*
X173956759Y-85630800D01*
X173845690Y-85477927D01*
X173712073Y-85344310D01*
X173559199Y-85233240D01*
X173558451Y-85232859D01*
X173390836Y-85147454D01*
X173211118Y-85089059D01*
X173024486Y-85059500D01*
X173024481Y-85059500D01*
X172835519Y-85059500D01*
X172835514Y-85059500D01*
X172648881Y-85089059D01*
X172469163Y-85147454D01*
X172300800Y-85233240D01*
X172296648Y-85236257D01*
X172147927Y-85344310D01*
X172147925Y-85344312D01*
X172147924Y-85344312D01*
X172014312Y-85477924D01*
X172014312Y-85477925D01*
X172014310Y-85477927D01*
X172004001Y-85492116D01*
X171903240Y-85630800D01*
X171817454Y-85799163D01*
X171777931Y-85920803D01*
X171738493Y-85978478D01*
X171674134Y-86005676D01*
X171605288Y-85993761D01*
X171553812Y-85946516D01*
X171542069Y-85920803D01*
X171525906Y-85871059D01*
X171502547Y-85799168D01*
X171502545Y-85799165D01*
X171502545Y-85799163D01*
X171416759Y-85630800D01*
X171305690Y-85477927D01*
X171172073Y-85344310D01*
X171019199Y-85233240D01*
X171018451Y-85232859D01*
X170850836Y-85147454D01*
X170671118Y-85089059D01*
X170484486Y-85059500D01*
X170484481Y-85059500D01*
X170295519Y-85059500D01*
X170295514Y-85059500D01*
X170108881Y-85089059D01*
X169929163Y-85147454D01*
X169760800Y-85233240D01*
X169756648Y-85236257D01*
X169607927Y-85344310D01*
X169607925Y-85344312D01*
X169607924Y-85344312D01*
X169474312Y-85477924D01*
X169474312Y-85477925D01*
X169474310Y-85477927D01*
X169464001Y-85492116D01*
X169363240Y-85630800D01*
X169277454Y-85799163D01*
X169237931Y-85920803D01*
X169198493Y-85978478D01*
X169134134Y-86005676D01*
X169065288Y-85993761D01*
X169013812Y-85946516D01*
X169002069Y-85920803D01*
X168985906Y-85871059D01*
X168962547Y-85799168D01*
X168962545Y-85799165D01*
X168962545Y-85799163D01*
X168876759Y-85630800D01*
X168765690Y-85477927D01*
X168632073Y-85344310D01*
X168479199Y-85233240D01*
X168478451Y-85232859D01*
X168310836Y-85147454D01*
X168131118Y-85089059D01*
X167944486Y-85059500D01*
X167944481Y-85059500D01*
X167755519Y-85059500D01*
X167755514Y-85059500D01*
X167568881Y-85089059D01*
X167389163Y-85147454D01*
X167220800Y-85233240D01*
X167216648Y-85236257D01*
X167067927Y-85344310D01*
X167067925Y-85344312D01*
X167067924Y-85344312D01*
X166934312Y-85477924D01*
X166934312Y-85477925D01*
X166934310Y-85477927D01*
X166924001Y-85492116D01*
X166823240Y-85630800D01*
X166737454Y-85799163D01*
X166697931Y-85920803D01*
X166658493Y-85978478D01*
X166594134Y-86005676D01*
X166525288Y-85993761D01*
X166473812Y-85946516D01*
X166462069Y-85920803D01*
X166445906Y-85871059D01*
X166422547Y-85799168D01*
X166422545Y-85799165D01*
X166422545Y-85799163D01*
X166336759Y-85630800D01*
X166225690Y-85477927D01*
X166092073Y-85344310D01*
X165939199Y-85233240D01*
X165938451Y-85232859D01*
X165770836Y-85147454D01*
X165591118Y-85089059D01*
X165404486Y-85059500D01*
X165404481Y-85059500D01*
X165215519Y-85059500D01*
X165215514Y-85059500D01*
X165028881Y-85089059D01*
X164849163Y-85147454D01*
X164680800Y-85233240D01*
X164676648Y-85236257D01*
X164527927Y-85344310D01*
X164527925Y-85344312D01*
X164527924Y-85344312D01*
X164394312Y-85477924D01*
X164394312Y-85477925D01*
X164394310Y-85477927D01*
X164384001Y-85492116D01*
X164283240Y-85630800D01*
X164197454Y-85799163D01*
X164157931Y-85920803D01*
X164118493Y-85978478D01*
X164054134Y-86005676D01*
X163985288Y-85993761D01*
X163933812Y-85946516D01*
X163922069Y-85920803D01*
X163905906Y-85871059D01*
X163882547Y-85799168D01*
X163882545Y-85799165D01*
X163882545Y-85799163D01*
X163796759Y-85630800D01*
X163685690Y-85477927D01*
X163552073Y-85344310D01*
X163399199Y-85233240D01*
X163398451Y-85232859D01*
X163230836Y-85147454D01*
X163051118Y-85089059D01*
X162864486Y-85059500D01*
X162864481Y-85059500D01*
X162675519Y-85059500D01*
X162675514Y-85059500D01*
X162488881Y-85089059D01*
X162309163Y-85147454D01*
X162140800Y-85233240D01*
X162136648Y-85236257D01*
X161987927Y-85344310D01*
X161987925Y-85344312D01*
X161987924Y-85344312D01*
X161854312Y-85477924D01*
X161854312Y-85477925D01*
X161854310Y-85477927D01*
X161844001Y-85492116D01*
X161743240Y-85630800D01*
X161657454Y-85799163D01*
X161617931Y-85920803D01*
X161578493Y-85978478D01*
X161514134Y-86005676D01*
X161445288Y-85993761D01*
X161393812Y-85946516D01*
X161382069Y-85920803D01*
X161365906Y-85871059D01*
X161342547Y-85799168D01*
X161342545Y-85799165D01*
X161342545Y-85799163D01*
X161256759Y-85630800D01*
X161145690Y-85477927D01*
X161012073Y-85344310D01*
X160859199Y-85233240D01*
X160858451Y-85232859D01*
X160690836Y-85147454D01*
X160511118Y-85089059D01*
X160324486Y-85059500D01*
X160324481Y-85059500D01*
X160135519Y-85059500D01*
X160135514Y-85059500D01*
X159948881Y-85089059D01*
X159769163Y-85147454D01*
X159600800Y-85233240D01*
X159596648Y-85236257D01*
X159447927Y-85344310D01*
X159447925Y-85344312D01*
X159447924Y-85344312D01*
X159314312Y-85477924D01*
X159314312Y-85477925D01*
X159314310Y-85477927D01*
X159304001Y-85492116D01*
X159203240Y-85630800D01*
X159117454Y-85799163D01*
X159077931Y-85920803D01*
X159038493Y-85978478D01*
X158974134Y-86005676D01*
X158905288Y-85993761D01*
X158853812Y-85946516D01*
X158842069Y-85920803D01*
X158825906Y-85871059D01*
X158802547Y-85799168D01*
X158802545Y-85799165D01*
X158802545Y-85799163D01*
X158716759Y-85630800D01*
X158605690Y-85477927D01*
X158472073Y-85344310D01*
X158319199Y-85233240D01*
X158318451Y-85232859D01*
X158150836Y-85147454D01*
X157971118Y-85089059D01*
X157784486Y-85059500D01*
X157784481Y-85059500D01*
X157595519Y-85059500D01*
X157595514Y-85059500D01*
X157408881Y-85089059D01*
X157229163Y-85147454D01*
X157060800Y-85233240D01*
X157056648Y-85236257D01*
X156907927Y-85344310D01*
X156907925Y-85344312D01*
X156907924Y-85344312D01*
X156774312Y-85477924D01*
X156774312Y-85477925D01*
X156774310Y-85477927D01*
X156764001Y-85492116D01*
X156663240Y-85630800D01*
X156577454Y-85799163D01*
X156537931Y-85920803D01*
X156498493Y-85978478D01*
X156434134Y-86005676D01*
X156365288Y-85993761D01*
X156313812Y-85946516D01*
X156302069Y-85920803D01*
X156285906Y-85871059D01*
X156262547Y-85799168D01*
X156262545Y-85799165D01*
X156262545Y-85799163D01*
X156176759Y-85630800D01*
X156065690Y-85477927D01*
X155932073Y-85344310D01*
X155779199Y-85233240D01*
X155778451Y-85232859D01*
X155610836Y-85147454D01*
X155431118Y-85089059D01*
X155244486Y-85059500D01*
X155244481Y-85059500D01*
X155055519Y-85059500D01*
X155055514Y-85059500D01*
X154868881Y-85089059D01*
X154689163Y-85147454D01*
X154520800Y-85233240D01*
X154516648Y-85236257D01*
X154367927Y-85344310D01*
X154367925Y-85344312D01*
X154367924Y-85344312D01*
X154234312Y-85477924D01*
X154234312Y-85477925D01*
X154234310Y-85477927D01*
X154224001Y-85492116D01*
X154123240Y-85630800D01*
X154037454Y-85799163D01*
X153997931Y-85920803D01*
X153958493Y-85978478D01*
X153894134Y-86005676D01*
X153825288Y-85993761D01*
X153773812Y-85946516D01*
X153762069Y-85920803D01*
X153745906Y-85871059D01*
X153722547Y-85799168D01*
X153722545Y-85799165D01*
X153722545Y-85799163D01*
X153636759Y-85630800D01*
X153525690Y-85477927D01*
X153392073Y-85344310D01*
X153239199Y-85233240D01*
X153238451Y-85232859D01*
X153070836Y-85147454D01*
X152891118Y-85089059D01*
X152704486Y-85059500D01*
X152704481Y-85059500D01*
X152515519Y-85059500D01*
X152515514Y-85059500D01*
X152328881Y-85089059D01*
X152149163Y-85147454D01*
X151980800Y-85233240D01*
X151976648Y-85236257D01*
X151827927Y-85344310D01*
X151827925Y-85344312D01*
X151827924Y-85344312D01*
X151694312Y-85477924D01*
X151694312Y-85477925D01*
X151694310Y-85477927D01*
X151684001Y-85492116D01*
X151583240Y-85630800D01*
X151497454Y-85799163D01*
X151457931Y-85920803D01*
X151418493Y-85978478D01*
X151354134Y-86005676D01*
X151285288Y-85993761D01*
X151233812Y-85946516D01*
X151222069Y-85920803D01*
X151205906Y-85871059D01*
X151182547Y-85799168D01*
X151182545Y-85799165D01*
X151182545Y-85799163D01*
X151096759Y-85630800D01*
X150985690Y-85477927D01*
X150852073Y-85344310D01*
X150699199Y-85233240D01*
X150698451Y-85232859D01*
X150530836Y-85147454D01*
X150351118Y-85089059D01*
X150164486Y-85059500D01*
X150164481Y-85059500D01*
X149975519Y-85059500D01*
X149975514Y-85059500D01*
X149788881Y-85089059D01*
X149609163Y-85147454D01*
X149440800Y-85233240D01*
X149436648Y-85236257D01*
X149287927Y-85344310D01*
X149287925Y-85344312D01*
X149287924Y-85344312D01*
X149154312Y-85477924D01*
X149154312Y-85477925D01*
X149154310Y-85477927D01*
X149144001Y-85492116D01*
X149043240Y-85630800D01*
X148957454Y-85799163D01*
X148917931Y-85920803D01*
X148878493Y-85978478D01*
X148814134Y-86005676D01*
X148745288Y-85993761D01*
X148693812Y-85946516D01*
X148682069Y-85920803D01*
X148665906Y-85871059D01*
X148642547Y-85799168D01*
X148642545Y-85799165D01*
X148642545Y-85799163D01*
X148556759Y-85630800D01*
X148445690Y-85477927D01*
X148312073Y-85344310D01*
X148159199Y-85233240D01*
X148158451Y-85232859D01*
X147990836Y-85147454D01*
X147811118Y-85089059D01*
X147624486Y-85059500D01*
X147624481Y-85059500D01*
X147435519Y-85059500D01*
X147435514Y-85059500D01*
X147248881Y-85089059D01*
X147069163Y-85147454D01*
X146900800Y-85233240D01*
X146896648Y-85236257D01*
X146747927Y-85344310D01*
X146747925Y-85344312D01*
X146747924Y-85344312D01*
X146614312Y-85477924D01*
X146614312Y-85477925D01*
X146614310Y-85477927D01*
X146604001Y-85492116D01*
X146503240Y-85630800D01*
X146417454Y-85799163D01*
X146377931Y-85920803D01*
X146338493Y-85978478D01*
X146274134Y-86005676D01*
X146205288Y-85993761D01*
X146153812Y-85946516D01*
X146142069Y-85920803D01*
X146125906Y-85871059D01*
X146102547Y-85799168D01*
X146102545Y-85799165D01*
X146102545Y-85799163D01*
X146016759Y-85630800D01*
X145905690Y-85477927D01*
X145772073Y-85344310D01*
X145619199Y-85233240D01*
X145618451Y-85232859D01*
X145450836Y-85147454D01*
X145271118Y-85089059D01*
X145084486Y-85059500D01*
X145084481Y-85059500D01*
X144895519Y-85059500D01*
X144895514Y-85059500D01*
X144708881Y-85089059D01*
X144529163Y-85147454D01*
X144360800Y-85233240D01*
X144356648Y-85236257D01*
X144207927Y-85344310D01*
X144207925Y-85344312D01*
X144207924Y-85344312D01*
X144074312Y-85477924D01*
X144074312Y-85477925D01*
X144074310Y-85477927D01*
X144064001Y-85492116D01*
X143963240Y-85630800D01*
X143877454Y-85799163D01*
X143819059Y-85978881D01*
X143789500Y-86165513D01*
X143789500Y-86354486D01*
X143819059Y-86541118D01*
X143877454Y-86720836D01*
X143928047Y-86820129D01*
X143963240Y-86889199D01*
X144074310Y-87042073D01*
X144207927Y-87175690D01*
X144360801Y-87286760D01*
X144427263Y-87320624D01*
X144529163Y-87372545D01*
X144529165Y-87372545D01*
X144529168Y-87372547D01*
X144608987Y-87398482D01*
X144708881Y-87430940D01*
X144895514Y-87460500D01*
X144895519Y-87460500D01*
X145084486Y-87460500D01*
X145271118Y-87430940D01*
X145301753Y-87420986D01*
X145450832Y-87372547D01*
X145548206Y-87322932D01*
X145550908Y-87322425D01*
X145552987Y-87320624D01*
X145585040Y-87316015D01*
X145616873Y-87310037D01*
X145619421Y-87311071D01*
X145622145Y-87310680D01*
X145651609Y-87324135D01*
X145681613Y-87336313D01*
X145683197Y-87338560D01*
X145685701Y-87339704D01*
X145703212Y-87366951D01*
X145721871Y-87393419D01*
X145722443Y-87396875D01*
X145723476Y-87398482D01*
X145728497Y-87433410D01*
X145728499Y-87433417D01*
X145728499Y-87540057D01*
X145728499Y-87540059D01*
X145728500Y-87550053D01*
X145728500Y-99275500D01*
X145708815Y-99342539D01*
X145656011Y-99388294D01*
X145604500Y-99399500D01*
X144086670Y-99399500D01*
X144086654Y-99399499D01*
X144079058Y-99399499D01*
X143920943Y-99399499D01*
X143844579Y-99419961D01*
X143768214Y-99440423D01*
X143768209Y-99440426D01*
X143631290Y-99519475D01*
X143631282Y-99519481D01*
X143124217Y-100026546D01*
X143124214Y-100026548D01*
X143124215Y-100026549D01*
X143019478Y-100131286D01*
X142969361Y-100218094D01*
X142969359Y-100218096D01*
X142940425Y-100268209D01*
X142940424Y-100268210D01*
X142940423Y-100268215D01*
X142899499Y-100420943D01*
X142899499Y-100420945D01*
X142899499Y-100589046D01*
X142899500Y-100589059D01*
X142899500Y-115110272D01*
X142879815Y-115177311D01*
X142827011Y-115223066D01*
X142757853Y-115233010D01*
X142702142Y-115208467D01*
X142701607Y-115209270D01*
X142697047Y-115206223D01*
X142696847Y-115206135D01*
X142696547Y-115205889D01*
X142581817Y-115129228D01*
X142581807Y-115129223D01*
X142497501Y-115094302D01*
X142443098Y-115050461D01*
X142421033Y-114984166D01*
X142423337Y-114955549D01*
X142450500Y-114818995D01*
X142450500Y-114681004D01*
X142423581Y-114545677D01*
X142423580Y-114545676D01*
X142423580Y-114545672D01*
X142408183Y-114508500D01*
X142370778Y-114418195D01*
X142370771Y-114418182D01*
X142294114Y-114303458D01*
X142294111Y-114303454D01*
X142196545Y-114205888D01*
X142196541Y-114205885D01*
X142081817Y-114129228D01*
X142081804Y-114129221D01*
X141954332Y-114076421D01*
X141954322Y-114076418D01*
X141818995Y-114049500D01*
X141818993Y-114049500D01*
X141681007Y-114049500D01*
X141681005Y-114049500D01*
X141545677Y-114076418D01*
X141545667Y-114076421D01*
X141418190Y-114129223D01*
X141412819Y-114132095D01*
X141412123Y-114130794D01*
X141352438Y-114149480D01*
X141350230Y-114149500D01*
X132400039Y-114149500D01*
X132333000Y-114129815D01*
X132312358Y-114113181D01*
X130736532Y-112537355D01*
X130736530Y-112537352D01*
X130617659Y-112418481D01*
X130617658Y-112418480D01*
X130530846Y-112368360D01*
X130530846Y-112368359D01*
X130530842Y-112368358D01*
X130480727Y-112339423D01*
X130327999Y-112298499D01*
X130169885Y-112298499D01*
X130162289Y-112298499D01*
X130162273Y-112298500D01*
X123600097Y-112298500D01*
X123578851Y-112292261D01*
X123556763Y-112290682D01*
X123545979Y-112282609D01*
X123533058Y-112278815D01*
X123518558Y-112262081D01*
X123500830Y-112248810D01*
X123496122Y-112236189D01*
X123487303Y-112226011D01*
X123484151Y-112204093D01*
X123476413Y-112183346D01*
X123479275Y-112170185D01*
X123478298Y-112163389D01*
X134399500Y-112163389D01*
X134399500Y-112336611D01*
X134404528Y-112368358D01*
X134424542Y-112494725D01*
X134426598Y-112507701D01*
X134480127Y-112672445D01*
X134558768Y-112826788D01*
X134660586Y-112966928D01*
X134783072Y-113089414D01*
X134923212Y-113191232D01*
X135077555Y-113269873D01*
X135242299Y-113323402D01*
X135413389Y-113350500D01*
X135413390Y-113350500D01*
X135586610Y-113350500D01*
X135586611Y-113350500D01*
X135757701Y-113323402D01*
X135922445Y-113269873D01*
X135945979Y-113257882D01*
X137345669Y-113257882D01*
X137345670Y-113257883D01*
X137371059Y-113276329D01*
X137539362Y-113362085D01*
X137718997Y-113420451D01*
X137905553Y-113450000D01*
X138094447Y-113450000D01*
X138281002Y-113420451D01*
X138460637Y-113362085D01*
X138628937Y-113276331D01*
X138654328Y-113257883D01*
X138654328Y-113257882D01*
X138000001Y-112603554D01*
X138000000Y-112603554D01*
X137345669Y-113257882D01*
X135945979Y-113257882D01*
X136076788Y-113191232D01*
X136216928Y-113089414D01*
X136339414Y-112966928D01*
X136441232Y-112826788D01*
X136519873Y-112672445D01*
X136573402Y-112507701D01*
X136577156Y-112483995D01*
X136607083Y-112420863D01*
X136666393Y-112383930D01*
X136736256Y-112384926D01*
X136794490Y-112423534D01*
X136822102Y-112483993D01*
X136829548Y-112531003D01*
X136887914Y-112710637D01*
X136973666Y-112878933D01*
X136992116Y-112904328D01*
X137646446Y-112250000D01*
X137646446Y-112249999D01*
X137600369Y-112203922D01*
X137650000Y-112203922D01*
X137650000Y-112296078D01*
X137673852Y-112385095D01*
X137719930Y-112464905D01*
X137785095Y-112530070D01*
X137864905Y-112576148D01*
X137953922Y-112600000D01*
X138046078Y-112600000D01*
X138135095Y-112576148D01*
X138214905Y-112530070D01*
X138280070Y-112464905D01*
X138326148Y-112385095D01*
X138350000Y-112296078D01*
X138350000Y-112249999D01*
X138353554Y-112249999D01*
X138353554Y-112250000D01*
X139007882Y-112904328D01*
X139007883Y-112904328D01*
X139026331Y-112878937D01*
X139112085Y-112710637D01*
X139170451Y-112531002D01*
X139200000Y-112344447D01*
X139200000Y-112155552D01*
X139170451Y-111968997D01*
X139112085Y-111789362D01*
X139026329Y-111621059D01*
X139007883Y-111595670D01*
X139007882Y-111595669D01*
X138353554Y-112249999D01*
X138350000Y-112249999D01*
X138350000Y-112203922D01*
X138326148Y-112114905D01*
X138280070Y-112035095D01*
X138214905Y-111969930D01*
X138135095Y-111923852D01*
X138046078Y-111900000D01*
X137953922Y-111900000D01*
X137864905Y-111923852D01*
X137785095Y-111969930D01*
X137719930Y-112035095D01*
X137673852Y-112114905D01*
X137650000Y-112203922D01*
X137600369Y-112203922D01*
X136992116Y-111595669D01*
X136992116Y-111595670D01*
X136973669Y-111621060D01*
X136887914Y-111789362D01*
X136829548Y-111968996D01*
X136822102Y-112016006D01*
X136792171Y-112079140D01*
X136732859Y-112116070D01*
X136662997Y-112115071D01*
X136604765Y-112076461D01*
X136577156Y-112016004D01*
X136573402Y-111992299D01*
X136519873Y-111827555D01*
X136441232Y-111673212D01*
X136339414Y-111533072D01*
X136216928Y-111410586D01*
X136215325Y-111409421D01*
X136188194Y-111389708D01*
X136188171Y-111389693D01*
X136184215Y-111386819D01*
X136076788Y-111308768D01*
X135945975Y-111242116D01*
X137345669Y-111242116D01*
X138000000Y-111896446D01*
X138000001Y-111896446D01*
X138654328Y-111242116D01*
X138628933Y-111223666D01*
X138460637Y-111137914D01*
X138281002Y-111079548D01*
X138094447Y-111050000D01*
X137905553Y-111050000D01*
X137718997Y-111079548D01*
X137539362Y-111137914D01*
X137371060Y-111223669D01*
X137345670Y-111242116D01*
X137345669Y-111242116D01*
X135945975Y-111242116D01*
X135922445Y-111230127D01*
X135757701Y-111176598D01*
X135757699Y-111176597D01*
X135757698Y-111176597D01*
X135626271Y-111155781D01*
X135586611Y-111149500D01*
X135413389Y-111149500D01*
X135373728Y-111155781D01*
X135242302Y-111176597D01*
X135077552Y-111230128D01*
X134923211Y-111308768D01*
X134865774Y-111350499D01*
X134783072Y-111410586D01*
X134783070Y-111410588D01*
X134783069Y-111410588D01*
X134660588Y-111533069D01*
X134660588Y-111533070D01*
X134660586Y-111533072D01*
X134616859Y-111593256D01*
X134558768Y-111673211D01*
X134480128Y-111827552D01*
X134426597Y-111992302D01*
X134403726Y-112136709D01*
X134399500Y-112163389D01*
X123478298Y-112163389D01*
X123477359Y-112156853D01*
X123486558Y-112136709D01*
X123491265Y-112115073D01*
X123504533Y-112097347D01*
X123506384Y-112093297D01*
X123512416Y-112086819D01*
X124212416Y-111386819D01*
X124273739Y-111353334D01*
X124300097Y-111350500D01*
X125829055Y-111350500D01*
X125829057Y-111350500D01*
X125861425Y-111341826D01*
X125884200Y-111335725D01*
X125916292Y-111331500D01*
X126610801Y-111331500D01*
X126610817Y-111331501D01*
X126618413Y-111331501D01*
X126776524Y-111331501D01*
X126776527Y-111331501D01*
X126929255Y-111290577D01*
X126979374Y-111261639D01*
X127066186Y-111211520D01*
X127177990Y-111099716D01*
X127177990Y-111099714D01*
X127188198Y-111089507D01*
X127188199Y-111089504D01*
X128390886Y-109886819D01*
X128452209Y-109853334D01*
X128478567Y-109850500D01*
X137413331Y-109850500D01*
X137413347Y-109850501D01*
X137420943Y-109850501D01*
X137579054Y-109850501D01*
X137579057Y-109850501D01*
X137731785Y-109809577D01*
X137781904Y-109780639D01*
X137868716Y-109730520D01*
X137980520Y-109618716D01*
X137980520Y-109618714D01*
X137990728Y-109608507D01*
X137990730Y-109608504D01*
X141641938Y-105957295D01*
X141698782Y-105926256D01*
X141698506Y-105925346D01*
X141702877Y-105924020D01*
X141703259Y-105923812D01*
X141704234Y-105923608D01*
X141704325Y-105923580D01*
X141704328Y-105923580D01*
X141831811Y-105870775D01*
X141946542Y-105794114D01*
X142044114Y-105696542D01*
X142120775Y-105581811D01*
X142173580Y-105454328D01*
X142191704Y-105363212D01*
X142200500Y-105318995D01*
X142200500Y-105181004D01*
X142173581Y-105045677D01*
X142173580Y-105045676D01*
X142173580Y-105045672D01*
X142121602Y-104920185D01*
X142120778Y-104918195D01*
X142120771Y-104918182D01*
X142044114Y-104803458D01*
X142044111Y-104803454D01*
X141946545Y-104705888D01*
X141946541Y-104705885D01*
X141831817Y-104629228D01*
X141831804Y-104629221D01*
X141704332Y-104576421D01*
X141704322Y-104576418D01*
X141568995Y-104549500D01*
X141568993Y-104549500D01*
X141431007Y-104549500D01*
X141431005Y-104549500D01*
X141295677Y-104576418D01*
X141295667Y-104576421D01*
X141168195Y-104629221D01*
X141168182Y-104629228D01*
X141053458Y-104705885D01*
X141053454Y-104705888D01*
X140955888Y-104803454D01*
X140955885Y-104803458D01*
X140879228Y-104918182D01*
X140879221Y-104918195D01*
X140826420Y-105045669D01*
X140824650Y-105051506D01*
X140823236Y-105051077D01*
X140794248Y-105106488D01*
X140792702Y-105108061D01*
X137287584Y-108613181D01*
X137226261Y-108646666D01*
X137199903Y-108649500D01*
X132999096Y-108649500D01*
X132932057Y-108629815D01*
X132886302Y-108577011D01*
X132876358Y-108507853D01*
X132905383Y-108444297D01*
X132911415Y-108437819D01*
X132997952Y-108351282D01*
X133108506Y-108240727D01*
X133108511Y-108240724D01*
X133118714Y-108230520D01*
X133118716Y-108230520D01*
X133230520Y-108118716D01*
X133270348Y-108049732D01*
X133285368Y-108023717D01*
X133285369Y-108023715D01*
X133309574Y-107981790D01*
X133309575Y-107981789D01*
X133309575Y-107981787D01*
X133309577Y-107981785D01*
X133350501Y-107829057D01*
X133350501Y-107670943D01*
X133350501Y-107663348D01*
X133350500Y-107663330D01*
X133350500Y-106149769D01*
X133368746Y-106087627D01*
X133367906Y-106087178D01*
X133370064Y-106083140D01*
X133370185Y-106082730D01*
X133370721Y-106081910D01*
X133370771Y-106081816D01*
X133370775Y-106081811D01*
X133423580Y-105954328D01*
X133435596Y-105893922D01*
X133450500Y-105818995D01*
X133450500Y-105681004D01*
X133423581Y-105545677D01*
X133423580Y-105545676D01*
X133423580Y-105545672D01*
X133411934Y-105517555D01*
X133370778Y-105418195D01*
X133370771Y-105418182D01*
X133294114Y-105303458D01*
X133294111Y-105303454D01*
X133196545Y-105205888D01*
X133196541Y-105205885D01*
X133081817Y-105129228D01*
X133081804Y-105129221D01*
X132954332Y-105076421D01*
X132954322Y-105076418D01*
X132818995Y-105049500D01*
X132818993Y-105049500D01*
X132681007Y-105049500D01*
X132681005Y-105049500D01*
X132545677Y-105076418D01*
X132545667Y-105076421D01*
X132418195Y-105129221D01*
X132418182Y-105129228D01*
X132303458Y-105205885D01*
X132303454Y-105205888D01*
X132205888Y-105303454D01*
X132205885Y-105303458D01*
X132129228Y-105418182D01*
X132129221Y-105418195D01*
X132076421Y-105545667D01*
X132076418Y-105545677D01*
X132049500Y-105681004D01*
X132049500Y-105681007D01*
X132049500Y-105818993D01*
X132049500Y-105818995D01*
X132049499Y-105818995D01*
X132076418Y-105954322D01*
X132076421Y-105954332D01*
X132129222Y-106081806D01*
X132132094Y-106087178D01*
X132130792Y-106087874D01*
X132149480Y-106147554D01*
X132149500Y-106149769D01*
X132149500Y-107449903D01*
X132129815Y-107516942D01*
X132113181Y-107537584D01*
X131638584Y-108012181D01*
X131577261Y-108045666D01*
X131550903Y-108048500D01*
X128016198Y-108048500D01*
X128016182Y-108048499D01*
X128008586Y-108048499D01*
X127850471Y-108048499D01*
X127774107Y-108068961D01*
X127697742Y-108089423D01*
X127697737Y-108089426D01*
X127560818Y-108168475D01*
X127560814Y-108168478D01*
X127483043Y-108246249D01*
X127421719Y-108279733D01*
X127352028Y-108274749D01*
X127296094Y-108232877D01*
X127284877Y-108214862D01*
X127261243Y-108168478D01*
X127226760Y-108100801D01*
X127115690Y-107947927D01*
X126982073Y-107814310D01*
X126829199Y-107703240D01*
X126799397Y-107688055D01*
X126660836Y-107617454D01*
X126481118Y-107559059D01*
X126294486Y-107529500D01*
X126294481Y-107529500D01*
X126105519Y-107529500D01*
X126105514Y-107529500D01*
X125918881Y-107559059D01*
X125739163Y-107617454D01*
X125570800Y-107703240D01*
X125499359Y-107755146D01*
X125417927Y-107814310D01*
X125417925Y-107814312D01*
X125417924Y-107814312D01*
X125284312Y-107947924D01*
X125284312Y-107947925D01*
X125284310Y-107947927D01*
X125238637Y-108010790D01*
X125173240Y-108100800D01*
X125087454Y-108269163D01*
X125047931Y-108390803D01*
X125008493Y-108448478D01*
X124944134Y-108475676D01*
X124875288Y-108463761D01*
X124823812Y-108416516D01*
X124812069Y-108390803D01*
X124782400Y-108299493D01*
X124772547Y-108269168D01*
X124772545Y-108269165D01*
X124772545Y-108269163D01*
X124721243Y-108168478D01*
X124686760Y-108100801D01*
X124575690Y-107947927D01*
X124442073Y-107814310D01*
X124289199Y-107703240D01*
X124259397Y-107688055D01*
X124120836Y-107617454D01*
X123941118Y-107559059D01*
X123754486Y-107529500D01*
X123754481Y-107529500D01*
X123565519Y-107529500D01*
X123565514Y-107529500D01*
X123378881Y-107559059D01*
X123199163Y-107617454D01*
X123030800Y-107703240D01*
X122959359Y-107755146D01*
X122877927Y-107814310D01*
X122877925Y-107814312D01*
X122877924Y-107814312D01*
X122744312Y-107947924D01*
X122744312Y-107947925D01*
X122744310Y-107947927D01*
X122698637Y-108010790D01*
X122633240Y-108100800D01*
X122547454Y-108269163D01*
X122507931Y-108390803D01*
X122468493Y-108448478D01*
X122404134Y-108475676D01*
X122335288Y-108463761D01*
X122283812Y-108416516D01*
X122272069Y-108390803D01*
X122242400Y-108299493D01*
X122232547Y-108269168D01*
X122232545Y-108269165D01*
X122232545Y-108269163D01*
X122181243Y-108168478D01*
X122146760Y-108100801D01*
X122035690Y-107947927D01*
X121902073Y-107814310D01*
X121749199Y-107703240D01*
X121719397Y-107688055D01*
X121580836Y-107617454D01*
X121401118Y-107559059D01*
X121214486Y-107529500D01*
X121214481Y-107529500D01*
X121025519Y-107529500D01*
X121025514Y-107529500D01*
X120838881Y-107559059D01*
X120659163Y-107617454D01*
X120490800Y-107703240D01*
X120419359Y-107755146D01*
X120337927Y-107814310D01*
X120337925Y-107814312D01*
X120337924Y-107814312D01*
X120204312Y-107947924D01*
X120204312Y-107947925D01*
X120204310Y-107947927D01*
X120158637Y-108010790D01*
X120093240Y-108100800D01*
X120007454Y-108269163D01*
X119967931Y-108390803D01*
X119928493Y-108448478D01*
X119864134Y-108475676D01*
X119795288Y-108463761D01*
X119743812Y-108416516D01*
X119732069Y-108390803D01*
X119702400Y-108299493D01*
X119692547Y-108269168D01*
X119692545Y-108269165D01*
X119692545Y-108269163D01*
X119641243Y-108168478D01*
X119606760Y-108100801D01*
X119495690Y-107947927D01*
X119362073Y-107814310D01*
X119209199Y-107703240D01*
X119179397Y-107688055D01*
X119040836Y-107617454D01*
X118861118Y-107559059D01*
X118674486Y-107529500D01*
X118674481Y-107529500D01*
X118485519Y-107529500D01*
X118485514Y-107529500D01*
X118298881Y-107559059D01*
X118119163Y-107617454D01*
X117950800Y-107703240D01*
X117879359Y-107755146D01*
X117797927Y-107814310D01*
X117797925Y-107814312D01*
X117797924Y-107814312D01*
X117664312Y-107947924D01*
X117664312Y-107947925D01*
X117664310Y-107947927D01*
X117642672Y-107977709D01*
X117553236Y-108100805D01*
X117474955Y-108254440D01*
X117426981Y-108305236D01*
X117359160Y-108322031D01*
X117293025Y-108299493D01*
X117249574Y-108244778D01*
X117246538Y-108236458D01*
X117244754Y-108230967D01*
X117151859Y-108048650D01*
X117031582Y-107883105D01*
X117031582Y-107883104D01*
X116886895Y-107738417D01*
X116721349Y-107618140D01*
X116539029Y-107525244D01*
X116344413Y-107462009D01*
X116290000Y-107453390D01*
X116290000Y-108814314D01*
X116285606Y-108809920D01*
X116194394Y-108757259D01*
X116092661Y-108730000D01*
X115987339Y-108730000D01*
X115885606Y-108757259D01*
X115794394Y-108809920D01*
X115790000Y-108814314D01*
X115790000Y-107453390D01*
X115735586Y-107462009D01*
X115540970Y-107525244D01*
X115358650Y-107618140D01*
X115193105Y-107738417D01*
X115193104Y-107738417D01*
X115048417Y-107883104D01*
X115048417Y-107883105D01*
X114928140Y-108048650D01*
X114880485Y-108142179D01*
X114832510Y-108192975D01*
X114764689Y-108209770D01*
X114698554Y-108187232D01*
X114659515Y-108142179D01*
X114611859Y-108048650D01*
X114491582Y-107883105D01*
X114491582Y-107883104D01*
X114346895Y-107738417D01*
X114181349Y-107618140D01*
X113999029Y-107525244D01*
X113804413Y-107462009D01*
X113750000Y-107453390D01*
X113750000Y-108814314D01*
X113745606Y-108809920D01*
X113654394Y-108757259D01*
X113552661Y-108730000D01*
X113447339Y-108730000D01*
X113345606Y-108757259D01*
X113254394Y-108809920D01*
X113250000Y-108814314D01*
X113250000Y-107453390D01*
X113195586Y-107462009D01*
X113000970Y-107525244D01*
X112818650Y-107618140D01*
X112653105Y-107738417D01*
X112653104Y-107738417D01*
X112508417Y-107883104D01*
X112508417Y-107883105D01*
X112388140Y-108048650D01*
X112295243Y-108230971D01*
X112293457Y-108236469D01*
X112254017Y-108294142D01*
X112189657Y-108321337D01*
X112120811Y-108309420D01*
X112069338Y-108262173D01*
X112065043Y-108254440D01*
X112021243Y-108168478D01*
X111986760Y-108100801D01*
X111875690Y-107947927D01*
X111742073Y-107814310D01*
X111589199Y-107703240D01*
X111559397Y-107688055D01*
X111420836Y-107617454D01*
X111241118Y-107559059D01*
X111054486Y-107529500D01*
X111054481Y-107529500D01*
X110865519Y-107529500D01*
X110865514Y-107529500D01*
X110678881Y-107559059D01*
X110499163Y-107617454D01*
X110330800Y-107703240D01*
X110259359Y-107755146D01*
X110177927Y-107814310D01*
X110177925Y-107814312D01*
X110177924Y-107814312D01*
X110044312Y-107947924D01*
X110044312Y-107947925D01*
X110044310Y-107947927D01*
X109998637Y-108010790D01*
X109933240Y-108100800D01*
X109847454Y-108269163D01*
X109789059Y-108448881D01*
X109759500Y-108635513D01*
X109759500Y-109624486D01*
X109789059Y-109811118D01*
X109847454Y-109990836D01*
X109912156Y-110117820D01*
X109933240Y-110159199D01*
X110044310Y-110312073D01*
X110177927Y-110445690D01*
X110330801Y-110556760D01*
X110379517Y-110581582D01*
X110499163Y-110642545D01*
X110499165Y-110642545D01*
X110499168Y-110642547D01*
X110595497Y-110673846D01*
X110678881Y-110700940D01*
X110865514Y-110730500D01*
X110865519Y-110730500D01*
X111054486Y-110730500D01*
X111241118Y-110700940D01*
X111269765Y-110691632D01*
X111420832Y-110642547D01*
X111589199Y-110556760D01*
X111742073Y-110445690D01*
X111875690Y-110312073D01*
X111986760Y-110159199D01*
X112065043Y-110005558D01*
X112113017Y-109954763D01*
X112180838Y-109937968D01*
X112246973Y-109960505D01*
X112290425Y-110015220D01*
X112293458Y-110023534D01*
X112295242Y-110029027D01*
X112388140Y-110211349D01*
X112508417Y-110376894D01*
X112508417Y-110376895D01*
X112653104Y-110521582D01*
X112818650Y-110641859D01*
X113000968Y-110734754D01*
X113195578Y-110797988D01*
X113250000Y-110806607D01*
X113250000Y-109445686D01*
X113254394Y-109450080D01*
X113345606Y-109502741D01*
X113447339Y-109530000D01*
X113552661Y-109530000D01*
X113654394Y-109502741D01*
X113745606Y-109450080D01*
X113750000Y-109445686D01*
X113750000Y-110806606D01*
X113804421Y-110797988D01*
X113999031Y-110734754D01*
X114181349Y-110641859D01*
X114346894Y-110521582D01*
X114346895Y-110521582D01*
X114491582Y-110376895D01*
X114491582Y-110376894D01*
X114611859Y-110211349D01*
X114659515Y-110117820D01*
X114707489Y-110067024D01*
X114775310Y-110050229D01*
X114841445Y-110072766D01*
X114880485Y-110117820D01*
X114928140Y-110211349D01*
X115048417Y-110376894D01*
X115048417Y-110376895D01*
X115193104Y-110521582D01*
X115358650Y-110641859D01*
X115540968Y-110734754D01*
X115735578Y-110797988D01*
X115790000Y-110806607D01*
X115790000Y-109445686D01*
X115794394Y-109450080D01*
X115885606Y-109502741D01*
X115987339Y-109530000D01*
X116092661Y-109530000D01*
X116194394Y-109502741D01*
X116285606Y-109450080D01*
X116290000Y-109445686D01*
X116290000Y-110806606D01*
X116344421Y-110797988D01*
X116539031Y-110734754D01*
X116721349Y-110641859D01*
X116886894Y-110521582D01*
X116886895Y-110521582D01*
X117031582Y-110376895D01*
X117031582Y-110376894D01*
X117151859Y-110211349D01*
X117244753Y-110029033D01*
X117246537Y-110023544D01*
X117285970Y-109965866D01*
X117350327Y-109938663D01*
X117419174Y-109950573D01*
X117470654Y-109997813D01*
X117474956Y-110005559D01*
X117532156Y-110117820D01*
X117553240Y-110159199D01*
X117664310Y-110312073D01*
X117797927Y-110445690D01*
X117950801Y-110556760D01*
X117999517Y-110581582D01*
X118119163Y-110642545D01*
X118119165Y-110642545D01*
X118119168Y-110642547D01*
X118215497Y-110673846D01*
X118298881Y-110700940D01*
X118343594Y-110708022D01*
X118406729Y-110737951D01*
X118443660Y-110797263D01*
X118442662Y-110867126D01*
X118411877Y-110918176D01*
X117016873Y-112313181D01*
X116955550Y-112346666D01*
X116929192Y-112349500D01*
X100500929Y-112349500D01*
X100375261Y-112374497D01*
X100375255Y-112374499D01*
X100256873Y-112423534D01*
X100256866Y-112423538D01*
X100214198Y-112452046D01*
X100214199Y-112452047D01*
X100150333Y-112494721D01*
X100150327Y-112494725D01*
X97366827Y-115278225D01*
X97305504Y-115311710D01*
X97235812Y-115306726D01*
X97222853Y-115301030D01*
X97215836Y-115297455D01*
X97215835Y-115297454D01*
X97215832Y-115297453D01*
X97115636Y-115264897D01*
X97036118Y-115239059D01*
X96849486Y-115209500D01*
X96849481Y-115209500D01*
X96660519Y-115209500D01*
X96660514Y-115209500D01*
X96473881Y-115239059D01*
X96294163Y-115297454D01*
X96125800Y-115383240D01*
X96038579Y-115446610D01*
X95972927Y-115494310D01*
X95972925Y-115494312D01*
X95972924Y-115494312D01*
X95839312Y-115627924D01*
X95839312Y-115627925D01*
X95839310Y-115627927D01*
X95795796Y-115687819D01*
X95728240Y-115780800D01*
X95642454Y-115949163D01*
X95602931Y-116070803D01*
X95563493Y-116128478D01*
X95499134Y-116155676D01*
X95430288Y-116143761D01*
X95378812Y-116096516D01*
X95367069Y-116070803D01*
X95355928Y-116036516D01*
X95327547Y-115949168D01*
X95327545Y-115949165D01*
X95327545Y-115949163D01*
X95266413Y-115829185D01*
X95241760Y-115780801D01*
X95130690Y-115627927D01*
X94997073Y-115494310D01*
X94844199Y-115383240D01*
X94823745Y-115372818D01*
X94675836Y-115297454D01*
X94496118Y-115239059D01*
X94309486Y-115209500D01*
X94309481Y-115209500D01*
X94120519Y-115209500D01*
X94120514Y-115209500D01*
X93933881Y-115239059D01*
X93754163Y-115297454D01*
X93585800Y-115383240D01*
X93498579Y-115446610D01*
X93432927Y-115494310D01*
X93432925Y-115494312D01*
X93432924Y-115494312D01*
X93299312Y-115627924D01*
X93299312Y-115627925D01*
X93299310Y-115627927D01*
X93255796Y-115687819D01*
X93188240Y-115780800D01*
X93102454Y-115949163D01*
X93062931Y-116070803D01*
X93023493Y-116128478D01*
X92959134Y-116155676D01*
X92890288Y-116143761D01*
X92838812Y-116096516D01*
X92827069Y-116070803D01*
X92815928Y-116036516D01*
X92787547Y-115949168D01*
X92787545Y-115949165D01*
X92787545Y-115949163D01*
X92726413Y-115829185D01*
X92701760Y-115780801D01*
X92590690Y-115627927D01*
X92457073Y-115494310D01*
X92447751Y-115487537D01*
X92376613Y-115435851D01*
X92333948Y-115380521D01*
X92325500Y-115335534D01*
X92325500Y-113895807D01*
X92345185Y-113828768D01*
X92361819Y-113808126D01*
X93431273Y-112738672D01*
X93431276Y-112738669D01*
X93502465Y-112632127D01*
X93551501Y-112513744D01*
X93555284Y-112494724D01*
X93576500Y-112388069D01*
X93576500Y-110814370D01*
X93596185Y-110747331D01*
X93648989Y-110701576D01*
X93718147Y-110691632D01*
X93749311Y-110701518D01*
X93749659Y-110700680D01*
X93754157Y-110702543D01*
X93754165Y-110702545D01*
X93754168Y-110702547D01*
X93840198Y-110730500D01*
X93933881Y-110760940D01*
X94120514Y-110790500D01*
X94120519Y-110790500D01*
X94309486Y-110790500D01*
X94496118Y-110760940D01*
X94675832Y-110702547D01*
X94844199Y-110616760D01*
X94997073Y-110505690D01*
X95130690Y-110372073D01*
X95241760Y-110219199D01*
X95320043Y-110065558D01*
X95368017Y-110014763D01*
X95435838Y-109997968D01*
X95501973Y-110020505D01*
X95545425Y-110075220D01*
X95548458Y-110083534D01*
X95550242Y-110089027D01*
X95643140Y-110271349D01*
X95763417Y-110436894D01*
X95763417Y-110436895D01*
X95908104Y-110581582D01*
X96073650Y-110701859D01*
X96255968Y-110794754D01*
X96450578Y-110857988D01*
X96505000Y-110866607D01*
X96505000Y-109505686D01*
X96509394Y-109510080D01*
X96600606Y-109562741D01*
X96702339Y-109590000D01*
X96807661Y-109590000D01*
X96909394Y-109562741D01*
X97000606Y-109510080D01*
X97005000Y-109505686D01*
X97005000Y-110866607D01*
X97059421Y-110857988D01*
X97254031Y-110794754D01*
X97436349Y-110701859D01*
X97601894Y-110581582D01*
X97601895Y-110581582D01*
X97746582Y-110436895D01*
X97746582Y-110436894D01*
X97866859Y-110271349D01*
X97959753Y-110089033D01*
X97961537Y-110083544D01*
X98000970Y-110025866D01*
X98065327Y-109998663D01*
X98134174Y-110010573D01*
X98185654Y-110057813D01*
X98189956Y-110065559D01*
X98264240Y-110211349D01*
X98268240Y-110219199D01*
X98379310Y-110372073D01*
X98512927Y-110505690D01*
X98665801Y-110616760D01*
X98700732Y-110634558D01*
X98834163Y-110702545D01*
X98834165Y-110702545D01*
X98834168Y-110702547D01*
X98920198Y-110730500D01*
X99013881Y-110760940D01*
X99200514Y-110790500D01*
X99200519Y-110790500D01*
X99389486Y-110790500D01*
X99576118Y-110760940D01*
X99755832Y-110702547D01*
X99924199Y-110616760D01*
X100077073Y-110505690D01*
X100210690Y-110372073D01*
X100321760Y-110219199D01*
X100400043Y-110065558D01*
X100448017Y-110014763D01*
X100515838Y-109997968D01*
X100581973Y-110020505D01*
X100625425Y-110075220D01*
X100628458Y-110083534D01*
X100630242Y-110089027D01*
X100723140Y-110271349D01*
X100843417Y-110436894D01*
X100843417Y-110436895D01*
X100988104Y-110581582D01*
X101153650Y-110701859D01*
X101335968Y-110794754D01*
X101530578Y-110857988D01*
X101585000Y-110866607D01*
X101585000Y-109505686D01*
X101589394Y-109510080D01*
X101680606Y-109562741D01*
X101782339Y-109590000D01*
X101887661Y-109590000D01*
X101989394Y-109562741D01*
X102080606Y-109510080D01*
X102085000Y-109505686D01*
X102085000Y-110866607D01*
X102139421Y-110857988D01*
X102334031Y-110794754D01*
X102516349Y-110701859D01*
X102681894Y-110581582D01*
X102681895Y-110581582D01*
X102826582Y-110436895D01*
X102826582Y-110436894D01*
X102946859Y-110271349D01*
X103039753Y-110089033D01*
X103041537Y-110083544D01*
X103080970Y-110025866D01*
X103145327Y-109998663D01*
X103214174Y-110010573D01*
X103265654Y-110057813D01*
X103269956Y-110065559D01*
X103344240Y-110211349D01*
X103348240Y-110219199D01*
X103459310Y-110372073D01*
X103592927Y-110505690D01*
X103745801Y-110616760D01*
X103780732Y-110634558D01*
X103914163Y-110702545D01*
X103914165Y-110702545D01*
X103914168Y-110702547D01*
X104000198Y-110730500D01*
X104093881Y-110760940D01*
X104280514Y-110790500D01*
X104280519Y-110790500D01*
X104469486Y-110790500D01*
X104656118Y-110760940D01*
X104835832Y-110702547D01*
X105004199Y-110616760D01*
X105157073Y-110505690D01*
X105290690Y-110372073D01*
X105401760Y-110219199D01*
X105487547Y-110050832D01*
X105545940Y-109871118D01*
X105560270Y-109780642D01*
X105575500Y-109684486D01*
X105575500Y-108695514D01*
X105568298Y-108650046D01*
X105568298Y-108650045D01*
X105556730Y-108577011D01*
X105545940Y-108508882D01*
X105487547Y-108329168D01*
X105487545Y-108329165D01*
X105487545Y-108329163D01*
X105415227Y-108187232D01*
X105401760Y-108160801D01*
X105290690Y-108007927D01*
X105157073Y-107874310D01*
X105004199Y-107763240D01*
X104978532Y-107750162D01*
X104835836Y-107677454D01*
X104656118Y-107619059D01*
X104469486Y-107589500D01*
X104469481Y-107589500D01*
X104280519Y-107589500D01*
X104280514Y-107589500D01*
X104093881Y-107619059D01*
X103914163Y-107677454D01*
X103745800Y-107763240D01*
X103675507Y-107814312D01*
X103592927Y-107874310D01*
X103592925Y-107874312D01*
X103592924Y-107874312D01*
X103459312Y-108007924D01*
X103459312Y-108007925D01*
X103459310Y-108007927D01*
X103447839Y-108023716D01*
X103348236Y-108160805D01*
X103269955Y-108314440D01*
X103221981Y-108365236D01*
X103154160Y-108382031D01*
X103088025Y-108359493D01*
X103044574Y-108304778D01*
X103041538Y-108296458D01*
X103039754Y-108290967D01*
X102946859Y-108108650D01*
X102826582Y-107943105D01*
X102826582Y-107943104D01*
X102681895Y-107798417D01*
X102516349Y-107678140D01*
X102334029Y-107585244D01*
X102139413Y-107522009D01*
X102085000Y-107513390D01*
X102085000Y-108874314D01*
X102080606Y-108869920D01*
X101989394Y-108817259D01*
X101887661Y-108790000D01*
X101782339Y-108790000D01*
X101680606Y-108817259D01*
X101589394Y-108869920D01*
X101585000Y-108874314D01*
X101585000Y-107513390D01*
X101530586Y-107522009D01*
X101335970Y-107585244D01*
X101153650Y-107678140D01*
X100988105Y-107798417D01*
X100988104Y-107798417D01*
X100843417Y-107943104D01*
X100843417Y-107943105D01*
X100723140Y-108108650D01*
X100630243Y-108290971D01*
X100628457Y-108296469D01*
X100589017Y-108354142D01*
X100524657Y-108381337D01*
X100455811Y-108369420D01*
X100404338Y-108322173D01*
X100400043Y-108314440D01*
X100365298Y-108246249D01*
X100321760Y-108160801D01*
X100210690Y-108007927D01*
X100077073Y-107874310D01*
X99924199Y-107763240D01*
X99898532Y-107750162D01*
X99755836Y-107677454D01*
X99576118Y-107619059D01*
X99389486Y-107589500D01*
X99389481Y-107589500D01*
X99200519Y-107589500D01*
X99200514Y-107589500D01*
X99013881Y-107619059D01*
X98834163Y-107677454D01*
X98665800Y-107763240D01*
X98595507Y-107814312D01*
X98512927Y-107874310D01*
X98512925Y-107874312D01*
X98512924Y-107874312D01*
X98379312Y-108007924D01*
X98379312Y-108007925D01*
X98379310Y-108007927D01*
X98367839Y-108023716D01*
X98268236Y-108160805D01*
X98189955Y-108314440D01*
X98141981Y-108365236D01*
X98074160Y-108382031D01*
X98008025Y-108359493D01*
X97964574Y-108304778D01*
X97961538Y-108296458D01*
X97959754Y-108290967D01*
X97866859Y-108108650D01*
X97746582Y-107943105D01*
X97746582Y-107943104D01*
X97601895Y-107798417D01*
X97436349Y-107678140D01*
X97254029Y-107585244D01*
X97059413Y-107522009D01*
X97005000Y-107513390D01*
X97005000Y-108874314D01*
X97000606Y-108869920D01*
X96909394Y-108817259D01*
X96807661Y-108790000D01*
X96702339Y-108790000D01*
X96600606Y-108817259D01*
X96509394Y-108869920D01*
X96505000Y-108874314D01*
X96505000Y-107513390D01*
X96450586Y-107522009D01*
X96255970Y-107585244D01*
X96073650Y-107678140D01*
X95908105Y-107798417D01*
X95908104Y-107798417D01*
X95763417Y-107943104D01*
X95763417Y-107943105D01*
X95643140Y-108108650D01*
X95550243Y-108290971D01*
X95548457Y-108296469D01*
X95509017Y-108354142D01*
X95444657Y-108381337D01*
X95375811Y-108369420D01*
X95324338Y-108322173D01*
X95320043Y-108314440D01*
X95285298Y-108246249D01*
X95241760Y-108160801D01*
X95130690Y-108007927D01*
X94997073Y-107874310D01*
X94844199Y-107763240D01*
X94787397Y-107734298D01*
X94697051Y-107688264D01*
X94646255Y-107640289D01*
X94629460Y-107572468D01*
X94651998Y-107506333D01*
X94665659Y-107490104D01*
X96302374Y-105853389D01*
X109614500Y-105853389D01*
X109614500Y-106026611D01*
X109621995Y-106073930D01*
X109623258Y-106081910D01*
X109641598Y-106197701D01*
X109695127Y-106362445D01*
X109773768Y-106516788D01*
X109875586Y-106656928D01*
X109998072Y-106779414D01*
X110138212Y-106881232D01*
X110292555Y-106959873D01*
X110457299Y-107013402D01*
X110628389Y-107040500D01*
X110628390Y-107040500D01*
X110801610Y-107040500D01*
X110801611Y-107040500D01*
X110972701Y-107013402D01*
X111137445Y-106959873D01*
X111160979Y-106947882D01*
X112560669Y-106947882D01*
X112560670Y-106947883D01*
X112586059Y-106966329D01*
X112754362Y-107052085D01*
X112933997Y-107110451D01*
X113120553Y-107140000D01*
X113309447Y-107140000D01*
X113496002Y-107110451D01*
X113675637Y-107052085D01*
X113843937Y-106966331D01*
X113869328Y-106947883D01*
X113869328Y-106947882D01*
X113215001Y-106293554D01*
X113215000Y-106293554D01*
X112560669Y-106947882D01*
X111160979Y-106947882D01*
X111291788Y-106881232D01*
X111431928Y-106779414D01*
X111554414Y-106656928D01*
X111656232Y-106516788D01*
X111734873Y-106362445D01*
X111788402Y-106197701D01*
X111792156Y-106173995D01*
X111822083Y-106110863D01*
X111881393Y-106073930D01*
X111951256Y-106074926D01*
X112009490Y-106113534D01*
X112037102Y-106173993D01*
X112044548Y-106221003D01*
X112102914Y-106400637D01*
X112188666Y-106568933D01*
X112207116Y-106594328D01*
X112861446Y-105940000D01*
X112861446Y-105939999D01*
X112815369Y-105893922D01*
X112865000Y-105893922D01*
X112865000Y-105986078D01*
X112888852Y-106075095D01*
X112934930Y-106154905D01*
X113000095Y-106220070D01*
X113079905Y-106266148D01*
X113168922Y-106290000D01*
X113261078Y-106290000D01*
X113350095Y-106266148D01*
X113429905Y-106220070D01*
X113495070Y-106154905D01*
X113541148Y-106075095D01*
X113565000Y-105986078D01*
X113565000Y-105939999D01*
X113568554Y-105939999D01*
X113568554Y-105940000D01*
X114222882Y-106594328D01*
X114222883Y-106594328D01*
X114241331Y-106568937D01*
X114327085Y-106400637D01*
X114385451Y-106221002D01*
X114415000Y-106034447D01*
X114415000Y-105845552D01*
X114385451Y-105658997D01*
X114327085Y-105479362D01*
X114241329Y-105311059D01*
X114222883Y-105285670D01*
X114222882Y-105285669D01*
X113568554Y-105939999D01*
X113565000Y-105939999D01*
X113565000Y-105893922D01*
X113541148Y-105804905D01*
X113495070Y-105725095D01*
X113429905Y-105659930D01*
X113350095Y-105613852D01*
X113261078Y-105590000D01*
X113168922Y-105590000D01*
X113079905Y-105613852D01*
X113000095Y-105659930D01*
X112934930Y-105725095D01*
X112888852Y-105804905D01*
X112865000Y-105893922D01*
X112815369Y-105893922D01*
X112207116Y-105285669D01*
X112207116Y-105285670D01*
X112188669Y-105311060D01*
X112102914Y-105479362D01*
X112044548Y-105658996D01*
X112037102Y-105706006D01*
X112007171Y-105769140D01*
X111947859Y-105806070D01*
X111877997Y-105805071D01*
X111819765Y-105766461D01*
X111792156Y-105706004D01*
X111788402Y-105682299D01*
X111734873Y-105517555D01*
X111656232Y-105363212D01*
X111554414Y-105223072D01*
X111431928Y-105100586D01*
X111419863Y-105091820D01*
X111403194Y-105079708D01*
X111403171Y-105079693D01*
X111398663Y-105076418D01*
X111291788Y-104998768D01*
X111160975Y-104932116D01*
X112560669Y-104932116D01*
X113215000Y-105586446D01*
X113215001Y-105586446D01*
X113869328Y-104932116D01*
X113843933Y-104913666D01*
X113675637Y-104827914D01*
X113496002Y-104769548D01*
X113309447Y-104740000D01*
X113120553Y-104740000D01*
X112933997Y-104769548D01*
X112754362Y-104827914D01*
X112586060Y-104913669D01*
X112560670Y-104932116D01*
X112560669Y-104932116D01*
X111160975Y-104932116D01*
X111137445Y-104920127D01*
X110972701Y-104866598D01*
X110972699Y-104866597D01*
X110972698Y-104866597D01*
X110841271Y-104845781D01*
X110801611Y-104839500D01*
X110628389Y-104839500D01*
X110588728Y-104845781D01*
X110457302Y-104866597D01*
X110292552Y-104920128D01*
X110138211Y-104998768D01*
X110066215Y-105051077D01*
X109998072Y-105100586D01*
X109998070Y-105100588D01*
X109998069Y-105100588D01*
X109875588Y-105223069D01*
X109875588Y-105223070D01*
X109875586Y-105223072D01*
X109872957Y-105226691D01*
X109773768Y-105363211D01*
X109695128Y-105517552D01*
X109641597Y-105682302D01*
X109619948Y-105818993D01*
X109614500Y-105853389D01*
X96302374Y-105853389D01*
X99336768Y-102818995D01*
X134799499Y-102818995D01*
X134826418Y-102954322D01*
X134826421Y-102954332D01*
X134879221Y-103081804D01*
X134879228Y-103081817D01*
X134955885Y-103196541D01*
X134955888Y-103196545D01*
X135053454Y-103294111D01*
X135053458Y-103294114D01*
X135168182Y-103370771D01*
X135168195Y-103370778D01*
X135295667Y-103423578D01*
X135295672Y-103423580D01*
X135295676Y-103423580D01*
X135295677Y-103423581D01*
X135431004Y-103450500D01*
X135431007Y-103450500D01*
X135568995Y-103450500D01*
X135660041Y-103432389D01*
X135704328Y-103423580D01*
X135807606Y-103380801D01*
X135831809Y-103370776D01*
X135837181Y-103367905D01*
X135837876Y-103369205D01*
X135897562Y-103350520D01*
X135899770Y-103350500D01*
X140350230Y-103350500D01*
X140412369Y-103368746D01*
X140412819Y-103367905D01*
X140416859Y-103370064D01*
X140417269Y-103370185D01*
X140418087Y-103370721D01*
X140418190Y-103370776D01*
X140545667Y-103423578D01*
X140545672Y-103423580D01*
X140545676Y-103423580D01*
X140545677Y-103423581D01*
X140681004Y-103450500D01*
X140681007Y-103450500D01*
X140818995Y-103450500D01*
X140910041Y-103432389D01*
X140954328Y-103423580D01*
X141081811Y-103370775D01*
X141196542Y-103294114D01*
X141294114Y-103196542D01*
X141370775Y-103081811D01*
X141423580Y-102954328D01*
X141444529Y-102849013D01*
X141450500Y-102818995D01*
X141450500Y-102681004D01*
X141423581Y-102545677D01*
X141423580Y-102545676D01*
X141423580Y-102545672D01*
X141421032Y-102539520D01*
X141370778Y-102418195D01*
X141370771Y-102418182D01*
X141294114Y-102303458D01*
X141294111Y-102303454D01*
X141196545Y-102205888D01*
X141196541Y-102205885D01*
X141081817Y-102129228D01*
X141081804Y-102129221D01*
X140954332Y-102076421D01*
X140954322Y-102076418D01*
X140818995Y-102049500D01*
X140818993Y-102049500D01*
X140681007Y-102049500D01*
X140681005Y-102049500D01*
X140545677Y-102076418D01*
X140545667Y-102076421D01*
X140418190Y-102129223D01*
X140412819Y-102132095D01*
X140412123Y-102130794D01*
X140352438Y-102149480D01*
X140350230Y-102149500D01*
X135899770Y-102149500D01*
X135837630Y-102131253D01*
X135837181Y-102132095D01*
X135833140Y-102129935D01*
X135832731Y-102129815D01*
X135831912Y-102129278D01*
X135831809Y-102129223D01*
X135704332Y-102076421D01*
X135704322Y-102076418D01*
X135568995Y-102049500D01*
X135568993Y-102049500D01*
X135431007Y-102049500D01*
X135431005Y-102049500D01*
X135295677Y-102076418D01*
X135295667Y-102076421D01*
X135168195Y-102129221D01*
X135168182Y-102129228D01*
X135053458Y-102205885D01*
X135053454Y-102205888D01*
X134955888Y-102303454D01*
X134955885Y-102303458D01*
X134879228Y-102418182D01*
X134879221Y-102418195D01*
X134826421Y-102545667D01*
X134826418Y-102545677D01*
X134799500Y-102681004D01*
X134799500Y-102681007D01*
X134799500Y-102818993D01*
X134799500Y-102818995D01*
X134799499Y-102818995D01*
X99336768Y-102818995D01*
X107187289Y-94968475D01*
X139349500Y-94968475D01*
X139349500Y-97031517D01*
X139360292Y-97099657D01*
X139364354Y-97125304D01*
X139421950Y-97238342D01*
X139421952Y-97238344D01*
X139421954Y-97238347D01*
X139511652Y-97328045D01*
X139511654Y-97328046D01*
X139511658Y-97328050D01*
X139624694Y-97385645D01*
X139624698Y-97385647D01*
X139718475Y-97400499D01*
X139718481Y-97400500D01*
X142281518Y-97400499D01*
X142375304Y-97385646D01*
X142488342Y-97328050D01*
X142578050Y-97238342D01*
X142635646Y-97125304D01*
X142635646Y-97125302D01*
X142635647Y-97125301D01*
X142650499Y-97031524D01*
X142650500Y-97031519D01*
X142650499Y-94968482D01*
X142635646Y-94874696D01*
X142578050Y-94761658D01*
X142578046Y-94761654D01*
X142578045Y-94761652D01*
X142488347Y-94671954D01*
X142488344Y-94671952D01*
X142488342Y-94671950D01*
X142411517Y-94632805D01*
X142375301Y-94614352D01*
X142281524Y-94599500D01*
X139718482Y-94599500D01*
X139637519Y-94612323D01*
X139624696Y-94614354D01*
X139511658Y-94671950D01*
X139511657Y-94671951D01*
X139511652Y-94671954D01*
X139421954Y-94761652D01*
X139421951Y-94761657D01*
X139364352Y-94874698D01*
X139349500Y-94968475D01*
X107187289Y-94968475D01*
X114647883Y-87507882D01*
X130345669Y-87507882D01*
X130345670Y-87507883D01*
X130371059Y-87526329D01*
X130539362Y-87612085D01*
X130718997Y-87670451D01*
X130905553Y-87700000D01*
X131094447Y-87700000D01*
X131281002Y-87670451D01*
X131460637Y-87612085D01*
X131628937Y-87526331D01*
X131654328Y-87507883D01*
X131654328Y-87507882D01*
X131000001Y-86853554D01*
X131000000Y-86853554D01*
X130345669Y-87507882D01*
X114647883Y-87507882D01*
X115750213Y-86405552D01*
X129800000Y-86405552D01*
X129800000Y-86594447D01*
X129829548Y-86781002D01*
X129887914Y-86960637D01*
X129973666Y-87128933D01*
X129992116Y-87154328D01*
X130646446Y-86500000D01*
X130646446Y-86499999D01*
X130600369Y-86453922D01*
X130650000Y-86453922D01*
X130650000Y-86546078D01*
X130673852Y-86635095D01*
X130719930Y-86714905D01*
X130785095Y-86780070D01*
X130864905Y-86826148D01*
X130953922Y-86850000D01*
X131046078Y-86850000D01*
X131135095Y-86826148D01*
X131214905Y-86780070D01*
X131280070Y-86714905D01*
X131326148Y-86635095D01*
X131350000Y-86546078D01*
X131350000Y-86499999D01*
X131353554Y-86499999D01*
X131353554Y-86500000D01*
X132007882Y-87154328D01*
X132007883Y-87154328D01*
X132026331Y-87128937D01*
X132112085Y-86960637D01*
X132170451Y-86781002D01*
X132200000Y-86594447D01*
X132200000Y-86405552D01*
X132170451Y-86218997D01*
X132112085Y-86039362D01*
X132026329Y-85871059D01*
X132007883Y-85845670D01*
X132007882Y-85845669D01*
X131353554Y-86499999D01*
X131350000Y-86499999D01*
X131350000Y-86453922D01*
X131326148Y-86364905D01*
X131280070Y-86285095D01*
X131214905Y-86219930D01*
X131135095Y-86173852D01*
X131046078Y-86150000D01*
X130953922Y-86150000D01*
X130864905Y-86173852D01*
X130785095Y-86219930D01*
X130719930Y-86285095D01*
X130673852Y-86364905D01*
X130650000Y-86453922D01*
X130600369Y-86453922D01*
X129992116Y-85845669D01*
X129992116Y-85845670D01*
X129973669Y-85871060D01*
X129887914Y-86039362D01*
X129829548Y-86218997D01*
X129800000Y-86405552D01*
X115750213Y-86405552D01*
X119029146Y-83126619D01*
X119090469Y-83093134D01*
X119116827Y-83090300D01*
X130057280Y-83090300D01*
X130124319Y-83109985D01*
X130170074Y-83162789D01*
X130180018Y-83231947D01*
X130157599Y-83287182D01*
X130121270Y-83337186D01*
X130058768Y-83423211D01*
X129980128Y-83577552D01*
X129926597Y-83742302D01*
X129916211Y-83807880D01*
X129899500Y-83913389D01*
X129899500Y-84086611D01*
X129926598Y-84257701D01*
X129980127Y-84422445D01*
X130058768Y-84576788D01*
X130160586Y-84716928D01*
X130283072Y-84839414D01*
X130423212Y-84941232D01*
X130577555Y-85019873D01*
X130742299Y-85073402D01*
X130766004Y-85077156D01*
X130829137Y-85107083D01*
X130866069Y-85166394D01*
X130865073Y-85236257D01*
X130826464Y-85294490D01*
X130766006Y-85322102D01*
X130718996Y-85329548D01*
X130539362Y-85387914D01*
X130371060Y-85473669D01*
X130345670Y-85492116D01*
X130345669Y-85492116D01*
X131000000Y-86146446D01*
X131000001Y-86146446D01*
X131654328Y-85492116D01*
X131628933Y-85473666D01*
X131460637Y-85387914D01*
X131281003Y-85329548D01*
X131233993Y-85322102D01*
X131170859Y-85292172D01*
X131133929Y-85232859D01*
X131134927Y-85162997D01*
X131173538Y-85104765D01*
X131233995Y-85077156D01*
X131257701Y-85073402D01*
X131422445Y-85019873D01*
X131576788Y-84941232D01*
X131716928Y-84839414D01*
X131839414Y-84716928D01*
X131941232Y-84576788D01*
X132019873Y-84422445D01*
X132073402Y-84257701D01*
X132100500Y-84086611D01*
X132100500Y-83913389D01*
X132073402Y-83742299D01*
X132019873Y-83577555D01*
X131941232Y-83423212D01*
X131878729Y-83337185D01*
X131855250Y-83271379D01*
X131871075Y-83203325D01*
X131921181Y-83154630D01*
X131979048Y-83140300D01*
X132068995Y-83140300D01*
X132160041Y-83122189D01*
X132204328Y-83113380D01*
X132331811Y-83060575D01*
X132446542Y-82983914D01*
X132544114Y-82886342D01*
X132620775Y-82771611D01*
X132673580Y-82644128D01*
X132682389Y-82599841D01*
X132700500Y-82508795D01*
X132700500Y-82370804D01*
X132700499Y-82370802D01*
X132684127Y-82288491D01*
X132690354Y-82218900D01*
X132733217Y-82163722D01*
X132799107Y-82140478D01*
X132805744Y-82140300D01*
X174853908Y-82140300D01*
X174917094Y-82140300D01*
X174922502Y-82140417D01*
G37*
%TD.AperFunction*%
%TA.AperFunction,Conductor*%
G36*
X117943250Y-82159985D02*
G01*
X117989005Y-82212789D01*
X117998949Y-82281947D01*
X117969924Y-82345503D01*
X117963892Y-82351981D01*
X92594210Y-107721661D01*
X92532887Y-107755146D01*
X92463195Y-107750162D01*
X92433643Y-107734298D01*
X92356349Y-107678140D01*
X92174029Y-107585244D01*
X91979413Y-107522009D01*
X91925000Y-107513390D01*
X91925000Y-108874314D01*
X91920606Y-108869920D01*
X91829394Y-108817259D01*
X91727661Y-108790000D01*
X91622339Y-108790000D01*
X91520606Y-108817259D01*
X91429394Y-108869920D01*
X91425000Y-108874314D01*
X91425000Y-107513390D01*
X91370586Y-107522009D01*
X91175970Y-107585244D01*
X90993650Y-107678140D01*
X90828105Y-107798417D01*
X90828104Y-107798417D01*
X90683417Y-107943104D01*
X90683417Y-107943105D01*
X90563140Y-108108650D01*
X90470243Y-108290971D01*
X90468457Y-108296469D01*
X90429017Y-108354142D01*
X90364657Y-108381337D01*
X90295811Y-108369420D01*
X90244338Y-108322173D01*
X90240043Y-108314440D01*
X90205298Y-108246249D01*
X90161760Y-108160801D01*
X90050690Y-108007927D01*
X89917073Y-107874310D01*
X89764199Y-107763240D01*
X89738532Y-107750162D01*
X89595836Y-107677454D01*
X89416118Y-107619059D01*
X89229486Y-107589500D01*
X89229481Y-107589500D01*
X89040519Y-107589500D01*
X89040514Y-107589500D01*
X88853881Y-107619059D01*
X88674163Y-107677454D01*
X88505800Y-107763240D01*
X88435507Y-107814312D01*
X88352927Y-107874310D01*
X88352925Y-107874312D01*
X88352924Y-107874312D01*
X88219312Y-108007924D01*
X88219312Y-108007925D01*
X88219310Y-108007927D01*
X88196356Y-108039521D01*
X88108240Y-108160800D01*
X88022454Y-108329163D01*
X87964059Y-108508881D01*
X87934500Y-108695513D01*
X87934500Y-109684486D01*
X87964059Y-109871118D01*
X88022454Y-110050836D01*
X88104240Y-110211349D01*
X88108240Y-110219199D01*
X88219310Y-110372073D01*
X88352927Y-110505690D01*
X88505801Y-110616760D01*
X88540732Y-110634558D01*
X88674163Y-110702545D01*
X88674165Y-110702545D01*
X88674168Y-110702547D01*
X88760198Y-110730500D01*
X88853881Y-110760940D01*
X89040514Y-110790500D01*
X89040519Y-110790500D01*
X89229486Y-110790500D01*
X89416118Y-110760940D01*
X89595832Y-110702547D01*
X89764199Y-110616760D01*
X89917073Y-110505690D01*
X90050690Y-110372073D01*
X90161760Y-110219199D01*
X90240043Y-110065558D01*
X90288017Y-110014763D01*
X90355838Y-109997968D01*
X90421973Y-110020505D01*
X90465425Y-110075220D01*
X90468458Y-110083534D01*
X90470242Y-110089027D01*
X90563140Y-110271349D01*
X90683417Y-110436894D01*
X90683417Y-110436895D01*
X90828104Y-110581582D01*
X90993650Y-110701859D01*
X91175968Y-110794754D01*
X91370578Y-110857988D01*
X91425000Y-110866607D01*
X91425000Y-109505686D01*
X91429394Y-109510080D01*
X91520606Y-109562741D01*
X91622339Y-109590000D01*
X91727661Y-109590000D01*
X91829394Y-109562741D01*
X91920606Y-109510080D01*
X91925000Y-109505686D01*
X91925000Y-110866606D01*
X91979421Y-110857988D01*
X92113181Y-110814526D01*
X92183022Y-110812530D01*
X92242855Y-110848610D01*
X92273684Y-110911311D01*
X92275500Y-110932457D01*
X92275500Y-112003192D01*
X92255815Y-112070231D01*
X92239181Y-112090873D01*
X91169722Y-113160331D01*
X91156609Y-113179957D01*
X91143552Y-113199500D01*
X91125520Y-113226486D01*
X91098534Y-113266873D01*
X91049499Y-113385255D01*
X91049497Y-113385261D01*
X91024500Y-113510928D01*
X91024500Y-114981899D01*
X91004815Y-115048938D01*
X90952011Y-115094693D01*
X90882853Y-115104637D01*
X90819297Y-115075612D01*
X90812819Y-115069580D01*
X90396965Y-114653726D01*
X90396961Y-114653723D01*
X90290419Y-114582535D01*
X90172036Y-114533499D01*
X90172030Y-114533497D01*
X90046363Y-114508500D01*
X90046361Y-114508500D01*
X87356931Y-114508500D01*
X87356929Y-114508500D01*
X87231261Y-114533497D01*
X87231255Y-114533499D01*
X87112874Y-114582534D01*
X87006326Y-114653726D01*
X86049787Y-115610265D01*
X85988464Y-115643750D01*
X85942708Y-115645057D01*
X85844486Y-115629500D01*
X85844481Y-115629500D01*
X85655519Y-115629500D01*
X85655514Y-115629500D01*
X85468881Y-115659059D01*
X85289163Y-115717454D01*
X85120800Y-115803240D01*
X85062196Y-115845819D01*
X84967927Y-115914310D01*
X84967925Y-115914312D01*
X84967924Y-115914312D01*
X84834312Y-116047924D01*
X84834312Y-116047925D01*
X84834310Y-116047927D01*
X84817690Y-116070803D01*
X84723240Y-116200800D01*
X84637454Y-116369163D01*
X84579059Y-116548881D01*
X84549500Y-116735513D01*
X84549500Y-116924486D01*
X84579059Y-117111118D01*
X84637454Y-117290836D01*
X84699269Y-117412154D01*
X84723240Y-117459199D01*
X84834310Y-117612073D01*
X84967927Y-117745690D01*
X85120801Y-117856760D01*
X85188339Y-117891172D01*
X85289163Y-117942545D01*
X85289165Y-117942545D01*
X85289168Y-117942547D01*
X85385497Y-117973846D01*
X85468881Y-118000940D01*
X85655514Y-118030500D01*
X85655519Y-118030500D01*
X85844486Y-118030500D01*
X86031118Y-118000940D01*
X86058401Y-117992075D01*
X86210832Y-117942547D01*
X86379199Y-117856760D01*
X86532073Y-117745690D01*
X86665690Y-117612073D01*
X86776760Y-117459199D01*
X86862547Y-117290832D01*
X86920940Y-117111118D01*
X86932154Y-117040315D01*
X86950500Y-116924486D01*
X86950500Y-116735521D01*
X86949909Y-116731790D01*
X86934941Y-116637287D01*
X86943895Y-116567997D01*
X86969730Y-116530214D01*
X87654127Y-115845819D01*
X87681054Y-115831115D01*
X87706873Y-115814523D01*
X87713073Y-115813631D01*
X87715450Y-115812334D01*
X87741808Y-115809500D01*
X87810500Y-115809500D01*
X87877539Y-115829185D01*
X87923294Y-115881989D01*
X87934500Y-115933500D01*
X87934500Y-117825701D01*
X87937401Y-117862567D01*
X87937402Y-117862573D01*
X87983254Y-118020393D01*
X87983255Y-118020396D01*
X87983256Y-118020398D01*
X88000467Y-118049500D01*
X88066917Y-118161862D01*
X88066923Y-118161870D01*
X88183129Y-118278076D01*
X88183133Y-118278079D01*
X88183135Y-118278081D01*
X88324602Y-118361744D01*
X88332467Y-118364029D01*
X88445095Y-118396751D01*
X88503981Y-118434357D01*
X88533187Y-118497829D01*
X88534500Y-118515827D01*
X88534500Y-126564903D01*
X88514815Y-126631942D01*
X88498181Y-126652584D01*
X88138584Y-127012181D01*
X88077261Y-127045666D01*
X88050903Y-127048500D01*
X86681998Y-127048500D01*
X86641077Y-127059464D01*
X86641077Y-127059465D01*
X86603809Y-127069451D01*
X86529272Y-127089423D01*
X86529267Y-127089426D01*
X86392348Y-127168475D01*
X86392340Y-127168481D01*
X86280536Y-127280286D01*
X85947642Y-127613181D01*
X85886319Y-127646666D01*
X85859961Y-127649500D01*
X84556670Y-127649500D01*
X84556654Y-127649499D01*
X84549058Y-127649499D01*
X84390943Y-127649499D01*
X84314579Y-127669961D01*
X84238214Y-127690423D01*
X84238209Y-127690426D01*
X84101290Y-127769475D01*
X84101282Y-127769481D01*
X83157582Y-128713181D01*
X83096259Y-128746666D01*
X83069901Y-128749500D01*
X81838482Y-128749500D01*
X81767509Y-128760741D01*
X81744696Y-128764354D01*
X81680792Y-128796914D01*
X81612126Y-128809810D01*
X81547385Y-128783534D01*
X81507128Y-128726427D01*
X81500500Y-128686429D01*
X81500500Y-106575513D01*
X84549500Y-106575513D01*
X84549500Y-106764486D01*
X84579059Y-106951118D01*
X84637454Y-107130836D01*
X84703139Y-107259749D01*
X84723240Y-107299199D01*
X84834310Y-107452073D01*
X84967927Y-107585690D01*
X85120801Y-107696760D01*
X85169672Y-107721661D01*
X85289163Y-107782545D01*
X85289165Y-107782545D01*
X85289168Y-107782547D01*
X85338011Y-107798417D01*
X85468881Y-107840940D01*
X85655514Y-107870500D01*
X85655519Y-107870500D01*
X85844486Y-107870500D01*
X86031118Y-107840940D01*
X86031598Y-107840784D01*
X86210832Y-107782547D01*
X86379199Y-107696760D01*
X86532073Y-107585690D01*
X86665690Y-107452073D01*
X86776760Y-107299199D01*
X86862547Y-107130832D01*
X86920940Y-106951118D01*
X86932009Y-106881231D01*
X86950500Y-106764486D01*
X86950500Y-106575513D01*
X86920940Y-106388881D01*
X86862545Y-106209163D01*
X86797706Y-106081910D01*
X86776760Y-106040801D01*
X86665690Y-105887927D01*
X86631152Y-105853389D01*
X87649500Y-105853389D01*
X87649500Y-106026611D01*
X87656995Y-106073930D01*
X87658258Y-106081910D01*
X87676598Y-106197701D01*
X87730127Y-106362445D01*
X87808768Y-106516788D01*
X87910586Y-106656928D01*
X88033072Y-106779414D01*
X88173212Y-106881232D01*
X88327555Y-106959873D01*
X88492299Y-107013402D01*
X88663389Y-107040500D01*
X88663390Y-107040500D01*
X88836610Y-107040500D01*
X88836611Y-107040500D01*
X89007701Y-107013402D01*
X89172445Y-106959873D01*
X89195979Y-106947882D01*
X90595669Y-106947882D01*
X90595670Y-106947883D01*
X90621059Y-106966329D01*
X90789362Y-107052085D01*
X90968997Y-107110451D01*
X91155553Y-107140000D01*
X91344447Y-107140000D01*
X91531002Y-107110451D01*
X91710637Y-107052085D01*
X91878937Y-106966331D01*
X91904328Y-106947883D01*
X91904328Y-106947882D01*
X91250001Y-106293554D01*
X91250000Y-106293554D01*
X90595669Y-106947882D01*
X89195979Y-106947882D01*
X89326788Y-106881232D01*
X89466928Y-106779414D01*
X89589414Y-106656928D01*
X89691232Y-106516788D01*
X89769873Y-106362445D01*
X89823402Y-106197701D01*
X89827156Y-106173995D01*
X89857083Y-106110863D01*
X89916393Y-106073930D01*
X89986256Y-106074926D01*
X90044490Y-106113534D01*
X90072102Y-106173993D01*
X90079548Y-106221003D01*
X90137914Y-106400637D01*
X90223666Y-106568933D01*
X90242116Y-106594328D01*
X90896446Y-105940000D01*
X90896446Y-105939999D01*
X90850369Y-105893922D01*
X90900000Y-105893922D01*
X90900000Y-105986078D01*
X90923852Y-106075095D01*
X90969930Y-106154905D01*
X91035095Y-106220070D01*
X91114905Y-106266148D01*
X91203922Y-106290000D01*
X91296078Y-106290000D01*
X91385095Y-106266148D01*
X91464905Y-106220070D01*
X91530070Y-106154905D01*
X91576148Y-106075095D01*
X91600000Y-105986078D01*
X91600000Y-105939999D01*
X91603554Y-105939999D01*
X91603554Y-105940000D01*
X92257882Y-106594328D01*
X92257883Y-106594328D01*
X92276331Y-106568937D01*
X92362085Y-106400637D01*
X92420451Y-106221002D01*
X92450000Y-106034447D01*
X92450000Y-105845552D01*
X92420451Y-105658997D01*
X92362085Y-105479362D01*
X92276329Y-105311059D01*
X92257883Y-105285670D01*
X92257882Y-105285669D01*
X91603554Y-105939999D01*
X91600000Y-105939999D01*
X91600000Y-105893922D01*
X91576148Y-105804905D01*
X91530070Y-105725095D01*
X91464905Y-105659930D01*
X91385095Y-105613852D01*
X91296078Y-105590000D01*
X91203922Y-105590000D01*
X91114905Y-105613852D01*
X91035095Y-105659930D01*
X90969930Y-105725095D01*
X90923852Y-105804905D01*
X90900000Y-105893922D01*
X90850369Y-105893922D01*
X90242116Y-105285669D01*
X90242116Y-105285670D01*
X90223669Y-105311060D01*
X90137914Y-105479362D01*
X90079548Y-105658996D01*
X90072102Y-105706006D01*
X90042171Y-105769140D01*
X89982859Y-105806070D01*
X89912997Y-105805071D01*
X89854765Y-105766461D01*
X89827156Y-105706004D01*
X89823402Y-105682299D01*
X89769873Y-105517555D01*
X89691232Y-105363212D01*
X89691229Y-105363208D01*
X89691229Y-105363207D01*
X89674182Y-105339745D01*
X89667029Y-105319698D01*
X89655523Y-105301794D01*
X89652068Y-105277769D01*
X89650702Y-105273939D01*
X89650500Y-105266859D01*
X89650500Y-105024500D01*
X89670185Y-104957461D01*
X89722989Y-104911706D01*
X89774500Y-104900500D01*
X90512691Y-104900500D01*
X90579730Y-104920185D01*
X90600372Y-104936819D01*
X91250000Y-105586446D01*
X91250001Y-105586446D01*
X91899626Y-104936819D01*
X91960949Y-104903334D01*
X91987307Y-104900500D01*
X93588693Y-104900500D01*
X93588694Y-104900499D01*
X93646682Y-104888964D01*
X93762658Y-104865896D01*
X93762661Y-104865894D01*
X93762666Y-104865894D01*
X93902535Y-104807958D01*
X93926540Y-104798016D01*
X93926540Y-104798015D01*
X93926547Y-104798013D01*
X94074035Y-104699464D01*
X94199464Y-104574035D01*
X94298013Y-104426547D01*
X94365894Y-104262666D01*
X94400500Y-104088691D01*
X94400500Y-103911309D01*
X94400500Y-103911306D01*
X94400499Y-103911304D01*
X94365896Y-103737341D01*
X94365893Y-103737332D01*
X94298016Y-103573459D01*
X94298009Y-103573446D01*
X94199464Y-103425965D01*
X94199461Y-103425961D01*
X94074038Y-103300538D01*
X94074034Y-103300535D01*
X93926553Y-103201990D01*
X93926540Y-103201983D01*
X93762667Y-103134106D01*
X93762658Y-103134103D01*
X93588694Y-103099500D01*
X93588691Y-103099500D01*
X89338692Y-103099500D01*
X89161308Y-103099500D01*
X89161303Y-103099500D01*
X88987341Y-103134103D01*
X88987333Y-103134105D01*
X88883864Y-103176963D01*
X88883857Y-103176966D01*
X88876397Y-103180057D01*
X88823453Y-103201987D01*
X88720254Y-103270943D01*
X88716840Y-103273223D01*
X88716835Y-103273227D01*
X88675962Y-103300537D01*
X88675961Y-103300538D01*
X88050540Y-103925958D01*
X88050537Y-103925961D01*
X88029294Y-103957755D01*
X88027460Y-103960500D01*
X87951987Y-104073453D01*
X87935594Y-104113030D01*
X87932190Y-104121247D01*
X87932188Y-104121251D01*
X87884105Y-104237333D01*
X87884105Y-104237334D01*
X87851180Y-104402863D01*
X87849500Y-104411309D01*
X87849500Y-104411311D01*
X87849500Y-105266859D01*
X87829815Y-105333898D01*
X87825818Y-105339745D01*
X87808770Y-105363207D01*
X87808769Y-105363210D01*
X87730128Y-105517552D01*
X87676597Y-105682302D01*
X87654948Y-105818993D01*
X87649500Y-105853389D01*
X86631152Y-105853389D01*
X86532073Y-105754310D01*
X86379199Y-105643240D01*
X86321522Y-105613852D01*
X86210836Y-105557454D01*
X86031118Y-105499059D01*
X85844486Y-105469500D01*
X85844481Y-105469500D01*
X85655519Y-105469500D01*
X85655514Y-105469500D01*
X85468881Y-105499059D01*
X85289163Y-105557454D01*
X85120800Y-105643240D01*
X85067041Y-105682299D01*
X84967927Y-105754310D01*
X84967925Y-105754312D01*
X84967924Y-105754312D01*
X84834312Y-105887924D01*
X84834312Y-105887925D01*
X84834310Y-105887927D01*
X84806462Y-105926256D01*
X84723240Y-106040800D01*
X84637454Y-106209163D01*
X84579059Y-106388881D01*
X84549500Y-106575513D01*
X81500500Y-106575513D01*
X81500500Y-100335069D01*
X88250000Y-100335069D01*
X88250000Y-100830000D01*
X89566988Y-100830000D01*
X89534075Y-100887007D01*
X89500000Y-101014174D01*
X89500000Y-101145826D01*
X89534075Y-101272993D01*
X89566988Y-101330000D01*
X88250000Y-101330000D01*
X88250000Y-101824930D01*
X88265122Y-101959141D01*
X88324663Y-102129301D01*
X88420577Y-102281948D01*
X88548051Y-102409422D01*
X88700698Y-102505336D01*
X88870858Y-102564877D01*
X89005069Y-102579999D01*
X89005070Y-102580000D01*
X89750000Y-102580000D01*
X89750000Y-101513012D01*
X89807007Y-101545925D01*
X89934174Y-101580000D01*
X90065826Y-101580000D01*
X90192993Y-101545925D01*
X90250000Y-101513012D01*
X90250000Y-102580000D01*
X90994930Y-102580000D01*
X90994930Y-102579999D01*
X91129141Y-102564877D01*
X91299301Y-102505336D01*
X91451948Y-102409422D01*
X91579422Y-102281948D01*
X91675336Y-102129301D01*
X91734877Y-101959141D01*
X91749999Y-101824930D01*
X91750000Y-101824930D01*
X91750000Y-101330000D01*
X90433012Y-101330000D01*
X90465925Y-101272993D01*
X90500000Y-101145826D01*
X90500000Y-101014174D01*
X90465925Y-100887007D01*
X90433012Y-100830000D01*
X91750000Y-100830000D01*
X91750000Y-100335070D01*
X91749999Y-100335069D01*
X91734877Y-100200858D01*
X91675336Y-100030698D01*
X91579422Y-99878051D01*
X91451948Y-99750577D01*
X91299301Y-99654663D01*
X91129141Y-99595122D01*
X90994930Y-99580000D01*
X90250000Y-99580000D01*
X90250000Y-100646988D01*
X90192993Y-100614075D01*
X90065826Y-100580000D01*
X89934174Y-100580000D01*
X89807007Y-100614075D01*
X89750000Y-100646988D01*
X89750000Y-99580000D01*
X89005070Y-99580000D01*
X88870858Y-99595122D01*
X88700698Y-99654663D01*
X88548051Y-99750577D01*
X88420577Y-99878051D01*
X88324663Y-100030698D01*
X88265122Y-100200858D01*
X88250000Y-100335069D01*
X81500500Y-100335069D01*
X81500500Y-96909875D01*
X81520185Y-96842836D01*
X81536814Y-96822199D01*
X88038321Y-90320692D01*
X88099642Y-90287209D01*
X88169334Y-90292193D01*
X88225267Y-90334065D01*
X88249684Y-90399529D01*
X88250000Y-90408375D01*
X88250000Y-90670000D01*
X89566988Y-90670000D01*
X89534075Y-90727007D01*
X89500000Y-90854174D01*
X89500000Y-90985826D01*
X89534075Y-91112993D01*
X89566988Y-91170000D01*
X88250000Y-91170000D01*
X88250000Y-91664930D01*
X88265122Y-91799141D01*
X88324663Y-91969301D01*
X88420577Y-92121948D01*
X88548051Y-92249422D01*
X88700698Y-92345336D01*
X88870858Y-92404877D01*
X89005069Y-92419999D01*
X89005070Y-92420000D01*
X89750000Y-92420000D01*
X89750000Y-91353012D01*
X89807007Y-91385925D01*
X89934174Y-91420000D01*
X90065826Y-91420000D01*
X90192993Y-91385925D01*
X90250000Y-91353012D01*
X90250000Y-92420000D01*
X90994930Y-92420000D01*
X90994930Y-92419999D01*
X91129141Y-92404877D01*
X91299301Y-92345336D01*
X91451948Y-92249422D01*
X91579422Y-92121948D01*
X91675336Y-91969301D01*
X91734877Y-91799141D01*
X91749999Y-91664930D01*
X91750000Y-91664930D01*
X91750000Y-91170000D01*
X90433012Y-91170000D01*
X90465925Y-91112993D01*
X90500000Y-90985826D01*
X90500000Y-90854174D01*
X90465925Y-90727007D01*
X90433012Y-90670000D01*
X91750000Y-90670000D01*
X91750000Y-90175070D01*
X91749999Y-90175069D01*
X91734877Y-90040858D01*
X91675336Y-89870698D01*
X91579422Y-89718051D01*
X91451948Y-89590577D01*
X91299301Y-89494663D01*
X91129141Y-89435122D01*
X90994930Y-89420000D01*
X90250000Y-89420000D01*
X90250000Y-90486988D01*
X90192993Y-90454075D01*
X90065826Y-90420000D01*
X89934174Y-90420000D01*
X89807007Y-90454075D01*
X89750000Y-90486988D01*
X89750000Y-89420000D01*
X89238375Y-89420000D01*
X89171336Y-89400315D01*
X89125581Y-89347511D01*
X89115637Y-89278353D01*
X89144662Y-89214797D01*
X89150680Y-89208333D01*
X96182395Y-82176619D01*
X96243718Y-82143134D01*
X96270076Y-82140300D01*
X117876211Y-82140300D01*
X117943250Y-82159985D01*
G37*
%TD.AperFunction*%
%TA.AperFunction,Conductor*%
G36*
X175961726Y-123709905D02*
G01*
X175989834Y-123711916D01*
X175989836Y-123711917D01*
X175989839Y-123711918D01*
X176018215Y-123733162D01*
X176045767Y-123753788D01*
X176045767Y-123753789D01*
X176045771Y-123753792D01*
X176054657Y-123777622D01*
X176070184Y-123819252D01*
X176070500Y-123828098D01*
X176070500Y-127775500D01*
X176050815Y-127842539D01*
X175998011Y-127888294D01*
X175946500Y-127899500D01*
X171999097Y-127899500D01*
X171932058Y-127879815D01*
X171886303Y-127827011D01*
X171876359Y-127757853D01*
X171905384Y-127694297D01*
X171911416Y-127687819D01*
X172587054Y-127012181D01*
X175838713Y-123760521D01*
X175838716Y-123760520D01*
X175858825Y-123740410D01*
X175901021Y-123717372D01*
X175920142Y-123706932D01*
X175920144Y-123706932D01*
X175920148Y-123706930D01*
X175961726Y-123709905D01*
G37*
%TD.AperFunction*%
%TA.AperFunction,Conductor*%
G36*
X109678834Y-116555334D02*
G01*
X109734767Y-116597206D01*
X109759184Y-116662670D01*
X109759500Y-116671516D01*
X109759500Y-117765701D01*
X109762401Y-117802567D01*
X109762402Y-117802573D01*
X109808254Y-117960393D01*
X109808255Y-117960396D01*
X109808256Y-117960398D01*
X109826989Y-117992074D01*
X109891917Y-118101862D01*
X109891923Y-118101870D01*
X110008129Y-118218076D01*
X110008133Y-118218079D01*
X110008135Y-118218081D01*
X110149602Y-118301744D01*
X110191224Y-118313836D01*
X110307426Y-118347597D01*
X110307429Y-118347597D01*
X110307431Y-118347598D01*
X110344306Y-118350500D01*
X110699903Y-118350500D01*
X110766942Y-118370185D01*
X110787583Y-118386818D01*
X111381284Y-118980520D01*
X111381286Y-118980521D01*
X111381290Y-118980524D01*
X111422635Y-119004394D01*
X111518216Y-119059577D01*
X111670943Y-119100501D01*
X111670945Y-119100501D01*
X111836654Y-119100501D01*
X111836670Y-119100500D01*
X120324499Y-119100500D01*
X120391538Y-119120185D01*
X120437293Y-119172989D01*
X120448499Y-119224500D01*
X120448499Y-119369418D01*
X120448498Y-119369418D01*
X120448578Y-119369716D01*
X120489423Y-119522149D01*
X120489423Y-119522150D01*
X120491527Y-119529999D01*
X120488481Y-119530815D01*
X120494367Y-119585502D01*
X120463100Y-119647985D01*
X120403016Y-119683644D01*
X120372335Y-119687500D01*
X113649307Y-119687500D01*
X113649291Y-119687499D01*
X113641695Y-119687499D01*
X113483581Y-119687499D01*
X113403648Y-119708917D01*
X113330854Y-119728422D01*
X113294212Y-119749578D01*
X113294211Y-119749577D01*
X113193925Y-119807477D01*
X113193920Y-119807481D01*
X113082116Y-119919286D01*
X111398222Y-121603181D01*
X111336899Y-121636666D01*
X111310541Y-121639500D01*
X108317192Y-121639500D01*
X108317176Y-121639499D01*
X108309580Y-121639499D01*
X108151465Y-121639499D01*
X108075101Y-121659961D01*
X107998736Y-121680423D01*
X107998731Y-121680426D01*
X107861812Y-121759475D01*
X107861804Y-121759481D01*
X106816106Y-122805181D01*
X106754783Y-122838666D01*
X106728425Y-122841500D01*
X103735075Y-122841500D01*
X103735059Y-122841499D01*
X103727463Y-122841499D01*
X103569349Y-122841499D01*
X103416621Y-122882423D01*
X103416620Y-122882423D01*
X103416618Y-122882424D01*
X103387045Y-122899499D01*
X103387043Y-122899500D01*
X103279693Y-122961477D01*
X103279688Y-122961481D01*
X103209905Y-123031265D01*
X103167886Y-123073284D01*
X103167884Y-123073286D01*
X102760229Y-123480942D01*
X102377990Y-123863181D01*
X102316667Y-123896666D01*
X102290309Y-123899500D01*
X99131230Y-123899500D01*
X99090309Y-123910464D01*
X99090309Y-123910465D01*
X99053041Y-123920451D01*
X98978504Y-123940423D01*
X98978499Y-123940426D01*
X98841580Y-124019475D01*
X98841572Y-124019481D01*
X98729768Y-124131286D01*
X97651874Y-125209181D01*
X97590551Y-125242666D01*
X97564193Y-125245500D01*
X94570844Y-125245500D01*
X94570828Y-125245499D01*
X94563232Y-125245499D01*
X94405117Y-125245499D01*
X94328753Y-125265961D01*
X94252388Y-125286423D01*
X94252383Y-125286426D01*
X94115464Y-125365475D01*
X94115456Y-125365481D01*
X93069758Y-126411181D01*
X93008435Y-126444666D01*
X92982077Y-126447500D01*
X89988727Y-126447500D01*
X89981119Y-126447499D01*
X89981116Y-126447499D01*
X89859499Y-126447499D01*
X89792460Y-126427814D01*
X89746705Y-126375010D01*
X89746703Y-126374996D01*
X89735500Y-126323499D01*
X89735500Y-119108931D01*
X89755185Y-119041892D01*
X89807989Y-118996137D01*
X89877147Y-118986193D01*
X89940703Y-119015218D01*
X89947181Y-119021250D01*
X90402305Y-119476374D01*
X90402315Y-119476385D01*
X90406645Y-119480715D01*
X90406646Y-119480716D01*
X90518450Y-119592520D01*
X90581946Y-119629179D01*
X90655381Y-119671577D01*
X90808109Y-119712501D01*
X90808112Y-119712501D01*
X90973819Y-119712501D01*
X90973835Y-119712500D01*
X106083751Y-119712500D01*
X106083767Y-119712501D01*
X106091363Y-119712501D01*
X106249474Y-119712501D01*
X106249477Y-119712501D01*
X106402205Y-119671577D01*
X106475640Y-119629179D01*
X106539136Y-119592520D01*
X106650940Y-119480716D01*
X106650940Y-119480714D01*
X106661144Y-119470511D01*
X106661147Y-119470506D01*
X109547821Y-116583833D01*
X109609142Y-116550350D01*
X109678834Y-116555334D01*
G37*
%TD.AperFunction*%
%TA.AperFunction,Conductor*%
G36*
X164094712Y-119516238D02*
G01*
X164146188Y-119563482D01*
X164157930Y-119589194D01*
X164168830Y-119622741D01*
X164197454Y-119710836D01*
X164246697Y-119807480D01*
X164283240Y-119879199D01*
X164394310Y-120032073D01*
X164527927Y-120165690D01*
X164680801Y-120276760D01*
X164743136Y-120308521D01*
X164849163Y-120362545D01*
X164849165Y-120362545D01*
X164849168Y-120362547D01*
X164945497Y-120393846D01*
X165028881Y-120420940D01*
X165215514Y-120450500D01*
X165215519Y-120450500D01*
X165404486Y-120450500D01*
X165591118Y-120420940D01*
X165617552Y-120412351D01*
X165748183Y-120369905D01*
X165818022Y-120367911D01*
X165877855Y-120403991D01*
X165908684Y-120466691D01*
X165910500Y-120487837D01*
X165910500Y-123438902D01*
X165890815Y-123505941D01*
X165874181Y-123526583D01*
X165143584Y-124257181D01*
X165082261Y-124290666D01*
X165055903Y-124293500D01*
X163927284Y-124293500D01*
X163908341Y-124298576D01*
X163908342Y-124298577D01*
X163774562Y-124334423D01*
X163774557Y-124334426D01*
X163637638Y-124413475D01*
X163637634Y-124413478D01*
X163561732Y-124489380D01*
X163500408Y-124522864D01*
X163430717Y-124517880D01*
X163374783Y-124476008D01*
X163350367Y-124410543D01*
X163354277Y-124369603D01*
X163370500Y-124309059D01*
X163370501Y-124309057D01*
X163370501Y-124150942D01*
X163370501Y-124143347D01*
X163370500Y-124143329D01*
X163370500Y-120360791D01*
X163390185Y-120293752D01*
X163421612Y-120260475D01*
X163552073Y-120165690D01*
X163685690Y-120032073D01*
X163796760Y-119879199D01*
X163882547Y-119710832D01*
X163922069Y-119589195D01*
X163961507Y-119531521D01*
X164025866Y-119504323D01*
X164094712Y-119516238D01*
G37*
%TD.AperFunction*%
%TA.AperFunction,Conductor*%
G36*
X159014712Y-119516238D02*
G01*
X159066188Y-119563482D01*
X159077930Y-119589194D01*
X159088830Y-119622741D01*
X159117454Y-119710836D01*
X159166697Y-119807480D01*
X159203240Y-119879199D01*
X159314310Y-120032073D01*
X159447927Y-120165690D01*
X159578386Y-120260474D01*
X159621051Y-120315803D01*
X159629500Y-120360791D01*
X159629500Y-123280425D01*
X159609815Y-123347464D01*
X159593181Y-123368106D01*
X159305106Y-123656181D01*
X159243783Y-123689666D01*
X159217425Y-123692500D01*
X158598346Y-123692500D01*
X158557424Y-123703464D01*
X158557425Y-123703465D01*
X158446594Y-123733162D01*
X158421600Y-123732566D01*
X158396855Y-123736125D01*
X158387274Y-123731749D01*
X158376745Y-123731499D01*
X158356041Y-123717486D01*
X158333299Y-123707101D01*
X158327604Y-123698240D01*
X158318882Y-123692337D01*
X158309040Y-123669355D01*
X158295524Y-123648323D01*
X158293244Y-123632465D01*
X158291378Y-123628108D01*
X158290501Y-123613388D01*
X158290501Y-123570265D01*
X158290501Y-123480942D01*
X158290500Y-123480938D01*
X158290500Y-120360791D01*
X158310185Y-120293752D01*
X158341612Y-120260475D01*
X158472073Y-120165690D01*
X158605690Y-120032073D01*
X158716760Y-119879199D01*
X158802547Y-119710832D01*
X158842069Y-119589195D01*
X158881507Y-119531521D01*
X158945866Y-119504323D01*
X159014712Y-119516238D01*
G37*
%TD.AperFunction*%
%TA.AperFunction,Conductor*%
G36*
X159636488Y-105061739D02*
G01*
X159638387Y-105061549D01*
X159671794Y-105072932D01*
X159688538Y-105081464D01*
X159769163Y-105122545D01*
X159769165Y-105122545D01*
X159769168Y-105122547D01*
X159857528Y-105151257D01*
X159948881Y-105180940D01*
X160135514Y-105210500D01*
X160135519Y-105210500D01*
X160324486Y-105210500D01*
X160511118Y-105180940D01*
X160548185Y-105168896D01*
X160668183Y-105129905D01*
X160738022Y-105127911D01*
X160797855Y-105163991D01*
X160828684Y-105226691D01*
X160830500Y-105247837D01*
X160830500Y-107268902D01*
X160810815Y-107335941D01*
X160794181Y-107356583D01*
X159769481Y-108381282D01*
X159769479Y-108381285D01*
X159763706Y-108391285D01*
X159721863Y-108463761D01*
X159719361Y-108468094D01*
X159719359Y-108468096D01*
X159690425Y-108518209D01*
X159690424Y-108518210D01*
X159690423Y-108518215D01*
X159649499Y-108670943D01*
X159649499Y-108670945D01*
X159649499Y-108839046D01*
X159649500Y-108839059D01*
X159649500Y-118124677D01*
X159629815Y-118191716D01*
X159598387Y-118224993D01*
X159447927Y-118334310D01*
X159447925Y-118334312D01*
X159447924Y-118334312D01*
X159314312Y-118467924D01*
X159314312Y-118467925D01*
X159314310Y-118467927D01*
X159266610Y-118533579D01*
X159203240Y-118620800D01*
X159117454Y-118789163D01*
X159077931Y-118910803D01*
X159038493Y-118968478D01*
X158974134Y-118995676D01*
X158905288Y-118983761D01*
X158853812Y-118936516D01*
X158842069Y-118910803D01*
X158814248Y-118825181D01*
X158802547Y-118789168D01*
X158802545Y-118789165D01*
X158802545Y-118789163D01*
X158757290Y-118700347D01*
X158716760Y-118620801D01*
X158605690Y-118467927D01*
X158472073Y-118334310D01*
X158455883Y-118322547D01*
X158401614Y-118283117D01*
X158358948Y-118227787D01*
X158350500Y-118182800D01*
X158350500Y-109050097D01*
X158370185Y-108983058D01*
X158386819Y-108962416D01*
X158841382Y-108507853D01*
X159371520Y-107977716D01*
X159450577Y-107840784D01*
X159491501Y-107688057D01*
X159491501Y-107529942D01*
X159491501Y-107522347D01*
X159491500Y-107522329D01*
X159491500Y-105183418D01*
X159492275Y-105180777D01*
X159491614Y-105178107D01*
X159502063Y-105147441D01*
X159511185Y-105116379D01*
X159513262Y-105114578D01*
X159514151Y-105111972D01*
X159539527Y-105091820D01*
X159563989Y-105070624D01*
X159566711Y-105070232D01*
X159568867Y-105068521D01*
X159601088Y-105065289D01*
X159633147Y-105060680D01*
X159636488Y-105061739D01*
G37*
%TD.AperFunction*%
%TA.AperFunction,Conductor*%
G36*
X164751794Y-105072932D02*
G01*
X164768538Y-105081464D01*
X164849163Y-105122545D01*
X164849165Y-105122545D01*
X164849168Y-105122547D01*
X164937528Y-105151257D01*
X165028881Y-105180940D01*
X165215514Y-105210500D01*
X165215519Y-105210500D01*
X165404486Y-105210500D01*
X165591118Y-105180940D01*
X165628185Y-105168896D01*
X165748183Y-105129905D01*
X165818022Y-105127911D01*
X165877855Y-105163991D01*
X165908684Y-105226691D01*
X165910500Y-105247837D01*
X165910500Y-107288916D01*
X165890815Y-107355955D01*
X165874181Y-107376597D01*
X164769481Y-108481296D01*
X164769479Y-108481299D01*
X164719361Y-108568108D01*
X164719359Y-108568109D01*
X164719359Y-108568110D01*
X164690425Y-108618223D01*
X164690424Y-108618224D01*
X164676298Y-108670943D01*
X164649499Y-108770957D01*
X164649499Y-108770959D01*
X164649499Y-108939060D01*
X164649500Y-108939073D01*
X164649500Y-115850230D01*
X164631253Y-115912369D01*
X164632095Y-115912819D01*
X164629935Y-115916859D01*
X164629815Y-115917269D01*
X164629278Y-115918087D01*
X164629223Y-115918190D01*
X164576421Y-116045667D01*
X164576418Y-116045677D01*
X164549500Y-116181004D01*
X164549500Y-116181007D01*
X164549500Y-116318993D01*
X164549500Y-116318995D01*
X164549499Y-116318995D01*
X164576418Y-116454322D01*
X164576421Y-116454332D01*
X164629222Y-116581806D01*
X164632094Y-116587178D01*
X164630792Y-116587874D01*
X164649480Y-116647554D01*
X164649500Y-116649769D01*
X164649500Y-118182800D01*
X164629815Y-118249839D01*
X164598386Y-118283117D01*
X164527933Y-118334305D01*
X164527924Y-118334312D01*
X164394312Y-118467924D01*
X164394312Y-118467925D01*
X164394310Y-118467927D01*
X164346610Y-118533579D01*
X164283240Y-118620800D01*
X164197454Y-118789163D01*
X164157931Y-118910803D01*
X164118493Y-118968478D01*
X164054134Y-118995676D01*
X163985288Y-118983761D01*
X163933812Y-118936516D01*
X163922069Y-118910803D01*
X163894248Y-118825181D01*
X163882547Y-118789168D01*
X163882545Y-118789165D01*
X163882545Y-118789163D01*
X163837290Y-118700347D01*
X163796760Y-118620801D01*
X163685690Y-118467927D01*
X163552073Y-118334310D01*
X163474674Y-118278076D01*
X163421614Y-118239525D01*
X163378948Y-118184194D01*
X163370500Y-118139207D01*
X163370500Y-109280096D01*
X163390185Y-109213057D01*
X163406815Y-109192419D01*
X164329506Y-108269727D01*
X164329511Y-108269724D01*
X164339714Y-108259520D01*
X164339716Y-108259520D01*
X164451520Y-108147716D01*
X164530577Y-108010784D01*
X164571500Y-107858057D01*
X164571500Y-105183417D01*
X164591185Y-105116379D01*
X164643989Y-105070624D01*
X164713147Y-105060680D01*
X164751794Y-105072932D01*
G37*
%TD.AperFunction*%
%TA.AperFunction,Conductor*%
G36*
X110550362Y-113670185D02*
G01*
X110596117Y-113722989D01*
X110606061Y-113792147D01*
X110577036Y-113855703D01*
X110571004Y-113862181D01*
X105958004Y-118475181D01*
X105896681Y-118508666D01*
X105870323Y-118511500D01*
X105176965Y-118511500D01*
X105109926Y-118491815D01*
X105064171Y-118439011D01*
X105054227Y-118369853D01*
X105083252Y-118306297D01*
X105104079Y-118287182D01*
X105221894Y-118201582D01*
X105221895Y-118201582D01*
X105366582Y-118056895D01*
X105366582Y-118056894D01*
X105486859Y-117891349D01*
X105579755Y-117709031D01*
X105642990Y-117514417D01*
X105675000Y-117312317D01*
X105675000Y-117060000D01*
X104690686Y-117060000D01*
X104695080Y-117055606D01*
X104747741Y-116964394D01*
X104775000Y-116862661D01*
X104775000Y-116757339D01*
X104747741Y-116655606D01*
X104695080Y-116564394D01*
X104690686Y-116560000D01*
X105675000Y-116560000D01*
X105675000Y-116307682D01*
X105642990Y-116105582D01*
X105579755Y-115910968D01*
X105486859Y-115728650D01*
X105366582Y-115563105D01*
X105366582Y-115563104D01*
X105221895Y-115418417D01*
X105056349Y-115298140D01*
X104874029Y-115205244D01*
X104679413Y-115142009D01*
X104625000Y-115133390D01*
X104625000Y-116494314D01*
X104620606Y-116489920D01*
X104529394Y-116437259D01*
X104427661Y-116410000D01*
X104322339Y-116410000D01*
X104220606Y-116437259D01*
X104129394Y-116489920D01*
X104125000Y-116494314D01*
X104125000Y-115133390D01*
X104070586Y-115142009D01*
X103875970Y-115205244D01*
X103693650Y-115298140D01*
X103528105Y-115418417D01*
X103528104Y-115418417D01*
X103383417Y-115563104D01*
X103383417Y-115563105D01*
X103263140Y-115728650D01*
X103170243Y-115910971D01*
X103168457Y-115916469D01*
X103129017Y-115974142D01*
X103064657Y-116001337D01*
X102995811Y-115989420D01*
X102944338Y-115942173D01*
X102940043Y-115934440D01*
X102904520Y-115864723D01*
X102861760Y-115780801D01*
X102750690Y-115627927D01*
X102617073Y-115494310D01*
X102464199Y-115383240D01*
X102443745Y-115372818D01*
X102295836Y-115297454D01*
X102116118Y-115239059D01*
X101929486Y-115209500D01*
X101929481Y-115209500D01*
X101740519Y-115209500D01*
X101740514Y-115209500D01*
X101553881Y-115239059D01*
X101374163Y-115297454D01*
X101205800Y-115383240D01*
X101118579Y-115446610D01*
X101052927Y-115494310D01*
X101052925Y-115494312D01*
X101052924Y-115494312D01*
X100919312Y-115627924D01*
X100919312Y-115627925D01*
X100919310Y-115627927D01*
X100882286Y-115678885D01*
X100808236Y-115780805D01*
X100729955Y-115934440D01*
X100681981Y-115985236D01*
X100614160Y-116002031D01*
X100548025Y-115979493D01*
X100504574Y-115924778D01*
X100501538Y-115916458D01*
X100499754Y-115910967D01*
X100406859Y-115728650D01*
X100286582Y-115563105D01*
X100286582Y-115563104D01*
X100141895Y-115418417D01*
X99976349Y-115298140D01*
X99794031Y-115205244D01*
X99598279Y-115141640D01*
X99540604Y-115102202D01*
X99513406Y-115037843D01*
X99525321Y-114968997D01*
X99548914Y-114936031D01*
X100798127Y-113686819D01*
X100859450Y-113653334D01*
X100885808Y-113650500D01*
X110483323Y-113650500D01*
X110550362Y-113670185D01*
G37*
%TD.AperFunction*%
%TA.AperFunction,Conductor*%
G36*
X115719920Y-108884394D02*
G01*
X115667259Y-108975606D01*
X115640000Y-109077339D01*
X115640000Y-109182661D01*
X115667259Y-109284394D01*
X115719920Y-109375606D01*
X115724314Y-109380000D01*
X113815686Y-109380000D01*
X113820080Y-109375606D01*
X113872741Y-109284394D01*
X113900000Y-109182661D01*
X113900000Y-109077339D01*
X113872741Y-108975606D01*
X113820080Y-108884394D01*
X113815686Y-108880000D01*
X115724314Y-108880000D01*
X115719920Y-108884394D01*
G37*
%TD.AperFunction*%
%TA.AperFunction,Conductor*%
G36*
X164094712Y-86526238D02*
G01*
X164146188Y-86573482D01*
X164157931Y-86599196D01*
X164197454Y-86720836D01*
X164248047Y-86820129D01*
X164283240Y-86889199D01*
X164394310Y-87042073D01*
X164527927Y-87175690D01*
X164680801Y-87286760D01*
X164747263Y-87320624D01*
X164849163Y-87372545D01*
X164849165Y-87372545D01*
X164849168Y-87372547D01*
X164928987Y-87398482D01*
X165028881Y-87430940D01*
X165215514Y-87460500D01*
X165215519Y-87460500D01*
X165404486Y-87460500D01*
X165591118Y-87430940D01*
X165621753Y-87420986D01*
X165770832Y-87372547D01*
X165868206Y-87322932D01*
X165870908Y-87322425D01*
X165872987Y-87320624D01*
X165905040Y-87316015D01*
X165936873Y-87310037D01*
X165939421Y-87311071D01*
X165942145Y-87310680D01*
X165971609Y-87324135D01*
X166001613Y-87336313D01*
X166003197Y-87338560D01*
X166005701Y-87339704D01*
X166023212Y-87366951D01*
X166041871Y-87393419D01*
X166042443Y-87396875D01*
X166043476Y-87398482D01*
X166048497Y-87433410D01*
X166048499Y-87433417D01*
X166048499Y-87540057D01*
X166048499Y-87540059D01*
X166048500Y-87550053D01*
X166048500Y-100326581D01*
X166028815Y-100393620D01*
X165976011Y-100439375D01*
X165906853Y-100449319D01*
X165868206Y-100437066D01*
X165770839Y-100387455D01*
X165591118Y-100329059D01*
X165404486Y-100299500D01*
X165404481Y-100299500D01*
X165215519Y-100299500D01*
X165215514Y-100299500D01*
X165028881Y-100329059D01*
X164849163Y-100387454D01*
X164680800Y-100473240D01*
X164593579Y-100536610D01*
X164527927Y-100584310D01*
X164527925Y-100584312D01*
X164527924Y-100584312D01*
X164394312Y-100717924D01*
X164394312Y-100717925D01*
X164394310Y-100717927D01*
X164346610Y-100783579D01*
X164283240Y-100870800D01*
X164197454Y-101039163D01*
X164157931Y-101160803D01*
X164118493Y-101218478D01*
X164054134Y-101245676D01*
X163985288Y-101233761D01*
X163933812Y-101186516D01*
X163922069Y-101160803D01*
X163882545Y-101039163D01*
X163796759Y-100870800D01*
X163767116Y-100830000D01*
X163685690Y-100717927D01*
X163552073Y-100584310D01*
X163399199Y-100473240D01*
X163370500Y-100458617D01*
X163230836Y-100387454D01*
X163051118Y-100329059D01*
X162864486Y-100299500D01*
X162864481Y-100299500D01*
X162675519Y-100299500D01*
X162675514Y-100299500D01*
X162488880Y-100329060D01*
X162488877Y-100329060D01*
X162331818Y-100380093D01*
X162261977Y-100382088D01*
X162202144Y-100346008D01*
X162171316Y-100283307D01*
X162169500Y-100262162D01*
X162169500Y-87761096D01*
X162189185Y-87694057D01*
X162205815Y-87673419D01*
X162409169Y-87470064D01*
X162470490Y-87436581D01*
X162516246Y-87435274D01*
X162675514Y-87460500D01*
X162675519Y-87460500D01*
X162864486Y-87460500D01*
X163051118Y-87430940D01*
X163081753Y-87420986D01*
X163230832Y-87372547D01*
X163399199Y-87286760D01*
X163552073Y-87175690D01*
X163685690Y-87042073D01*
X163796760Y-86889199D01*
X163882547Y-86720832D01*
X163922069Y-86599195D01*
X163961507Y-86541521D01*
X164025866Y-86514323D01*
X164094712Y-86526238D01*
G37*
%TD.AperFunction*%
%TD*%
M02*
