%TF.GenerationSoftware,KiCad,Pcbnew,9.0.6+1*%
%TF.CreationDate,2026-03-14T12:44:22+01:00*%
%TF.ProjectId,rc2014_nvram,72633230-3134-45f6-9e76-72616d2e6b69,rev?*%
%TF.SameCoordinates,Original*%
%TF.FileFunction,Copper,L1,Top*%
%TF.FilePolarity,Positive*%
%FSLAX46Y46*%
G04 Gerber Fmt 4.6, Leading zero omitted, Abs format (unit mm)*
G04 Created by KiCad (PCBNEW 9.0.6+1) date 2026-03-14 12:44:22*
%MOMM*%
%LPD*%
G01*
G04 APERTURE LIST*
G04 Aperture macros list*
%AMRoundRect*
0 Rectangle with rounded corners*
0 $1 Rounding radius*
0 $2 $3 $4 $5 $6 $7 $8 $9 X,Y pos of 4 corners*
0 Add a 4 corners polygon primitive as box body*
4,1,4,$2,$3,$4,$5,$6,$7,$8,$9,$2,$3,0*
0 Add four circle primitives for the rounded corners*
1,1,$1+$1,$2,$3*
1,1,$1+$1,$4,$5*
1,1,$1+$1,$6,$7*
1,1,$1+$1,$8,$9*
0 Add four rect primitives between the rounded corners*
20,1,$1+$1,$2,$3,$4,$5,0*
20,1,$1+$1,$4,$5,$6,$7,0*
20,1,$1+$1,$6,$7,$8,$9,0*
20,1,$1+$1,$8,$9,$2,$3,0*%
G04 Aperture macros list end*
%TA.AperFunction,ComponentPad*%
%ADD10C,1.700000*%
%TD*%
%TA.AperFunction,ComponentPad*%
%ADD11R,1.700000X1.700000*%
%TD*%
%TA.AperFunction,ComponentPad*%
%ADD12RoundRect,0.250000X0.550000X-0.950000X0.550000X0.950000X-0.550000X0.950000X-0.550000X-0.950000X0*%
%TD*%
%TA.AperFunction,ComponentPad*%
%ADD13O,1.600000X2.400000*%
%TD*%
%TA.AperFunction,ComponentPad*%
%ADD14C,1.600000*%
%TD*%
%TA.AperFunction,ComponentPad*%
%ADD15RoundRect,0.250000X0.550000X-0.550000X0.550000X0.550000X-0.550000X0.550000X-0.550000X-0.550000X0*%
%TD*%
%TA.AperFunction,ComponentPad*%
%ADD16R,2.500000X2.000000*%
%TD*%
%TA.AperFunction,ComponentPad*%
%ADD17RoundRect,0.300000X-0.950000X-0.700000X0.950000X-0.700000X0.950000X0.700000X-0.950000X0.700000X0*%
%TD*%
%TA.AperFunction,ComponentPad*%
%ADD18C,1.400000*%
%TD*%
%TA.AperFunction,SMDPad,CuDef*%
%ADD19R,1.528000X0.650000*%
%TD*%
%TA.AperFunction,ViaPad*%
%ADD20C,0.600000*%
%TD*%
%TA.AperFunction,ViaPad*%
%ADD21C,0.900000*%
%TD*%
%TA.AperFunction,Conductor*%
%ADD22C,0.400000*%
%TD*%
%TA.AperFunction,Conductor*%
%ADD23C,0.500000*%
%TD*%
%TA.AperFunction,Conductor*%
%ADD24C,1.000000*%
%TD*%
G04 APERTURE END LIST*
D10*
%TO.P,Z80_BUS1,40,SPARE4*%
%TO.N,unconnected-(Z80_BUS1-SPARE4-Pad40)*%
X181780000Y-130000000D03*
%TO.P,Z80_BUS1,39,SPARE3*%
%TO.N,unconnected-(Z80_BUS1-SPARE3-Pad39)*%
X179240000Y-130000000D03*
%TO.P,Z80_BUS1,38,SPARE2*%
%TO.N,unconnected-(Z80_BUS1-SPARE2-Pad38)*%
X176700000Y-130000000D03*
%TO.P,Z80_BUS1,37,SPARE1*%
%TO.N,Net-(Z80_BUS1-SPARE1)*%
X174160000Y-130000000D03*
%TO.P,Z80_BUS1,36,Rx*%
%TO.N,unconnected-(Z80_BUS1-Rx-Pad36)*%
X171620000Y-130000000D03*
%TO.P,Z80_BUS1,35,Tx*%
%TO.N,unconnected-(Z80_BUS1-Tx-Pad35)*%
X169080000Y-130000000D03*
%TO.P,Z80_BUS1,34,D7*%
%TO.N,/D7*%
X166540000Y-130000000D03*
%TO.P,Z80_BUS1,33,D6*%
%TO.N,/D6*%
X164000000Y-130000000D03*
%TO.P,Z80_BUS1,32,D5*%
%TO.N,/D5*%
X161460000Y-130000000D03*
%TO.P,Z80_BUS1,31,D4*%
%TO.N,/D4*%
X158920000Y-130000000D03*
%TO.P,Z80_BUS1,30,D3*%
%TO.N,/D3*%
X156380000Y-130000000D03*
%TO.P,Z80_BUS1,29,D2*%
%TO.N,/D2*%
X153840000Y-130000000D03*
%TO.P,Z80_BUS1,28,D1*%
%TO.N,/D1*%
X151300000Y-130000000D03*
%TO.P,Z80_BUS1,27,D0*%
%TO.N,/D0*%
X148760000Y-130000000D03*
%TO.P,Z80_BUS1,26,IORQ*%
%TO.N,unconnected-(Z80_BUS1-IORQ-Pad26)*%
X146220000Y-130000000D03*
%TO.P,Z80_BUS1,25,RD*%
%TO.N,Net-(Z80_BUS1-RD)*%
X143680000Y-130000000D03*
%TO.P,Z80_BUS1,24,WR*%
%TO.N,Net-(Z80_BUS1-WR)*%
X141140000Y-130000000D03*
%TO.P,Z80_BUS1,23,MREQ*%
%TO.N,Net-(Z80_BUS1-MREQ)*%
X138600000Y-130000000D03*
%TO.P,Z80_BUS1,22,INT*%
%TO.N,unconnected-(Z80_BUS1-INT-Pad22)*%
X136060000Y-130000000D03*
%TO.P,Z80_BUS1,21,CLK*%
%TO.N,unconnected-(Z80_BUS1-CLK-Pad21)*%
X133520000Y-130000000D03*
%TO.P,Z80_BUS1,20,RESET*%
%TO.N,unconnected-(Z80_BUS1-RESET-Pad20)*%
X130980000Y-130000000D03*
%TO.P,Z80_BUS1,19,M1*%
%TO.N,unconnected-(Z80_BUS1-M1-Pad19)*%
X128440000Y-130000000D03*
%TO.P,Z80_BUS1,18,5V*%
%TO.N,+5V*%
X125900000Y-130000000D03*
%TO.P,Z80_BUS1,17,Gnd*%
%TO.N,GND*%
X123360000Y-130000000D03*
%TO.P,Z80_BUS1,16,A0*%
%TO.N,/A0*%
X120820000Y-130000000D03*
%TO.P,Z80_BUS1,15,A1*%
%TO.N,/A1*%
X118280000Y-130000000D03*
%TO.P,Z80_BUS1,14,A2*%
%TO.N,/A2*%
X115740000Y-130000000D03*
%TO.P,Z80_BUS1,13,A3*%
%TO.N,/A3*%
X113200000Y-130000000D03*
%TO.P,Z80_BUS1,12,A4*%
%TO.N,/A4*%
X110660000Y-130000000D03*
%TO.P,Z80_BUS1,11,A5*%
%TO.N,/A5*%
X108120000Y-130000000D03*
%TO.P,Z80_BUS1,10,A6*%
%TO.N,/A6*%
X105580000Y-130000000D03*
%TO.P,Z80_BUS1,9,A7*%
%TO.N,/A7*%
X103040000Y-130000000D03*
%TO.P,Z80_BUS1,8,A8*%
%TO.N,/A8*%
X100500000Y-130000000D03*
%TO.P,Z80_BUS1,7,A9*%
%TO.N,/A9*%
X97960000Y-130000000D03*
%TO.P,Z80_BUS1,6,A10*%
%TO.N,/A10*%
X95420000Y-130000000D03*
%TO.P,Z80_BUS1,5,A11*%
%TO.N,/A11*%
X92880000Y-130000000D03*
%TO.P,Z80_BUS1,4,A12*%
%TO.N,/A12*%
X90340000Y-130000000D03*
%TO.P,Z80_BUS1,3,A13*%
%TO.N,/A13*%
X87800000Y-130000000D03*
%TO.P,Z80_BUS1,2,A14*%
%TO.N,/A14*%
X85260000Y-130000000D03*
D11*
%TO.P,Z80_BUS1,1,A15*%
%TO.N,/A15*%
X82720000Y-130000000D03*
%TD*%
D12*
%TO.P,U5,1*%
%TO.N,Net-(Z80_BUS1-MREQ)*%
X110960000Y-116750000D03*
D13*
%TO.P,U5,2*%
%TO.N,Net-(Z80_BUS1-RD)*%
X113500000Y-116750000D03*
%TO.P,U5,3*%
%TO.N,MEMRD*%
X116040000Y-116750000D03*
%TO.P,U5,4*%
%TO.N,Net-(Z80_BUS1-WR)*%
X118580000Y-116750000D03*
%TO.P,U5,5*%
%TO.N,Net-(Z80_BUS1-MREQ)*%
X121120000Y-116750000D03*
%TO.P,U5,6*%
%TO.N,MEMWR*%
X123660000Y-116750000D03*
%TO.P,U5,7,GND*%
%TO.N,GND*%
X126200000Y-116750000D03*
%TO.P,U5,8*%
%TO.N,Net-(U4-~{CE})*%
X126200000Y-109130000D03*
%TO.P,U5,9*%
%TO.N,/A15*%
X123660000Y-109130000D03*
%TO.P,U5,10*%
%TO.N,Net-(U5-Pad10)*%
X121120000Y-109130000D03*
%TO.P,U5,11*%
%TO.N,unconnected-(U5-Pad11)*%
X118580000Y-109130000D03*
%TO.P,U5,12*%
%TO.N,GND*%
X116040000Y-109130000D03*
%TO.P,U5,13*%
X113500000Y-109130000D03*
%TO.P,U5,14,VCC*%
%TO.N,+5V*%
X110960000Y-109130000D03*
%TD*%
D14*
%TO.P,U1,28,VCC*%
%TO.N,Net-(U1-VCC)*%
X144990000Y-86260000D03*
%TO.P,U1,27,~{WE}*%
%TO.N,MEMWR*%
X147530000Y-86260000D03*
%TO.P,U1,26,A13*%
%TO.N,/A12*%
X150070000Y-86260000D03*
%TO.P,U1,25,A8*%
%TO.N,/A10*%
X152610000Y-86260000D03*
%TO.P,U1,24,A9*%
%TO.N,/A8*%
X155150000Y-86260000D03*
%TO.P,U1,23,A11*%
%TO.N,/A6*%
X157690000Y-86260000D03*
%TO.P,U1,22,~{OE}*%
%TO.N,MEMRD*%
X160230000Y-86260000D03*
%TO.P,U1,21,A10*%
%TO.N,/A3*%
X162770000Y-86260000D03*
%TO.P,U1,20,~{CS}*%
%TO.N,Net-(U1-~{CS})*%
X165310000Y-86260000D03*
%TO.P,U1,19,Q7*%
%TO.N,/D0*%
X167850000Y-86260000D03*
%TO.P,U1,18,Q6*%
%TO.N,/D1*%
X170390000Y-86260000D03*
%TO.P,U1,17,Q5*%
%TO.N,/D3*%
X172930000Y-86260000D03*
%TO.P,U1,16,Q4*%
%TO.N,/D5*%
X175470000Y-86260000D03*
%TO.P,U1,15,Q3*%
%TO.N,/D7*%
X178010000Y-86260000D03*
%TO.P,U1,14,GND*%
%TO.N,GND*%
X178010000Y-101500000D03*
%TO.P,U1,13,Q2*%
%TO.N,/D6*%
X175470000Y-101500000D03*
%TO.P,U1,12,Q1*%
%TO.N,/D4*%
X172930000Y-101500000D03*
%TO.P,U1,11,Q0*%
%TO.N,/D2*%
X170390000Y-101500000D03*
%TO.P,U1,10,A0*%
%TO.N,/A0*%
X167850000Y-101500000D03*
%TO.P,U1,9,A1*%
%TO.N,/A1*%
X165310000Y-101500000D03*
%TO.P,U1,8,A2*%
%TO.N,/A2*%
X162770000Y-101500000D03*
%TO.P,U1,7,A3*%
%TO.N,/A4*%
X160230000Y-101500000D03*
%TO.P,U1,6,A4*%
%TO.N,/A5*%
X157690000Y-101500000D03*
%TO.P,U1,5,A5*%
%TO.N,/A7*%
X155150000Y-101500000D03*
%TO.P,U1,4,A6*%
%TO.N,/A9*%
X152610000Y-101500000D03*
%TO.P,U1,3,A7*%
%TO.N,/A11*%
X150070000Y-101500000D03*
%TO.P,U1,2,A12*%
%TO.N,/A13*%
X147530000Y-101500000D03*
D15*
%TO.P,U1,1,A14*%
%TO.N,/A14*%
X144990000Y-101500000D03*
%TD*%
%TO.P,U2,1,A14*%
%TO.N,/A14*%
X144990000Y-119250000D03*
D14*
%TO.P,U2,2,A12*%
%TO.N,/A13*%
X147530000Y-119250000D03*
%TO.P,U2,3,A7*%
%TO.N,/A11*%
X150070000Y-119250000D03*
%TO.P,U2,4,A6*%
%TO.N,/A9*%
X152610000Y-119250000D03*
%TO.P,U2,5,A5*%
%TO.N,/A7*%
X155150000Y-119250000D03*
%TO.P,U2,6,A4*%
%TO.N,/A5*%
X157690000Y-119250000D03*
%TO.P,U2,7,A3*%
%TO.N,/A4*%
X160230000Y-119250000D03*
%TO.P,U2,8,A2*%
%TO.N,/A2*%
X162770000Y-119250000D03*
%TO.P,U2,9,A1*%
%TO.N,/A1*%
X165310000Y-119250000D03*
%TO.P,U2,10,A0*%
%TO.N,/A0*%
X167850000Y-119250000D03*
%TO.P,U2,11,Q0*%
%TO.N,/D2*%
X170390000Y-119250000D03*
%TO.P,U2,12,Q1*%
%TO.N,/D4*%
X172930000Y-119250000D03*
%TO.P,U2,13,Q2*%
%TO.N,/D6*%
X175470000Y-119250000D03*
%TO.P,U2,14,GND*%
%TO.N,GND*%
X178010000Y-119250000D03*
%TO.P,U2,15,Q3*%
%TO.N,/D7*%
X178010000Y-104010000D03*
%TO.P,U2,16,Q4*%
%TO.N,/D5*%
X175470000Y-104010000D03*
%TO.P,U2,17,Q5*%
%TO.N,/D3*%
X172930000Y-104010000D03*
%TO.P,U2,18,Q6*%
%TO.N,/D1*%
X170390000Y-104010000D03*
%TO.P,U2,19,Q7*%
%TO.N,/D0*%
X167850000Y-104010000D03*
%TO.P,U2,20,~{CS}*%
%TO.N,Net-(U2-~{CS})*%
X165310000Y-104010000D03*
%TO.P,U2,21,A10*%
%TO.N,/A3*%
X162770000Y-104010000D03*
%TO.P,U2,22,~{OE}*%
%TO.N,MEMRD*%
X160230000Y-104010000D03*
%TO.P,U2,23,A11*%
%TO.N,/A6*%
X157690000Y-104010000D03*
%TO.P,U2,24,A9*%
%TO.N,/A8*%
X155150000Y-104010000D03*
%TO.P,U2,25,A8*%
%TO.N,/A10*%
X152610000Y-104010000D03*
%TO.P,U2,26,A13*%
%TO.N,/A12*%
X150070000Y-104010000D03*
%TO.P,U2,27,~{WE}*%
%TO.N,MEMWR*%
X147530000Y-104010000D03*
%TO.P,U2,28,VCC*%
%TO.N,Net-(U2-VCC)*%
X144990000Y-104010000D03*
%TD*%
%TO.P,R1,2*%
%TO.N,Net-(Z80_BUS1-SPARE1)*%
X85750000Y-116830000D03*
%TO.P,R1,1*%
%TO.N,+5V*%
X85750000Y-106670000D03*
%TD*%
D13*
%TO.P,U6,14,VCC*%
%TO.N,+5V*%
X89135000Y-109190000D03*
%TO.P,U6,13*%
%TO.N,GND*%
X91675000Y-109190000D03*
%TO.P,U6,12*%
%TO.N,unconnected-(U6-Pad12)*%
X94215000Y-109190000D03*
%TO.P,U6,11*%
%TO.N,GND*%
X96755000Y-109190000D03*
%TO.P,U6,10*%
%TO.N,unconnected-(U6-Pad10)*%
X99295000Y-109190000D03*
%TO.P,U6,9*%
%TO.N,GND*%
X101835000Y-109190000D03*
%TO.P,U6,8*%
%TO.N,unconnected-(U6-Pad8)*%
X104375000Y-109190000D03*
%TO.P,U6,7,GND*%
%TO.N,GND*%
X104375000Y-116810000D03*
%TO.P,U6,6*%
%TO.N,unconnected-(U6-Pad6)*%
X101835000Y-116810000D03*
%TO.P,U6,5*%
%TO.N,GND*%
X99295000Y-116810000D03*
%TO.P,U6,4*%
%TO.N,Net-(U5-Pad10)*%
X96755000Y-116810000D03*
%TO.P,U6,3*%
%TO.N,Net-(Z80_BUS1-SPARE1)*%
X94215000Y-116810000D03*
%TO.P,U6,2*%
%TO.N,Net-(U3-~{CE})*%
X91675000Y-116810000D03*
D12*
%TO.P,U6,1*%
%TO.N,/A15*%
X89135000Y-116810000D03*
%TD*%
D16*
%TO.P,BT1,1,+*%
%TO.N,Net-(BT1-+)*%
X141000000Y-96000000D03*
D17*
%TO.P,BT1,2,-*%
%TO.N,GND*%
X90000000Y-90920000D03*
X90000000Y-101080000D03*
%TD*%
D18*
%TO.P,C3,1*%
%TO.N,+5V*%
X131000000Y-84000000D03*
%TO.P,C3,2*%
%TO.N,GND*%
X131000000Y-86500000D03*
%TD*%
%TO.P,C1,1*%
%TO.N,+5V*%
X135500000Y-112250000D03*
%TO.P,C1,2*%
%TO.N,GND*%
X138000000Y-112250000D03*
%TD*%
%TO.P,C4,1*%
%TO.N,+5V*%
X110715000Y-105940000D03*
%TO.P,C4,2*%
%TO.N,GND*%
X113215000Y-105940000D03*
%TD*%
%TO.P,C2,1*%
%TO.N,+5V*%
X88750000Y-105940000D03*
%TO.P,C2,2*%
%TO.N,GND*%
X91250000Y-105940000D03*
%TD*%
D19*
%TO.P,U3,1,VOUT*%
%TO.N,Net-(U1-VCC)*%
X139711000Y-87155000D03*
%TO.P,U3,2,BC2*%
%TO.N,GND*%
X139711000Y-85885000D03*
%TO.P,U3,3,THS*%
X139711000Y-84615000D03*
%TO.P,U3,4,VSS*%
X139711000Y-83345000D03*
%TO.P,U3,5,~{CE}*%
%TO.N,Net-(U3-~{CE})*%
X134289000Y-83345000D03*
%TO.P,U3,6,~{CECON}*%
%TO.N,Net-(U1-~{CS})*%
X134289000Y-84615000D03*
%TO.P,U3,7,BC1*%
%TO.N,Net-(BT1-+)*%
X134289000Y-85885000D03*
%TO.P,U3,8,VCC*%
%TO.N,+5V*%
X134289000Y-87155000D03*
%TD*%
%TO.P,U4,1,VOUT*%
%TO.N,Net-(U2-VCC)*%
X139711000Y-109405000D03*
%TO.P,U4,2,BC2*%
%TO.N,GND*%
X139711000Y-108135000D03*
%TO.P,U4,3,THS*%
X139711000Y-106865000D03*
%TO.P,U4,4,VSS*%
X139711000Y-105595000D03*
%TO.P,U4,5,~{CE}*%
%TO.N,Net-(U4-~{CE})*%
X134289000Y-105595000D03*
%TO.P,U4,6,~{CECON}*%
%TO.N,Net-(U2-~{CS})*%
X134289000Y-106865000D03*
%TO.P,U4,7,BC1*%
%TO.N,Net-(BT1-+)*%
X134289000Y-108135000D03*
%TO.P,U4,8,VCC*%
%TO.N,+5V*%
X134289000Y-109405000D03*
%TD*%
D20*
%TO.N,GND*%
X120000000Y-119500000D03*
X143250000Y-98250000D03*
D21*
X132750000Y-110500000D03*
D20*
X139711000Y-104250000D03*
D21*
X137250000Y-128449000D03*
X144949000Y-128449000D03*
X117051000Y-128449000D03*
D20*
%TO.N,/A1*%
X141750000Y-114750000D03*
X122500000Y-113750000D03*
X165250000Y-116250000D03*
D21*
%TO.N,GND*%
X127199000Y-128449000D03*
X161000000Y-83750000D03*
X83500000Y-126250000D03*
X109000000Y-117750000D03*
X128750000Y-112000000D03*
X175500000Y-127500000D03*
X173000000Y-127500000D03*
X113750000Y-83750000D03*
X124500000Y-86500000D03*
X90500000Y-120750000D03*
D20*
%TO.N,MEMRD*%
X141500000Y-105250000D03*
X121250000Y-113500000D03*
%TO.N,/A0*%
X124433787Y-113848001D03*
X167850000Y-117050000D03*
X142250000Y-115750000D03*
%TO.N,Net-(Z80_BUS1-SPARE1)*%
X121908630Y-118750000D03*
X136193000Y-118700000D03*
%TO.N,Net-(U3-~{CE})*%
X132000000Y-82439800D03*
D21*
%TO.N,GND*%
X138250000Y-89000000D03*
X132700000Y-113750000D03*
D20*
%TO.N,Net-(U4-~{CE})*%
X132750000Y-105500000D03*
%TO.N,Net-(U2-~{CS})*%
X135500000Y-102750000D03*
X140750000Y-102750000D03*
D21*
%TO.N,+5V*%
X93500000Y-104000000D03*
D20*
%TO.N,Net-(Z80_BUS1-RD)*%
X140500000Y-118300000D03*
%TO.N,Net-(Z80_BUS1-WR)*%
X139500000Y-118300000D03*
%TO.N,Net-(Z80_BUS1-MREQ)*%
X138600000Y-119450000D03*
D21*
%TO.N,GND*%
X165500000Y-83750000D03*
%TD*%
D22*
%TO.N,MEMRD*%
X144000000Y-102750000D02*
X158970000Y-102750000D01*
X141500000Y-105250000D02*
X144000000Y-102750000D01*
X158970000Y-102750000D02*
X160230000Y-104010000D01*
%TO.N,Net-(U2-~{CS})*%
X142000000Y-102500000D02*
X143789000Y-100711000D01*
X143789000Y-100673420D02*
X144163420Y-100299000D01*
X141000000Y-102500000D02*
X142000000Y-102500000D01*
X161750000Y-100250000D02*
X161799000Y-100299000D01*
X163267471Y-100299000D02*
X163971000Y-101002529D01*
X140750000Y-102750000D02*
X141000000Y-102500000D01*
X144250000Y-100250000D02*
X161750000Y-100250000D01*
X163971000Y-101002529D02*
X163971000Y-102721000D01*
X161799000Y-100299000D02*
X163267471Y-100299000D01*
X144201000Y-100299000D02*
X144250000Y-100250000D01*
X144163420Y-100299000D02*
X144201000Y-100299000D01*
X143789000Y-100711000D02*
X143789000Y-100673420D01*
X163971000Y-102721000D02*
X164250000Y-103000000D01*
X164250000Y-103000000D02*
X164300000Y-103000000D01*
X164300000Y-103000000D02*
X165310000Y-104010000D01*
D23*
%TO.N,GND*%
X143250000Y-98250000D02*
X139711000Y-101789000D01*
X139711000Y-101789000D02*
X139711000Y-104250000D01*
X139711000Y-83345000D02*
X156250000Y-83345000D01*
X156401000Y-83496000D02*
X156250000Y-83345000D01*
X159673818Y-87511000D02*
X157171818Y-87511000D01*
X157171818Y-87511000D02*
X156401000Y-86740182D01*
X156401000Y-86740182D02*
X156401000Y-83496000D01*
X156250000Y-83345000D02*
X158500000Y-83345000D01*
X159673818Y-87511000D02*
X158941000Y-86778182D01*
X162251818Y-87511000D02*
X159673818Y-87511000D01*
X158941000Y-86778182D02*
X158941000Y-83786000D01*
X158941000Y-83786000D02*
X158500000Y-83345000D01*
D22*
%TO.N,Net-(BT1-+)*%
X141000000Y-96000000D02*
X136500000Y-96000000D01*
X134289000Y-85885000D02*
X135635000Y-85885000D01*
X135635000Y-85885000D02*
X136500000Y-86750000D01*
X136500000Y-86750000D02*
X136500000Y-96750000D01*
X136500000Y-96750000D02*
X136500000Y-107750000D01*
X136500000Y-107750000D02*
X136115000Y-108135000D01*
X136115000Y-108135000D02*
X134289000Y-108135000D01*
%TO.N,/A1*%
X165250000Y-116250000D02*
X144750000Y-116250000D01*
X144750000Y-116250000D02*
X143250000Y-114750000D01*
X143250000Y-114750000D02*
X141750000Y-114750000D01*
D23*
%TO.N,GND*%
X139711000Y-104250000D02*
X139711000Y-105595000D01*
D24*
%TO.N,+5V*%
X134250000Y-112250000D02*
X132250000Y-112250000D01*
X127750000Y-104000000D02*
X127250000Y-104000000D01*
X132250000Y-112250000D02*
X129250000Y-109250000D01*
X129250000Y-109250000D02*
X129250000Y-105500000D01*
X129250000Y-105500000D02*
X127750000Y-104000000D01*
D22*
%TO.N,Net-(U2-~{CS})*%
X135500000Y-102750000D02*
X133000000Y-102750000D01*
X133000000Y-102750000D02*
X132000000Y-103750000D01*
X132000000Y-103750000D02*
X132000000Y-106000000D01*
X132000000Y-106000000D02*
X132865000Y-106865000D01*
X132865000Y-106865000D02*
X134289000Y-106865000D01*
D24*
%TO.N,GND*%
X144949000Y-128449000D02*
X145051000Y-128449000D01*
X145051000Y-128449000D02*
X146000000Y-127500000D01*
X146000000Y-127500000D02*
X173000000Y-127500000D01*
X117051000Y-128449000D02*
X98199000Y-128449000D01*
X98199000Y-128449000D02*
X90500000Y-120750000D01*
X113750000Y-83750000D02*
X121750000Y-83750000D01*
X121750000Y-83750000D02*
X124500000Y-86500000D01*
X90000000Y-90920000D02*
X106580000Y-90920000D01*
X106580000Y-90920000D02*
X113750000Y-83750000D01*
D22*
%TO.N,/A1*%
X122500000Y-113750000D02*
X122459000Y-113791000D01*
X122459000Y-118309006D02*
X122609630Y-118459636D01*
X122609630Y-123266222D02*
X121858000Y-124017852D01*
X121858000Y-124017852D02*
X121858000Y-126392000D01*
X122459000Y-113791000D02*
X122459000Y-118309006D01*
X122609630Y-118459636D02*
X122609630Y-123266222D01*
X121858000Y-126392000D02*
X118280000Y-129970000D01*
X118280000Y-129970000D02*
X118280000Y-130000000D01*
%TO.N,/A0*%
X124433787Y-113848001D02*
X124433787Y-115425317D01*
X124861000Y-117647470D02*
X124750000Y-117758470D01*
X121000000Y-129820000D02*
X120820000Y-130000000D01*
X124433787Y-115425317D02*
X124861000Y-115852530D01*
X124861000Y-115852530D02*
X124861000Y-117647470D01*
X124750000Y-121975794D02*
X122459000Y-124266794D01*
X124750000Y-117758470D02*
X124750000Y-121975794D01*
X122459000Y-124266794D02*
X122459000Y-126791000D01*
X122459000Y-126791000D02*
X121000000Y-128250000D01*
X121000000Y-128250000D02*
X121000000Y-129820000D01*
D24*
%TO.N,GND*%
X109000000Y-117750000D02*
X105315000Y-117750000D01*
X105315000Y-117750000D02*
X104375000Y-116810000D01*
X83500000Y-117310818D02*
X83500000Y-115000000D01*
X83500000Y-115000000D02*
X87325000Y-111175000D01*
X87325000Y-111175000D02*
X91675000Y-111175000D01*
D22*
%TO.N,Net-(Z80_BUS1-WR)*%
X139500000Y-118300000D02*
X139500000Y-128360000D01*
X139500000Y-128360000D02*
X141140000Y-130000000D01*
%TO.N,Net-(Z80_BUS1-RD)*%
X140500000Y-126820000D02*
X143680000Y-130000000D01*
X140500000Y-118300000D02*
X140500000Y-126820000D01*
%TO.N,Net-(Z80_BUS1-MREQ)*%
X138600000Y-119450000D02*
X138600000Y-130000000D01*
D24*
%TO.N,GND*%
X132700000Y-113750000D02*
X128750000Y-113750000D01*
X128750000Y-112000000D02*
X128750000Y-113750000D01*
X178000000Y-125000000D02*
X178000000Y-121500000D01*
X178010000Y-121490000D02*
X178010000Y-119250000D01*
X175500000Y-127500000D02*
X178000000Y-125000000D01*
X178000000Y-121500000D02*
X178010000Y-121490000D01*
X83500000Y-126250000D02*
X83500000Y-120750000D01*
X90500000Y-120750000D02*
X83500000Y-120750000D01*
X83500000Y-120750000D02*
X83500000Y-117310818D01*
D23*
X159095000Y-83345000D02*
X159750000Y-84000000D01*
X160000000Y-83750000D02*
X159750000Y-84000000D01*
X161000000Y-83750000D02*
X160000000Y-83750000D01*
D24*
X123360000Y-124640000D02*
X123360000Y-130000000D01*
D22*
%TO.N,Net-(Z80_BUS1-SPARE1)*%
X174160000Y-118660000D02*
X174160000Y-130000000D01*
X141000000Y-115750000D02*
X143000000Y-117750000D01*
X136193000Y-118700000D02*
X136193000Y-118693000D01*
X136193000Y-118693000D02*
X139136000Y-115750000D01*
X139136000Y-115750000D02*
X141000000Y-115750000D01*
X173250000Y-117750000D02*
X174160000Y-118660000D01*
X143000000Y-117750000D02*
X173250000Y-117750000D01*
X94750000Y-118750000D02*
X94215000Y-118215000D01*
X121908630Y-118750000D02*
X94750000Y-118750000D01*
X94215000Y-118215000D02*
X94215000Y-116810000D01*
D24*
%TO.N,GND*%
X128750000Y-113750000D02*
X126650000Y-113750000D01*
X126650000Y-113750000D02*
X126200000Y-114200000D01*
X113500000Y-111250000D02*
X113500000Y-112000000D01*
D22*
%TO.N,/A0*%
X165550000Y-117050000D02*
X167850000Y-117050000D01*
X142250000Y-115750000D02*
X142750000Y-115750000D01*
X142750000Y-115750000D02*
X144149000Y-117149000D01*
X144149000Y-117149000D02*
X165451000Y-117149000D01*
X165451000Y-117149000D02*
X165550000Y-117050000D01*
D23*
%TO.N,GND*%
X138250000Y-89000000D02*
X143250000Y-94000000D01*
X143250000Y-94000000D02*
X143250000Y-98250000D01*
D22*
%TO.N,MEMRD*%
X119290000Y-113500000D02*
X121250000Y-113500000D01*
X116040000Y-116750000D02*
X119290000Y-113500000D01*
D23*
%TO.N,Net-(U3-~{CE})*%
X134289000Y-83345000D02*
X132905200Y-83345000D01*
X132905200Y-83345000D02*
X132000000Y-82439800D01*
%TO.N,GND*%
X158500000Y-83345000D02*
X159095000Y-83345000D01*
X159750000Y-84000000D02*
X161519000Y-85769000D01*
X161519000Y-85769000D02*
X161519000Y-86778182D01*
X161519000Y-86778182D02*
X162251818Y-87511000D01*
X162251818Y-87511000D02*
X164021000Y-87511000D01*
X164021000Y-87511000D02*
X178010000Y-101500000D01*
X178010000Y-101500000D02*
X179261000Y-102751000D01*
X179261000Y-105339400D02*
X179100400Y-105500000D01*
X179261000Y-102751000D02*
X179261000Y-105339400D01*
D24*
X179100400Y-105500000D02*
X179100400Y-111169600D01*
X179100400Y-111169600D02*
X178010000Y-112260000D01*
X178010000Y-119250000D02*
X178010000Y-112260000D01*
X178010000Y-112260000D02*
X178000000Y-112250000D01*
X178000000Y-112250000D02*
X138000000Y-112250000D01*
D23*
X139711000Y-85885000D02*
X138447000Y-85885000D01*
X138447000Y-85885000D02*
X138250000Y-86082000D01*
X138250000Y-86082000D02*
X138250000Y-89000000D01*
X138615000Y-108135000D02*
X138000000Y-108750000D01*
X139711000Y-108135000D02*
X138615000Y-108135000D01*
X138000000Y-108750000D02*
X138000000Y-112250000D01*
D22*
%TO.N,Net-(U4-~{CE})*%
X134289000Y-105595000D02*
X132845000Y-105595000D01*
X132845000Y-105595000D02*
X132750000Y-105500000D01*
%TO.N,Net-(U1-~{CS})*%
X134289000Y-84615000D02*
X134728000Y-84615000D01*
X134728000Y-84615000D02*
X136843000Y-82500000D01*
X136843000Y-82500000D02*
X161550000Y-82500000D01*
X161550000Y-82500000D02*
X165310000Y-86260000D01*
D24*
%TO.N,+5V*%
X135500000Y-112250000D02*
X134250000Y-112250000D01*
D23*
X134289000Y-109405000D02*
X134289000Y-112211000D01*
X134289000Y-112211000D02*
X134250000Y-112250000D01*
X134289000Y-87155000D02*
X133655000Y-87155000D01*
X132000000Y-84000000D02*
X131000000Y-84000000D01*
X133655000Y-87155000D02*
X132500000Y-86000000D01*
X132500000Y-86000000D02*
X132500000Y-84500000D01*
X132500000Y-84500000D02*
X132000000Y-84000000D01*
D24*
X131000000Y-84000000D02*
X129000000Y-84000000D01*
X129000000Y-84000000D02*
X127250000Y-85750000D01*
X127250000Y-85750000D02*
X127250000Y-104000000D01*
X88750000Y-105940000D02*
X88750000Y-106750000D01*
X85750000Y-106670000D02*
X88670000Y-106670000D01*
X88670000Y-106670000D02*
X88750000Y-106750000D01*
X88750000Y-106750000D02*
X88750000Y-108805000D01*
X88750000Y-108805000D02*
X89135000Y-109190000D01*
X110750000Y-104000000D02*
X93500000Y-104000000D01*
X110715000Y-105940000D02*
X110715000Y-108885000D01*
X110715000Y-108885000D02*
X110960000Y-109130000D01*
X110750000Y-104750000D02*
X110715000Y-104785000D01*
X127250000Y-104000000D02*
X110750000Y-104000000D01*
X110750000Y-104000000D02*
X110750000Y-104750000D01*
X110715000Y-104785000D02*
X110715000Y-105940000D01*
X125900000Y-130000000D02*
X125900000Y-125350000D01*
X125900000Y-125350000D02*
X135500000Y-115750000D01*
X135500000Y-115750000D02*
X135500000Y-112250000D01*
D23*
%TO.N,GND*%
X139711000Y-84615000D02*
X139711000Y-83345000D01*
X139711000Y-85885000D02*
X139711000Y-84615000D01*
%TO.N,Net-(U1-VCC)*%
X139711000Y-87155000D02*
X144095000Y-87155000D01*
X144095000Y-87155000D02*
X144990000Y-86260000D01*
%TO.N,GND*%
X139711000Y-106865000D02*
X139711000Y-108135000D01*
X139711000Y-105595000D02*
X139711000Y-106865000D01*
%TO.N,Net-(U2-VCC)*%
X143595000Y-109405000D02*
X145000000Y-108000000D01*
X139711000Y-109405000D02*
X143595000Y-109405000D01*
X145000000Y-108000000D02*
X144990000Y-107990000D01*
X144990000Y-107990000D02*
X144990000Y-104010000D01*
D24*
%TO.N,GND*%
X101835000Y-109190000D02*
X101835000Y-112165000D01*
X101835000Y-112165000D02*
X101750000Y-112250000D01*
X116000000Y-112250000D02*
X113750000Y-112250000D01*
X113500000Y-109130000D02*
X113500000Y-111250000D01*
X113500000Y-112000000D02*
X113750000Y-112250000D01*
X117000000Y-112250000D02*
X116000000Y-112250000D01*
X116040000Y-109130000D02*
X116040000Y-112210000D01*
X116040000Y-112210000D02*
X116000000Y-112250000D01*
X99250000Y-112250000D02*
X97000000Y-112250000D01*
X96755000Y-109190000D02*
X96755000Y-112005000D01*
X96755000Y-112005000D02*
X97000000Y-112250000D01*
X113750000Y-112250000D02*
X104250000Y-112250000D01*
X104375000Y-112375000D02*
X104250000Y-112250000D01*
X104375000Y-116810000D02*
X104375000Y-112375000D01*
X101750000Y-112250000D02*
X99250000Y-112250000D01*
X99295000Y-116810000D02*
X99295000Y-112295000D01*
X99295000Y-112295000D02*
X99250000Y-112250000D01*
X97000000Y-112250000D02*
X92750000Y-112250000D01*
X90000000Y-101080000D02*
X90000000Y-90920000D01*
X91250000Y-105940000D02*
X91250000Y-102330000D01*
X91250000Y-102330000D02*
X90000000Y-101080000D01*
X91675000Y-109190000D02*
X91675000Y-106365000D01*
X91675000Y-106365000D02*
X91250000Y-105940000D01*
X103000000Y-112250000D02*
X101750000Y-112250000D01*
X92750000Y-112250000D02*
X91675000Y-111175000D01*
X91675000Y-111175000D02*
X91675000Y-109190000D01*
X104250000Y-112250000D02*
X103000000Y-112250000D01*
X113500000Y-109130000D02*
X113500000Y-106225000D01*
X113500000Y-106225000D02*
X113215000Y-105940000D01*
X124250000Y-112250000D02*
X117000000Y-112250000D01*
X126200000Y-116750000D02*
X126200000Y-114200000D01*
X126200000Y-114200000D02*
X124250000Y-112250000D01*
X123360000Y-124640000D02*
X126200000Y-121800000D01*
X126200000Y-121800000D02*
X126200000Y-116750000D01*
%TD*%
%TA.AperFunction,Conductor*%
%TO.N,GND*%
G36*
X131261295Y-82159985D02*
G01*
X131307050Y-82212789D01*
X131316994Y-82281947D01*
X131315873Y-82288491D01*
X131299500Y-82370802D01*
X131299500Y-82370807D01*
X131299500Y-82508793D01*
X131299500Y-82508795D01*
X131299499Y-82508795D01*
X131326418Y-82644122D01*
X131326421Y-82644132D01*
X131371729Y-82753516D01*
X131379198Y-82822985D01*
X131347922Y-82885464D01*
X131287833Y-82921116D01*
X131237770Y-82923441D01*
X131145247Y-82908787D01*
X131086611Y-82899500D01*
X130913389Y-82899500D01*
X130873728Y-82905781D01*
X130742302Y-82926597D01*
X130577552Y-82980128D01*
X130423210Y-83058769D01*
X130423207Y-83058770D01*
X130399745Y-83075818D01*
X130333939Y-83099298D01*
X130326859Y-83099500D01*
X128911303Y-83099500D01*
X128737339Y-83134103D01*
X128737323Y-83134108D01*
X128621453Y-83182102D01*
X128621454Y-83182103D01*
X128573454Y-83201986D01*
X128455306Y-83280931D01*
X128455305Y-83280932D01*
X128425962Y-83300537D01*
X128425961Y-83300538D01*
X126550540Y-85175958D01*
X126550534Y-85175965D01*
X126521569Y-85219316D01*
X126521569Y-85219317D01*
X126501067Y-85250000D01*
X126451987Y-85323452D01*
X126418425Y-85404479D01*
X126384105Y-85487333D01*
X126378942Y-85513290D01*
X126351110Y-85653215D01*
X126351109Y-85653221D01*
X126349500Y-85661307D01*
X126349500Y-102975500D01*
X126329815Y-103042539D01*
X126277011Y-103088294D01*
X126225500Y-103099500D01*
X93411306Y-103099500D01*
X93237341Y-103134103D01*
X93237332Y-103134106D01*
X93073459Y-103201983D01*
X93073446Y-103201990D01*
X92925965Y-103300535D01*
X92925961Y-103300538D01*
X92800538Y-103425961D01*
X92800535Y-103425965D01*
X92701990Y-103573446D01*
X92701983Y-103573459D01*
X92634106Y-103737332D01*
X92634103Y-103737341D01*
X92599500Y-103911304D01*
X92599500Y-104088695D01*
X92634103Y-104262658D01*
X92634106Y-104262667D01*
X92701983Y-104426540D01*
X92701990Y-104426553D01*
X92800535Y-104574034D01*
X92800538Y-104574038D01*
X92925961Y-104699461D01*
X92925965Y-104699464D01*
X93073446Y-104798009D01*
X93073459Y-104798016D01*
X93196363Y-104848923D01*
X93237334Y-104865894D01*
X93237336Y-104865894D01*
X93237341Y-104865896D01*
X93411304Y-104900499D01*
X93411307Y-104900500D01*
X93411309Y-104900500D01*
X109690500Y-104900500D01*
X109699185Y-104903050D01*
X109708147Y-104901762D01*
X109732187Y-104912740D01*
X109757539Y-104920185D01*
X109763466Y-104927025D01*
X109771703Y-104930787D01*
X109785992Y-104953021D01*
X109803294Y-104972989D01*
X109805581Y-104983503D01*
X109809477Y-104989565D01*
X109814500Y-105024500D01*
X109814500Y-105266859D01*
X109794815Y-105333898D01*
X109790818Y-105339745D01*
X109773770Y-105363207D01*
X109773769Y-105363210D01*
X109695128Y-105517552D01*
X109641597Y-105682302D01*
X109617146Y-105836680D01*
X109614500Y-105853389D01*
X109614500Y-106026611D01*
X109617460Y-106045301D01*
X109637459Y-106171573D01*
X109641598Y-106197701D01*
X109695127Y-106362445D01*
X109773768Y-106516788D01*
X109790818Y-106540255D01*
X109814298Y-106606058D01*
X109814500Y-106613140D01*
X109814500Y-108350945D01*
X109808431Y-108389264D01*
X109789059Y-108448881D01*
X109759500Y-108635513D01*
X109759500Y-109624486D01*
X109789059Y-109811118D01*
X109847454Y-109990836D01*
X109918617Y-110130500D01*
X109933240Y-110159199D01*
X110044310Y-110312073D01*
X110177927Y-110445690D01*
X110330801Y-110556760D01*
X110379517Y-110581582D01*
X110499163Y-110642545D01*
X110499165Y-110642545D01*
X110499168Y-110642547D01*
X110595497Y-110673846D01*
X110678881Y-110700940D01*
X110865514Y-110730500D01*
X110865519Y-110730500D01*
X111054486Y-110730500D01*
X111241118Y-110700940D01*
X111420832Y-110642547D01*
X111589199Y-110556760D01*
X111742073Y-110445690D01*
X111875690Y-110312073D01*
X111986760Y-110159199D01*
X112065043Y-110005558D01*
X112113017Y-109954763D01*
X112180838Y-109937968D01*
X112246973Y-109960505D01*
X112290425Y-110015220D01*
X112293458Y-110023534D01*
X112295242Y-110029027D01*
X112388140Y-110211349D01*
X112508417Y-110376894D01*
X112508417Y-110376895D01*
X112653104Y-110521582D01*
X112818650Y-110641859D01*
X113000968Y-110734754D01*
X113195578Y-110797988D01*
X113250000Y-110806607D01*
X113250000Y-109445686D01*
X113254394Y-109450080D01*
X113345606Y-109502741D01*
X113447339Y-109530000D01*
X113552661Y-109530000D01*
X113654394Y-109502741D01*
X113745606Y-109450080D01*
X113750000Y-109445686D01*
X113750000Y-110806606D01*
X113804421Y-110797988D01*
X113999031Y-110734754D01*
X114181349Y-110641859D01*
X114346894Y-110521582D01*
X114346895Y-110521582D01*
X114491582Y-110376895D01*
X114491582Y-110376894D01*
X114611859Y-110211349D01*
X114659515Y-110117820D01*
X114707489Y-110067024D01*
X114775310Y-110050229D01*
X114841445Y-110072766D01*
X114880485Y-110117820D01*
X114928140Y-110211349D01*
X115048417Y-110376894D01*
X115048417Y-110376895D01*
X115193104Y-110521582D01*
X115358650Y-110641859D01*
X115540968Y-110734754D01*
X115735578Y-110797988D01*
X115790000Y-110806607D01*
X115790000Y-109445686D01*
X115794394Y-109450080D01*
X115885606Y-109502741D01*
X115987339Y-109530000D01*
X116092661Y-109530000D01*
X116194394Y-109502741D01*
X116285606Y-109450080D01*
X116290000Y-109445686D01*
X116290000Y-110806606D01*
X116344421Y-110797988D01*
X116539031Y-110734754D01*
X116721349Y-110641859D01*
X116886894Y-110521582D01*
X116886895Y-110521582D01*
X117031582Y-110376895D01*
X117031582Y-110376894D01*
X117151859Y-110211349D01*
X117244753Y-110029033D01*
X117246537Y-110023544D01*
X117285970Y-109965866D01*
X117350327Y-109938663D01*
X117419174Y-109950573D01*
X117470654Y-109997813D01*
X117474956Y-110005559D01*
X117531049Y-110115647D01*
X117553240Y-110159199D01*
X117664310Y-110312073D01*
X117797927Y-110445690D01*
X117950801Y-110556760D01*
X117999517Y-110581582D01*
X118119163Y-110642545D01*
X118119165Y-110642545D01*
X118119168Y-110642547D01*
X118215497Y-110673846D01*
X118298881Y-110700940D01*
X118485514Y-110730500D01*
X118485519Y-110730500D01*
X118674486Y-110730500D01*
X118861118Y-110700940D01*
X119040832Y-110642547D01*
X119209199Y-110556760D01*
X119362073Y-110445690D01*
X119495690Y-110312073D01*
X119606760Y-110159199D01*
X119692547Y-109990832D01*
X119732069Y-109869195D01*
X119771507Y-109811521D01*
X119835866Y-109784323D01*
X119904712Y-109796238D01*
X119956188Y-109843482D01*
X119967931Y-109869196D01*
X120007454Y-109990836D01*
X120078617Y-110130500D01*
X120093240Y-110159199D01*
X120204310Y-110312073D01*
X120337927Y-110445690D01*
X120490801Y-110556760D01*
X120539517Y-110581582D01*
X120659163Y-110642545D01*
X120659165Y-110642545D01*
X120659168Y-110642547D01*
X120755497Y-110673846D01*
X120838881Y-110700940D01*
X121025514Y-110730500D01*
X121025519Y-110730500D01*
X121214486Y-110730500D01*
X121401118Y-110700940D01*
X121580832Y-110642547D01*
X121749199Y-110556760D01*
X121902073Y-110445690D01*
X122035690Y-110312073D01*
X122146760Y-110159199D01*
X122232547Y-109990832D01*
X122272069Y-109869195D01*
X122311507Y-109811521D01*
X122375866Y-109784323D01*
X122444712Y-109796238D01*
X122496188Y-109843482D01*
X122507931Y-109869196D01*
X122547454Y-109990836D01*
X122618617Y-110130500D01*
X122633240Y-110159199D01*
X122744310Y-110312073D01*
X122877927Y-110445690D01*
X123030801Y-110556760D01*
X123079517Y-110581582D01*
X123199163Y-110642545D01*
X123199165Y-110642545D01*
X123199168Y-110642547D01*
X123295497Y-110673846D01*
X123378881Y-110700940D01*
X123565514Y-110730500D01*
X123565519Y-110730500D01*
X123754486Y-110730500D01*
X123941118Y-110700940D01*
X124120832Y-110642547D01*
X124289199Y-110556760D01*
X124442073Y-110445690D01*
X124575690Y-110312073D01*
X124686760Y-110159199D01*
X124772547Y-109990832D01*
X124812069Y-109869195D01*
X124851507Y-109811521D01*
X124915866Y-109784323D01*
X124984712Y-109796238D01*
X125036188Y-109843482D01*
X125047931Y-109869196D01*
X125087454Y-109990836D01*
X125158617Y-110130500D01*
X125173240Y-110159199D01*
X125284310Y-110312073D01*
X125417927Y-110445690D01*
X125570801Y-110556760D01*
X125619517Y-110581582D01*
X125739163Y-110642545D01*
X125739165Y-110642545D01*
X125739168Y-110642547D01*
X125835497Y-110673846D01*
X125918881Y-110700940D01*
X126105514Y-110730500D01*
X126105519Y-110730500D01*
X126294486Y-110730500D01*
X126481118Y-110700940D01*
X126660832Y-110642547D01*
X126829199Y-110556760D01*
X126982073Y-110445690D01*
X127115690Y-110312073D01*
X127226760Y-110159199D01*
X127312547Y-109990832D01*
X127370940Y-109811118D01*
X127378796Y-109761517D01*
X127400500Y-109624486D01*
X127400500Y-108635513D01*
X127370940Y-108448881D01*
X127325626Y-108309420D01*
X127312547Y-108269168D01*
X127312545Y-108269165D01*
X127312545Y-108269163D01*
X127235888Y-108118716D01*
X127226760Y-108100801D01*
X127115690Y-107947927D01*
X126982073Y-107814310D01*
X126829199Y-107703240D01*
X126801628Y-107689192D01*
X126660836Y-107617454D01*
X126481118Y-107559059D01*
X126294486Y-107529500D01*
X126294481Y-107529500D01*
X126105519Y-107529500D01*
X126105514Y-107529500D01*
X125918881Y-107559059D01*
X125739163Y-107617454D01*
X125570800Y-107703240D01*
X125519443Y-107740554D01*
X125417927Y-107814310D01*
X125417925Y-107814312D01*
X125417924Y-107814312D01*
X125284312Y-107947924D01*
X125284312Y-107947925D01*
X125284310Y-107947927D01*
X125259711Y-107981785D01*
X125173240Y-108100800D01*
X125087454Y-108269163D01*
X125047931Y-108390803D01*
X125008493Y-108448478D01*
X124944134Y-108475676D01*
X124875288Y-108463761D01*
X124823812Y-108416516D01*
X124812069Y-108390803D01*
X124785626Y-108309420D01*
X124772547Y-108269168D01*
X124772545Y-108269165D01*
X124772545Y-108269163D01*
X124695888Y-108118716D01*
X124686760Y-108100801D01*
X124575690Y-107947927D01*
X124442073Y-107814310D01*
X124289199Y-107703240D01*
X124261628Y-107689192D01*
X124120836Y-107617454D01*
X123941118Y-107559059D01*
X123754486Y-107529500D01*
X123754481Y-107529500D01*
X123565519Y-107529500D01*
X123565514Y-107529500D01*
X123378881Y-107559059D01*
X123199163Y-107617454D01*
X123030800Y-107703240D01*
X122979443Y-107740554D01*
X122877927Y-107814310D01*
X122877925Y-107814312D01*
X122877924Y-107814312D01*
X122744312Y-107947924D01*
X122744312Y-107947925D01*
X122744310Y-107947927D01*
X122719711Y-107981785D01*
X122633240Y-108100800D01*
X122547454Y-108269163D01*
X122507931Y-108390803D01*
X122468493Y-108448478D01*
X122404134Y-108475676D01*
X122335288Y-108463761D01*
X122283812Y-108416516D01*
X122272069Y-108390803D01*
X122245626Y-108309420D01*
X122232547Y-108269168D01*
X122232545Y-108269165D01*
X122232545Y-108269163D01*
X122155888Y-108118716D01*
X122146760Y-108100801D01*
X122035690Y-107947927D01*
X121902073Y-107814310D01*
X121749199Y-107703240D01*
X121721628Y-107689192D01*
X121580836Y-107617454D01*
X121401118Y-107559059D01*
X121214486Y-107529500D01*
X121214481Y-107529500D01*
X121025519Y-107529500D01*
X121025514Y-107529500D01*
X120838881Y-107559059D01*
X120659163Y-107617454D01*
X120490800Y-107703240D01*
X120439443Y-107740554D01*
X120337927Y-107814310D01*
X120337925Y-107814312D01*
X120337924Y-107814312D01*
X120204312Y-107947924D01*
X120204312Y-107947925D01*
X120204310Y-107947927D01*
X120179711Y-107981785D01*
X120093240Y-108100800D01*
X120007454Y-108269163D01*
X119967931Y-108390803D01*
X119928493Y-108448478D01*
X119864134Y-108475676D01*
X119795288Y-108463761D01*
X119743812Y-108416516D01*
X119732069Y-108390803D01*
X119705626Y-108309420D01*
X119692547Y-108269168D01*
X119692545Y-108269165D01*
X119692545Y-108269163D01*
X119615888Y-108118716D01*
X119606760Y-108100801D01*
X119495690Y-107947927D01*
X119362073Y-107814310D01*
X119209199Y-107703240D01*
X119181628Y-107689192D01*
X119040836Y-107617454D01*
X118861118Y-107559059D01*
X118674486Y-107529500D01*
X118674481Y-107529500D01*
X118485519Y-107529500D01*
X118485514Y-107529500D01*
X118298881Y-107559059D01*
X118119163Y-107617454D01*
X117950800Y-107703240D01*
X117899443Y-107740554D01*
X117797927Y-107814310D01*
X117797925Y-107814312D01*
X117797924Y-107814312D01*
X117664312Y-107947924D01*
X117664312Y-107947925D01*
X117664310Y-107947927D01*
X117639711Y-107981785D01*
X117553236Y-108100805D01*
X117474955Y-108254440D01*
X117426981Y-108305236D01*
X117359160Y-108322031D01*
X117293025Y-108299493D01*
X117249574Y-108244778D01*
X117246538Y-108236458D01*
X117244754Y-108230967D01*
X117151859Y-108048650D01*
X117031582Y-107883105D01*
X117031582Y-107883104D01*
X116886895Y-107738417D01*
X116721349Y-107618140D01*
X116539029Y-107525244D01*
X116344413Y-107462009D01*
X116290000Y-107453390D01*
X116290000Y-108814314D01*
X116285606Y-108809920D01*
X116194394Y-108757259D01*
X116092661Y-108730000D01*
X115987339Y-108730000D01*
X115885606Y-108757259D01*
X115794394Y-108809920D01*
X115790000Y-108814314D01*
X115790000Y-107453390D01*
X115735586Y-107462009D01*
X115540970Y-107525244D01*
X115358650Y-107618140D01*
X115193105Y-107738417D01*
X115193104Y-107738417D01*
X115048417Y-107883104D01*
X115048417Y-107883105D01*
X114928140Y-108048650D01*
X114880485Y-108142179D01*
X114832510Y-108192975D01*
X114764689Y-108209770D01*
X114698554Y-108187232D01*
X114659515Y-108142179D01*
X114611859Y-108048650D01*
X114491582Y-107883105D01*
X114491582Y-107883104D01*
X114346895Y-107738417D01*
X114181349Y-107618140D01*
X113999029Y-107525244D01*
X113804413Y-107462009D01*
X113750000Y-107453390D01*
X113750000Y-108814314D01*
X113745606Y-108809920D01*
X113654394Y-108757259D01*
X113552661Y-108730000D01*
X113447339Y-108730000D01*
X113345606Y-108757259D01*
X113254394Y-108809920D01*
X113250000Y-108814314D01*
X113250000Y-107453390D01*
X113195586Y-107462009D01*
X113000970Y-107525244D01*
X112818650Y-107618140D01*
X112653105Y-107738417D01*
X112653104Y-107738417D01*
X112508417Y-107883104D01*
X112508417Y-107883105D01*
X112388140Y-108048650D01*
X112295243Y-108230971D01*
X112293457Y-108236469D01*
X112254017Y-108294142D01*
X112189657Y-108321337D01*
X112120811Y-108309420D01*
X112069338Y-108262173D01*
X112065043Y-108254440D01*
X112032079Y-108189744D01*
X111986760Y-108100801D01*
X111875690Y-107947927D01*
X111742073Y-107814310D01*
X111742072Y-107814309D01*
X111666613Y-107759484D01*
X111623948Y-107704154D01*
X111615500Y-107659167D01*
X111615500Y-106947882D01*
X112560669Y-106947882D01*
X112560670Y-106947883D01*
X112586059Y-106966329D01*
X112754362Y-107052085D01*
X112933997Y-107110451D01*
X113120553Y-107140000D01*
X113309447Y-107140000D01*
X113496002Y-107110451D01*
X113675637Y-107052085D01*
X113843937Y-106966331D01*
X113869328Y-106947883D01*
X113869328Y-106947882D01*
X113215001Y-106293554D01*
X113215000Y-106293554D01*
X112560669Y-106947882D01*
X111615500Y-106947882D01*
X111615500Y-106613140D01*
X111635185Y-106546101D01*
X111639164Y-106540279D01*
X111656232Y-106516788D01*
X111734873Y-106362445D01*
X111788402Y-106197701D01*
X111792156Y-106173995D01*
X111822083Y-106110863D01*
X111881393Y-106073930D01*
X111951256Y-106074926D01*
X112009490Y-106113534D01*
X112037102Y-106173993D01*
X112044548Y-106221003D01*
X112102914Y-106400637D01*
X112188666Y-106568933D01*
X112207116Y-106594328D01*
X112861446Y-105940000D01*
X112861446Y-105939999D01*
X112815369Y-105893922D01*
X112865000Y-105893922D01*
X112865000Y-105986078D01*
X112888852Y-106075095D01*
X112934930Y-106154905D01*
X113000095Y-106220070D01*
X113079905Y-106266148D01*
X113168922Y-106290000D01*
X113261078Y-106290000D01*
X113350095Y-106266148D01*
X113429905Y-106220070D01*
X113495070Y-106154905D01*
X113541148Y-106075095D01*
X113565000Y-105986078D01*
X113565000Y-105939999D01*
X113568554Y-105939999D01*
X113568554Y-105940000D01*
X114222882Y-106594328D01*
X114222883Y-106594328D01*
X114241331Y-106568937D01*
X114327085Y-106400637D01*
X114385451Y-106221002D01*
X114415000Y-106034447D01*
X114415000Y-105845552D01*
X114385451Y-105658997D01*
X114327085Y-105479362D01*
X114241329Y-105311059D01*
X114222883Y-105285670D01*
X114222882Y-105285669D01*
X113568554Y-105939999D01*
X113565000Y-105939999D01*
X113565000Y-105893922D01*
X113541148Y-105804905D01*
X113495070Y-105725095D01*
X113429905Y-105659930D01*
X113350095Y-105613852D01*
X113261078Y-105590000D01*
X113168922Y-105590000D01*
X113079905Y-105613852D01*
X113000095Y-105659930D01*
X112934930Y-105725095D01*
X112888852Y-105804905D01*
X112865000Y-105893922D01*
X112815369Y-105893922D01*
X112207116Y-105285669D01*
X112207116Y-105285670D01*
X112188669Y-105311060D01*
X112102914Y-105479362D01*
X112044548Y-105658996D01*
X112037102Y-105706006D01*
X112007171Y-105769140D01*
X111947859Y-105806070D01*
X111877997Y-105805071D01*
X111819765Y-105766461D01*
X111792156Y-105706004D01*
X111788402Y-105682299D01*
X111734873Y-105517555D01*
X111656232Y-105363212D01*
X111656229Y-105363208D01*
X111656229Y-105363207D01*
X111639182Y-105339745D01*
X111632029Y-105319698D01*
X111620523Y-105301794D01*
X111617068Y-105277769D01*
X111615702Y-105273939D01*
X111615500Y-105266859D01*
X111615500Y-105026861D01*
X111617886Y-105002652D01*
X111618356Y-105000291D01*
X111629625Y-104978754D01*
X111635185Y-104959822D01*
X111643139Y-104952929D01*
X111650751Y-104938384D01*
X111677495Y-104923159D01*
X111687989Y-104914067D01*
X111695320Y-104913012D01*
X111711471Y-104903819D01*
X111739970Y-104900500D01*
X112477691Y-104900500D01*
X112544730Y-104920185D01*
X112565372Y-104936819D01*
X113215000Y-105586446D01*
X113215001Y-105586446D01*
X113864626Y-104936819D01*
X113925949Y-104903334D01*
X113952307Y-104900500D01*
X127161309Y-104900500D01*
X127325638Y-104900500D01*
X127392677Y-104920185D01*
X127413319Y-104936819D01*
X128313181Y-105836680D01*
X128346666Y-105898003D01*
X128349500Y-105924361D01*
X128349500Y-109338696D01*
X128384103Y-109512658D01*
X128384105Y-109512666D01*
X128402281Y-109556546D01*
X128451985Y-109676544D01*
X128451990Y-109676552D01*
X128508762Y-109761517D01*
X128508764Y-109761519D01*
X128550534Y-109824034D01*
X128550538Y-109824039D01*
X131550536Y-112824035D01*
X131625981Y-112899480D01*
X131675966Y-112949465D01*
X131780752Y-113019481D01*
X131823453Y-113048013D01*
X131836599Y-113053458D01*
X131836604Y-113053460D01*
X131836603Y-113053460D01*
X131892029Y-113076418D01*
X131987334Y-113115895D01*
X132146232Y-113147501D01*
X132161304Y-113150499D01*
X132161308Y-113150500D01*
X132161309Y-113150500D01*
X132338692Y-113150500D01*
X134161309Y-113150500D01*
X134475500Y-113150500D01*
X134542539Y-113170185D01*
X134588294Y-113222989D01*
X134599500Y-113274500D01*
X134599500Y-115325637D01*
X134579815Y-115392676D01*
X134563181Y-115413318D01*
X125200538Y-124775960D01*
X125200537Y-124775961D01*
X125161064Y-124835039D01*
X125161063Y-124835040D01*
X125101985Y-124923455D01*
X125068046Y-125005393D01*
X125034106Y-125087329D01*
X125034103Y-125087341D01*
X124999500Y-125261303D01*
X124999500Y-129080664D01*
X124979815Y-129147703D01*
X124963181Y-129168345D01*
X124946174Y-129185351D01*
X124946174Y-129185352D01*
X124946172Y-129185354D01*
X124888324Y-129264974D01*
X124830474Y-129344597D01*
X124796319Y-129411630D01*
X124748345Y-129462425D01*
X124680524Y-129479220D01*
X124614389Y-129456682D01*
X124575350Y-129411629D01*
X124514624Y-129292449D01*
X124475270Y-129238282D01*
X124475269Y-129238282D01*
X123842962Y-129870589D01*
X123825925Y-129807007D01*
X123760099Y-129692993D01*
X123667007Y-129599901D01*
X123552993Y-129534075D01*
X123489409Y-129517037D01*
X124121716Y-128884728D01*
X124067550Y-128845375D01*
X123878217Y-128748904D01*
X123676129Y-128683242D01*
X123466246Y-128650000D01*
X123253754Y-128650000D01*
X123043872Y-128683242D01*
X123043869Y-128683242D01*
X122841782Y-128748904D01*
X122652439Y-128845380D01*
X122598282Y-128884727D01*
X122598282Y-128884728D01*
X123230591Y-129517037D01*
X123167007Y-129534075D01*
X123052993Y-129599901D01*
X122959901Y-129692993D01*
X122894075Y-129807007D01*
X122877037Y-129870591D01*
X122244728Y-129238282D01*
X122244727Y-129238282D01*
X122205380Y-129292440D01*
X122205378Y-129292443D01*
X122144648Y-129411630D01*
X122096673Y-129462426D01*
X122028852Y-129479220D01*
X121962717Y-129456682D01*
X121923679Y-129411628D01*
X121889525Y-129344596D01*
X121852633Y-129293819D01*
X121773828Y-129185354D01*
X121636819Y-129048345D01*
X121622115Y-129021417D01*
X121605523Y-128995599D01*
X121604631Y-128989398D01*
X121603334Y-128987022D01*
X121600500Y-128960664D01*
X121600500Y-128550097D01*
X121620185Y-128483058D01*
X121636819Y-128462416D01*
X122039332Y-128059903D01*
X122939520Y-127159716D01*
X123018577Y-127022784D01*
X123059501Y-126870057D01*
X123059501Y-126711942D01*
X123059501Y-126704347D01*
X123059500Y-126704329D01*
X123059500Y-124566890D01*
X123079185Y-124499851D01*
X123095814Y-124479214D01*
X125118713Y-122456315D01*
X125118716Y-122456314D01*
X125230520Y-122344510D01*
X125280639Y-122257698D01*
X125309577Y-122207579D01*
X125350500Y-122054852D01*
X125350500Y-121896737D01*
X125350500Y-118378532D01*
X125370185Y-118311493D01*
X125422989Y-118265738D01*
X125492147Y-118255794D01*
X125530795Y-118268047D01*
X125700968Y-118354755D01*
X125895578Y-118417988D01*
X125950000Y-118426607D01*
X125950000Y-117065686D01*
X125954394Y-117070080D01*
X126045606Y-117122741D01*
X126147339Y-117150000D01*
X126252661Y-117150000D01*
X126354394Y-117122741D01*
X126445606Y-117070080D01*
X126450000Y-117065686D01*
X126450000Y-118426606D01*
X126504421Y-118417988D01*
X126699031Y-118354754D01*
X126881349Y-118261859D01*
X127046894Y-118141582D01*
X127046895Y-118141582D01*
X127191582Y-117996895D01*
X127191582Y-117996894D01*
X127311859Y-117831349D01*
X127404755Y-117649031D01*
X127467990Y-117454417D01*
X127500000Y-117252317D01*
X127500000Y-117000000D01*
X126515686Y-117000000D01*
X126520080Y-116995606D01*
X126572741Y-116904394D01*
X126600000Y-116802661D01*
X126600000Y-116697339D01*
X126572741Y-116595606D01*
X126520080Y-116504394D01*
X126515686Y-116500000D01*
X127500000Y-116500000D01*
X127500000Y-116247682D01*
X127467990Y-116045582D01*
X127404755Y-115850968D01*
X127311859Y-115668650D01*
X127191582Y-115503105D01*
X127191582Y-115503104D01*
X127046895Y-115358417D01*
X126881349Y-115238140D01*
X126699029Y-115145244D01*
X126504413Y-115082009D01*
X126450000Y-115073390D01*
X126450000Y-116434314D01*
X126445606Y-116429920D01*
X126354394Y-116377259D01*
X126252661Y-116350000D01*
X126147339Y-116350000D01*
X126045606Y-116377259D01*
X125954394Y-116429920D01*
X125950000Y-116434314D01*
X125950000Y-115073390D01*
X125895586Y-115082009D01*
X125700970Y-115145244D01*
X125518647Y-115238142D01*
X125359444Y-115353810D01*
X125327331Y-115365268D01*
X125295405Y-115377176D01*
X125294505Y-115376980D01*
X125293638Y-115377290D01*
X125260406Y-115369562D01*
X125227132Y-115362324D01*
X125226165Y-115361600D01*
X125225584Y-115361465D01*
X125198878Y-115341173D01*
X125070606Y-115212901D01*
X125037121Y-115151578D01*
X125034287Y-115125220D01*
X125034287Y-114247770D01*
X125052533Y-114185628D01*
X125051693Y-114185179D01*
X125053851Y-114181141D01*
X125053972Y-114180731D01*
X125054508Y-114179911D01*
X125054558Y-114179817D01*
X125054562Y-114179812D01*
X125107367Y-114052329D01*
X125126862Y-113954322D01*
X125134287Y-113916996D01*
X125134287Y-113779005D01*
X125107368Y-113643678D01*
X125107367Y-113643677D01*
X125107367Y-113643673D01*
X125066772Y-113545667D01*
X125054565Y-113516196D01*
X125054558Y-113516183D01*
X124977901Y-113401459D01*
X124977898Y-113401455D01*
X124880332Y-113303889D01*
X124880328Y-113303886D01*
X124765604Y-113227229D01*
X124765591Y-113227222D01*
X124638119Y-113174422D01*
X124638109Y-113174419D01*
X124502782Y-113147501D01*
X124502780Y-113147501D01*
X124364794Y-113147501D01*
X124364792Y-113147501D01*
X124229464Y-113174419D01*
X124229454Y-113174422D01*
X124101982Y-113227222D01*
X124101969Y-113227229D01*
X123987245Y-113303886D01*
X123987241Y-113303889D01*
X123889675Y-113401455D01*
X123889672Y-113401459D01*
X123813015Y-113516183D01*
X123813008Y-113516196D01*
X123760208Y-113643668D01*
X123760205Y-113643678D01*
X123733287Y-113779005D01*
X123733287Y-113779008D01*
X123733287Y-113916994D01*
X123733287Y-113916996D01*
X123733286Y-113916996D01*
X123760205Y-114052323D01*
X123760208Y-114052333D01*
X123813009Y-114179807D01*
X123815881Y-114185179D01*
X123814579Y-114185875D01*
X123833267Y-114245555D01*
X123833287Y-114247770D01*
X123833287Y-115025500D01*
X123813602Y-115092539D01*
X123760798Y-115138294D01*
X123709287Y-115149500D01*
X123565514Y-115149500D01*
X123378880Y-115179060D01*
X123378877Y-115179060D01*
X123221818Y-115230093D01*
X123151977Y-115232088D01*
X123092144Y-115196008D01*
X123061316Y-115133307D01*
X123059500Y-115112162D01*
X123059500Y-114211130D01*
X123079185Y-114144091D01*
X123080362Y-114142292D01*
X123120775Y-114081811D01*
X123173580Y-113954328D01*
X123200500Y-113818993D01*
X123200500Y-113681007D01*
X123200500Y-113681004D01*
X123173581Y-113545677D01*
X123173580Y-113545676D01*
X123173580Y-113545672D01*
X123121712Y-113420451D01*
X123120778Y-113418195D01*
X123120771Y-113418182D01*
X123044114Y-113303458D01*
X123044111Y-113303454D01*
X122946545Y-113205888D01*
X122946541Y-113205885D01*
X122831817Y-113129228D01*
X122831804Y-113129221D01*
X122704332Y-113076421D01*
X122704322Y-113076418D01*
X122568995Y-113049500D01*
X122568993Y-113049500D01*
X122431007Y-113049500D01*
X122431005Y-113049500D01*
X122295677Y-113076418D01*
X122295667Y-113076421D01*
X122168195Y-113129221D01*
X122168182Y-113129228D01*
X122048393Y-113209270D01*
X122046971Y-113207142D01*
X121992892Y-113230070D01*
X121924032Y-113218235D01*
X121874592Y-113172965D01*
X121874160Y-113173254D01*
X121872981Y-113171489D01*
X121872501Y-113171050D01*
X121871433Y-113169174D01*
X121858955Y-113150500D01*
X121794114Y-113053458D01*
X121794111Y-113053454D01*
X121696545Y-112955888D01*
X121696541Y-112955885D01*
X121581817Y-112879228D01*
X121581804Y-112879221D01*
X121454332Y-112826421D01*
X121454322Y-112826418D01*
X121318995Y-112799500D01*
X121318993Y-112799500D01*
X121181007Y-112799500D01*
X121181005Y-112799500D01*
X121045677Y-112826418D01*
X121045667Y-112826421D01*
X120918190Y-112879223D01*
X120912819Y-112882095D01*
X120912123Y-112880794D01*
X120852438Y-112899480D01*
X120850230Y-112899500D01*
X119369057Y-112899500D01*
X119210943Y-112899500D01*
X119058215Y-112940423D01*
X119058214Y-112940423D01*
X119058212Y-112940424D01*
X119058209Y-112940425D01*
X119008096Y-112969359D01*
X119008095Y-112969360D01*
X118964689Y-112994420D01*
X118921285Y-113019479D01*
X118921282Y-113019481D01*
X118809478Y-113131286D01*
X116698670Y-115242093D01*
X116637347Y-115275578D01*
X116567655Y-115270594D01*
X116554695Y-115264897D01*
X116500839Y-115237456D01*
X116500832Y-115237453D01*
X116321118Y-115179059D01*
X116134486Y-115149500D01*
X116134481Y-115149500D01*
X115945519Y-115149500D01*
X115945514Y-115149500D01*
X115758881Y-115179059D01*
X115579163Y-115237454D01*
X115410800Y-115323240D01*
X115336807Y-115377000D01*
X115257927Y-115434310D01*
X115257925Y-115434312D01*
X115257924Y-115434312D01*
X115124312Y-115567924D01*
X115124312Y-115567925D01*
X115124310Y-115567927D01*
X115118139Y-115576421D01*
X115013240Y-115720800D01*
X114927454Y-115889163D01*
X114887931Y-116010803D01*
X114848493Y-116068478D01*
X114784134Y-116095676D01*
X114715288Y-116083761D01*
X114663812Y-116036516D01*
X114652069Y-116010803D01*
X114624117Y-115924778D01*
X114612547Y-115889168D01*
X114612545Y-115889165D01*
X114612545Y-115889163D01*
X114557331Y-115780800D01*
X114526760Y-115720801D01*
X114415690Y-115567927D01*
X114282073Y-115434310D01*
X114129199Y-115323240D01*
X114094965Y-115305797D01*
X113960836Y-115237454D01*
X113781118Y-115179059D01*
X113594486Y-115149500D01*
X113594481Y-115149500D01*
X113405519Y-115149500D01*
X113405514Y-115149500D01*
X113218881Y-115179059D01*
X113039163Y-115237454D01*
X112870800Y-115323240D01*
X112796807Y-115377000D01*
X112717927Y-115434310D01*
X112717925Y-115434312D01*
X112717924Y-115434312D01*
X112584312Y-115567924D01*
X112584312Y-115567925D01*
X112584310Y-115567927D01*
X112578139Y-115576421D01*
X112473240Y-115720800D01*
X112394985Y-115874385D01*
X112347010Y-115925181D01*
X112279189Y-115941976D01*
X112213054Y-115919439D01*
X112169603Y-115864723D01*
X112160500Y-115818090D01*
X112160500Y-115734313D01*
X112160499Y-115734298D01*
X112159173Y-115717453D01*
X112157598Y-115697431D01*
X112149236Y-115668650D01*
X112111745Y-115539606D01*
X112111744Y-115539603D01*
X112111744Y-115539602D01*
X112028081Y-115398135D01*
X112028079Y-115398133D01*
X112028076Y-115398129D01*
X111911870Y-115281923D01*
X111911862Y-115281917D01*
X111795161Y-115212901D01*
X111770398Y-115198256D01*
X111770397Y-115198255D01*
X111770396Y-115198255D01*
X111770393Y-115198254D01*
X111612573Y-115152402D01*
X111612567Y-115152401D01*
X111575701Y-115149500D01*
X111575694Y-115149500D01*
X110344306Y-115149500D01*
X110344298Y-115149500D01*
X110307432Y-115152401D01*
X110307426Y-115152402D01*
X110149606Y-115198254D01*
X110149603Y-115198255D01*
X110008137Y-115281917D01*
X110008129Y-115281923D01*
X109891923Y-115398129D01*
X109891917Y-115398137D01*
X109808255Y-115539603D01*
X109808254Y-115539606D01*
X109762402Y-115697426D01*
X109762401Y-115697432D01*
X109759500Y-115734298D01*
X109759500Y-117765701D01*
X109762401Y-117802567D01*
X109762402Y-117802573D01*
X109808254Y-117960393D01*
X109808254Y-117960394D01*
X109808255Y-117960396D01*
X109808256Y-117960398D01*
X109809427Y-117962378D01*
X109809872Y-117964133D01*
X109811353Y-117967554D01*
X109810801Y-117967792D01*
X109826611Y-118030101D01*
X109804452Y-118096364D01*
X109749987Y-118140128D01*
X109702696Y-118149500D01*
X105542666Y-118149500D01*
X105475627Y-118129815D01*
X105429872Y-118077011D01*
X105419928Y-118007853D01*
X105442348Y-117952614D01*
X105486859Y-117891349D01*
X105579755Y-117709031D01*
X105642990Y-117514417D01*
X105675000Y-117312317D01*
X105675000Y-117060000D01*
X104690686Y-117060000D01*
X104695080Y-117055606D01*
X104747741Y-116964394D01*
X104775000Y-116862661D01*
X104775000Y-116757339D01*
X104747741Y-116655606D01*
X104695080Y-116564394D01*
X104690686Y-116560000D01*
X105675000Y-116560000D01*
X105675000Y-116307682D01*
X105642990Y-116105582D01*
X105579755Y-115910968D01*
X105486859Y-115728650D01*
X105366582Y-115563105D01*
X105366582Y-115563104D01*
X105221895Y-115418417D01*
X105056349Y-115298140D01*
X104874029Y-115205244D01*
X104679413Y-115142009D01*
X104625000Y-115133390D01*
X104625000Y-116494314D01*
X104620606Y-116489920D01*
X104529394Y-116437259D01*
X104427661Y-116410000D01*
X104322339Y-116410000D01*
X104220606Y-116437259D01*
X104129394Y-116489920D01*
X104125000Y-116494314D01*
X104125000Y-115133390D01*
X104070586Y-115142009D01*
X103875970Y-115205244D01*
X103693650Y-115298140D01*
X103528105Y-115418417D01*
X103528104Y-115418417D01*
X103383417Y-115563104D01*
X103383417Y-115563105D01*
X103263140Y-115728650D01*
X103170243Y-115910971D01*
X103168457Y-115916469D01*
X103129017Y-115974142D01*
X103064657Y-116001337D01*
X102995811Y-115989420D01*
X102944338Y-115942173D01*
X102940043Y-115934440D01*
X102891257Y-115838692D01*
X102861760Y-115780801D01*
X102750690Y-115627927D01*
X102617073Y-115494310D01*
X102464199Y-115383240D01*
X102295836Y-115297454D01*
X102116118Y-115239059D01*
X101929486Y-115209500D01*
X101929481Y-115209500D01*
X101740519Y-115209500D01*
X101740514Y-115209500D01*
X101553881Y-115239059D01*
X101374163Y-115297454D01*
X101205800Y-115383240D01*
X101135507Y-115434312D01*
X101052927Y-115494310D01*
X101052925Y-115494312D01*
X101052924Y-115494312D01*
X100919312Y-115627924D01*
X100919312Y-115627925D01*
X100919310Y-115627927D01*
X100895057Y-115661308D01*
X100808236Y-115780805D01*
X100729955Y-115934440D01*
X100681981Y-115985236D01*
X100614160Y-116002031D01*
X100548025Y-115979493D01*
X100504574Y-115924778D01*
X100501538Y-115916458D01*
X100499754Y-115910967D01*
X100406859Y-115728650D01*
X100286582Y-115563105D01*
X100286582Y-115563104D01*
X100141895Y-115418417D01*
X99976349Y-115298140D01*
X99794029Y-115205244D01*
X99599413Y-115142009D01*
X99545000Y-115133390D01*
X99545000Y-116494314D01*
X99540606Y-116489920D01*
X99449394Y-116437259D01*
X99347661Y-116410000D01*
X99242339Y-116410000D01*
X99140606Y-116437259D01*
X99049394Y-116489920D01*
X99045000Y-116494314D01*
X99045000Y-115133390D01*
X98990586Y-115142009D01*
X98795970Y-115205244D01*
X98613650Y-115298140D01*
X98448105Y-115418417D01*
X98448104Y-115418417D01*
X98303417Y-115563104D01*
X98303417Y-115563105D01*
X98183140Y-115728650D01*
X98090243Y-115910971D01*
X98088457Y-115916469D01*
X98049017Y-115974142D01*
X97984657Y-116001337D01*
X97915811Y-115989420D01*
X97864338Y-115942173D01*
X97860043Y-115934440D01*
X97811257Y-115838692D01*
X97781760Y-115780801D01*
X97670690Y-115627927D01*
X97537073Y-115494310D01*
X97384199Y-115383240D01*
X97215836Y-115297454D01*
X97036118Y-115239059D01*
X96849486Y-115209500D01*
X96849481Y-115209500D01*
X96660519Y-115209500D01*
X96660514Y-115209500D01*
X96473881Y-115239059D01*
X96294163Y-115297454D01*
X96125800Y-115383240D01*
X96055507Y-115434312D01*
X95972927Y-115494310D01*
X95972925Y-115494312D01*
X95972924Y-115494312D01*
X95839312Y-115627924D01*
X95839312Y-115627925D01*
X95839310Y-115627927D01*
X95815057Y-115661308D01*
X95728240Y-115780800D01*
X95642454Y-115949163D01*
X95602931Y-116070803D01*
X95563493Y-116128478D01*
X95499134Y-116155676D01*
X95430288Y-116143761D01*
X95378812Y-116096516D01*
X95367069Y-116070803D01*
X95348177Y-116012659D01*
X95327547Y-115949168D01*
X95327545Y-115949165D01*
X95327545Y-115949163D01*
X95271257Y-115838692D01*
X95241760Y-115780801D01*
X95130690Y-115627927D01*
X94997073Y-115494310D01*
X94844199Y-115383240D01*
X94675836Y-115297454D01*
X94496118Y-115239059D01*
X94309486Y-115209500D01*
X94309481Y-115209500D01*
X94120519Y-115209500D01*
X94120514Y-115209500D01*
X93933881Y-115239059D01*
X93754163Y-115297454D01*
X93585800Y-115383240D01*
X93515507Y-115434312D01*
X93432927Y-115494310D01*
X93432925Y-115494312D01*
X93432924Y-115494312D01*
X93299312Y-115627924D01*
X93299312Y-115627925D01*
X93299310Y-115627927D01*
X93275057Y-115661308D01*
X93188240Y-115780800D01*
X93102454Y-115949163D01*
X93062931Y-116070803D01*
X93023493Y-116128478D01*
X92959134Y-116155676D01*
X92890288Y-116143761D01*
X92838812Y-116096516D01*
X92827069Y-116070803D01*
X92808177Y-116012659D01*
X92787547Y-115949168D01*
X92787545Y-115949165D01*
X92787545Y-115949163D01*
X92731257Y-115838692D01*
X92701760Y-115780801D01*
X92590690Y-115627927D01*
X92457073Y-115494310D01*
X92304199Y-115383240D01*
X92135836Y-115297454D01*
X91956118Y-115239059D01*
X91769486Y-115209500D01*
X91769481Y-115209500D01*
X91580519Y-115209500D01*
X91580514Y-115209500D01*
X91393881Y-115239059D01*
X91214163Y-115297454D01*
X91045800Y-115383240D01*
X90975507Y-115434312D01*
X90892927Y-115494310D01*
X90892925Y-115494312D01*
X90892924Y-115494312D01*
X90759312Y-115627924D01*
X90759312Y-115627925D01*
X90759310Y-115627927D01*
X90735057Y-115661308D01*
X90648240Y-115780800D01*
X90569985Y-115934385D01*
X90522010Y-115985181D01*
X90454189Y-116001976D01*
X90388054Y-115979439D01*
X90344603Y-115924723D01*
X90335500Y-115878090D01*
X90335500Y-115794313D01*
X90335499Y-115794298D01*
X90332598Y-115757432D01*
X90332597Y-115757426D01*
X90286745Y-115599606D01*
X90286744Y-115599603D01*
X90286744Y-115599602D01*
X90203081Y-115458135D01*
X90203079Y-115458133D01*
X90203076Y-115458129D01*
X90086870Y-115341923D01*
X90086862Y-115341917D01*
X89974688Y-115275578D01*
X89945398Y-115258256D01*
X89945397Y-115258255D01*
X89945396Y-115258255D01*
X89945393Y-115258254D01*
X89787573Y-115212402D01*
X89787567Y-115212401D01*
X89750701Y-115209500D01*
X89750694Y-115209500D01*
X88519306Y-115209500D01*
X88519298Y-115209500D01*
X88482432Y-115212401D01*
X88482426Y-115212402D01*
X88324606Y-115258254D01*
X88324603Y-115258255D01*
X88183137Y-115341917D01*
X88183129Y-115341923D01*
X88066923Y-115458129D01*
X88066917Y-115458137D01*
X87983255Y-115599603D01*
X87983254Y-115599606D01*
X87937402Y-115757426D01*
X87937401Y-115757432D01*
X87934500Y-115794298D01*
X87934500Y-117825701D01*
X87937401Y-117862567D01*
X87937402Y-117862573D01*
X87983254Y-118020393D01*
X87983255Y-118020396D01*
X87983256Y-118020398D01*
X87988994Y-118030101D01*
X88066917Y-118161862D01*
X88066923Y-118161870D01*
X88183129Y-118278076D01*
X88183133Y-118278079D01*
X88183135Y-118278081D01*
X88324602Y-118361744D01*
X88349553Y-118368993D01*
X88482426Y-118407597D01*
X88482429Y-118407597D01*
X88482431Y-118407598D01*
X88519306Y-118410500D01*
X88519314Y-118410500D01*
X89750686Y-118410500D01*
X89750694Y-118410500D01*
X89787569Y-118407598D01*
X89787571Y-118407597D01*
X89787573Y-118407597D01*
X89863368Y-118385576D01*
X89945398Y-118361744D01*
X90086865Y-118278081D01*
X90203081Y-118161865D01*
X90286744Y-118020398D01*
X90332598Y-117862569D01*
X90335500Y-117825694D01*
X90335500Y-117741909D01*
X90355185Y-117674870D01*
X90407989Y-117629115D01*
X90477147Y-117619171D01*
X90540703Y-117648196D01*
X90569984Y-117685613D01*
X90648240Y-117839199D01*
X90759310Y-117992073D01*
X90892927Y-118125690D01*
X91045801Y-118236760D01*
X91125347Y-118277290D01*
X91214163Y-118322545D01*
X91214165Y-118322545D01*
X91214168Y-118322547D01*
X91250371Y-118334310D01*
X91393881Y-118380940D01*
X91580514Y-118410500D01*
X91580519Y-118410500D01*
X91769486Y-118410500D01*
X91956118Y-118380940D01*
X91989218Y-118370185D01*
X92135832Y-118322547D01*
X92304199Y-118236760D01*
X92457073Y-118125690D01*
X92590690Y-117992073D01*
X92701760Y-117839199D01*
X92787547Y-117670832D01*
X92827069Y-117549195D01*
X92866507Y-117491521D01*
X92930866Y-117464323D01*
X92999712Y-117476238D01*
X93051188Y-117523482D01*
X93062931Y-117549196D01*
X93102454Y-117670836D01*
X93169575Y-117802567D01*
X93188240Y-117839199D01*
X93299310Y-117992073D01*
X93432927Y-118125690D01*
X93506962Y-118179480D01*
X93566848Y-118222990D01*
X93579500Y-118239398D01*
X93595665Y-118252367D01*
X93605041Y-118272521D01*
X93609513Y-118278321D01*
X93611531Y-118283894D01*
X93614499Y-118292747D01*
X93614499Y-118294057D01*
X93655423Y-118446785D01*
X93674752Y-118480263D01*
X93725782Y-118568650D01*
X93734479Y-118583714D01*
X93734481Y-118583717D01*
X93853349Y-118702585D01*
X93853355Y-118702590D01*
X94265139Y-119114374D01*
X94265149Y-119114385D01*
X94269479Y-119118715D01*
X94269480Y-119118716D01*
X94381284Y-119230520D01*
X94437514Y-119262984D01*
X94518215Y-119309577D01*
X94670942Y-119350500D01*
X94670943Y-119350500D01*
X121508860Y-119350500D01*
X121570999Y-119368746D01*
X121571449Y-119367905D01*
X121575489Y-119370064D01*
X121575899Y-119370185D01*
X121576717Y-119370721D01*
X121576820Y-119370776D01*
X121704297Y-119423578D01*
X121704302Y-119423580D01*
X121704306Y-119423580D01*
X121704307Y-119423581D01*
X121839634Y-119450500D01*
X121885130Y-119450500D01*
X121952169Y-119470185D01*
X121997924Y-119522989D01*
X122009130Y-119574500D01*
X122009130Y-122966124D01*
X121989445Y-123033163D01*
X121972811Y-123053805D01*
X121377481Y-123649134D01*
X121377479Y-123649137D01*
X121327361Y-123735946D01*
X121327359Y-123735948D01*
X121298425Y-123786061D01*
X121298424Y-123786062D01*
X121298423Y-123786067D01*
X121257499Y-123938795D01*
X121257499Y-123938797D01*
X121257499Y-124106898D01*
X121257500Y-124106911D01*
X121257500Y-126091902D01*
X121237815Y-126158941D01*
X121221181Y-126179583D01*
X118658634Y-128742129D01*
X118597311Y-128775614D01*
X118551555Y-128776921D01*
X118378422Y-128749500D01*
X118378417Y-128749500D01*
X118181583Y-128749500D01*
X118181578Y-128749500D01*
X117987173Y-128780290D01*
X117799970Y-128841117D01*
X117624594Y-128930476D01*
X117543496Y-128989398D01*
X117465354Y-129046172D01*
X117465352Y-129046174D01*
X117465351Y-129046174D01*
X117326174Y-129185351D01*
X117326174Y-129185352D01*
X117326172Y-129185354D01*
X117287717Y-129238282D01*
X117210476Y-129344594D01*
X117120485Y-129521213D01*
X117072511Y-129572009D01*
X117004690Y-129588804D01*
X116938555Y-129566267D01*
X116899515Y-129521213D01*
X116872397Y-129467992D01*
X116809524Y-129344595D01*
X116693828Y-129185354D01*
X116554646Y-129046172D01*
X116395405Y-128930476D01*
X116386915Y-128926150D01*
X116220029Y-128841117D01*
X116032826Y-128780290D01*
X115838422Y-128749500D01*
X115838417Y-128749500D01*
X115641583Y-128749500D01*
X115641578Y-128749500D01*
X115447173Y-128780290D01*
X115259970Y-128841117D01*
X115084594Y-128930476D01*
X115003496Y-128989398D01*
X114925354Y-129046172D01*
X114925352Y-129046174D01*
X114925351Y-129046174D01*
X114786174Y-129185351D01*
X114786174Y-129185352D01*
X114786172Y-129185354D01*
X114747717Y-129238282D01*
X114670476Y-129344594D01*
X114580485Y-129521213D01*
X114532511Y-129572009D01*
X114464690Y-129588804D01*
X114398555Y-129566267D01*
X114359515Y-129521213D01*
X114332397Y-129467992D01*
X114269524Y-129344595D01*
X114153828Y-129185354D01*
X114014646Y-129046172D01*
X113855405Y-128930476D01*
X113846915Y-128926150D01*
X113680029Y-128841117D01*
X113492826Y-128780290D01*
X113298422Y-128749500D01*
X113298417Y-128749500D01*
X113101583Y-128749500D01*
X113101578Y-128749500D01*
X112907173Y-128780290D01*
X112719970Y-128841117D01*
X112544594Y-128930476D01*
X112463496Y-128989398D01*
X112385354Y-129046172D01*
X112385352Y-129046174D01*
X112385351Y-129046174D01*
X112246174Y-129185351D01*
X112246174Y-129185352D01*
X112246172Y-129185354D01*
X112207717Y-129238282D01*
X112130476Y-129344594D01*
X112040485Y-129521213D01*
X111992511Y-129572009D01*
X111924690Y-129588804D01*
X111858555Y-129566267D01*
X111819515Y-129521213D01*
X111792397Y-129467992D01*
X111729524Y-129344595D01*
X111613828Y-129185354D01*
X111474646Y-129046172D01*
X111315405Y-128930476D01*
X111306915Y-128926150D01*
X111140029Y-128841117D01*
X110952826Y-128780290D01*
X110758422Y-128749500D01*
X110758417Y-128749500D01*
X110561583Y-128749500D01*
X110561578Y-128749500D01*
X110367173Y-128780290D01*
X110179970Y-128841117D01*
X110004594Y-128930476D01*
X109923496Y-128989398D01*
X109845354Y-129046172D01*
X109845352Y-129046174D01*
X109845351Y-129046174D01*
X109706174Y-129185351D01*
X109706174Y-129185352D01*
X109706172Y-129185354D01*
X109667717Y-129238282D01*
X109590476Y-129344594D01*
X109500485Y-129521213D01*
X109452511Y-129572009D01*
X109384690Y-129588804D01*
X109318555Y-129566267D01*
X109279515Y-129521213D01*
X109252397Y-129467992D01*
X109189524Y-129344595D01*
X109073828Y-129185354D01*
X108934646Y-129046172D01*
X108775405Y-128930476D01*
X108766915Y-128926150D01*
X108600029Y-128841117D01*
X108412826Y-128780290D01*
X108218422Y-128749500D01*
X108218417Y-128749500D01*
X108021583Y-128749500D01*
X108021578Y-128749500D01*
X107827173Y-128780290D01*
X107639970Y-128841117D01*
X107464594Y-128930476D01*
X107383496Y-128989398D01*
X107305354Y-129046172D01*
X107305352Y-129046174D01*
X107305351Y-129046174D01*
X107166174Y-129185351D01*
X107166174Y-129185352D01*
X107166172Y-129185354D01*
X107127717Y-129238282D01*
X107050476Y-129344594D01*
X106960485Y-129521213D01*
X106912511Y-129572009D01*
X106844690Y-129588804D01*
X106778555Y-129566267D01*
X106739515Y-129521213D01*
X106712397Y-129467992D01*
X106649524Y-129344595D01*
X106533828Y-129185354D01*
X106394646Y-129046172D01*
X106235405Y-128930476D01*
X106226915Y-128926150D01*
X106060029Y-128841117D01*
X105872826Y-128780290D01*
X105678422Y-128749500D01*
X105678417Y-128749500D01*
X105481583Y-128749500D01*
X105481578Y-128749500D01*
X105287173Y-128780290D01*
X105099970Y-128841117D01*
X104924594Y-128930476D01*
X104843496Y-128989398D01*
X104765354Y-129046172D01*
X104765352Y-129046174D01*
X104765351Y-129046174D01*
X104626174Y-129185351D01*
X104626174Y-129185352D01*
X104626172Y-129185354D01*
X104587717Y-129238282D01*
X104510476Y-129344594D01*
X104420485Y-129521213D01*
X104372511Y-129572009D01*
X104304690Y-129588804D01*
X104238555Y-129566267D01*
X104199515Y-129521213D01*
X104172397Y-129467992D01*
X104109524Y-129344595D01*
X103993828Y-129185354D01*
X103854646Y-129046172D01*
X103695405Y-128930476D01*
X103686915Y-128926150D01*
X103520029Y-128841117D01*
X103332826Y-128780290D01*
X103138422Y-128749500D01*
X103138417Y-128749500D01*
X102941583Y-128749500D01*
X102941578Y-128749500D01*
X102747173Y-128780290D01*
X102559970Y-128841117D01*
X102384594Y-128930476D01*
X102303496Y-128989398D01*
X102225354Y-129046172D01*
X102225352Y-129046174D01*
X102225351Y-129046174D01*
X102086174Y-129185351D01*
X102086174Y-129185352D01*
X102086172Y-129185354D01*
X102047717Y-129238282D01*
X101970476Y-129344594D01*
X101880485Y-129521213D01*
X101832511Y-129572009D01*
X101764690Y-129588804D01*
X101698555Y-129566267D01*
X101659515Y-129521213D01*
X101632397Y-129467992D01*
X101569524Y-129344595D01*
X101453828Y-129185354D01*
X101314646Y-129046172D01*
X101155405Y-128930476D01*
X101146915Y-128926150D01*
X100980029Y-128841117D01*
X100792826Y-128780290D01*
X100598422Y-128749500D01*
X100598417Y-128749500D01*
X100401583Y-128749500D01*
X100401578Y-128749500D01*
X100207173Y-128780290D01*
X100019970Y-128841117D01*
X99844594Y-128930476D01*
X99763496Y-128989398D01*
X99685354Y-129046172D01*
X99685352Y-129046174D01*
X99685351Y-129046174D01*
X99546174Y-129185351D01*
X99546174Y-129185352D01*
X99546172Y-129185354D01*
X99507717Y-129238282D01*
X99430476Y-129344594D01*
X99340485Y-129521213D01*
X99292511Y-129572009D01*
X99224690Y-129588804D01*
X99158555Y-129566267D01*
X99119515Y-129521213D01*
X99092397Y-129467992D01*
X99029524Y-129344595D01*
X98913828Y-129185354D01*
X98774646Y-129046172D01*
X98615405Y-128930476D01*
X98606915Y-128926150D01*
X98440029Y-128841117D01*
X98252826Y-128780290D01*
X98058422Y-128749500D01*
X98058417Y-128749500D01*
X97861583Y-128749500D01*
X97861578Y-128749500D01*
X97667173Y-128780290D01*
X97479970Y-128841117D01*
X97304594Y-128930476D01*
X97223496Y-128989398D01*
X97145354Y-129046172D01*
X97145352Y-129046174D01*
X97145351Y-129046174D01*
X97006174Y-129185351D01*
X97006174Y-129185352D01*
X97006172Y-129185354D01*
X96967717Y-129238282D01*
X96890476Y-129344594D01*
X96800485Y-129521213D01*
X96752511Y-129572009D01*
X96684690Y-129588804D01*
X96618555Y-129566267D01*
X96579515Y-129521213D01*
X96552397Y-129467992D01*
X96489524Y-129344595D01*
X96373828Y-129185354D01*
X96234646Y-129046172D01*
X96075405Y-128930476D01*
X96066915Y-128926150D01*
X95900029Y-128841117D01*
X95712826Y-128780290D01*
X95518422Y-128749500D01*
X95518417Y-128749500D01*
X95321583Y-128749500D01*
X95321578Y-128749500D01*
X95127173Y-128780290D01*
X94939970Y-128841117D01*
X94764594Y-128930476D01*
X94683496Y-128989398D01*
X94605354Y-129046172D01*
X94605352Y-129046174D01*
X94605351Y-129046174D01*
X94466174Y-129185351D01*
X94466174Y-129185352D01*
X94466172Y-129185354D01*
X94427717Y-129238282D01*
X94350476Y-129344594D01*
X94260485Y-129521213D01*
X94212511Y-129572009D01*
X94144690Y-129588804D01*
X94078555Y-129566267D01*
X94039515Y-129521213D01*
X94012397Y-129467992D01*
X93949524Y-129344595D01*
X93833828Y-129185354D01*
X93694646Y-129046172D01*
X93535405Y-128930476D01*
X93526915Y-128926150D01*
X93360029Y-128841117D01*
X93172826Y-128780290D01*
X92978422Y-128749500D01*
X92978417Y-128749500D01*
X92781583Y-128749500D01*
X92781578Y-128749500D01*
X92587173Y-128780290D01*
X92399970Y-128841117D01*
X92224594Y-128930476D01*
X92143496Y-128989398D01*
X92065354Y-129046172D01*
X92065352Y-129046174D01*
X92065351Y-129046174D01*
X91926174Y-129185351D01*
X91926174Y-129185352D01*
X91926172Y-129185354D01*
X91887717Y-129238282D01*
X91810476Y-129344594D01*
X91720485Y-129521213D01*
X91672511Y-129572009D01*
X91604690Y-129588804D01*
X91538555Y-129566267D01*
X91499515Y-129521213D01*
X91472397Y-129467992D01*
X91409524Y-129344595D01*
X91293828Y-129185354D01*
X91154646Y-129046172D01*
X90995405Y-128930476D01*
X90986915Y-128926150D01*
X90820029Y-128841117D01*
X90632826Y-128780290D01*
X90438422Y-128749500D01*
X90438417Y-128749500D01*
X90241583Y-128749500D01*
X90241578Y-128749500D01*
X90047173Y-128780290D01*
X89859970Y-128841117D01*
X89684594Y-128930476D01*
X89603496Y-128989398D01*
X89525354Y-129046172D01*
X89525352Y-129046174D01*
X89525351Y-129046174D01*
X89386174Y-129185351D01*
X89386174Y-129185352D01*
X89386172Y-129185354D01*
X89347717Y-129238282D01*
X89270476Y-129344594D01*
X89180485Y-129521213D01*
X89132511Y-129572009D01*
X89064690Y-129588804D01*
X88998555Y-129566267D01*
X88959515Y-129521213D01*
X88932397Y-129467992D01*
X88869524Y-129344595D01*
X88753828Y-129185354D01*
X88614646Y-129046172D01*
X88455405Y-128930476D01*
X88446915Y-128926150D01*
X88280029Y-128841117D01*
X88092826Y-128780290D01*
X87898422Y-128749500D01*
X87898417Y-128749500D01*
X87701583Y-128749500D01*
X87701578Y-128749500D01*
X87507173Y-128780290D01*
X87319970Y-128841117D01*
X87144594Y-128930476D01*
X87063496Y-128989398D01*
X86985354Y-129046172D01*
X86985352Y-129046174D01*
X86985351Y-129046174D01*
X86846174Y-129185351D01*
X86846174Y-129185352D01*
X86846172Y-129185354D01*
X86807717Y-129238282D01*
X86730476Y-129344594D01*
X86640485Y-129521213D01*
X86592511Y-129572009D01*
X86524690Y-129588804D01*
X86458555Y-129566267D01*
X86419515Y-129521213D01*
X86392397Y-129467992D01*
X86329524Y-129344595D01*
X86213828Y-129185354D01*
X86074646Y-129046172D01*
X85915405Y-128930476D01*
X85906915Y-128926150D01*
X85740029Y-128841117D01*
X85552826Y-128780290D01*
X85358422Y-128749500D01*
X85358417Y-128749500D01*
X85161583Y-128749500D01*
X85161578Y-128749500D01*
X84967173Y-128780290D01*
X84779970Y-128841117D01*
X84604594Y-128930476D01*
X84523496Y-128989398D01*
X84445354Y-129046172D01*
X84445352Y-129046174D01*
X84445351Y-129046174D01*
X84306173Y-129185352D01*
X84194817Y-129338620D01*
X84139486Y-129381285D01*
X84069873Y-129387264D01*
X84008078Y-129354658D01*
X83973721Y-129293819D01*
X83970499Y-129265734D01*
X83970499Y-129118482D01*
X83968684Y-129107022D01*
X83955646Y-129024696D01*
X83898050Y-128911658D01*
X83898046Y-128911654D01*
X83898045Y-128911652D01*
X83808347Y-128821954D01*
X83808344Y-128821952D01*
X83808342Y-128821950D01*
X83710444Y-128772068D01*
X83695301Y-128764352D01*
X83601524Y-128749500D01*
X81838482Y-128749500D01*
X81757519Y-128762323D01*
X81744696Y-128764354D01*
X81680792Y-128796914D01*
X81612126Y-128809810D01*
X81547385Y-128783534D01*
X81507128Y-128726427D01*
X81500500Y-128686429D01*
X81500500Y-116735513D01*
X84549500Y-116735513D01*
X84549500Y-116924486D01*
X84579059Y-117111118D01*
X84637454Y-117290836D01*
X84687143Y-117388355D01*
X84723240Y-117459199D01*
X84834310Y-117612073D01*
X84967927Y-117745690D01*
X85120801Y-117856760D01*
X85188686Y-117891349D01*
X85289163Y-117942545D01*
X85289165Y-117942545D01*
X85289168Y-117942547D01*
X85368104Y-117968195D01*
X85468881Y-118000940D01*
X85655514Y-118030500D01*
X85655519Y-118030500D01*
X85844486Y-118030500D01*
X86031118Y-118000940D01*
X86058401Y-117992075D01*
X86210832Y-117942547D01*
X86379199Y-117856760D01*
X86532073Y-117745690D01*
X86665690Y-117612073D01*
X86776760Y-117459199D01*
X86862547Y-117290832D01*
X86920940Y-117111118D01*
X86932154Y-117040315D01*
X86950500Y-116924486D01*
X86950500Y-116735513D01*
X86920940Y-116548881D01*
X86882993Y-116432095D01*
X86862547Y-116369168D01*
X86862545Y-116369165D01*
X86862545Y-116369163D01*
X86795346Y-116237278D01*
X86776760Y-116200801D01*
X86665690Y-116047927D01*
X86532073Y-115914310D01*
X86379199Y-115803240D01*
X86320778Y-115773473D01*
X86210836Y-115717454D01*
X86031118Y-115659059D01*
X85844486Y-115629500D01*
X85844481Y-115629500D01*
X85655519Y-115629500D01*
X85655514Y-115629500D01*
X85468881Y-115659059D01*
X85289163Y-115717454D01*
X85120800Y-115803240D01*
X85072004Y-115838693D01*
X84967927Y-115914310D01*
X84967925Y-115914312D01*
X84967924Y-115914312D01*
X84834312Y-116047924D01*
X84834312Y-116047925D01*
X84834310Y-116047927D01*
X84817690Y-116070803D01*
X84723240Y-116200800D01*
X84637454Y-116369163D01*
X84579059Y-116548881D01*
X84549500Y-116735513D01*
X81500500Y-116735513D01*
X81500500Y-106575513D01*
X84549500Y-106575513D01*
X84549500Y-106764486D01*
X84579059Y-106951118D01*
X84637454Y-107130836D01*
X84691978Y-107237844D01*
X84723240Y-107299199D01*
X84834310Y-107452073D01*
X84967927Y-107585690D01*
X85120801Y-107696760D01*
X85200347Y-107737290D01*
X85289163Y-107782545D01*
X85289165Y-107782545D01*
X85289168Y-107782547D01*
X85338011Y-107798417D01*
X85468881Y-107840940D01*
X85655514Y-107870500D01*
X85655519Y-107870500D01*
X85844486Y-107870500D01*
X86031118Y-107840940D01*
X86210832Y-107782547D01*
X86379199Y-107696760D01*
X86520385Y-107594181D01*
X86586190Y-107570702D01*
X86593270Y-107570500D01*
X87725500Y-107570500D01*
X87792539Y-107590185D01*
X87838294Y-107642989D01*
X87849500Y-107694500D01*
X87849500Y-108893696D01*
X87884103Y-109067658D01*
X87884105Y-109067666D01*
X87917239Y-109147659D01*
X87917241Y-109147662D01*
X87917243Y-109147666D01*
X87925060Y-109166540D01*
X87934500Y-109213992D01*
X87934500Y-109684486D01*
X87964059Y-109871118D01*
X88022454Y-110050836D01*
X88104240Y-110211349D01*
X88108240Y-110219199D01*
X88219310Y-110372073D01*
X88352927Y-110505690D01*
X88505801Y-110616760D01*
X88555061Y-110641859D01*
X88674163Y-110702545D01*
X88674165Y-110702545D01*
X88674168Y-110702547D01*
X88760198Y-110730500D01*
X88853881Y-110760940D01*
X89040514Y-110790500D01*
X89040519Y-110790500D01*
X89229486Y-110790500D01*
X89416118Y-110760940D01*
X89595832Y-110702547D01*
X89764199Y-110616760D01*
X89917073Y-110505690D01*
X90050690Y-110372073D01*
X90161760Y-110219199D01*
X90240043Y-110065558D01*
X90288017Y-110014763D01*
X90355838Y-109997968D01*
X90421973Y-110020505D01*
X90465425Y-110075220D01*
X90468458Y-110083534D01*
X90470242Y-110089027D01*
X90563140Y-110271349D01*
X90683417Y-110436894D01*
X90683417Y-110436895D01*
X90828104Y-110581582D01*
X90993650Y-110701859D01*
X91175968Y-110794754D01*
X91370578Y-110857988D01*
X91425000Y-110866607D01*
X91425000Y-109505686D01*
X91429394Y-109510080D01*
X91520606Y-109562741D01*
X91622339Y-109590000D01*
X91727661Y-109590000D01*
X91829394Y-109562741D01*
X91920606Y-109510080D01*
X91925000Y-109505686D01*
X91925000Y-110866606D01*
X91979421Y-110857988D01*
X92174031Y-110794754D01*
X92356349Y-110701859D01*
X92521894Y-110581582D01*
X92521895Y-110581582D01*
X92666582Y-110436895D01*
X92666582Y-110436894D01*
X92786859Y-110271349D01*
X92879753Y-110089033D01*
X92881537Y-110083544D01*
X92920970Y-110025866D01*
X92985327Y-109998663D01*
X93054174Y-110010573D01*
X93105654Y-110057813D01*
X93109956Y-110065559D01*
X93184240Y-110211349D01*
X93188240Y-110219199D01*
X93299310Y-110372073D01*
X93432927Y-110505690D01*
X93585801Y-110616760D01*
X93635061Y-110641859D01*
X93754163Y-110702545D01*
X93754165Y-110702545D01*
X93754168Y-110702547D01*
X93840198Y-110730500D01*
X93933881Y-110760940D01*
X94120514Y-110790500D01*
X94120519Y-110790500D01*
X94309486Y-110790500D01*
X94496118Y-110760940D01*
X94675832Y-110702547D01*
X94844199Y-110616760D01*
X94997073Y-110505690D01*
X95130690Y-110372073D01*
X95241760Y-110219199D01*
X95320043Y-110065558D01*
X95368017Y-110014763D01*
X95435838Y-109997968D01*
X95501973Y-110020505D01*
X95545425Y-110075220D01*
X95548458Y-110083534D01*
X95550242Y-110089027D01*
X95643140Y-110271349D01*
X95763417Y-110436894D01*
X95763417Y-110436895D01*
X95908104Y-110581582D01*
X96073650Y-110701859D01*
X96255968Y-110794754D01*
X96450578Y-110857988D01*
X96505000Y-110866607D01*
X96505000Y-109505686D01*
X96509394Y-109510080D01*
X96600606Y-109562741D01*
X96702339Y-109590000D01*
X96807661Y-109590000D01*
X96909394Y-109562741D01*
X97000606Y-109510080D01*
X97005000Y-109505686D01*
X97005000Y-110866607D01*
X97059421Y-110857988D01*
X97254031Y-110794754D01*
X97436349Y-110701859D01*
X97601894Y-110581582D01*
X97601895Y-110581582D01*
X97746582Y-110436895D01*
X97746582Y-110436894D01*
X97866859Y-110271349D01*
X97959753Y-110089033D01*
X97961537Y-110083544D01*
X98000970Y-110025866D01*
X98065327Y-109998663D01*
X98134174Y-110010573D01*
X98185654Y-110057813D01*
X98189956Y-110065559D01*
X98264240Y-110211349D01*
X98268240Y-110219199D01*
X98379310Y-110372073D01*
X98512927Y-110505690D01*
X98665801Y-110616760D01*
X98715061Y-110641859D01*
X98834163Y-110702545D01*
X98834165Y-110702545D01*
X98834168Y-110702547D01*
X98920198Y-110730500D01*
X99013881Y-110760940D01*
X99200514Y-110790500D01*
X99200519Y-110790500D01*
X99389486Y-110790500D01*
X99576118Y-110760940D01*
X99755832Y-110702547D01*
X99924199Y-110616760D01*
X100077073Y-110505690D01*
X100210690Y-110372073D01*
X100321760Y-110219199D01*
X100400043Y-110065558D01*
X100448017Y-110014763D01*
X100515838Y-109997968D01*
X100581973Y-110020505D01*
X100625425Y-110075220D01*
X100628458Y-110083534D01*
X100630242Y-110089027D01*
X100723140Y-110271349D01*
X100843417Y-110436894D01*
X100843417Y-110436895D01*
X100988104Y-110581582D01*
X101153650Y-110701859D01*
X101335968Y-110794754D01*
X101530578Y-110857988D01*
X101585000Y-110866607D01*
X101585000Y-109505686D01*
X101589394Y-109510080D01*
X101680606Y-109562741D01*
X101782339Y-109590000D01*
X101887661Y-109590000D01*
X101989394Y-109562741D01*
X102080606Y-109510080D01*
X102085000Y-109505686D01*
X102085000Y-110866606D01*
X102139421Y-110857988D01*
X102334031Y-110794754D01*
X102516349Y-110701859D01*
X102681894Y-110581582D01*
X102681895Y-110581582D01*
X102826582Y-110436895D01*
X102826582Y-110436894D01*
X102946859Y-110271349D01*
X103039753Y-110089033D01*
X103041537Y-110083544D01*
X103080970Y-110025866D01*
X103145327Y-109998663D01*
X103214174Y-110010573D01*
X103265654Y-110057813D01*
X103269956Y-110065559D01*
X103344240Y-110211349D01*
X103348240Y-110219199D01*
X103459310Y-110372073D01*
X103592927Y-110505690D01*
X103745801Y-110616760D01*
X103795061Y-110641859D01*
X103914163Y-110702545D01*
X103914165Y-110702545D01*
X103914168Y-110702547D01*
X104000198Y-110730500D01*
X104093881Y-110760940D01*
X104280514Y-110790500D01*
X104280519Y-110790500D01*
X104469486Y-110790500D01*
X104656118Y-110760940D01*
X104835832Y-110702547D01*
X105004199Y-110616760D01*
X105157073Y-110505690D01*
X105290690Y-110372073D01*
X105401760Y-110219199D01*
X105487547Y-110050832D01*
X105545940Y-109871118D01*
X105550317Y-109843482D01*
X105575500Y-109684486D01*
X105575500Y-108695513D01*
X105545940Y-108508881D01*
X105515328Y-108414669D01*
X105487547Y-108329168D01*
X105487545Y-108329165D01*
X105487545Y-108329163D01*
X105401759Y-108160800D01*
X105371183Y-108118716D01*
X105290690Y-108007927D01*
X105157073Y-107874310D01*
X105004199Y-107763240D01*
X105002070Y-107762155D01*
X104835836Y-107677454D01*
X104656118Y-107619059D01*
X104469486Y-107589500D01*
X104469481Y-107589500D01*
X104280519Y-107589500D01*
X104280514Y-107589500D01*
X104093881Y-107619059D01*
X103914163Y-107677454D01*
X103745800Y-107763240D01*
X103675507Y-107814312D01*
X103592927Y-107874310D01*
X103592925Y-107874312D01*
X103592924Y-107874312D01*
X103459312Y-108007924D01*
X103459312Y-108007925D01*
X103459310Y-108007927D01*
X103451191Y-108019102D01*
X103348236Y-108160805D01*
X103269955Y-108314440D01*
X103221981Y-108365236D01*
X103154160Y-108382031D01*
X103088025Y-108359493D01*
X103044574Y-108304778D01*
X103041538Y-108296458D01*
X103039754Y-108290967D01*
X102946859Y-108108650D01*
X102826582Y-107943105D01*
X102826582Y-107943104D01*
X102681895Y-107798417D01*
X102516349Y-107678140D01*
X102334029Y-107585244D01*
X102139413Y-107522009D01*
X102085000Y-107513390D01*
X102085000Y-108874314D01*
X102080606Y-108869920D01*
X101989394Y-108817259D01*
X101887661Y-108790000D01*
X101782339Y-108790000D01*
X101680606Y-108817259D01*
X101589394Y-108869920D01*
X101585000Y-108874314D01*
X101585000Y-107513390D01*
X101530586Y-107522009D01*
X101335970Y-107585244D01*
X101153650Y-107678140D01*
X100988105Y-107798417D01*
X100988104Y-107798417D01*
X100843417Y-107943104D01*
X100843417Y-107943105D01*
X100723140Y-108108650D01*
X100630243Y-108290971D01*
X100628457Y-108296469D01*
X100589017Y-108354142D01*
X100524657Y-108381337D01*
X100455811Y-108369420D01*
X100404338Y-108322173D01*
X100400043Y-108314440D01*
X100321759Y-108160800D01*
X100291183Y-108118716D01*
X100210690Y-108007927D01*
X100077073Y-107874310D01*
X99924199Y-107763240D01*
X99922070Y-107762155D01*
X99755836Y-107677454D01*
X99576118Y-107619059D01*
X99389486Y-107589500D01*
X99389481Y-107589500D01*
X99200519Y-107589500D01*
X99200514Y-107589500D01*
X99013881Y-107619059D01*
X98834163Y-107677454D01*
X98665800Y-107763240D01*
X98595507Y-107814312D01*
X98512927Y-107874310D01*
X98512925Y-107874312D01*
X98512924Y-107874312D01*
X98379312Y-108007924D01*
X98379312Y-108007925D01*
X98379310Y-108007927D01*
X98371191Y-108019102D01*
X98268236Y-108160805D01*
X98189955Y-108314440D01*
X98141981Y-108365236D01*
X98074160Y-108382031D01*
X98008025Y-108359493D01*
X97964574Y-108304778D01*
X97961538Y-108296458D01*
X97959754Y-108290967D01*
X97866859Y-108108650D01*
X97746582Y-107943105D01*
X97746582Y-107943104D01*
X97601895Y-107798417D01*
X97436349Y-107678140D01*
X97254029Y-107585244D01*
X97059413Y-107522009D01*
X97005000Y-107513390D01*
X97005000Y-108874314D01*
X97000606Y-108869920D01*
X96909394Y-108817259D01*
X96807661Y-108790000D01*
X96702339Y-108790000D01*
X96600606Y-108817259D01*
X96509394Y-108869920D01*
X96505000Y-108874314D01*
X96505000Y-107513390D01*
X96450586Y-107522009D01*
X96255970Y-107585244D01*
X96073650Y-107678140D01*
X95908105Y-107798417D01*
X95908104Y-107798417D01*
X95763417Y-107943104D01*
X95763417Y-107943105D01*
X95643140Y-108108650D01*
X95550243Y-108290971D01*
X95548457Y-108296469D01*
X95509017Y-108354142D01*
X95444657Y-108381337D01*
X95375811Y-108369420D01*
X95324338Y-108322173D01*
X95320043Y-108314440D01*
X95241759Y-108160800D01*
X95211183Y-108118716D01*
X95130690Y-108007927D01*
X94997073Y-107874310D01*
X94844199Y-107763240D01*
X94842070Y-107762155D01*
X94675836Y-107677454D01*
X94496118Y-107619059D01*
X94309486Y-107589500D01*
X94309481Y-107589500D01*
X94120519Y-107589500D01*
X94120514Y-107589500D01*
X93933881Y-107619059D01*
X93754163Y-107677454D01*
X93585800Y-107763240D01*
X93515507Y-107814312D01*
X93432927Y-107874310D01*
X93432925Y-107874312D01*
X93432924Y-107874312D01*
X93299312Y-108007924D01*
X93299312Y-108007925D01*
X93299310Y-108007927D01*
X93291191Y-108019102D01*
X93188236Y-108160805D01*
X93109955Y-108314440D01*
X93061981Y-108365236D01*
X92994160Y-108382031D01*
X92928025Y-108359493D01*
X92884574Y-108304778D01*
X92881538Y-108296458D01*
X92879754Y-108290967D01*
X92786859Y-108108650D01*
X92666582Y-107943105D01*
X92666582Y-107943104D01*
X92521895Y-107798417D01*
X92356349Y-107678140D01*
X92174029Y-107585244D01*
X91979413Y-107522009D01*
X91925000Y-107513390D01*
X91925000Y-108874314D01*
X91920606Y-108869920D01*
X91829394Y-108817259D01*
X91727661Y-108790000D01*
X91622339Y-108790000D01*
X91520606Y-108817259D01*
X91429394Y-108869920D01*
X91425000Y-108874314D01*
X91425000Y-107513390D01*
X91370586Y-107522009D01*
X91175970Y-107585244D01*
X90993650Y-107678140D01*
X90828105Y-107798417D01*
X90828104Y-107798417D01*
X90683417Y-107943104D01*
X90683417Y-107943105D01*
X90563140Y-108108650D01*
X90470243Y-108290971D01*
X90468457Y-108296469D01*
X90429017Y-108354142D01*
X90364657Y-108381337D01*
X90295811Y-108369420D01*
X90244338Y-108322173D01*
X90240043Y-108314440D01*
X90161759Y-108160800D01*
X90131183Y-108118716D01*
X90050690Y-108007927D01*
X89917073Y-107874310D01*
X89764199Y-107763240D01*
X89762070Y-107762155D01*
X89718203Y-107739803D01*
X89667408Y-107691828D01*
X89650500Y-107629319D01*
X89650500Y-106947882D01*
X90595669Y-106947882D01*
X90595670Y-106947883D01*
X90621059Y-106966329D01*
X90789362Y-107052085D01*
X90968997Y-107110451D01*
X91155553Y-107140000D01*
X91344447Y-107140000D01*
X91531002Y-107110451D01*
X91710637Y-107052085D01*
X91878937Y-106966331D01*
X91904328Y-106947883D01*
X91904328Y-106947882D01*
X91250001Y-106293554D01*
X91250000Y-106293554D01*
X90595669Y-106947882D01*
X89650500Y-106947882D01*
X89650500Y-106613140D01*
X89670185Y-106546101D01*
X89674164Y-106540279D01*
X89691232Y-106516788D01*
X89769873Y-106362445D01*
X89823402Y-106197701D01*
X89827156Y-106173995D01*
X89857083Y-106110863D01*
X89916393Y-106073930D01*
X89986256Y-106074926D01*
X90044490Y-106113534D01*
X90072102Y-106173993D01*
X90079548Y-106221003D01*
X90137914Y-106400637D01*
X90223666Y-106568933D01*
X90242116Y-106594328D01*
X90896446Y-105940000D01*
X90896446Y-105939999D01*
X90850369Y-105893922D01*
X90900000Y-105893922D01*
X90900000Y-105986078D01*
X90923852Y-106075095D01*
X90969930Y-106154905D01*
X91035095Y-106220070D01*
X91114905Y-106266148D01*
X91203922Y-106290000D01*
X91296078Y-106290000D01*
X91385095Y-106266148D01*
X91464905Y-106220070D01*
X91530070Y-106154905D01*
X91576148Y-106075095D01*
X91600000Y-105986078D01*
X91600000Y-105939999D01*
X91603554Y-105939999D01*
X91603554Y-105940000D01*
X92257882Y-106594328D01*
X92257883Y-106594328D01*
X92276331Y-106568937D01*
X92362085Y-106400637D01*
X92420451Y-106221002D01*
X92450000Y-106034447D01*
X92450000Y-105845552D01*
X92420451Y-105658997D01*
X92362085Y-105479362D01*
X92276329Y-105311059D01*
X92257883Y-105285670D01*
X92257882Y-105285669D01*
X91603554Y-105939999D01*
X91600000Y-105939999D01*
X91600000Y-105893922D01*
X91576148Y-105804905D01*
X91530070Y-105725095D01*
X91464905Y-105659930D01*
X91385095Y-105613852D01*
X91296078Y-105590000D01*
X91203922Y-105590000D01*
X91114905Y-105613852D01*
X91035095Y-105659930D01*
X90969930Y-105725095D01*
X90923852Y-105804905D01*
X90900000Y-105893922D01*
X90850369Y-105893922D01*
X90242116Y-105285669D01*
X90242116Y-105285670D01*
X90223669Y-105311060D01*
X90137914Y-105479362D01*
X90079548Y-105658996D01*
X90072102Y-105706006D01*
X90042171Y-105769140D01*
X89982859Y-105806070D01*
X89912997Y-105805071D01*
X89854765Y-105766461D01*
X89827156Y-105706004D01*
X89823402Y-105682299D01*
X89769873Y-105517555D01*
X89691232Y-105363212D01*
X89589414Y-105223072D01*
X89466928Y-105100586D01*
X89465325Y-105099421D01*
X89438194Y-105079708D01*
X89438171Y-105079693D01*
X89429582Y-105073453D01*
X89326788Y-104998768D01*
X89308726Y-104989565D01*
X89195975Y-104932116D01*
X90595669Y-104932116D01*
X91250000Y-105586446D01*
X91250001Y-105586446D01*
X91904328Y-104932116D01*
X91878933Y-104913666D01*
X91710637Y-104827914D01*
X91531002Y-104769548D01*
X91344447Y-104740000D01*
X91155553Y-104740000D01*
X90968997Y-104769548D01*
X90789362Y-104827914D01*
X90621060Y-104913669D01*
X90595670Y-104932116D01*
X90595669Y-104932116D01*
X89195975Y-104932116D01*
X89172447Y-104920128D01*
X89172446Y-104920127D01*
X89172445Y-104920127D01*
X89007701Y-104866598D01*
X89007699Y-104866597D01*
X89007698Y-104866597D01*
X88876271Y-104845781D01*
X88836611Y-104839500D01*
X88663389Y-104839500D01*
X88623728Y-104845781D01*
X88492302Y-104866597D01*
X88327552Y-104920128D01*
X88173211Y-104998768D01*
X88117184Y-105039475D01*
X88033072Y-105100586D01*
X88033070Y-105100588D01*
X88033069Y-105100588D01*
X87910588Y-105223069D01*
X87910588Y-105223070D01*
X87910586Y-105223072D01*
X87900224Y-105237334D01*
X87808768Y-105363211D01*
X87730128Y-105517550D01*
X87676104Y-105683819D01*
X87636666Y-105741494D01*
X87572307Y-105768692D01*
X87558173Y-105769500D01*
X86593270Y-105769500D01*
X86526231Y-105749815D01*
X86520397Y-105745827D01*
X86379199Y-105643240D01*
X86321522Y-105613852D01*
X86210836Y-105557454D01*
X86031118Y-105499059D01*
X85844486Y-105469500D01*
X85844481Y-105469500D01*
X85655519Y-105469500D01*
X85655514Y-105469500D01*
X85468881Y-105499059D01*
X85289163Y-105557454D01*
X85120800Y-105643240D01*
X85067041Y-105682299D01*
X84967927Y-105754310D01*
X84967925Y-105754312D01*
X84967924Y-105754312D01*
X84834312Y-105887924D01*
X84834312Y-105887925D01*
X84834310Y-105887927D01*
X84788104Y-105951524D01*
X84723240Y-106040800D01*
X84637454Y-106209163D01*
X84579059Y-106388881D01*
X84549500Y-106575513D01*
X81500500Y-106575513D01*
X81500500Y-100335069D01*
X88250000Y-100335069D01*
X88250000Y-100830000D01*
X89566988Y-100830000D01*
X89534075Y-100887007D01*
X89500000Y-101014174D01*
X89500000Y-101145826D01*
X89534075Y-101272993D01*
X89566988Y-101330000D01*
X88250000Y-101330000D01*
X88250000Y-101824930D01*
X88265122Y-101959141D01*
X88324663Y-102129301D01*
X88420577Y-102281948D01*
X88548051Y-102409422D01*
X88700698Y-102505336D01*
X88870858Y-102564877D01*
X89005069Y-102579999D01*
X89005070Y-102580000D01*
X89750000Y-102580000D01*
X89750000Y-101513012D01*
X89807007Y-101545925D01*
X89934174Y-101580000D01*
X90065826Y-101580000D01*
X90192993Y-101545925D01*
X90250000Y-101513012D01*
X90250000Y-102580000D01*
X90994930Y-102580000D01*
X90994930Y-102579999D01*
X91129141Y-102564877D01*
X91299301Y-102505336D01*
X91451948Y-102409422D01*
X91579422Y-102281948D01*
X91675336Y-102129301D01*
X91734877Y-101959141D01*
X91749999Y-101824930D01*
X91750000Y-101824930D01*
X91750000Y-101330000D01*
X90433012Y-101330000D01*
X90465925Y-101272993D01*
X90500000Y-101145826D01*
X90500000Y-101014174D01*
X90465925Y-100887007D01*
X90433012Y-100830000D01*
X91750000Y-100830000D01*
X91750000Y-100335070D01*
X91749999Y-100335069D01*
X91734877Y-100200858D01*
X91675336Y-100030698D01*
X91579422Y-99878051D01*
X91451948Y-99750577D01*
X91299301Y-99654663D01*
X91129141Y-99595122D01*
X90994930Y-99580000D01*
X90250000Y-99580000D01*
X90250000Y-100646988D01*
X90192993Y-100614075D01*
X90065826Y-100580000D01*
X89934174Y-100580000D01*
X89807007Y-100614075D01*
X89750000Y-100646988D01*
X89750000Y-99580000D01*
X89005070Y-99580000D01*
X88870858Y-99595122D01*
X88700698Y-99654663D01*
X88548051Y-99750577D01*
X88420577Y-99878051D01*
X88324663Y-100030698D01*
X88265122Y-100200858D01*
X88250000Y-100335069D01*
X81500500Y-100335069D01*
X81500500Y-96909875D01*
X81520185Y-96842836D01*
X81536814Y-96822199D01*
X88038321Y-90320692D01*
X88099642Y-90287209D01*
X88169334Y-90292193D01*
X88225267Y-90334065D01*
X88249684Y-90399529D01*
X88250000Y-90408375D01*
X88250000Y-90670000D01*
X89566988Y-90670000D01*
X89534075Y-90727007D01*
X89500000Y-90854174D01*
X89500000Y-90985826D01*
X89534075Y-91112993D01*
X89566988Y-91170000D01*
X88250000Y-91170000D01*
X88250000Y-91664930D01*
X88265122Y-91799141D01*
X88324663Y-91969301D01*
X88420577Y-92121948D01*
X88548051Y-92249422D01*
X88700698Y-92345336D01*
X88870858Y-92404877D01*
X89005069Y-92419999D01*
X89005070Y-92420000D01*
X89750000Y-92420000D01*
X89750000Y-91353012D01*
X89807007Y-91385925D01*
X89934174Y-91420000D01*
X90065826Y-91420000D01*
X90192993Y-91385925D01*
X90250000Y-91353012D01*
X90250000Y-92420000D01*
X90994930Y-92420000D01*
X90994930Y-92419999D01*
X91129141Y-92404877D01*
X91299301Y-92345336D01*
X91451948Y-92249422D01*
X91579422Y-92121948D01*
X91675336Y-91969301D01*
X91734877Y-91799141D01*
X91749999Y-91664930D01*
X91750000Y-91664930D01*
X91750000Y-91170000D01*
X90433012Y-91170000D01*
X90465925Y-91112993D01*
X90500000Y-90985826D01*
X90500000Y-90854174D01*
X90465925Y-90727007D01*
X90433012Y-90670000D01*
X91750000Y-90670000D01*
X91750000Y-90175070D01*
X91749999Y-90175069D01*
X91734877Y-90040858D01*
X91675336Y-89870698D01*
X91579422Y-89718051D01*
X91451948Y-89590577D01*
X91299301Y-89494663D01*
X91129141Y-89435122D01*
X90994930Y-89420000D01*
X90250000Y-89420000D01*
X90250000Y-90486988D01*
X90192993Y-90454075D01*
X90065826Y-90420000D01*
X89934174Y-90420000D01*
X89807007Y-90454075D01*
X89750000Y-90486988D01*
X89750000Y-89420000D01*
X89238375Y-89420000D01*
X89171336Y-89400315D01*
X89125581Y-89347511D01*
X89115637Y-89278353D01*
X89144662Y-89214797D01*
X89150680Y-89208333D01*
X96182395Y-82176619D01*
X96243718Y-82143134D01*
X96270076Y-82140300D01*
X131194256Y-82140300D01*
X131261295Y-82159985D01*
G37*
%TD.AperFunction*%
%TA.AperFunction,Conductor*%
G36*
X177610000Y-101552661D02*
G01*
X177637259Y-101654394D01*
X177689920Y-101745606D01*
X177764394Y-101820080D01*
X177855606Y-101872741D01*
X177957339Y-101900000D01*
X177963553Y-101900000D01*
X177284076Y-102579474D01*
X177328652Y-102611861D01*
X177502323Y-102700350D01*
X177553120Y-102748324D01*
X177569915Y-102816145D01*
X177547378Y-102882280D01*
X177502325Y-102921319D01*
X177380803Y-102983238D01*
X177315562Y-103030639D01*
X177227927Y-103094310D01*
X177227925Y-103094312D01*
X177227924Y-103094312D01*
X177094312Y-103227924D01*
X177094312Y-103227925D01*
X177094310Y-103227927D01*
X177080963Y-103246298D01*
X176983240Y-103380800D01*
X176897454Y-103549163D01*
X176857931Y-103670803D01*
X176818493Y-103728478D01*
X176754134Y-103755676D01*
X176685288Y-103743761D01*
X176633812Y-103696516D01*
X176622069Y-103670803D01*
X176611649Y-103638734D01*
X176582547Y-103549168D01*
X176582545Y-103549165D01*
X176582545Y-103549163D01*
X176532273Y-103450500D01*
X176496760Y-103380801D01*
X176385690Y-103227927D01*
X176252073Y-103094310D01*
X176099199Y-102983240D01*
X176093859Y-102980519D01*
X175930836Y-102897454D01*
X175902537Y-102888259D01*
X175855358Y-102872930D01*
X175797685Y-102833493D01*
X175770487Y-102769135D01*
X175782402Y-102700288D01*
X175829646Y-102648812D01*
X175855356Y-102637070D01*
X175930832Y-102612547D01*
X176099199Y-102526760D01*
X176252073Y-102415690D01*
X176385690Y-102282073D01*
X176496760Y-102129199D01*
X176575043Y-101975558D01*
X176623017Y-101924763D01*
X176690838Y-101907968D01*
X176756973Y-101930505D01*
X176800425Y-101985220D01*
X176803458Y-101993534D01*
X176805242Y-101999027D01*
X176898141Y-102181350D01*
X176898147Y-102181359D01*
X176930523Y-102225921D01*
X176930524Y-102225922D01*
X177610000Y-101546446D01*
X177610000Y-101552661D01*
G37*
%TD.AperFunction*%
%TA.AperFunction,Conductor*%
G36*
X174922502Y-82140417D02*
G01*
X175322259Y-82157871D01*
X175332995Y-82158811D01*
X175727020Y-82210685D01*
X175737658Y-82212560D01*
X176125667Y-82298580D01*
X176136107Y-82301378D01*
X176515120Y-82420880D01*
X176525281Y-82424578D01*
X176892449Y-82576665D01*
X176902241Y-82581231D01*
X177114938Y-82691954D01*
X177254742Y-82764731D01*
X177264110Y-82770139D01*
X177599288Y-82983671D01*
X177608149Y-82989876D01*
X177923432Y-83231801D01*
X177931719Y-83238755D01*
X178224714Y-83507236D01*
X178232363Y-83514885D01*
X178500844Y-83807880D01*
X178507798Y-83816167D01*
X178749723Y-84131450D01*
X178755928Y-84140311D01*
X178969460Y-84475489D01*
X178974868Y-84484857D01*
X179158365Y-84837352D01*
X179162937Y-84847156D01*
X179315020Y-85214316D01*
X179318720Y-85224482D01*
X179438220Y-85603488D01*
X179441020Y-85613936D01*
X179527037Y-86001933D01*
X179528915Y-86012587D01*
X179580786Y-86406585D01*
X179581729Y-86417361D01*
X179599182Y-86817097D01*
X179599277Y-86820129D01*
X179599300Y-86821328D01*
X179599300Y-86885692D01*
X179600628Y-86890651D01*
X179600877Y-86903594D01*
X179600769Y-86903986D01*
X179600900Y-86905971D01*
X179600900Y-128645887D01*
X179581215Y-128712926D01*
X179528411Y-128758681D01*
X179459253Y-128768625D01*
X179457502Y-128768360D01*
X179338422Y-128749500D01*
X179338417Y-128749500D01*
X179141583Y-128749500D01*
X179141578Y-128749500D01*
X178947173Y-128780290D01*
X178759970Y-128841117D01*
X178584594Y-128930476D01*
X178503496Y-128989398D01*
X178425354Y-129046172D01*
X178425352Y-129046174D01*
X178425351Y-129046174D01*
X178286174Y-129185351D01*
X178286174Y-129185352D01*
X178286172Y-129185354D01*
X178247717Y-129238282D01*
X178170476Y-129344594D01*
X178080485Y-129521213D01*
X178032511Y-129572009D01*
X177964690Y-129588804D01*
X177898555Y-129566267D01*
X177859515Y-129521213D01*
X177832397Y-129467992D01*
X177769524Y-129344595D01*
X177653828Y-129185354D01*
X177514646Y-129046172D01*
X177355405Y-128930476D01*
X177346915Y-128926150D01*
X177180029Y-128841117D01*
X176992826Y-128780290D01*
X176798422Y-128749500D01*
X176798417Y-128749500D01*
X176601583Y-128749500D01*
X176601578Y-128749500D01*
X176407173Y-128780290D01*
X176219970Y-128841117D01*
X176044594Y-128930476D01*
X175963496Y-128989398D01*
X175885354Y-129046172D01*
X175885352Y-129046174D01*
X175885351Y-129046174D01*
X175746174Y-129185351D01*
X175746174Y-129185352D01*
X175746172Y-129185354D01*
X175707717Y-129238282D01*
X175630476Y-129344594D01*
X175540485Y-129521213D01*
X175492511Y-129572009D01*
X175424690Y-129588804D01*
X175358555Y-129566267D01*
X175319515Y-129521213D01*
X175292397Y-129467992D01*
X175229524Y-129344595D01*
X175113828Y-129185354D01*
X174974646Y-129046172D01*
X174896504Y-128989398D01*
X174811614Y-128927721D01*
X174768949Y-128872390D01*
X174760500Y-128827403D01*
X174760500Y-120438194D01*
X174780185Y-120371155D01*
X174832989Y-120325400D01*
X174902147Y-120315456D01*
X174940793Y-120327708D01*
X174966338Y-120340724D01*
X175009163Y-120362545D01*
X175009165Y-120362545D01*
X175009168Y-120362547D01*
X175035661Y-120371155D01*
X175188881Y-120420940D01*
X175375514Y-120450500D01*
X175375519Y-120450500D01*
X175564486Y-120450500D01*
X175751118Y-120420940D01*
X175930832Y-120362547D01*
X176099199Y-120276760D01*
X176252073Y-120165690D01*
X176385690Y-120032073D01*
X176496760Y-119879199D01*
X176575043Y-119725558D01*
X176623017Y-119674763D01*
X176690838Y-119657968D01*
X176756973Y-119680505D01*
X176800425Y-119735220D01*
X176803458Y-119743534D01*
X176805242Y-119749027D01*
X176898141Y-119931350D01*
X176898147Y-119931359D01*
X176930523Y-119975921D01*
X176930524Y-119975922D01*
X177610000Y-119296446D01*
X177610000Y-119302661D01*
X177637259Y-119404394D01*
X177689920Y-119495606D01*
X177764394Y-119570080D01*
X177855606Y-119622741D01*
X177957339Y-119650000D01*
X177963553Y-119650000D01*
X177284076Y-120329474D01*
X177328650Y-120361859D01*
X177510968Y-120454755D01*
X177705582Y-120517990D01*
X177907683Y-120550000D01*
X178112317Y-120550000D01*
X178314417Y-120517990D01*
X178509031Y-120454755D01*
X178691349Y-120361859D01*
X178735921Y-120329474D01*
X178056447Y-119650000D01*
X178062661Y-119650000D01*
X178164394Y-119622741D01*
X178255606Y-119570080D01*
X178330080Y-119495606D01*
X178382741Y-119404394D01*
X178410000Y-119302661D01*
X178410000Y-119296447D01*
X179089474Y-119975921D01*
X179121859Y-119931349D01*
X179214755Y-119749031D01*
X179277990Y-119554417D01*
X179310000Y-119352317D01*
X179310000Y-119147682D01*
X179277990Y-118945582D01*
X179214755Y-118750968D01*
X179121859Y-118568650D01*
X179089474Y-118524077D01*
X179089474Y-118524076D01*
X178410000Y-119203551D01*
X178410000Y-119197339D01*
X178382741Y-119095606D01*
X178330080Y-119004394D01*
X178255606Y-118929920D01*
X178164394Y-118877259D01*
X178062661Y-118850000D01*
X178056446Y-118850000D01*
X178735922Y-118170524D01*
X178735921Y-118170523D01*
X178691359Y-118138147D01*
X178691350Y-118138141D01*
X178509031Y-118045244D01*
X178314417Y-117982009D01*
X178112317Y-117950000D01*
X177907683Y-117950000D01*
X177705582Y-117982009D01*
X177510968Y-118045244D01*
X177328644Y-118138143D01*
X177284077Y-118170523D01*
X177284077Y-118170524D01*
X177963554Y-118850000D01*
X177957339Y-118850000D01*
X177855606Y-118877259D01*
X177764394Y-118929920D01*
X177689920Y-119004394D01*
X177637259Y-119095606D01*
X177610000Y-119197339D01*
X177610000Y-119203553D01*
X176930524Y-118524077D01*
X176930523Y-118524077D01*
X176898143Y-118568644D01*
X176805243Y-118750971D01*
X176803457Y-118756469D01*
X176764017Y-118814142D01*
X176699657Y-118841337D01*
X176630811Y-118829420D01*
X176579338Y-118782173D01*
X176575043Y-118774440D01*
X176536996Y-118699769D01*
X176496760Y-118620801D01*
X176385690Y-118467927D01*
X176252073Y-118334310D01*
X176190627Y-118289667D01*
X176099199Y-118223240D01*
X175930836Y-118137454D01*
X175751118Y-118079059D01*
X175564486Y-118049500D01*
X175564481Y-118049500D01*
X175375519Y-118049500D01*
X175375514Y-118049500D01*
X175188881Y-118079059D01*
X175009163Y-118137454D01*
X174840797Y-118223242D01*
X174771068Y-118273903D01*
X174738978Y-118285352D01*
X174707030Y-118297269D01*
X174706130Y-118297073D01*
X174705262Y-118297383D01*
X174672082Y-118289667D01*
X174638757Y-118282418D01*
X174637786Y-118281691D01*
X174637208Y-118281557D01*
X174610506Y-118261270D01*
X174528716Y-118179480D01*
X174528713Y-118179478D01*
X173737590Y-117388355D01*
X173737588Y-117388352D01*
X173618717Y-117269481D01*
X173618709Y-117269475D01*
X173496456Y-117198893D01*
X173496456Y-117198892D01*
X173496452Y-117198891D01*
X173481785Y-117190423D01*
X173329057Y-117149499D01*
X173170943Y-117149499D01*
X173163347Y-117149499D01*
X173163331Y-117149500D01*
X168674500Y-117149500D01*
X168607461Y-117129815D01*
X168561706Y-117077011D01*
X168550500Y-117025500D01*
X168550500Y-116981004D01*
X168523581Y-116845677D01*
X168523580Y-116845676D01*
X168523580Y-116845672D01*
X168508804Y-116810000D01*
X168470778Y-116718195D01*
X168470771Y-116718182D01*
X168394114Y-116603458D01*
X168394111Y-116603454D01*
X168296545Y-116505888D01*
X168296541Y-116505885D01*
X168181817Y-116429228D01*
X168181804Y-116429221D01*
X168054332Y-116376421D01*
X168054322Y-116376418D01*
X167918995Y-116349500D01*
X167918993Y-116349500D01*
X167781007Y-116349500D01*
X167781005Y-116349500D01*
X167645677Y-116376418D01*
X167645667Y-116376421D01*
X167518190Y-116429223D01*
X167512819Y-116432095D01*
X167512123Y-116430794D01*
X167452438Y-116449480D01*
X167450230Y-116449500D01*
X166074459Y-116449500D01*
X166007420Y-116429815D01*
X165961665Y-116377011D01*
X165953020Y-116325085D01*
X165950500Y-116325085D01*
X165950500Y-116181004D01*
X165923581Y-116045677D01*
X165923578Y-116045666D01*
X165870778Y-115918195D01*
X165870771Y-115918182D01*
X165794114Y-115803458D01*
X165794111Y-115803454D01*
X165696545Y-115705888D01*
X165696541Y-115705885D01*
X165581817Y-115629228D01*
X165581804Y-115629221D01*
X165454332Y-115576421D01*
X165454322Y-115576418D01*
X165318995Y-115549500D01*
X165318993Y-115549500D01*
X165181007Y-115549500D01*
X165181005Y-115549500D01*
X165045677Y-115576418D01*
X165045667Y-115576421D01*
X164918190Y-115629223D01*
X164912819Y-115632095D01*
X164912123Y-115630794D01*
X164852438Y-115649480D01*
X164850230Y-115649500D01*
X145050097Y-115649500D01*
X144983058Y-115629815D01*
X144962416Y-115613181D01*
X143737590Y-114388355D01*
X143737588Y-114388352D01*
X143618717Y-114269481D01*
X143618716Y-114269480D01*
X143508568Y-114205886D01*
X143508566Y-114205885D01*
X143481785Y-114190423D01*
X143481784Y-114190422D01*
X143481783Y-114190422D01*
X143418927Y-114173580D01*
X143329057Y-114149499D01*
X143170943Y-114149499D01*
X143163347Y-114149499D01*
X143163331Y-114149500D01*
X142149770Y-114149500D01*
X142087630Y-114131253D01*
X142087181Y-114132095D01*
X142083140Y-114129935D01*
X142082731Y-114129815D01*
X142081912Y-114129278D01*
X142081809Y-114129223D01*
X141954332Y-114076421D01*
X141954322Y-114076418D01*
X141818995Y-114049500D01*
X141818993Y-114049500D01*
X141681007Y-114049500D01*
X141681005Y-114049500D01*
X141545677Y-114076418D01*
X141545667Y-114076421D01*
X141418195Y-114129221D01*
X141418182Y-114129228D01*
X141303458Y-114205885D01*
X141303456Y-114205887D01*
X141205888Y-114303454D01*
X141205885Y-114303458D01*
X141129228Y-114418182D01*
X141129221Y-114418195D01*
X141076421Y-114545667D01*
X141076418Y-114545677D01*
X141049500Y-114681004D01*
X141049500Y-114681007D01*
X141049500Y-114818993D01*
X141049500Y-114818995D01*
X141049499Y-114818995D01*
X141076418Y-114954322D01*
X141076420Y-114954327D01*
X141086245Y-114978048D01*
X141089752Y-115010676D01*
X141094421Y-115043144D01*
X141093466Y-115045233D01*
X141093712Y-115047517D01*
X141079025Y-115076856D01*
X141065397Y-115106700D01*
X141063465Y-115107941D01*
X141062437Y-115109996D01*
X141034220Y-115126736D01*
X141006620Y-115144476D01*
X141003587Y-115144911D01*
X141002347Y-115145648D01*
X140971685Y-115149499D01*
X140920943Y-115149499D01*
X140920939Y-115149499D01*
X140913333Y-115149500D01*
X140913332Y-115149499D01*
X140913331Y-115149500D01*
X139222670Y-115149500D01*
X139222654Y-115149499D01*
X139215058Y-115149499D01*
X139056943Y-115149499D01*
X139010361Y-115161981D01*
X138904214Y-115190423D01*
X138904209Y-115190426D01*
X138767290Y-115269475D01*
X138767282Y-115269481D01*
X136041743Y-117995020D01*
X135994089Y-118023584D01*
X135994299Y-118024089D01*
X135990896Y-118025498D01*
X135990063Y-118025998D01*
X135988669Y-118026420D01*
X135861195Y-118079221D01*
X135861182Y-118079228D01*
X135746458Y-118155885D01*
X135746454Y-118155888D01*
X135648888Y-118253454D01*
X135648885Y-118253458D01*
X135572228Y-118368182D01*
X135572221Y-118368195D01*
X135519421Y-118495667D01*
X135519418Y-118495677D01*
X135492500Y-118631004D01*
X135492500Y-118631007D01*
X135492500Y-118768993D01*
X135492500Y-118768995D01*
X135492499Y-118768995D01*
X135519418Y-118904322D01*
X135519421Y-118904332D01*
X135572221Y-119031804D01*
X135572228Y-119031817D01*
X135648885Y-119146541D01*
X135648888Y-119146545D01*
X135746454Y-119244111D01*
X135746458Y-119244114D01*
X135861182Y-119320771D01*
X135861195Y-119320778D01*
X135988667Y-119373578D01*
X135988672Y-119373580D01*
X135988676Y-119373580D01*
X135988677Y-119373581D01*
X136124004Y-119400500D01*
X136124007Y-119400500D01*
X136261995Y-119400500D01*
X136360005Y-119381004D01*
X136397328Y-119373580D01*
X136524811Y-119320775D01*
X136639542Y-119244114D01*
X136737114Y-119146542D01*
X136813775Y-119031811D01*
X136866580Y-118904328D01*
X136868098Y-118896691D01*
X136900479Y-118834782D01*
X136901978Y-118833255D01*
X139348417Y-116386819D01*
X139409740Y-116353334D01*
X139436098Y-116350500D01*
X140699903Y-116350500D01*
X140766942Y-116370185D01*
X140787584Y-116386819D01*
X142515139Y-118114374D01*
X142515149Y-118114385D01*
X142519479Y-118118715D01*
X142519480Y-118118716D01*
X142631284Y-118230520D01*
X142713663Y-118278081D01*
X142758515Y-118303977D01*
X142768215Y-118309577D01*
X142920943Y-118350500D01*
X143698990Y-118350500D01*
X143766029Y-118370185D01*
X143811784Y-118422989D01*
X143821728Y-118492147D01*
X143818066Y-118509095D01*
X143792402Y-118597426D01*
X143792401Y-118597432D01*
X143789500Y-118634298D01*
X143789500Y-119865701D01*
X143792401Y-119902567D01*
X143792402Y-119902573D01*
X143838254Y-120060393D01*
X143838255Y-120060396D01*
X143921917Y-120201862D01*
X143921923Y-120201870D01*
X144038129Y-120318076D01*
X144038133Y-120318079D01*
X144038135Y-120318081D01*
X144179602Y-120401744D01*
X144221224Y-120413836D01*
X144337426Y-120447597D01*
X144337429Y-120447597D01*
X144337431Y-120447598D01*
X144374306Y-120450500D01*
X144374314Y-120450500D01*
X145605686Y-120450500D01*
X145605694Y-120450500D01*
X145642569Y-120447598D01*
X145642571Y-120447597D01*
X145642573Y-120447597D01*
X145684191Y-120435505D01*
X145800398Y-120401744D01*
X145941865Y-120318081D01*
X146058081Y-120201865D01*
X146141744Y-120060398D01*
X146187598Y-119902569D01*
X146190500Y-119865694D01*
X146190500Y-119781909D01*
X146210185Y-119714870D01*
X146262989Y-119669115D01*
X146332147Y-119659171D01*
X146395703Y-119688196D01*
X146424984Y-119725613D01*
X146503240Y-119879199D01*
X146614310Y-120032073D01*
X146747927Y-120165690D01*
X146900801Y-120276760D01*
X146976746Y-120315456D01*
X147069163Y-120362545D01*
X147069165Y-120362545D01*
X147069168Y-120362547D01*
X147095661Y-120371155D01*
X147248881Y-120420940D01*
X147435514Y-120450500D01*
X147435519Y-120450500D01*
X147624486Y-120450500D01*
X147811118Y-120420940D01*
X147990832Y-120362547D01*
X148159199Y-120276760D01*
X148312073Y-120165690D01*
X148445690Y-120032073D01*
X148556760Y-119879199D01*
X148642547Y-119710832D01*
X148682069Y-119589195D01*
X148721507Y-119531521D01*
X148785866Y-119504323D01*
X148854712Y-119516238D01*
X148906188Y-119563482D01*
X148917931Y-119589196D01*
X148957454Y-119710836D01*
X149009079Y-119812154D01*
X149043240Y-119879199D01*
X149154310Y-120032073D01*
X149287927Y-120165690D01*
X149440801Y-120276760D01*
X149516746Y-120315456D01*
X149609163Y-120362545D01*
X149609165Y-120362545D01*
X149609168Y-120362547D01*
X149635661Y-120371155D01*
X149788881Y-120420940D01*
X149975514Y-120450500D01*
X149975519Y-120450500D01*
X150164486Y-120450500D01*
X150351118Y-120420940D01*
X150530832Y-120362547D01*
X150699199Y-120276760D01*
X150852073Y-120165690D01*
X150985690Y-120032073D01*
X151096760Y-119879199D01*
X151182547Y-119710832D01*
X151222069Y-119589195D01*
X151261507Y-119531521D01*
X151325866Y-119504323D01*
X151394712Y-119516238D01*
X151446188Y-119563482D01*
X151457931Y-119589196D01*
X151497454Y-119710836D01*
X151549079Y-119812154D01*
X151583240Y-119879199D01*
X151694310Y-120032073D01*
X151827927Y-120165690D01*
X151980801Y-120276760D01*
X152056746Y-120315456D01*
X152149163Y-120362545D01*
X152149165Y-120362545D01*
X152149168Y-120362547D01*
X152175661Y-120371155D01*
X152328881Y-120420940D01*
X152515514Y-120450500D01*
X152515519Y-120450500D01*
X152704486Y-120450500D01*
X152891118Y-120420940D01*
X153070832Y-120362547D01*
X153239199Y-120276760D01*
X153392073Y-120165690D01*
X153525690Y-120032073D01*
X153636760Y-119879199D01*
X153722547Y-119710832D01*
X153762069Y-119589195D01*
X153801507Y-119531521D01*
X153865866Y-119504323D01*
X153934712Y-119516238D01*
X153986188Y-119563482D01*
X153997931Y-119589196D01*
X154037454Y-119710836D01*
X154089079Y-119812154D01*
X154123240Y-119879199D01*
X154234310Y-120032073D01*
X154367927Y-120165690D01*
X154520801Y-120276760D01*
X154596746Y-120315456D01*
X154689163Y-120362545D01*
X154689165Y-120362545D01*
X154689168Y-120362547D01*
X154715661Y-120371155D01*
X154868881Y-120420940D01*
X155055514Y-120450500D01*
X155055519Y-120450500D01*
X155244486Y-120450500D01*
X155431118Y-120420940D01*
X155610832Y-120362547D01*
X155779199Y-120276760D01*
X155932073Y-120165690D01*
X156065690Y-120032073D01*
X156176760Y-119879199D01*
X156262547Y-119710832D01*
X156302069Y-119589195D01*
X156341507Y-119531521D01*
X156405866Y-119504323D01*
X156474712Y-119516238D01*
X156526188Y-119563482D01*
X156537931Y-119589196D01*
X156577454Y-119710836D01*
X156629079Y-119812154D01*
X156663240Y-119879199D01*
X156774310Y-120032073D01*
X156907927Y-120165690D01*
X157060801Y-120276760D01*
X157136746Y-120315456D01*
X157229163Y-120362545D01*
X157229165Y-120362545D01*
X157229168Y-120362547D01*
X157255661Y-120371155D01*
X157408881Y-120420940D01*
X157595514Y-120450500D01*
X157595519Y-120450500D01*
X157784486Y-120450500D01*
X157971118Y-120420940D01*
X158150832Y-120362547D01*
X158319199Y-120276760D01*
X158472073Y-120165690D01*
X158605690Y-120032073D01*
X158716760Y-119879199D01*
X158802547Y-119710832D01*
X158842069Y-119589195D01*
X158881507Y-119531521D01*
X158945866Y-119504323D01*
X159014712Y-119516238D01*
X159066188Y-119563482D01*
X159077931Y-119589196D01*
X159117454Y-119710836D01*
X159169079Y-119812154D01*
X159203240Y-119879199D01*
X159314310Y-120032073D01*
X159447927Y-120165690D01*
X159600801Y-120276760D01*
X159676746Y-120315456D01*
X159769163Y-120362545D01*
X159769165Y-120362545D01*
X159769168Y-120362547D01*
X159795661Y-120371155D01*
X159948881Y-120420940D01*
X160135514Y-120450500D01*
X160135519Y-120450500D01*
X160324486Y-120450500D01*
X160511118Y-120420940D01*
X160690832Y-120362547D01*
X160859199Y-120276760D01*
X161012073Y-120165690D01*
X161145690Y-120032073D01*
X161256760Y-119879199D01*
X161342547Y-119710832D01*
X161382069Y-119589195D01*
X161421507Y-119531521D01*
X161485866Y-119504323D01*
X161554712Y-119516238D01*
X161606188Y-119563482D01*
X161617931Y-119589196D01*
X161657454Y-119710836D01*
X161709079Y-119812154D01*
X161743240Y-119879199D01*
X161854310Y-120032073D01*
X161987927Y-120165690D01*
X162140801Y-120276760D01*
X162216746Y-120315456D01*
X162309163Y-120362545D01*
X162309165Y-120362545D01*
X162309168Y-120362547D01*
X162335661Y-120371155D01*
X162488881Y-120420940D01*
X162675514Y-120450500D01*
X162675519Y-120450500D01*
X162864486Y-120450500D01*
X163051118Y-120420940D01*
X163230832Y-120362547D01*
X163399199Y-120276760D01*
X163552073Y-120165690D01*
X163685690Y-120032073D01*
X163796760Y-119879199D01*
X163882547Y-119710832D01*
X163922069Y-119589195D01*
X163961507Y-119531521D01*
X164025866Y-119504323D01*
X164094712Y-119516238D01*
X164146188Y-119563482D01*
X164157931Y-119589196D01*
X164197454Y-119710836D01*
X164249079Y-119812154D01*
X164283240Y-119879199D01*
X164394310Y-120032073D01*
X164527927Y-120165690D01*
X164680801Y-120276760D01*
X164756746Y-120315456D01*
X164849163Y-120362545D01*
X164849165Y-120362545D01*
X164849168Y-120362547D01*
X164875661Y-120371155D01*
X165028881Y-120420940D01*
X165215514Y-120450500D01*
X165215519Y-120450500D01*
X165404486Y-120450500D01*
X165591118Y-120420940D01*
X165770832Y-120362547D01*
X165939199Y-120276760D01*
X166092073Y-120165690D01*
X166225690Y-120032073D01*
X166336760Y-119879199D01*
X166422547Y-119710832D01*
X166462069Y-119589195D01*
X166501507Y-119531521D01*
X166565866Y-119504323D01*
X166634712Y-119516238D01*
X166686188Y-119563482D01*
X166697931Y-119589196D01*
X166737454Y-119710836D01*
X166789079Y-119812154D01*
X166823240Y-119879199D01*
X166934310Y-120032073D01*
X167067927Y-120165690D01*
X167220801Y-120276760D01*
X167296746Y-120315456D01*
X167389163Y-120362545D01*
X167389165Y-120362545D01*
X167389168Y-120362547D01*
X167415661Y-120371155D01*
X167568881Y-120420940D01*
X167755514Y-120450500D01*
X167755519Y-120450500D01*
X167944486Y-120450500D01*
X168131118Y-120420940D01*
X168310832Y-120362547D01*
X168479199Y-120276760D01*
X168632073Y-120165690D01*
X168765690Y-120032073D01*
X168876760Y-119879199D01*
X168962547Y-119710832D01*
X169002069Y-119589195D01*
X169041507Y-119531521D01*
X169105866Y-119504323D01*
X169174712Y-119516238D01*
X169226188Y-119563482D01*
X169237931Y-119589196D01*
X169277454Y-119710836D01*
X169329079Y-119812154D01*
X169363240Y-119879199D01*
X169474310Y-120032073D01*
X169607927Y-120165690D01*
X169760801Y-120276760D01*
X169836746Y-120315456D01*
X169929163Y-120362545D01*
X169929165Y-120362545D01*
X169929168Y-120362547D01*
X169955661Y-120371155D01*
X170108881Y-120420940D01*
X170295514Y-120450500D01*
X170295519Y-120450500D01*
X170484486Y-120450500D01*
X170671118Y-120420940D01*
X170850832Y-120362547D01*
X171019199Y-120276760D01*
X171172073Y-120165690D01*
X171305690Y-120032073D01*
X171416760Y-119879199D01*
X171502547Y-119710832D01*
X171542069Y-119589195D01*
X171581507Y-119531521D01*
X171645866Y-119504323D01*
X171714712Y-119516238D01*
X171766188Y-119563482D01*
X171777931Y-119589196D01*
X171817454Y-119710836D01*
X171869079Y-119812154D01*
X171903240Y-119879199D01*
X172014310Y-120032073D01*
X172147927Y-120165690D01*
X172300801Y-120276760D01*
X172376746Y-120315456D01*
X172469163Y-120362545D01*
X172469165Y-120362545D01*
X172469168Y-120362547D01*
X172495661Y-120371155D01*
X172648881Y-120420940D01*
X172835514Y-120450500D01*
X172835519Y-120450500D01*
X173024486Y-120450500D01*
X173211118Y-120420940D01*
X173390832Y-120362547D01*
X173390835Y-120362545D01*
X173395465Y-120361041D01*
X173396050Y-120362842D01*
X173457504Y-120356229D01*
X173519986Y-120387497D01*
X173555645Y-120447582D01*
X173559500Y-120478261D01*
X173559500Y-128827403D01*
X173539815Y-128894442D01*
X173508386Y-128927721D01*
X173345352Y-129046173D01*
X173206174Y-129185351D01*
X173206174Y-129185352D01*
X173206172Y-129185354D01*
X173167717Y-129238282D01*
X173090476Y-129344594D01*
X173000485Y-129521213D01*
X172952511Y-129572009D01*
X172884690Y-129588804D01*
X172818555Y-129566267D01*
X172779515Y-129521213D01*
X172752397Y-129467992D01*
X172689524Y-129344595D01*
X172573828Y-129185354D01*
X172434646Y-129046172D01*
X172275405Y-128930476D01*
X172266915Y-128926150D01*
X172100029Y-128841117D01*
X171912826Y-128780290D01*
X171718422Y-128749500D01*
X171718417Y-128749500D01*
X171521583Y-128749500D01*
X171521578Y-128749500D01*
X171327173Y-128780290D01*
X171139970Y-128841117D01*
X170964594Y-128930476D01*
X170883496Y-128989398D01*
X170805354Y-129046172D01*
X170805352Y-129046174D01*
X170805351Y-129046174D01*
X170666174Y-129185351D01*
X170666174Y-129185352D01*
X170666172Y-129185354D01*
X170627717Y-129238282D01*
X170550476Y-129344594D01*
X170460485Y-129521213D01*
X170412511Y-129572009D01*
X170344690Y-129588804D01*
X170278555Y-129566267D01*
X170239515Y-129521213D01*
X170212397Y-129467992D01*
X170149524Y-129344595D01*
X170033828Y-129185354D01*
X169894646Y-129046172D01*
X169735405Y-128930476D01*
X169726915Y-128926150D01*
X169560029Y-128841117D01*
X169372826Y-128780290D01*
X169178422Y-128749500D01*
X169178417Y-128749500D01*
X168981583Y-128749500D01*
X168981578Y-128749500D01*
X168787173Y-128780290D01*
X168599970Y-128841117D01*
X168424594Y-128930476D01*
X168343496Y-128989398D01*
X168265354Y-129046172D01*
X168265352Y-129046174D01*
X168265351Y-129046174D01*
X168126174Y-129185351D01*
X168126174Y-129185352D01*
X168126172Y-129185354D01*
X168087717Y-129238282D01*
X168010476Y-129344594D01*
X167920485Y-129521213D01*
X167872511Y-129572009D01*
X167804690Y-129588804D01*
X167738555Y-129566267D01*
X167699515Y-129521213D01*
X167672397Y-129467992D01*
X167609524Y-129344595D01*
X167493828Y-129185354D01*
X167354646Y-129046172D01*
X167195405Y-128930476D01*
X167186915Y-128926150D01*
X167020029Y-128841117D01*
X166832826Y-128780290D01*
X166638422Y-128749500D01*
X166638417Y-128749500D01*
X166441583Y-128749500D01*
X166441578Y-128749500D01*
X166247173Y-128780290D01*
X166059970Y-128841117D01*
X165884594Y-128930476D01*
X165803496Y-128989398D01*
X165725354Y-129046172D01*
X165725352Y-129046174D01*
X165725351Y-129046174D01*
X165586174Y-129185351D01*
X165586174Y-129185352D01*
X165586172Y-129185354D01*
X165547717Y-129238282D01*
X165470476Y-129344594D01*
X165380485Y-129521213D01*
X165332511Y-129572009D01*
X165264690Y-129588804D01*
X165198555Y-129566267D01*
X165159515Y-129521213D01*
X165132397Y-129467992D01*
X165069524Y-129344595D01*
X164953828Y-129185354D01*
X164814646Y-129046172D01*
X164655405Y-128930476D01*
X164646915Y-128926150D01*
X164480029Y-128841117D01*
X164292826Y-128780290D01*
X164098422Y-128749500D01*
X164098417Y-128749500D01*
X163901583Y-128749500D01*
X163901578Y-128749500D01*
X163707173Y-128780290D01*
X163519970Y-128841117D01*
X163344594Y-128930476D01*
X163263496Y-128989398D01*
X163185354Y-129046172D01*
X163185352Y-129046174D01*
X163185351Y-129046174D01*
X163046174Y-129185351D01*
X163046174Y-129185352D01*
X163046172Y-129185354D01*
X163007717Y-129238282D01*
X162930476Y-129344594D01*
X162840485Y-129521213D01*
X162792511Y-129572009D01*
X162724690Y-129588804D01*
X162658555Y-129566267D01*
X162619515Y-129521213D01*
X162592397Y-129467992D01*
X162529524Y-129344595D01*
X162413828Y-129185354D01*
X162274646Y-129046172D01*
X162115405Y-128930476D01*
X162106915Y-128926150D01*
X161940029Y-128841117D01*
X161752826Y-128780290D01*
X161558422Y-128749500D01*
X161558417Y-128749500D01*
X161361583Y-128749500D01*
X161361578Y-128749500D01*
X161167173Y-128780290D01*
X160979970Y-128841117D01*
X160804594Y-128930476D01*
X160723496Y-128989398D01*
X160645354Y-129046172D01*
X160645352Y-129046174D01*
X160645351Y-129046174D01*
X160506174Y-129185351D01*
X160506174Y-129185352D01*
X160506172Y-129185354D01*
X160467717Y-129238282D01*
X160390476Y-129344594D01*
X160300485Y-129521213D01*
X160252511Y-129572009D01*
X160184690Y-129588804D01*
X160118555Y-129566267D01*
X160079515Y-129521213D01*
X160052397Y-129467992D01*
X159989524Y-129344595D01*
X159873828Y-129185354D01*
X159734646Y-129046172D01*
X159575405Y-128930476D01*
X159566915Y-128926150D01*
X159400029Y-128841117D01*
X159212826Y-128780290D01*
X159018422Y-128749500D01*
X159018417Y-128749500D01*
X158821583Y-128749500D01*
X158821578Y-128749500D01*
X158627173Y-128780290D01*
X158439970Y-128841117D01*
X158264594Y-128930476D01*
X158183496Y-128989398D01*
X158105354Y-129046172D01*
X158105352Y-129046174D01*
X158105351Y-129046174D01*
X157966174Y-129185351D01*
X157966174Y-129185352D01*
X157966172Y-129185354D01*
X157927717Y-129238282D01*
X157850476Y-129344594D01*
X157760485Y-129521213D01*
X157712511Y-129572009D01*
X157644690Y-129588804D01*
X157578555Y-129566267D01*
X157539515Y-129521213D01*
X157512397Y-129467992D01*
X157449524Y-129344595D01*
X157333828Y-129185354D01*
X157194646Y-129046172D01*
X157035405Y-128930476D01*
X157026915Y-128926150D01*
X156860029Y-128841117D01*
X156672826Y-128780290D01*
X156478422Y-128749500D01*
X156478417Y-128749500D01*
X156281583Y-128749500D01*
X156281578Y-128749500D01*
X156087173Y-128780290D01*
X155899970Y-128841117D01*
X155724594Y-128930476D01*
X155643496Y-128989398D01*
X155565354Y-129046172D01*
X155565352Y-129046174D01*
X155565351Y-129046174D01*
X155426174Y-129185351D01*
X155426174Y-129185352D01*
X155426172Y-129185354D01*
X155387717Y-129238282D01*
X155310476Y-129344594D01*
X155220485Y-129521213D01*
X155172511Y-129572009D01*
X155104690Y-129588804D01*
X155038555Y-129566267D01*
X154999515Y-129521213D01*
X154972397Y-129467992D01*
X154909524Y-129344595D01*
X154793828Y-129185354D01*
X154654646Y-129046172D01*
X154495405Y-128930476D01*
X154486915Y-128926150D01*
X154320029Y-128841117D01*
X154132826Y-128780290D01*
X153938422Y-128749500D01*
X153938417Y-128749500D01*
X153741583Y-128749500D01*
X153741578Y-128749500D01*
X153547173Y-128780290D01*
X153359970Y-128841117D01*
X153184594Y-128930476D01*
X153103496Y-128989398D01*
X153025354Y-129046172D01*
X153025352Y-129046174D01*
X153025351Y-129046174D01*
X152886174Y-129185351D01*
X152886174Y-129185352D01*
X152886172Y-129185354D01*
X152847717Y-129238282D01*
X152770476Y-129344594D01*
X152680485Y-129521213D01*
X152632511Y-129572009D01*
X152564690Y-129588804D01*
X152498555Y-129566267D01*
X152459515Y-129521213D01*
X152432397Y-129467992D01*
X152369524Y-129344595D01*
X152253828Y-129185354D01*
X152114646Y-129046172D01*
X151955405Y-128930476D01*
X151946915Y-128926150D01*
X151780029Y-128841117D01*
X151592826Y-128780290D01*
X151398422Y-128749500D01*
X151398417Y-128749500D01*
X151201583Y-128749500D01*
X151201578Y-128749500D01*
X151007173Y-128780290D01*
X150819970Y-128841117D01*
X150644594Y-128930476D01*
X150563496Y-128989398D01*
X150485354Y-129046172D01*
X150485352Y-129046174D01*
X150485351Y-129046174D01*
X150346174Y-129185351D01*
X150346174Y-129185352D01*
X150346172Y-129185354D01*
X150307717Y-129238282D01*
X150230476Y-129344594D01*
X150140485Y-129521213D01*
X150092511Y-129572009D01*
X150024690Y-129588804D01*
X149958555Y-129566267D01*
X149919515Y-129521213D01*
X149892397Y-129467992D01*
X149829524Y-129344595D01*
X149713828Y-129185354D01*
X149574646Y-129046172D01*
X149415405Y-128930476D01*
X149406915Y-128926150D01*
X149240029Y-128841117D01*
X149052826Y-128780290D01*
X148858422Y-128749500D01*
X148858417Y-128749500D01*
X148661583Y-128749500D01*
X148661578Y-128749500D01*
X148467173Y-128780290D01*
X148279970Y-128841117D01*
X148104594Y-128930476D01*
X148023496Y-128989398D01*
X147945354Y-129046172D01*
X147945352Y-129046174D01*
X147945351Y-129046174D01*
X147806174Y-129185351D01*
X147806174Y-129185352D01*
X147806172Y-129185354D01*
X147767717Y-129238282D01*
X147690476Y-129344594D01*
X147600485Y-129521213D01*
X147552511Y-129572009D01*
X147484690Y-129588804D01*
X147418555Y-129566267D01*
X147379515Y-129521213D01*
X147352397Y-129467992D01*
X147289524Y-129344595D01*
X147173828Y-129185354D01*
X147034646Y-129046172D01*
X146875405Y-128930476D01*
X146866915Y-128926150D01*
X146700029Y-128841117D01*
X146512826Y-128780290D01*
X146318422Y-128749500D01*
X146318417Y-128749500D01*
X146121583Y-128749500D01*
X146121578Y-128749500D01*
X145927173Y-128780290D01*
X145739970Y-128841117D01*
X145564594Y-128930476D01*
X145483496Y-128989398D01*
X145405354Y-129046172D01*
X145405352Y-129046174D01*
X145405351Y-129046174D01*
X145266174Y-129185351D01*
X145266174Y-129185352D01*
X145266172Y-129185354D01*
X145227717Y-129238282D01*
X145150476Y-129344594D01*
X145060485Y-129521213D01*
X145012511Y-129572009D01*
X144944690Y-129588804D01*
X144878555Y-129566267D01*
X144839515Y-129521213D01*
X144812397Y-129467992D01*
X144749524Y-129344595D01*
X144633828Y-129185354D01*
X144494646Y-129046172D01*
X144335405Y-128930476D01*
X144326915Y-128926150D01*
X144160029Y-128841117D01*
X143972826Y-128780290D01*
X143778422Y-128749500D01*
X143778417Y-128749500D01*
X143581583Y-128749500D01*
X143581577Y-128749500D01*
X143382544Y-128781023D01*
X143313251Y-128772068D01*
X143275466Y-128746231D01*
X141136819Y-126607584D01*
X141103334Y-126546261D01*
X141100500Y-126519903D01*
X141100500Y-118699769D01*
X141118746Y-118637627D01*
X141117906Y-118637178D01*
X141120064Y-118633140D01*
X141120185Y-118632730D01*
X141120721Y-118631910D01*
X141120771Y-118631816D01*
X141120775Y-118631811D01*
X141173580Y-118504328D01*
X141189040Y-118426606D01*
X141200500Y-118368995D01*
X141200500Y-118231004D01*
X141173581Y-118095677D01*
X141173580Y-118095676D01*
X141173580Y-118095672D01*
X141173578Y-118095667D01*
X141120778Y-117968195D01*
X141120771Y-117968182D01*
X141044114Y-117853458D01*
X141044111Y-117853454D01*
X140946545Y-117755888D01*
X140946541Y-117755885D01*
X140831817Y-117679228D01*
X140831804Y-117679221D01*
X140704332Y-117626421D01*
X140704322Y-117626418D01*
X140568995Y-117599500D01*
X140568993Y-117599500D01*
X140431007Y-117599500D01*
X140431005Y-117599500D01*
X140295677Y-117626418D01*
X140295667Y-117626421D01*
X140168195Y-117679221D01*
X140168182Y-117679228D01*
X140068891Y-117745573D01*
X140002213Y-117766451D01*
X139934833Y-117747966D01*
X139931109Y-117745573D01*
X139831817Y-117679228D01*
X139831804Y-117679221D01*
X139704332Y-117626421D01*
X139704322Y-117626418D01*
X139568995Y-117599500D01*
X139568993Y-117599500D01*
X139431007Y-117599500D01*
X139431005Y-117599500D01*
X139295677Y-117626418D01*
X139295667Y-117626421D01*
X139168195Y-117679221D01*
X139168182Y-117679228D01*
X139053458Y-117755885D01*
X139053454Y-117755888D01*
X138955888Y-117853454D01*
X138955885Y-117853458D01*
X138879228Y-117968182D01*
X138879221Y-117968195D01*
X138826421Y-118095667D01*
X138826418Y-118095677D01*
X138799500Y-118231004D01*
X138799500Y-118231007D01*
X138799500Y-118368993D01*
X138799500Y-118368995D01*
X138799499Y-118368995D01*
X138826418Y-118504322D01*
X138826421Y-118504332D01*
X138862449Y-118591311D01*
X138869918Y-118660780D01*
X138838643Y-118723259D01*
X138778554Y-118758911D01*
X138723698Y-118760381D01*
X138668993Y-118749500D01*
X138531007Y-118749500D01*
X138531005Y-118749500D01*
X138395677Y-118776418D01*
X138395667Y-118776421D01*
X138268195Y-118829221D01*
X138268182Y-118829228D01*
X138153458Y-118905885D01*
X138153454Y-118905888D01*
X138055888Y-119003454D01*
X138055885Y-119003458D01*
X137979228Y-119118182D01*
X137979221Y-119118195D01*
X137926421Y-119245667D01*
X137926418Y-119245677D01*
X137899500Y-119381004D01*
X137899500Y-119381007D01*
X137899500Y-119518993D01*
X137899500Y-119518995D01*
X137899499Y-119518995D01*
X137926418Y-119654322D01*
X137926421Y-119654332D01*
X137979222Y-119781806D01*
X137982094Y-119787178D01*
X137980792Y-119787874D01*
X137999480Y-119847554D01*
X137999500Y-119849769D01*
X137999500Y-128827403D01*
X137979815Y-128894442D01*
X137948386Y-128927721D01*
X137785352Y-129046173D01*
X137646174Y-129185351D01*
X137646174Y-129185352D01*
X137646172Y-129185354D01*
X137607717Y-129238282D01*
X137530476Y-129344594D01*
X137440485Y-129521213D01*
X137392511Y-129572009D01*
X137324690Y-129588804D01*
X137258555Y-129566267D01*
X137219515Y-129521213D01*
X137192397Y-129467992D01*
X137129524Y-129344595D01*
X137013828Y-129185354D01*
X136874646Y-129046172D01*
X136715405Y-128930476D01*
X136706915Y-128926150D01*
X136540029Y-128841117D01*
X136352826Y-128780290D01*
X136158422Y-128749500D01*
X136158417Y-128749500D01*
X135961583Y-128749500D01*
X135961578Y-128749500D01*
X135767173Y-128780290D01*
X135579970Y-128841117D01*
X135404594Y-128930476D01*
X135323496Y-128989398D01*
X135245354Y-129046172D01*
X135245352Y-129046174D01*
X135245351Y-129046174D01*
X135106174Y-129185351D01*
X135106174Y-129185352D01*
X135106172Y-129185354D01*
X135067717Y-129238282D01*
X134990476Y-129344594D01*
X134900485Y-129521213D01*
X134852511Y-129572009D01*
X134784690Y-129588804D01*
X134718555Y-129566267D01*
X134679515Y-129521213D01*
X134652397Y-129467992D01*
X134589524Y-129344595D01*
X134473828Y-129185354D01*
X134334646Y-129046172D01*
X134175405Y-128930476D01*
X134166915Y-128926150D01*
X134000029Y-128841117D01*
X133812826Y-128780290D01*
X133618422Y-128749500D01*
X133618417Y-128749500D01*
X133421583Y-128749500D01*
X133421578Y-128749500D01*
X133227173Y-128780290D01*
X133039970Y-128841117D01*
X132864594Y-128930476D01*
X132783496Y-128989398D01*
X132705354Y-129046172D01*
X132705352Y-129046174D01*
X132705351Y-129046174D01*
X132566174Y-129185351D01*
X132566174Y-129185352D01*
X132566172Y-129185354D01*
X132527717Y-129238282D01*
X132450476Y-129344594D01*
X132360485Y-129521213D01*
X132312511Y-129572009D01*
X132244690Y-129588804D01*
X132178555Y-129566267D01*
X132139515Y-129521213D01*
X132112397Y-129467992D01*
X132049524Y-129344595D01*
X131933828Y-129185354D01*
X131794646Y-129046172D01*
X131635405Y-128930476D01*
X131626915Y-128926150D01*
X131460029Y-128841117D01*
X131272826Y-128780290D01*
X131078422Y-128749500D01*
X131078417Y-128749500D01*
X130881583Y-128749500D01*
X130881578Y-128749500D01*
X130687173Y-128780290D01*
X130499970Y-128841117D01*
X130324594Y-128930476D01*
X130243496Y-128989398D01*
X130165354Y-129046172D01*
X130165352Y-129046174D01*
X130165351Y-129046174D01*
X130026174Y-129185351D01*
X130026174Y-129185352D01*
X130026172Y-129185354D01*
X129987717Y-129238282D01*
X129910476Y-129344594D01*
X129820485Y-129521213D01*
X129772511Y-129572009D01*
X129704690Y-129588804D01*
X129638555Y-129566267D01*
X129599515Y-129521213D01*
X129572397Y-129467992D01*
X129509524Y-129344595D01*
X129393828Y-129185354D01*
X129254646Y-129046172D01*
X129095405Y-128930476D01*
X129086915Y-128926150D01*
X128920029Y-128841117D01*
X128732826Y-128780290D01*
X128538422Y-128749500D01*
X128538417Y-128749500D01*
X128341583Y-128749500D01*
X128341578Y-128749500D01*
X128147173Y-128780290D01*
X127959970Y-128841117D01*
X127784594Y-128930476D01*
X127703496Y-128989398D01*
X127625354Y-129046172D01*
X127625352Y-129046174D01*
X127625351Y-129046174D01*
X127486174Y-129185351D01*
X127486174Y-129185352D01*
X127486172Y-129185354D01*
X127447717Y-129238282D01*
X127370476Y-129344594D01*
X127280485Y-129521213D01*
X127232511Y-129572009D01*
X127164690Y-129588804D01*
X127098555Y-129566267D01*
X127059515Y-129521213D01*
X127032397Y-129467992D01*
X126969524Y-129344595D01*
X126853828Y-129185354D01*
X126836819Y-129168345D01*
X126803334Y-129107022D01*
X126800500Y-129080664D01*
X126800500Y-125774362D01*
X126820185Y-125707323D01*
X126836819Y-125686681D01*
X136199461Y-116324039D01*
X136199464Y-116324036D01*
X136261949Y-116230520D01*
X136298013Y-116176547D01*
X136352223Y-116045672D01*
X136365895Y-116012666D01*
X136400500Y-115838692D01*
X136400500Y-115661308D01*
X136400500Y-113257882D01*
X137345669Y-113257882D01*
X137345670Y-113257883D01*
X137371059Y-113276329D01*
X137539362Y-113362085D01*
X137718997Y-113420451D01*
X137905553Y-113450000D01*
X138094447Y-113450000D01*
X138281002Y-113420451D01*
X138460637Y-113362085D01*
X138628937Y-113276331D01*
X138654328Y-113257883D01*
X138654328Y-113257882D01*
X138000001Y-112603554D01*
X138000000Y-112603554D01*
X137345669Y-113257882D01*
X136400500Y-113257882D01*
X136400500Y-112923140D01*
X136420185Y-112856101D01*
X136424164Y-112850279D01*
X136441232Y-112826788D01*
X136519873Y-112672445D01*
X136573402Y-112507701D01*
X136577156Y-112483995D01*
X136607083Y-112420863D01*
X136666393Y-112383930D01*
X136736256Y-112384926D01*
X136794490Y-112423534D01*
X136822102Y-112483993D01*
X136829548Y-112531003D01*
X136887914Y-112710637D01*
X136973666Y-112878933D01*
X136992116Y-112904328D01*
X137646446Y-112250000D01*
X137646446Y-112249999D01*
X137600369Y-112203922D01*
X137650000Y-112203922D01*
X137650000Y-112296078D01*
X137673852Y-112385095D01*
X137719930Y-112464905D01*
X137785095Y-112530070D01*
X137864905Y-112576148D01*
X137953922Y-112600000D01*
X138046078Y-112600000D01*
X138135095Y-112576148D01*
X138214905Y-112530070D01*
X138280070Y-112464905D01*
X138326148Y-112385095D01*
X138350000Y-112296078D01*
X138350000Y-112249999D01*
X138353554Y-112249999D01*
X138353554Y-112250000D01*
X139007882Y-112904328D01*
X139007883Y-112904328D01*
X139026331Y-112878937D01*
X139112085Y-112710637D01*
X139170451Y-112531002D01*
X139200000Y-112344447D01*
X139200000Y-112155552D01*
X139170451Y-111968997D01*
X139112085Y-111789362D01*
X139026329Y-111621059D01*
X139007883Y-111595670D01*
X139007882Y-111595669D01*
X138353554Y-112249999D01*
X138350000Y-112249999D01*
X138350000Y-112203922D01*
X138326148Y-112114905D01*
X138280070Y-112035095D01*
X138214905Y-111969930D01*
X138135095Y-111923852D01*
X138046078Y-111900000D01*
X137953922Y-111900000D01*
X137864905Y-111923852D01*
X137785095Y-111969930D01*
X137719930Y-112035095D01*
X137673852Y-112114905D01*
X137650000Y-112203922D01*
X137600369Y-112203922D01*
X136992116Y-111595669D01*
X136992116Y-111595670D01*
X136973669Y-111621060D01*
X136887914Y-111789362D01*
X136829548Y-111968996D01*
X136822102Y-112016006D01*
X136792171Y-112079140D01*
X136732859Y-112116070D01*
X136662997Y-112115071D01*
X136604765Y-112076461D01*
X136577156Y-112016004D01*
X136573402Y-111992299D01*
X136519873Y-111827555D01*
X136441232Y-111673212D01*
X136339414Y-111533072D01*
X136216928Y-111410586D01*
X136215325Y-111409421D01*
X136188194Y-111389708D01*
X136188171Y-111389693D01*
X136132850Y-111349500D01*
X136076788Y-111308768D01*
X135945975Y-111242116D01*
X137345669Y-111242116D01*
X138000000Y-111896446D01*
X138000001Y-111896446D01*
X138654328Y-111242116D01*
X138628933Y-111223666D01*
X138460637Y-111137914D01*
X138281002Y-111079548D01*
X138094447Y-111050000D01*
X137905553Y-111050000D01*
X137718997Y-111079548D01*
X137539362Y-111137914D01*
X137371060Y-111223669D01*
X137345670Y-111242116D01*
X137345669Y-111242116D01*
X135945975Y-111242116D01*
X135922445Y-111230127D01*
X135757701Y-111176598D01*
X135757699Y-111176597D01*
X135757698Y-111176597D01*
X135626271Y-111155781D01*
X135586611Y-111149500D01*
X135413389Y-111149500D01*
X135381192Y-111154599D01*
X135242301Y-111176597D01*
X135101818Y-111222243D01*
X135031977Y-111224238D01*
X134972144Y-111188157D01*
X134941316Y-111125456D01*
X134939500Y-111104312D01*
X134939500Y-110254499D01*
X134959185Y-110187460D01*
X135011989Y-110141705D01*
X135063500Y-110130499D01*
X135084517Y-110130499D01*
X135084518Y-110130499D01*
X135178304Y-110115646D01*
X135291342Y-110058050D01*
X135381050Y-109968342D01*
X135438646Y-109855304D01*
X135438646Y-109855302D01*
X135438647Y-109855301D01*
X135453499Y-109761524D01*
X135453500Y-109761519D01*
X135453499Y-109048482D01*
X135438646Y-108954696D01*
X135418823Y-108915792D01*
X135405928Y-108847126D01*
X135432204Y-108782385D01*
X135489311Y-108742128D01*
X135529309Y-108735500D01*
X136028331Y-108735500D01*
X136028347Y-108735501D01*
X136035943Y-108735501D01*
X136194054Y-108735501D01*
X136194057Y-108735501D01*
X136346785Y-108694577D01*
X136423130Y-108650499D01*
X136483716Y-108615520D01*
X136595520Y-108503716D01*
X136595520Y-108503714D01*
X136605724Y-108493511D01*
X136605728Y-108493506D01*
X136714234Y-108385000D01*
X138447000Y-108385000D01*
X138447000Y-108507844D01*
X138453401Y-108567372D01*
X138453403Y-108567379D01*
X138503645Y-108702086D01*
X138503649Y-108702093D01*
X138568295Y-108788448D01*
X138592713Y-108853912D01*
X138579515Y-108919052D01*
X138561353Y-108954697D01*
X138561352Y-108954698D01*
X138546500Y-109048475D01*
X138546500Y-109761517D01*
X138557292Y-109829657D01*
X138561354Y-109855304D01*
X138618950Y-109968342D01*
X138618952Y-109968344D01*
X138618954Y-109968347D01*
X138708652Y-110058045D01*
X138708654Y-110058046D01*
X138708658Y-110058050D01*
X138821694Y-110115645D01*
X138821698Y-110115647D01*
X138915475Y-110130499D01*
X138915481Y-110130500D01*
X140506518Y-110130499D01*
X140600304Y-110115646D01*
X140691823Y-110069014D01*
X140748116Y-110055500D01*
X143659071Y-110055500D01*
X143743615Y-110038682D01*
X143784744Y-110030501D01*
X143903127Y-109981465D01*
X143922766Y-109968343D01*
X143922767Y-109968343D01*
X143987795Y-109924892D01*
X144009669Y-109910277D01*
X145505277Y-108414669D01*
X145576465Y-108308127D01*
X145625501Y-108189744D01*
X145650499Y-108064069D01*
X145650499Y-107935931D01*
X145642883Y-107897642D01*
X145640500Y-107873450D01*
X145640500Y-105084464D01*
X145660185Y-105017425D01*
X145691616Y-104984145D01*
X145772069Y-104925693D01*
X145772069Y-104925692D01*
X145772073Y-104925690D01*
X145905690Y-104792073D01*
X146016760Y-104639199D01*
X146102547Y-104470832D01*
X146142069Y-104349195D01*
X146181507Y-104291521D01*
X146245866Y-104264323D01*
X146314712Y-104276238D01*
X146366188Y-104323482D01*
X146377931Y-104349196D01*
X146417454Y-104470836D01*
X146503240Y-104639199D01*
X146614310Y-104792073D01*
X146747927Y-104925690D01*
X146900801Y-105036760D01*
X146972802Y-105073446D01*
X147069163Y-105122545D01*
X147069165Y-105122545D01*
X147069168Y-105122547D01*
X147165497Y-105153846D01*
X147248881Y-105180940D01*
X147435514Y-105210500D01*
X147435519Y-105210500D01*
X147624486Y-105210500D01*
X147811118Y-105180940D01*
X147867479Y-105162627D01*
X147990832Y-105122547D01*
X148159199Y-105036760D01*
X148312073Y-104925690D01*
X148445690Y-104792073D01*
X148556760Y-104639199D01*
X148642547Y-104470832D01*
X148682069Y-104349195D01*
X148721507Y-104291521D01*
X148785866Y-104264323D01*
X148854712Y-104276238D01*
X148906188Y-104323482D01*
X148917931Y-104349196D01*
X148957454Y-104470836D01*
X149043240Y-104639199D01*
X149154310Y-104792073D01*
X149287927Y-104925690D01*
X149440801Y-105036760D01*
X149512802Y-105073446D01*
X149609163Y-105122545D01*
X149609165Y-105122545D01*
X149609168Y-105122547D01*
X149705497Y-105153846D01*
X149788881Y-105180940D01*
X149975514Y-105210500D01*
X149975519Y-105210500D01*
X150164486Y-105210500D01*
X150351118Y-105180940D01*
X150407479Y-105162627D01*
X150530832Y-105122547D01*
X150699199Y-105036760D01*
X150852073Y-104925690D01*
X150985690Y-104792073D01*
X151096760Y-104639199D01*
X151182547Y-104470832D01*
X151222069Y-104349195D01*
X151261507Y-104291521D01*
X151325866Y-104264323D01*
X151394712Y-104276238D01*
X151446188Y-104323482D01*
X151457931Y-104349196D01*
X151497454Y-104470836D01*
X151583240Y-104639199D01*
X151694310Y-104792073D01*
X151827927Y-104925690D01*
X151980801Y-105036760D01*
X152052802Y-105073446D01*
X152149163Y-105122545D01*
X152149165Y-105122545D01*
X152149168Y-105122547D01*
X152245497Y-105153846D01*
X152328881Y-105180940D01*
X152515514Y-105210500D01*
X152515519Y-105210500D01*
X152704486Y-105210500D01*
X152891118Y-105180940D01*
X152947479Y-105162627D01*
X153070832Y-105122547D01*
X153239199Y-105036760D01*
X153392073Y-104925690D01*
X153525690Y-104792073D01*
X153636760Y-104639199D01*
X153722547Y-104470832D01*
X153762069Y-104349195D01*
X153801507Y-104291521D01*
X153865866Y-104264323D01*
X153934712Y-104276238D01*
X153986188Y-104323482D01*
X153997931Y-104349196D01*
X154037454Y-104470836D01*
X154123240Y-104639199D01*
X154234310Y-104792073D01*
X154367927Y-104925690D01*
X154520801Y-105036760D01*
X154592802Y-105073446D01*
X154689163Y-105122545D01*
X154689165Y-105122545D01*
X154689168Y-105122547D01*
X154785497Y-105153846D01*
X154868881Y-105180940D01*
X155055514Y-105210500D01*
X155055519Y-105210500D01*
X155244486Y-105210500D01*
X155431118Y-105180940D01*
X155487479Y-105162627D01*
X155610832Y-105122547D01*
X155779199Y-105036760D01*
X155932073Y-104925690D01*
X156065690Y-104792073D01*
X156176760Y-104639199D01*
X156262547Y-104470832D01*
X156302069Y-104349195D01*
X156341507Y-104291521D01*
X156405866Y-104264323D01*
X156474712Y-104276238D01*
X156526188Y-104323482D01*
X156537931Y-104349196D01*
X156577454Y-104470836D01*
X156663240Y-104639199D01*
X156774310Y-104792073D01*
X156907927Y-104925690D01*
X157060801Y-105036760D01*
X157132802Y-105073446D01*
X157229163Y-105122545D01*
X157229165Y-105122545D01*
X157229168Y-105122547D01*
X157325497Y-105153846D01*
X157408881Y-105180940D01*
X157595514Y-105210500D01*
X157595519Y-105210500D01*
X157784486Y-105210500D01*
X157971118Y-105180940D01*
X158027479Y-105162627D01*
X158150832Y-105122547D01*
X158319199Y-105036760D01*
X158472073Y-104925690D01*
X158605690Y-104792073D01*
X158716760Y-104639199D01*
X158802547Y-104470832D01*
X158842069Y-104349195D01*
X158881507Y-104291521D01*
X158945866Y-104264323D01*
X159014712Y-104276238D01*
X159066188Y-104323482D01*
X159077931Y-104349196D01*
X159117454Y-104470836D01*
X159203240Y-104639199D01*
X159314310Y-104792073D01*
X159447927Y-104925690D01*
X159600801Y-105036760D01*
X159672802Y-105073446D01*
X159769163Y-105122545D01*
X159769165Y-105122545D01*
X159769168Y-105122547D01*
X159865497Y-105153846D01*
X159948881Y-105180940D01*
X160135514Y-105210500D01*
X160135519Y-105210500D01*
X160324486Y-105210500D01*
X160511118Y-105180940D01*
X160567479Y-105162627D01*
X160690832Y-105122547D01*
X160859199Y-105036760D01*
X161012073Y-104925690D01*
X161145690Y-104792073D01*
X161256760Y-104639199D01*
X161342547Y-104470832D01*
X161382069Y-104349195D01*
X161421507Y-104291521D01*
X161485866Y-104264323D01*
X161554712Y-104276238D01*
X161606188Y-104323482D01*
X161617931Y-104349196D01*
X161657454Y-104470836D01*
X161743240Y-104639199D01*
X161854310Y-104792073D01*
X161987927Y-104925690D01*
X162140801Y-105036760D01*
X162212802Y-105073446D01*
X162309163Y-105122545D01*
X162309165Y-105122545D01*
X162309168Y-105122547D01*
X162405497Y-105153846D01*
X162488881Y-105180940D01*
X162675514Y-105210500D01*
X162675519Y-105210500D01*
X162864486Y-105210500D01*
X163051118Y-105180940D01*
X163107479Y-105162627D01*
X163230832Y-105122547D01*
X163399199Y-105036760D01*
X163552073Y-104925690D01*
X163685690Y-104792073D01*
X163796760Y-104639199D01*
X163882547Y-104470832D01*
X163922069Y-104349195D01*
X163961507Y-104291521D01*
X164025866Y-104264323D01*
X164094712Y-104276238D01*
X164146188Y-104323482D01*
X164157931Y-104349196D01*
X164197454Y-104470836D01*
X164283240Y-104639199D01*
X164394310Y-104792073D01*
X164527927Y-104925690D01*
X164680801Y-105036760D01*
X164752802Y-105073446D01*
X164849163Y-105122545D01*
X164849165Y-105122545D01*
X164849168Y-105122547D01*
X164945497Y-105153846D01*
X165028881Y-105180940D01*
X165215514Y-105210500D01*
X165215519Y-105210500D01*
X165404486Y-105210500D01*
X165591118Y-105180940D01*
X165647479Y-105162627D01*
X165770832Y-105122547D01*
X165939199Y-105036760D01*
X166092073Y-104925690D01*
X166225690Y-104792073D01*
X166336760Y-104639199D01*
X166422547Y-104470832D01*
X166462069Y-104349195D01*
X166501507Y-104291521D01*
X166565866Y-104264323D01*
X166634712Y-104276238D01*
X166686188Y-104323482D01*
X166697931Y-104349196D01*
X166737454Y-104470836D01*
X166823240Y-104639199D01*
X166934310Y-104792073D01*
X167067927Y-104925690D01*
X167220801Y-105036760D01*
X167292802Y-105073446D01*
X167389163Y-105122545D01*
X167389165Y-105122545D01*
X167389168Y-105122547D01*
X167485497Y-105153846D01*
X167568881Y-105180940D01*
X167755514Y-105210500D01*
X167755519Y-105210500D01*
X167944486Y-105210500D01*
X168131118Y-105180940D01*
X168187479Y-105162627D01*
X168310832Y-105122547D01*
X168479199Y-105036760D01*
X168632073Y-104925690D01*
X168765690Y-104792073D01*
X168876760Y-104639199D01*
X168962547Y-104470832D01*
X169002069Y-104349195D01*
X169041507Y-104291521D01*
X169105866Y-104264323D01*
X169174712Y-104276238D01*
X169226188Y-104323482D01*
X169237931Y-104349196D01*
X169277454Y-104470836D01*
X169363240Y-104639199D01*
X169474310Y-104792073D01*
X169607927Y-104925690D01*
X169760801Y-105036760D01*
X169832802Y-105073446D01*
X169929163Y-105122545D01*
X169929165Y-105122545D01*
X169929168Y-105122547D01*
X170025497Y-105153846D01*
X170108881Y-105180940D01*
X170295514Y-105210500D01*
X170295519Y-105210500D01*
X170484486Y-105210500D01*
X170671118Y-105180940D01*
X170727479Y-105162627D01*
X170850832Y-105122547D01*
X171019199Y-105036760D01*
X171172073Y-104925690D01*
X171305690Y-104792073D01*
X171416760Y-104639199D01*
X171502547Y-104470832D01*
X171542069Y-104349195D01*
X171581507Y-104291521D01*
X171645866Y-104264323D01*
X171714712Y-104276238D01*
X171766188Y-104323482D01*
X171777931Y-104349196D01*
X171817454Y-104470836D01*
X171903240Y-104639199D01*
X172014310Y-104792073D01*
X172147927Y-104925690D01*
X172300801Y-105036760D01*
X172372802Y-105073446D01*
X172469163Y-105122545D01*
X172469165Y-105122545D01*
X172469168Y-105122547D01*
X172565497Y-105153846D01*
X172648881Y-105180940D01*
X172835514Y-105210500D01*
X172835519Y-105210500D01*
X173024486Y-105210500D01*
X173211118Y-105180940D01*
X173267479Y-105162627D01*
X173390832Y-105122547D01*
X173559199Y-105036760D01*
X173712073Y-104925690D01*
X173845690Y-104792073D01*
X173956760Y-104639199D01*
X174042547Y-104470832D01*
X174082069Y-104349195D01*
X174121507Y-104291521D01*
X174185866Y-104264323D01*
X174254712Y-104276238D01*
X174306188Y-104323482D01*
X174317931Y-104349196D01*
X174357454Y-104470836D01*
X174443240Y-104639199D01*
X174554310Y-104792073D01*
X174687927Y-104925690D01*
X174840801Y-105036760D01*
X174912802Y-105073446D01*
X175009163Y-105122545D01*
X175009165Y-105122545D01*
X175009168Y-105122547D01*
X175105497Y-105153846D01*
X175188881Y-105180940D01*
X175375514Y-105210500D01*
X175375519Y-105210500D01*
X175564486Y-105210500D01*
X175751118Y-105180940D01*
X175807479Y-105162627D01*
X175930832Y-105122547D01*
X176099199Y-105036760D01*
X176252073Y-104925690D01*
X176385690Y-104792073D01*
X176496760Y-104639199D01*
X176582547Y-104470832D01*
X176622069Y-104349195D01*
X176661507Y-104291521D01*
X176725866Y-104264323D01*
X176794712Y-104276238D01*
X176846188Y-104323482D01*
X176857931Y-104349196D01*
X176897454Y-104470836D01*
X176983240Y-104639199D01*
X177094310Y-104792073D01*
X177227927Y-104925690D01*
X177380801Y-105036760D01*
X177452802Y-105073446D01*
X177549163Y-105122545D01*
X177549165Y-105122545D01*
X177549168Y-105122547D01*
X177645497Y-105153846D01*
X177728881Y-105180940D01*
X177915514Y-105210500D01*
X177915519Y-105210500D01*
X178104486Y-105210500D01*
X178291118Y-105180940D01*
X178347479Y-105162627D01*
X178470832Y-105122547D01*
X178639199Y-105036760D01*
X178792073Y-104925690D01*
X178925690Y-104792073D01*
X179036760Y-104639199D01*
X179122547Y-104470832D01*
X179180940Y-104291118D01*
X179185448Y-104262658D01*
X179210500Y-104104486D01*
X179210500Y-103915513D01*
X179180940Y-103728881D01*
X179153846Y-103645497D01*
X179122547Y-103549168D01*
X179122545Y-103549165D01*
X179122545Y-103549163D01*
X179072273Y-103450500D01*
X179036760Y-103380801D01*
X178925690Y-103227927D01*
X178792073Y-103094310D01*
X178639199Y-102983240D01*
X178633859Y-102980519D01*
X178517675Y-102921320D01*
X178466879Y-102873345D01*
X178450084Y-102805524D01*
X178472622Y-102739389D01*
X178517676Y-102700350D01*
X178691346Y-102611861D01*
X178691347Y-102611861D01*
X178735921Y-102579474D01*
X178056447Y-101900000D01*
X178062661Y-101900000D01*
X178164394Y-101872741D01*
X178255606Y-101820080D01*
X178330080Y-101745606D01*
X178382741Y-101654394D01*
X178410000Y-101552661D01*
X178410000Y-101546447D01*
X179089474Y-102225921D01*
X179121859Y-102181349D01*
X179214755Y-101999031D01*
X179277990Y-101804417D01*
X179310000Y-101602317D01*
X179310000Y-101397682D01*
X179277990Y-101195582D01*
X179214755Y-101000968D01*
X179121859Y-100818650D01*
X179089474Y-100774077D01*
X179089474Y-100774076D01*
X178410000Y-101453551D01*
X178410000Y-101447339D01*
X178382741Y-101345606D01*
X178330080Y-101254394D01*
X178255606Y-101179920D01*
X178164394Y-101127259D01*
X178062661Y-101100000D01*
X178056446Y-101100000D01*
X178735922Y-100420524D01*
X178735921Y-100420523D01*
X178691359Y-100388147D01*
X178691350Y-100388141D01*
X178509031Y-100295244D01*
X178314417Y-100232009D01*
X178112317Y-100200000D01*
X177907683Y-100200000D01*
X177705582Y-100232009D01*
X177510968Y-100295244D01*
X177328644Y-100388143D01*
X177284077Y-100420523D01*
X177284077Y-100420524D01*
X177963554Y-101100000D01*
X177957339Y-101100000D01*
X177855606Y-101127259D01*
X177764394Y-101179920D01*
X177689920Y-101254394D01*
X177637259Y-101345606D01*
X177610000Y-101447339D01*
X177610000Y-101453553D01*
X176930524Y-100774077D01*
X176930523Y-100774077D01*
X176898143Y-100818644D01*
X176805243Y-101000971D01*
X176803457Y-101006469D01*
X176764017Y-101064142D01*
X176699657Y-101091337D01*
X176630811Y-101079420D01*
X176579338Y-101032173D01*
X176575043Y-101024440D01*
X176547443Y-100970273D01*
X176496760Y-100870801D01*
X176385690Y-100717927D01*
X176252073Y-100584310D01*
X176251039Y-100583559D01*
X176229762Y-100568100D01*
X176099199Y-100473240D01*
X175930836Y-100387454D01*
X175751118Y-100329059D01*
X175564486Y-100299500D01*
X175564481Y-100299500D01*
X175375519Y-100299500D01*
X175375514Y-100299500D01*
X175188881Y-100329059D01*
X175009163Y-100387454D01*
X174840800Y-100473240D01*
X174753579Y-100536610D01*
X174687927Y-100584310D01*
X174687925Y-100584312D01*
X174687924Y-100584312D01*
X174554312Y-100717924D01*
X174554312Y-100717925D01*
X174554310Y-100717927D01*
X174506610Y-100783579D01*
X174443240Y-100870800D01*
X174357454Y-101039163D01*
X174317931Y-101160803D01*
X174278493Y-101218478D01*
X174214134Y-101245676D01*
X174145288Y-101233761D01*
X174093812Y-101186516D01*
X174082069Y-101160803D01*
X174055626Y-101079420D01*
X174042547Y-101039168D01*
X174042545Y-101039165D01*
X174042545Y-101039163D01*
X173956759Y-100870800D01*
X173845690Y-100717927D01*
X173712073Y-100584310D01*
X173559199Y-100473240D01*
X173390836Y-100387454D01*
X173211118Y-100329059D01*
X173024486Y-100299500D01*
X173024481Y-100299500D01*
X172835519Y-100299500D01*
X172835514Y-100299500D01*
X172648881Y-100329059D01*
X172469163Y-100387454D01*
X172300800Y-100473240D01*
X172213579Y-100536610D01*
X172147927Y-100584310D01*
X172147925Y-100584312D01*
X172147924Y-100584312D01*
X172014312Y-100717924D01*
X172014312Y-100717925D01*
X172014310Y-100717927D01*
X171966610Y-100783579D01*
X171903240Y-100870800D01*
X171817454Y-101039163D01*
X171777931Y-101160803D01*
X171738493Y-101218478D01*
X171674134Y-101245676D01*
X171605288Y-101233761D01*
X171553812Y-101186516D01*
X171542069Y-101160803D01*
X171515626Y-101079420D01*
X171502547Y-101039168D01*
X171502545Y-101039165D01*
X171502545Y-101039163D01*
X171416759Y-100870800D01*
X171305690Y-100717927D01*
X171172073Y-100584310D01*
X171019199Y-100473240D01*
X170850836Y-100387454D01*
X170671118Y-100329059D01*
X170484486Y-100299500D01*
X170484481Y-100299500D01*
X170295519Y-100299500D01*
X170295514Y-100299500D01*
X170108881Y-100329059D01*
X169929163Y-100387454D01*
X169760800Y-100473240D01*
X169673579Y-100536610D01*
X169607927Y-100584310D01*
X169607925Y-100584312D01*
X169607924Y-100584312D01*
X169474312Y-100717924D01*
X169474312Y-100717925D01*
X169474310Y-100717927D01*
X169426610Y-100783579D01*
X169363240Y-100870800D01*
X169277454Y-101039163D01*
X169237931Y-101160803D01*
X169198493Y-101218478D01*
X169134134Y-101245676D01*
X169065288Y-101233761D01*
X169013812Y-101186516D01*
X169002069Y-101160803D01*
X168975626Y-101079420D01*
X168962547Y-101039168D01*
X168962545Y-101039165D01*
X168962545Y-101039163D01*
X168876759Y-100870800D01*
X168765690Y-100717927D01*
X168632073Y-100584310D01*
X168479199Y-100473240D01*
X168310836Y-100387454D01*
X168131118Y-100329059D01*
X167944486Y-100299500D01*
X167944481Y-100299500D01*
X167755519Y-100299500D01*
X167755514Y-100299500D01*
X167568881Y-100329059D01*
X167389163Y-100387454D01*
X167220800Y-100473240D01*
X167133579Y-100536610D01*
X167067927Y-100584310D01*
X167067925Y-100584312D01*
X167067924Y-100584312D01*
X166934312Y-100717924D01*
X166934312Y-100717925D01*
X166934310Y-100717927D01*
X166886610Y-100783579D01*
X166823240Y-100870800D01*
X166737454Y-101039163D01*
X166697931Y-101160803D01*
X166658493Y-101218478D01*
X166594134Y-101245676D01*
X166525288Y-101233761D01*
X166473812Y-101186516D01*
X166462069Y-101160803D01*
X166435626Y-101079420D01*
X166422547Y-101039168D01*
X166422545Y-101039165D01*
X166422545Y-101039163D01*
X166336759Y-100870800D01*
X166225690Y-100717927D01*
X166092073Y-100584310D01*
X165939199Y-100473240D01*
X165770836Y-100387454D01*
X165591118Y-100329059D01*
X165404486Y-100299500D01*
X165404481Y-100299500D01*
X165215519Y-100299500D01*
X165215514Y-100299500D01*
X165028881Y-100329059D01*
X164849163Y-100387454D01*
X164680797Y-100473242D01*
X164540680Y-100575043D01*
X164508575Y-100586497D01*
X164476644Y-100598409D01*
X164475742Y-100598212D01*
X164474874Y-100598523D01*
X164441699Y-100590808D01*
X164408371Y-100583559D01*
X164407399Y-100582831D01*
X164406820Y-100582697D01*
X164380116Y-100562408D01*
X164357746Y-100540039D01*
X164339716Y-100522009D01*
X164339713Y-100522007D01*
X163755061Y-99937355D01*
X163755059Y-99937352D01*
X163636188Y-99818481D01*
X163636187Y-99818480D01*
X163549375Y-99768360D01*
X163549375Y-99768359D01*
X163549371Y-99768358D01*
X163499256Y-99739423D01*
X163346528Y-99698499D01*
X163188414Y-99698499D01*
X163180818Y-99698499D01*
X163180802Y-99698500D01*
X162025949Y-99698500D01*
X161989953Y-99691339D01*
X161989635Y-99692527D01*
X161981786Y-99690424D01*
X161981785Y-99690423D01*
X161829057Y-99649499D01*
X161670943Y-99649499D01*
X161663347Y-99649499D01*
X161663331Y-99649500D01*
X144170940Y-99649500D01*
X144130019Y-99660464D01*
X144130019Y-99660465D01*
X144092751Y-99670451D01*
X144018214Y-99690423D01*
X144018211Y-99690425D01*
X143944720Y-99732854D01*
X143943453Y-99733576D01*
X143934330Y-99738700D01*
X143931635Y-99739423D01*
X143881515Y-99768360D01*
X143844200Y-99789903D01*
X143794705Y-99818479D01*
X143794702Y-99818481D01*
X143308481Y-100304702D01*
X143308477Y-100304707D01*
X143266132Y-100378053D01*
X143266101Y-100378107D01*
X143265275Y-100379536D01*
X143245600Y-100405163D01*
X141787584Y-101863181D01*
X141726261Y-101896666D01*
X141699903Y-101899500D01*
X140920940Y-101899500D01*
X140880019Y-101910464D01*
X140880019Y-101910465D01*
X140842751Y-101920451D01*
X140768214Y-101940423D01*
X140768209Y-101940426D01*
X140631285Y-102019478D01*
X140608058Y-102042705D01*
X140551220Y-102073739D01*
X140551498Y-102074653D01*
X140547108Y-102075984D01*
X140546734Y-102076189D01*
X140545779Y-102076387D01*
X140545667Y-102076421D01*
X140418195Y-102129221D01*
X140418182Y-102129228D01*
X140303458Y-102205885D01*
X140303454Y-102205888D01*
X140205888Y-102303454D01*
X140205885Y-102303458D01*
X140129228Y-102418182D01*
X140129221Y-102418195D01*
X140076421Y-102545667D01*
X140076418Y-102545677D01*
X140049500Y-102681004D01*
X140049500Y-102681007D01*
X140049500Y-102818993D01*
X140049500Y-102818995D01*
X140049499Y-102818995D01*
X140076418Y-102954322D01*
X140076421Y-102954332D01*
X140129221Y-103081804D01*
X140129228Y-103081817D01*
X140205885Y-103196541D01*
X140205888Y-103196545D01*
X140303454Y-103294111D01*
X140303458Y-103294114D01*
X140418182Y-103370771D01*
X140418195Y-103370778D01*
X140503920Y-103406286D01*
X140545672Y-103423580D01*
X140545676Y-103423580D01*
X140545677Y-103423581D01*
X140681004Y-103450500D01*
X140681007Y-103450500D01*
X140818995Y-103450500D01*
X140910041Y-103432389D01*
X140954328Y-103423580D01*
X141081811Y-103370775D01*
X141196542Y-103294114D01*
X141294114Y-103196542D01*
X141313325Y-103167791D01*
X141321465Y-103155609D01*
X141375077Y-103110804D01*
X141424567Y-103100500D01*
X141913331Y-103100500D01*
X141913347Y-103100501D01*
X141920943Y-103100501D01*
X142079054Y-103100501D01*
X142079057Y-103100501D01*
X142231785Y-103059577D01*
X142281904Y-103030639D01*
X142368716Y-102980520D01*
X142480520Y-102868716D01*
X142480520Y-102868714D01*
X142490728Y-102858507D01*
X142490729Y-102858504D01*
X143577820Y-101771413D01*
X143639142Y-101737930D01*
X143708834Y-101742914D01*
X143764767Y-101784786D01*
X143789184Y-101850250D01*
X143789500Y-101859096D01*
X143789500Y-102106543D01*
X143769815Y-102173582D01*
X143727499Y-102213930D01*
X143631290Y-102269475D01*
X143631282Y-102269481D01*
X143519478Y-102381286D01*
X141358061Y-104542702D01*
X141301228Y-104573735D01*
X141301506Y-104574650D01*
X141297110Y-104575983D01*
X141296738Y-104576187D01*
X141295787Y-104576385D01*
X141295669Y-104576420D01*
X141168195Y-104629221D01*
X141168182Y-104629228D01*
X141053458Y-104705885D01*
X141053454Y-104705888D01*
X140955886Y-104803456D01*
X140938618Y-104829300D01*
X140885005Y-104874104D01*
X140815679Y-104882810D01*
X140761205Y-104859673D01*
X140717089Y-104826647D01*
X140717086Y-104826645D01*
X140582379Y-104776403D01*
X140582372Y-104776401D01*
X140522844Y-104770000D01*
X139961000Y-104770000D01*
X139961000Y-106615000D01*
X140975000Y-106615000D01*
X140975000Y-106492172D01*
X140974999Y-106492155D01*
X140968598Y-106432627D01*
X140968597Y-106432623D01*
X140918350Y-106297906D01*
X140914101Y-106290124D01*
X140917227Y-106288416D01*
X140898732Y-106238929D01*
X140913538Y-106170646D01*
X140914485Y-106169171D01*
X140918350Y-106162093D01*
X140968597Y-106027376D01*
X140968598Y-106027372D01*
X140974999Y-105967840D01*
X140975046Y-105966971D01*
X140975113Y-105966779D01*
X140975356Y-105964525D01*
X140975888Y-105964582D01*
X140998281Y-105901078D01*
X141053452Y-105858208D01*
X141123043Y-105851970D01*
X141162578Y-105868343D01*
X141162814Y-105867902D01*
X141167290Y-105870294D01*
X141167760Y-105870489D01*
X141168182Y-105870771D01*
X141168195Y-105870778D01*
X141295667Y-105923578D01*
X141295672Y-105923580D01*
X141295676Y-105923580D01*
X141295677Y-105923581D01*
X141431004Y-105950500D01*
X141431007Y-105950500D01*
X141568995Y-105950500D01*
X141660041Y-105932389D01*
X141704328Y-105923580D01*
X141831811Y-105870775D01*
X141946542Y-105794114D01*
X142044114Y-105696542D01*
X142120775Y-105581811D01*
X142173580Y-105454328D01*
X142173580Y-105454325D01*
X142175346Y-105448506D01*
X142176760Y-105448934D01*
X142205734Y-105393527D01*
X142207241Y-105391992D01*
X143577819Y-104021415D01*
X143639142Y-103987930D01*
X143708834Y-103992914D01*
X143764767Y-104034786D01*
X143788957Y-104099643D01*
X143789118Y-104099631D01*
X143789162Y-104100191D01*
X143789184Y-104100250D01*
X143789198Y-104100653D01*
X143789499Y-104104484D01*
X143819059Y-104291118D01*
X143877454Y-104470836D01*
X143963240Y-104639199D01*
X144074310Y-104792073D01*
X144074312Y-104792075D01*
X144207930Y-104925693D01*
X144288384Y-104984145D01*
X144331051Y-105039475D01*
X144339500Y-105084464D01*
X144339500Y-107689192D01*
X144319815Y-107756231D01*
X144303181Y-107776873D01*
X143361873Y-108718181D01*
X143300550Y-108751666D01*
X143274192Y-108754500D01*
X141077398Y-108754500D01*
X141010359Y-108734815D01*
X140964604Y-108682011D01*
X140954660Y-108612853D01*
X140961217Y-108587165D01*
X140968596Y-108567380D01*
X140968598Y-108567372D01*
X140974999Y-108507844D01*
X140975000Y-108507827D01*
X140975000Y-108385000D01*
X138447000Y-108385000D01*
X136714234Y-108385000D01*
X136858506Y-108240728D01*
X136858511Y-108240724D01*
X136868714Y-108230520D01*
X136868716Y-108230520D01*
X136980520Y-108118716D01*
X137038030Y-108019105D01*
X137059577Y-107981785D01*
X137100500Y-107829058D01*
X137100500Y-107670943D01*
X137100500Y-107237844D01*
X138447000Y-107237844D01*
X138453401Y-107297372D01*
X138453403Y-107297379D01*
X138503645Y-107432086D01*
X138507897Y-107439872D01*
X138504780Y-107441573D01*
X138523273Y-107491155D01*
X138508420Y-107559428D01*
X138507483Y-107560885D01*
X138503645Y-107567913D01*
X138453403Y-107702620D01*
X138453401Y-107702627D01*
X138447000Y-107762155D01*
X138447000Y-107885000D01*
X139461000Y-107885000D01*
X139961000Y-107885000D01*
X140975000Y-107885000D01*
X140975000Y-107762172D01*
X140974999Y-107762155D01*
X140968598Y-107702627D01*
X140968597Y-107702623D01*
X140918350Y-107567906D01*
X140914101Y-107560124D01*
X140917227Y-107558416D01*
X140898732Y-107508929D01*
X140913538Y-107440646D01*
X140914485Y-107439171D01*
X140918350Y-107432093D01*
X140968597Y-107297376D01*
X140968598Y-107297372D01*
X140974999Y-107237844D01*
X140975000Y-107237827D01*
X140975000Y-107115000D01*
X139961000Y-107115000D01*
X139961000Y-107885000D01*
X139461000Y-107885000D01*
X139461000Y-107115000D01*
X138447000Y-107115000D01*
X138447000Y-107237844D01*
X137100500Y-107237844D01*
X137100500Y-105967844D01*
X138447000Y-105967844D01*
X138453401Y-106027372D01*
X138453403Y-106027379D01*
X138503645Y-106162086D01*
X138507897Y-106169872D01*
X138504780Y-106171573D01*
X138523273Y-106221155D01*
X138508420Y-106289428D01*
X138507483Y-106290885D01*
X138503645Y-106297913D01*
X138453403Y-106432620D01*
X138453401Y-106432627D01*
X138447000Y-106492155D01*
X138447000Y-106615000D01*
X139461000Y-106615000D01*
X139461000Y-105845000D01*
X138447000Y-105845000D01*
X138447000Y-105967844D01*
X137100500Y-105967844D01*
X137100500Y-105222155D01*
X138447000Y-105222155D01*
X138447000Y-105345000D01*
X139461000Y-105345000D01*
X139461000Y-104770000D01*
X138899155Y-104770000D01*
X138839627Y-104776401D01*
X138839620Y-104776403D01*
X138704913Y-104826645D01*
X138704906Y-104826649D01*
X138589812Y-104912809D01*
X138589809Y-104912812D01*
X138503649Y-105027906D01*
X138503645Y-105027913D01*
X138453403Y-105162620D01*
X138453401Y-105162627D01*
X138447000Y-105222155D01*
X137100500Y-105222155D01*
X137100500Y-96724500D01*
X137120185Y-96657461D01*
X137172989Y-96611706D01*
X137224500Y-96600500D01*
X139225501Y-96600500D01*
X139292540Y-96620185D01*
X139338295Y-96672989D01*
X139349501Y-96724500D01*
X139349501Y-97031518D01*
X139364354Y-97125304D01*
X139421950Y-97238342D01*
X139421952Y-97238344D01*
X139421954Y-97238347D01*
X139511652Y-97328045D01*
X139511654Y-97328046D01*
X139511658Y-97328050D01*
X139624694Y-97385645D01*
X139624698Y-97385647D01*
X139718475Y-97400499D01*
X139718481Y-97400500D01*
X142281518Y-97400499D01*
X142375304Y-97385646D01*
X142488342Y-97328050D01*
X142578050Y-97238342D01*
X142635646Y-97125304D01*
X142635646Y-97125302D01*
X142635647Y-97125301D01*
X142650499Y-97031524D01*
X142650500Y-97031519D01*
X142650499Y-94968482D01*
X142635646Y-94874696D01*
X142578050Y-94761658D01*
X142578046Y-94761654D01*
X142578045Y-94761652D01*
X142488347Y-94671954D01*
X142488344Y-94671952D01*
X142488342Y-94671950D01*
X142411517Y-94632805D01*
X142375301Y-94614352D01*
X142281524Y-94599500D01*
X139718482Y-94599500D01*
X139637519Y-94612323D01*
X139624696Y-94614354D01*
X139511658Y-94671950D01*
X139511657Y-94671951D01*
X139511652Y-94671954D01*
X139421954Y-94761652D01*
X139421951Y-94761657D01*
X139364352Y-94874698D01*
X139349500Y-94968475D01*
X139349500Y-95275500D01*
X139329815Y-95342539D01*
X139277011Y-95388294D01*
X139225500Y-95399500D01*
X137224500Y-95399500D01*
X137157461Y-95379815D01*
X137111706Y-95327011D01*
X137100500Y-95275500D01*
X137100500Y-86839060D01*
X137100501Y-86839047D01*
X137100501Y-86670944D01*
X137090895Y-86635095D01*
X137059577Y-86518216D01*
X137008358Y-86429501D01*
X136980524Y-86381290D01*
X136980518Y-86381282D01*
X136122590Y-85523355D01*
X136122588Y-85523352D01*
X136003717Y-85404481D01*
X136003712Y-85404477D01*
X135899498Y-85344310D01*
X135899496Y-85344309D01*
X135866787Y-85325424D01*
X135866786Y-85325423D01*
X135866785Y-85325423D01*
X135714057Y-85284499D01*
X135555943Y-85284499D01*
X135548347Y-85284499D01*
X135548331Y-85284500D01*
X135529309Y-85284500D01*
X135462270Y-85264815D01*
X135416515Y-85212011D01*
X135406571Y-85142853D01*
X135418825Y-85104204D01*
X135438646Y-85065304D01*
X135438646Y-85065302D01*
X135438647Y-85065301D01*
X135449282Y-84998147D01*
X135450914Y-84987844D01*
X138447000Y-84987844D01*
X138453401Y-85047372D01*
X138453403Y-85047379D01*
X138503645Y-85182086D01*
X138507897Y-85189872D01*
X138504780Y-85191573D01*
X138523273Y-85241155D01*
X138508420Y-85309428D01*
X138507483Y-85310885D01*
X138503645Y-85317913D01*
X138453403Y-85452620D01*
X138453401Y-85452627D01*
X138447000Y-85512155D01*
X138447000Y-85635000D01*
X139461000Y-85635000D01*
X139961000Y-85635000D01*
X140975000Y-85635000D01*
X140975000Y-85512172D01*
X140974999Y-85512155D01*
X140968598Y-85452627D01*
X140968597Y-85452623D01*
X140918350Y-85317906D01*
X140914101Y-85310124D01*
X140917227Y-85308416D01*
X140898732Y-85258929D01*
X140913538Y-85190646D01*
X140914485Y-85189171D01*
X140918350Y-85182093D01*
X140968597Y-85047376D01*
X140968598Y-85047372D01*
X140974999Y-84987844D01*
X140975000Y-84987827D01*
X140975000Y-84865000D01*
X139961000Y-84865000D01*
X139961000Y-85635000D01*
X139461000Y-85635000D01*
X139461000Y-84865000D01*
X138447000Y-84865000D01*
X138447000Y-84987844D01*
X135450914Y-84987844D01*
X135453500Y-84971519D01*
X135453499Y-84790095D01*
X135473184Y-84723057D01*
X135489813Y-84702420D01*
X136474391Y-83717844D01*
X138447000Y-83717844D01*
X138453401Y-83777372D01*
X138453403Y-83777379D01*
X138503645Y-83912086D01*
X138507897Y-83919872D01*
X138504780Y-83921573D01*
X138523273Y-83971155D01*
X138508420Y-84039428D01*
X138507483Y-84040885D01*
X138503645Y-84047913D01*
X138453403Y-84182620D01*
X138453401Y-84182627D01*
X138447000Y-84242155D01*
X138447000Y-84365000D01*
X139461000Y-84365000D01*
X139961000Y-84365000D01*
X140975000Y-84365000D01*
X140975000Y-84242172D01*
X140974999Y-84242155D01*
X140968598Y-84182627D01*
X140968597Y-84182623D01*
X140918350Y-84047906D01*
X140914101Y-84040124D01*
X140917227Y-84038416D01*
X140898732Y-83988929D01*
X140913538Y-83920646D01*
X140914485Y-83919171D01*
X140918350Y-83912093D01*
X140968597Y-83777376D01*
X140968598Y-83777372D01*
X140974999Y-83717844D01*
X140975000Y-83717827D01*
X140975000Y-83595000D01*
X139961000Y-83595000D01*
X139961000Y-84365000D01*
X139461000Y-84365000D01*
X139461000Y-83595000D01*
X138447000Y-83595000D01*
X138447000Y-83717844D01*
X136474391Y-83717844D01*
X137055417Y-83136819D01*
X137116740Y-83103334D01*
X137143098Y-83100500D01*
X161249903Y-83100500D01*
X161316942Y-83120185D01*
X161337584Y-83136819D01*
X163064892Y-84864127D01*
X163098377Y-84925450D01*
X163093393Y-84995142D01*
X163051521Y-85051075D01*
X162986057Y-85075492D01*
X162957814Y-85074281D01*
X162864488Y-85059500D01*
X162864481Y-85059500D01*
X162675519Y-85059500D01*
X162675514Y-85059500D01*
X162488881Y-85089059D01*
X162309163Y-85147454D01*
X162140800Y-85233240D01*
X161987924Y-85344312D01*
X161854312Y-85477924D01*
X161854312Y-85477925D01*
X161854310Y-85477927D01*
X161806610Y-85543579D01*
X161743240Y-85630800D01*
X161657454Y-85799163D01*
X161617931Y-85920803D01*
X161578493Y-85978478D01*
X161514134Y-86005676D01*
X161445288Y-85993761D01*
X161393812Y-85946516D01*
X161382069Y-85920803D01*
X161365906Y-85871060D01*
X161342547Y-85799168D01*
X161342545Y-85799165D01*
X161342545Y-85799163D01*
X161297290Y-85710347D01*
X161256760Y-85630801D01*
X161145690Y-85477927D01*
X161012073Y-85344310D01*
X160859199Y-85233240D01*
X160858451Y-85232859D01*
X160690836Y-85147454D01*
X160511118Y-85089059D01*
X160324486Y-85059500D01*
X160324481Y-85059500D01*
X160135519Y-85059500D01*
X160135514Y-85059500D01*
X159948881Y-85089059D01*
X159769163Y-85147454D01*
X159600800Y-85233240D01*
X159447924Y-85344312D01*
X159314312Y-85477924D01*
X159314312Y-85477925D01*
X159314310Y-85477927D01*
X159266610Y-85543579D01*
X159203240Y-85630800D01*
X159117454Y-85799163D01*
X159077931Y-85920803D01*
X159038493Y-85978478D01*
X158974134Y-86005676D01*
X158905288Y-85993761D01*
X158853812Y-85946516D01*
X158842069Y-85920803D01*
X158825906Y-85871060D01*
X158802547Y-85799168D01*
X158802545Y-85799165D01*
X158802545Y-85799163D01*
X158757290Y-85710347D01*
X158716760Y-85630801D01*
X158605690Y-85477927D01*
X158472073Y-85344310D01*
X158319199Y-85233240D01*
X158318451Y-85232859D01*
X158150836Y-85147454D01*
X157971118Y-85089059D01*
X157784486Y-85059500D01*
X157784481Y-85059500D01*
X157595519Y-85059500D01*
X157595514Y-85059500D01*
X157408881Y-85089059D01*
X157229163Y-85147454D01*
X157060800Y-85233240D01*
X156907924Y-85344312D01*
X156774312Y-85477924D01*
X156774312Y-85477925D01*
X156774310Y-85477927D01*
X156726610Y-85543579D01*
X156663240Y-85630800D01*
X156577454Y-85799163D01*
X156537931Y-85920803D01*
X156498493Y-85978478D01*
X156434134Y-86005676D01*
X156365288Y-85993761D01*
X156313812Y-85946516D01*
X156302069Y-85920803D01*
X156285906Y-85871060D01*
X156262547Y-85799168D01*
X156262545Y-85799165D01*
X156262545Y-85799163D01*
X156217290Y-85710347D01*
X156176760Y-85630801D01*
X156065690Y-85477927D01*
X155932073Y-85344310D01*
X155779199Y-85233240D01*
X155778451Y-85232859D01*
X155610836Y-85147454D01*
X155431118Y-85089059D01*
X155244486Y-85059500D01*
X155244481Y-85059500D01*
X155055519Y-85059500D01*
X155055514Y-85059500D01*
X154868881Y-85089059D01*
X154689163Y-85147454D01*
X154520800Y-85233240D01*
X154367924Y-85344312D01*
X154234312Y-85477924D01*
X154234312Y-85477925D01*
X154234310Y-85477927D01*
X154186610Y-85543579D01*
X154123240Y-85630800D01*
X154037454Y-85799163D01*
X153997931Y-85920803D01*
X153958493Y-85978478D01*
X153894134Y-86005676D01*
X153825288Y-85993761D01*
X153773812Y-85946516D01*
X153762069Y-85920803D01*
X153745906Y-85871060D01*
X153722547Y-85799168D01*
X153722545Y-85799165D01*
X153722545Y-85799163D01*
X153677290Y-85710347D01*
X153636760Y-85630801D01*
X153525690Y-85477927D01*
X153392073Y-85344310D01*
X153239199Y-85233240D01*
X153238451Y-85232859D01*
X153070836Y-85147454D01*
X152891118Y-85089059D01*
X152704486Y-85059500D01*
X152704481Y-85059500D01*
X152515519Y-85059500D01*
X152515514Y-85059500D01*
X152328881Y-85089059D01*
X152149163Y-85147454D01*
X151980800Y-85233240D01*
X151827924Y-85344312D01*
X151694312Y-85477924D01*
X151694312Y-85477925D01*
X151694310Y-85477927D01*
X151646610Y-85543579D01*
X151583240Y-85630800D01*
X151497454Y-85799163D01*
X151457931Y-85920803D01*
X151418493Y-85978478D01*
X151354134Y-86005676D01*
X151285288Y-85993761D01*
X151233812Y-85946516D01*
X151222069Y-85920803D01*
X151205906Y-85871060D01*
X151182547Y-85799168D01*
X151182545Y-85799165D01*
X151182545Y-85799163D01*
X151137290Y-85710347D01*
X151096760Y-85630801D01*
X150985690Y-85477927D01*
X150852073Y-85344310D01*
X150699199Y-85233240D01*
X150698451Y-85232859D01*
X150530836Y-85147454D01*
X150351118Y-85089059D01*
X150164486Y-85059500D01*
X150164481Y-85059500D01*
X149975519Y-85059500D01*
X149975514Y-85059500D01*
X149788881Y-85089059D01*
X149609163Y-85147454D01*
X149440800Y-85233240D01*
X149287924Y-85344312D01*
X149154312Y-85477924D01*
X149154312Y-85477925D01*
X149154310Y-85477927D01*
X149106610Y-85543579D01*
X149043240Y-85630800D01*
X148957454Y-85799163D01*
X148917931Y-85920803D01*
X148878493Y-85978478D01*
X148814134Y-86005676D01*
X148745288Y-85993761D01*
X148693812Y-85946516D01*
X148682069Y-85920803D01*
X148665906Y-85871060D01*
X148642547Y-85799168D01*
X148642545Y-85799165D01*
X148642545Y-85799163D01*
X148597290Y-85710347D01*
X148556760Y-85630801D01*
X148445690Y-85477927D01*
X148312073Y-85344310D01*
X148159199Y-85233240D01*
X148158451Y-85232859D01*
X147990836Y-85147454D01*
X147811118Y-85089059D01*
X147624486Y-85059500D01*
X147624481Y-85059500D01*
X147435519Y-85059500D01*
X147435514Y-85059500D01*
X147248881Y-85089059D01*
X147069163Y-85147454D01*
X146900800Y-85233240D01*
X146747924Y-85344312D01*
X146614312Y-85477924D01*
X146614312Y-85477925D01*
X146614310Y-85477927D01*
X146566610Y-85543579D01*
X146503240Y-85630800D01*
X146417454Y-85799163D01*
X146377931Y-85920803D01*
X146338493Y-85978478D01*
X146274134Y-86005676D01*
X146205288Y-85993761D01*
X146153812Y-85946516D01*
X146142069Y-85920803D01*
X146125906Y-85871060D01*
X146102547Y-85799168D01*
X146102545Y-85799165D01*
X146102545Y-85799163D01*
X146057290Y-85710347D01*
X146016760Y-85630801D01*
X145905690Y-85477927D01*
X145772073Y-85344310D01*
X145619199Y-85233240D01*
X145618451Y-85232859D01*
X145450836Y-85147454D01*
X145271118Y-85089059D01*
X145084486Y-85059500D01*
X145084481Y-85059500D01*
X144895519Y-85059500D01*
X144895514Y-85059500D01*
X144708881Y-85089059D01*
X144529163Y-85147454D01*
X144360800Y-85233240D01*
X144207924Y-85344312D01*
X144074312Y-85477924D01*
X144074312Y-85477925D01*
X144074310Y-85477927D01*
X144026610Y-85543579D01*
X143963240Y-85630800D01*
X143877454Y-85799163D01*
X143819059Y-85978881D01*
X143789500Y-86165513D01*
X143789500Y-86354485D01*
X143790548Y-86361102D01*
X143781594Y-86430395D01*
X143736597Y-86483847D01*
X143669846Y-86504487D01*
X143668075Y-86504500D01*
X141077398Y-86504500D01*
X141010359Y-86484815D01*
X140964604Y-86432011D01*
X140954660Y-86362853D01*
X140961217Y-86337165D01*
X140968596Y-86317380D01*
X140968598Y-86317372D01*
X140974999Y-86257844D01*
X140975000Y-86257827D01*
X140975000Y-86135000D01*
X138447000Y-86135000D01*
X138447000Y-86257844D01*
X138453401Y-86317372D01*
X138453403Y-86317379D01*
X138503645Y-86452086D01*
X138503649Y-86452093D01*
X138568295Y-86538448D01*
X138592713Y-86603912D01*
X138579515Y-86669052D01*
X138561353Y-86704697D01*
X138561352Y-86704698D01*
X138546500Y-86798475D01*
X138546500Y-87511517D01*
X138552697Y-87550643D01*
X138561354Y-87605304D01*
X138618950Y-87718342D01*
X138618952Y-87718344D01*
X138618954Y-87718347D01*
X138708652Y-87808045D01*
X138708654Y-87808046D01*
X138708658Y-87808050D01*
X138821694Y-87865645D01*
X138821698Y-87865647D01*
X138915475Y-87880499D01*
X138915481Y-87880500D01*
X140506518Y-87880499D01*
X140600304Y-87865646D01*
X140691823Y-87819014D01*
X140748116Y-87805500D01*
X144159071Y-87805500D01*
X144243615Y-87788682D01*
X144284744Y-87780501D01*
X144403127Y-87731465D01*
X144422766Y-87718343D01*
X144422767Y-87718343D01*
X144494442Y-87670451D01*
X144509669Y-87660277D01*
X144690214Y-87479730D01*
X144751533Y-87446248D01*
X144797285Y-87444941D01*
X144895519Y-87460500D01*
X144895521Y-87460500D01*
X145084486Y-87460500D01*
X145271118Y-87430940D01*
X145450832Y-87372547D01*
X145619199Y-87286760D01*
X145772073Y-87175690D01*
X145905690Y-87042073D01*
X146016760Y-86889199D01*
X146102547Y-86720832D01*
X146142069Y-86599195D01*
X146181507Y-86541521D01*
X146245866Y-86514323D01*
X146314712Y-86526238D01*
X146366188Y-86573482D01*
X146377931Y-86599196D01*
X146417454Y-86720836D01*
X146472598Y-86829061D01*
X146503240Y-86889199D01*
X146614310Y-87042073D01*
X146747927Y-87175690D01*
X146900801Y-87286760D01*
X146980347Y-87327290D01*
X147069163Y-87372545D01*
X147069165Y-87372545D01*
X147069168Y-87372547D01*
X147165497Y-87403846D01*
X147248881Y-87430940D01*
X147435514Y-87460500D01*
X147435519Y-87460500D01*
X147624486Y-87460500D01*
X147811118Y-87430940D01*
X147990832Y-87372547D01*
X148159199Y-87286760D01*
X148312073Y-87175690D01*
X148445690Y-87042073D01*
X148556760Y-86889199D01*
X148642547Y-86720832D01*
X148682069Y-86599195D01*
X148721507Y-86541521D01*
X148785866Y-86514323D01*
X148854712Y-86526238D01*
X148906188Y-86573482D01*
X148917931Y-86599196D01*
X148957454Y-86720836D01*
X149012598Y-86829061D01*
X149043240Y-86889199D01*
X149154310Y-87042073D01*
X149287927Y-87175690D01*
X149440801Y-87286760D01*
X149520347Y-87327290D01*
X149609163Y-87372545D01*
X149609165Y-87372545D01*
X149609168Y-87372547D01*
X149705497Y-87403846D01*
X149788881Y-87430940D01*
X149975514Y-87460500D01*
X149975519Y-87460500D01*
X150164486Y-87460500D01*
X150351118Y-87430940D01*
X150530832Y-87372547D01*
X150699199Y-87286760D01*
X150852073Y-87175690D01*
X150985690Y-87042073D01*
X151096760Y-86889199D01*
X151182547Y-86720832D01*
X151222069Y-86599195D01*
X151261507Y-86541521D01*
X151325866Y-86514323D01*
X151394712Y-86526238D01*
X151446188Y-86573482D01*
X151457931Y-86599196D01*
X151497454Y-86720836D01*
X151552598Y-86829061D01*
X151583240Y-86889199D01*
X151694310Y-87042073D01*
X151827927Y-87175690D01*
X151980801Y-87286760D01*
X152060347Y-87327290D01*
X152149163Y-87372545D01*
X152149165Y-87372545D01*
X152149168Y-87372547D01*
X152245497Y-87403846D01*
X152328881Y-87430940D01*
X152515514Y-87460500D01*
X152515519Y-87460500D01*
X152704486Y-87460500D01*
X152891118Y-87430940D01*
X153070832Y-87372547D01*
X153239199Y-87286760D01*
X153392073Y-87175690D01*
X153525690Y-87042073D01*
X153636760Y-86889199D01*
X153722547Y-86720832D01*
X153762069Y-86599195D01*
X153801507Y-86541521D01*
X153865866Y-86514323D01*
X153934712Y-86526238D01*
X153986188Y-86573482D01*
X153997931Y-86599196D01*
X154037454Y-86720836D01*
X154092598Y-86829061D01*
X154123240Y-86889199D01*
X154234310Y-87042073D01*
X154367927Y-87175690D01*
X154520801Y-87286760D01*
X154600347Y-87327290D01*
X154689163Y-87372545D01*
X154689165Y-87372545D01*
X154689168Y-87372547D01*
X154785497Y-87403846D01*
X154868881Y-87430940D01*
X155055514Y-87460500D01*
X155055519Y-87460500D01*
X155244486Y-87460500D01*
X155431118Y-87430940D01*
X155610832Y-87372547D01*
X155779199Y-87286760D01*
X155932073Y-87175690D01*
X156065690Y-87042073D01*
X156176760Y-86889199D01*
X156262547Y-86720832D01*
X156302069Y-86599195D01*
X156341507Y-86541521D01*
X156405866Y-86514323D01*
X156474712Y-86526238D01*
X156526188Y-86573482D01*
X156537931Y-86599196D01*
X156577454Y-86720836D01*
X156632598Y-86829061D01*
X156663240Y-86889199D01*
X156774310Y-87042073D01*
X156907927Y-87175690D01*
X157060801Y-87286760D01*
X157140347Y-87327290D01*
X157229163Y-87372545D01*
X157229165Y-87372545D01*
X157229168Y-87372547D01*
X157325497Y-87403846D01*
X157408881Y-87430940D01*
X157595514Y-87460500D01*
X157595519Y-87460500D01*
X157784486Y-87460500D01*
X157971118Y-87430940D01*
X158150832Y-87372547D01*
X158319199Y-87286760D01*
X158472073Y-87175690D01*
X158605690Y-87042073D01*
X158716760Y-86889199D01*
X158802547Y-86720832D01*
X158842069Y-86599195D01*
X158881507Y-86541521D01*
X158945866Y-86514323D01*
X159014712Y-86526238D01*
X159066188Y-86573482D01*
X159077931Y-86599196D01*
X159117454Y-86720836D01*
X159172598Y-86829061D01*
X159203240Y-86889199D01*
X159314310Y-87042073D01*
X159447927Y-87175690D01*
X159600801Y-87286760D01*
X159680347Y-87327290D01*
X159769163Y-87372545D01*
X159769165Y-87372545D01*
X159769168Y-87372547D01*
X159865497Y-87403846D01*
X159948881Y-87430940D01*
X160135514Y-87460500D01*
X160135519Y-87460500D01*
X160324486Y-87460500D01*
X160511118Y-87430940D01*
X160690832Y-87372547D01*
X160859199Y-87286760D01*
X161012073Y-87175690D01*
X161145690Y-87042073D01*
X161256760Y-86889199D01*
X161342547Y-86720832D01*
X161382069Y-86599195D01*
X161421507Y-86541521D01*
X161485866Y-86514323D01*
X161554712Y-86526238D01*
X161606188Y-86573482D01*
X161617931Y-86599196D01*
X161657454Y-86720836D01*
X161712598Y-86829061D01*
X161743240Y-86889199D01*
X161854310Y-87042073D01*
X161987927Y-87175690D01*
X162140801Y-87286760D01*
X162220347Y-87327290D01*
X162309163Y-87372545D01*
X162309165Y-87372545D01*
X162309168Y-87372547D01*
X162405497Y-87403846D01*
X162488881Y-87430940D01*
X162675514Y-87460500D01*
X162675519Y-87460500D01*
X162864486Y-87460500D01*
X163051118Y-87430940D01*
X163230832Y-87372547D01*
X163399199Y-87286760D01*
X163552073Y-87175690D01*
X163685690Y-87042073D01*
X163796760Y-86889199D01*
X163882547Y-86720832D01*
X163922069Y-86599195D01*
X163961507Y-86541521D01*
X164025866Y-86514323D01*
X164094712Y-86526238D01*
X164146188Y-86573482D01*
X164157931Y-86599196D01*
X164197454Y-86720836D01*
X164252598Y-86829061D01*
X164283240Y-86889199D01*
X164394310Y-87042073D01*
X164527927Y-87175690D01*
X164680801Y-87286760D01*
X164760347Y-87327290D01*
X164849163Y-87372545D01*
X164849165Y-87372545D01*
X164849168Y-87372547D01*
X164945497Y-87403846D01*
X165028881Y-87430940D01*
X165215514Y-87460500D01*
X165215519Y-87460500D01*
X165404486Y-87460500D01*
X165591118Y-87430940D01*
X165770832Y-87372547D01*
X165939199Y-87286760D01*
X166092073Y-87175690D01*
X166225690Y-87042073D01*
X166336760Y-86889199D01*
X166422547Y-86720832D01*
X166462069Y-86599195D01*
X166501507Y-86541521D01*
X166565866Y-86514323D01*
X166634712Y-86526238D01*
X166686188Y-86573482D01*
X166697931Y-86599196D01*
X166737454Y-86720836D01*
X166792598Y-86829061D01*
X166823240Y-86889199D01*
X166934310Y-87042073D01*
X167067927Y-87175690D01*
X167220801Y-87286760D01*
X167300347Y-87327290D01*
X167389163Y-87372545D01*
X167389165Y-87372545D01*
X167389168Y-87372547D01*
X167485497Y-87403846D01*
X167568881Y-87430940D01*
X167755514Y-87460500D01*
X167755519Y-87460500D01*
X167944486Y-87460500D01*
X168131118Y-87430940D01*
X168310832Y-87372547D01*
X168479199Y-87286760D01*
X168632073Y-87175690D01*
X168765690Y-87042073D01*
X168876760Y-86889199D01*
X168962547Y-86720832D01*
X169002069Y-86599195D01*
X169041507Y-86541521D01*
X169105866Y-86514323D01*
X169174712Y-86526238D01*
X169226188Y-86573482D01*
X169237931Y-86599196D01*
X169277454Y-86720836D01*
X169332598Y-86829061D01*
X169363240Y-86889199D01*
X169474310Y-87042073D01*
X169607927Y-87175690D01*
X169760801Y-87286760D01*
X169840347Y-87327290D01*
X169929163Y-87372545D01*
X169929165Y-87372545D01*
X169929168Y-87372547D01*
X170025497Y-87403846D01*
X170108881Y-87430940D01*
X170295514Y-87460500D01*
X170295519Y-87460500D01*
X170484486Y-87460500D01*
X170671118Y-87430940D01*
X170850832Y-87372547D01*
X171019199Y-87286760D01*
X171172073Y-87175690D01*
X171305690Y-87042073D01*
X171416760Y-86889199D01*
X171502547Y-86720832D01*
X171542069Y-86599195D01*
X171581507Y-86541521D01*
X171645866Y-86514323D01*
X171714712Y-86526238D01*
X171766188Y-86573482D01*
X171777931Y-86599196D01*
X171817454Y-86720836D01*
X171872598Y-86829061D01*
X171903240Y-86889199D01*
X172014310Y-87042073D01*
X172147927Y-87175690D01*
X172300801Y-87286760D01*
X172380347Y-87327290D01*
X172469163Y-87372545D01*
X172469165Y-87372545D01*
X172469168Y-87372547D01*
X172565497Y-87403846D01*
X172648881Y-87430940D01*
X172835514Y-87460500D01*
X172835519Y-87460500D01*
X173024486Y-87460500D01*
X173211118Y-87430940D01*
X173390832Y-87372547D01*
X173559199Y-87286760D01*
X173712073Y-87175690D01*
X173845690Y-87042073D01*
X173956760Y-86889199D01*
X174042547Y-86720832D01*
X174082069Y-86599195D01*
X174121507Y-86541521D01*
X174185866Y-86514323D01*
X174254712Y-86526238D01*
X174306188Y-86573482D01*
X174317931Y-86599196D01*
X174357454Y-86720836D01*
X174412598Y-86829061D01*
X174443240Y-86889199D01*
X174554310Y-87042073D01*
X174687927Y-87175690D01*
X174840801Y-87286760D01*
X174920347Y-87327290D01*
X175009163Y-87372545D01*
X175009165Y-87372545D01*
X175009168Y-87372547D01*
X175105497Y-87403846D01*
X175188881Y-87430940D01*
X175375514Y-87460500D01*
X175375519Y-87460500D01*
X175564486Y-87460500D01*
X175751118Y-87430940D01*
X175930832Y-87372547D01*
X176099199Y-87286760D01*
X176252073Y-87175690D01*
X176385690Y-87042073D01*
X176496760Y-86889199D01*
X176582547Y-86720832D01*
X176622069Y-86599195D01*
X176661507Y-86541521D01*
X176725866Y-86514323D01*
X176794712Y-86526238D01*
X176846188Y-86573482D01*
X176857931Y-86599196D01*
X176897454Y-86720836D01*
X176952598Y-86829061D01*
X176983240Y-86889199D01*
X177094310Y-87042073D01*
X177227927Y-87175690D01*
X177380801Y-87286760D01*
X177460347Y-87327290D01*
X177549163Y-87372545D01*
X177549165Y-87372545D01*
X177549168Y-87372547D01*
X177645497Y-87403846D01*
X177728881Y-87430940D01*
X177915514Y-87460500D01*
X177915519Y-87460500D01*
X178104486Y-87460500D01*
X178291118Y-87430940D01*
X178470832Y-87372547D01*
X178639199Y-87286760D01*
X178792073Y-87175690D01*
X178925690Y-87042073D01*
X179036760Y-86889199D01*
X179122547Y-86720832D01*
X179180940Y-86541118D01*
X179187144Y-86501950D01*
X179210500Y-86354486D01*
X179210500Y-86165513D01*
X179180940Y-85978881D01*
X179145906Y-85871060D01*
X179122547Y-85799168D01*
X179122545Y-85799165D01*
X179122545Y-85799163D01*
X179077290Y-85710347D01*
X179036760Y-85630801D01*
X178925690Y-85477927D01*
X178792073Y-85344310D01*
X178639199Y-85233240D01*
X178638451Y-85232859D01*
X178470836Y-85147454D01*
X178291118Y-85089059D01*
X178104486Y-85059500D01*
X178104481Y-85059500D01*
X177915519Y-85059500D01*
X177915514Y-85059500D01*
X177728881Y-85089059D01*
X177549163Y-85147454D01*
X177380800Y-85233240D01*
X177227924Y-85344312D01*
X177094312Y-85477924D01*
X177094312Y-85477925D01*
X177094310Y-85477927D01*
X177046610Y-85543579D01*
X176983240Y-85630800D01*
X176897454Y-85799163D01*
X176857931Y-85920803D01*
X176818493Y-85978478D01*
X176754134Y-86005676D01*
X176685288Y-85993761D01*
X176633812Y-85946516D01*
X176622069Y-85920803D01*
X176605906Y-85871060D01*
X176582547Y-85799168D01*
X176582545Y-85799165D01*
X176582545Y-85799163D01*
X176537290Y-85710347D01*
X176496760Y-85630801D01*
X176385690Y-85477927D01*
X176252073Y-85344310D01*
X176099199Y-85233240D01*
X176098451Y-85232859D01*
X175930836Y-85147454D01*
X175751118Y-85089059D01*
X175564486Y-85059500D01*
X175564481Y-85059500D01*
X175375519Y-85059500D01*
X175375514Y-85059500D01*
X175188881Y-85089059D01*
X175009163Y-85147454D01*
X174840800Y-85233240D01*
X174687924Y-85344312D01*
X174554312Y-85477924D01*
X174554312Y-85477925D01*
X174554310Y-85477927D01*
X174506610Y-85543579D01*
X174443240Y-85630800D01*
X174357454Y-85799163D01*
X174317931Y-85920803D01*
X174278493Y-85978478D01*
X174214134Y-86005676D01*
X174145288Y-85993761D01*
X174093812Y-85946516D01*
X174082069Y-85920803D01*
X174065906Y-85871060D01*
X174042547Y-85799168D01*
X174042545Y-85799165D01*
X174042545Y-85799163D01*
X173997290Y-85710347D01*
X173956760Y-85630801D01*
X173845690Y-85477927D01*
X173712073Y-85344310D01*
X173559199Y-85233240D01*
X173558451Y-85232859D01*
X173390836Y-85147454D01*
X173211118Y-85089059D01*
X173024486Y-85059500D01*
X173024481Y-85059500D01*
X172835519Y-85059500D01*
X172835514Y-85059500D01*
X172648881Y-85089059D01*
X172469163Y-85147454D01*
X172300800Y-85233240D01*
X172147924Y-85344312D01*
X172014312Y-85477924D01*
X172014312Y-85477925D01*
X172014310Y-85477927D01*
X171966610Y-85543579D01*
X171903240Y-85630800D01*
X171817454Y-85799163D01*
X171777931Y-85920803D01*
X171738493Y-85978478D01*
X171674134Y-86005676D01*
X171605288Y-85993761D01*
X171553812Y-85946516D01*
X171542069Y-85920803D01*
X171525906Y-85871060D01*
X171502547Y-85799168D01*
X171502545Y-85799165D01*
X171502545Y-85799163D01*
X171457290Y-85710347D01*
X171416760Y-85630801D01*
X171305690Y-85477927D01*
X171172073Y-85344310D01*
X171019199Y-85233240D01*
X171018451Y-85232859D01*
X170850836Y-85147454D01*
X170671118Y-85089059D01*
X170484486Y-85059500D01*
X170484481Y-85059500D01*
X170295519Y-85059500D01*
X170295514Y-85059500D01*
X170108881Y-85089059D01*
X169929163Y-85147454D01*
X169760800Y-85233240D01*
X169607924Y-85344312D01*
X169474312Y-85477924D01*
X169474312Y-85477925D01*
X169474310Y-85477927D01*
X169426610Y-85543579D01*
X169363240Y-85630800D01*
X169277454Y-85799163D01*
X169237931Y-85920803D01*
X169198493Y-85978478D01*
X169134134Y-86005676D01*
X169065288Y-85993761D01*
X169013812Y-85946516D01*
X169002069Y-85920803D01*
X168985906Y-85871060D01*
X168962547Y-85799168D01*
X168962545Y-85799165D01*
X168962545Y-85799163D01*
X168917290Y-85710347D01*
X168876760Y-85630801D01*
X168765690Y-85477927D01*
X168632073Y-85344310D01*
X168479199Y-85233240D01*
X168478451Y-85232859D01*
X168310836Y-85147454D01*
X168131118Y-85089059D01*
X167944486Y-85059500D01*
X167944481Y-85059500D01*
X167755519Y-85059500D01*
X167755514Y-85059500D01*
X167568881Y-85089059D01*
X167389163Y-85147454D01*
X167220800Y-85233240D01*
X167067924Y-85344312D01*
X166934312Y-85477924D01*
X166934312Y-85477925D01*
X166934310Y-85477927D01*
X166886610Y-85543579D01*
X166823240Y-85630800D01*
X166737454Y-85799163D01*
X166697931Y-85920803D01*
X166658493Y-85978478D01*
X166594134Y-86005676D01*
X166525288Y-85993761D01*
X166473812Y-85946516D01*
X166462069Y-85920803D01*
X166445906Y-85871060D01*
X166422547Y-85799168D01*
X166422545Y-85799165D01*
X166422545Y-85799163D01*
X166377290Y-85710347D01*
X166336760Y-85630801D01*
X166225690Y-85477927D01*
X166092073Y-85344310D01*
X165939199Y-85233240D01*
X165938451Y-85232859D01*
X165770836Y-85147454D01*
X165591118Y-85089059D01*
X165404486Y-85059500D01*
X165404481Y-85059500D01*
X165215519Y-85059500D01*
X165215514Y-85059500D01*
X165056247Y-85084725D01*
X164986953Y-85075770D01*
X164949168Y-85049933D01*
X162251216Y-82351981D01*
X162217731Y-82290658D01*
X162222715Y-82220966D01*
X162264587Y-82165033D01*
X162330051Y-82140616D01*
X162338897Y-82140300D01*
X174853908Y-82140300D01*
X174917094Y-82140300D01*
X174922502Y-82140417D01*
G37*
%TD.AperFunction*%
%TA.AperFunction,Conductor*%
G36*
X130393898Y-84920185D02*
G01*
X130399745Y-84924182D01*
X130423207Y-84941229D01*
X130423208Y-84941229D01*
X130423212Y-84941232D01*
X130577555Y-85019873D01*
X130742299Y-85073402D01*
X130766004Y-85077156D01*
X130829137Y-85107083D01*
X130866069Y-85166394D01*
X130865073Y-85236257D01*
X130826464Y-85294490D01*
X130766006Y-85322102D01*
X130718996Y-85329548D01*
X130539362Y-85387914D01*
X130371060Y-85473669D01*
X130345670Y-85492116D01*
X130345669Y-85492116D01*
X131003554Y-86150000D01*
X130953922Y-86150000D01*
X130864905Y-86173852D01*
X130785095Y-86219930D01*
X130719930Y-86285095D01*
X130673852Y-86364905D01*
X130650000Y-86453922D01*
X130650000Y-86546078D01*
X130673852Y-86635095D01*
X130719930Y-86714905D01*
X130785095Y-86780070D01*
X130864905Y-86826148D01*
X130953922Y-86850000D01*
X131046078Y-86850000D01*
X131135095Y-86826148D01*
X131214905Y-86780070D01*
X131280070Y-86714905D01*
X131326148Y-86635095D01*
X131350000Y-86546078D01*
X131350000Y-86496446D01*
X132007882Y-87154328D01*
X132007883Y-87154328D01*
X132026331Y-87128937D01*
X132112086Y-86960635D01*
X132154665Y-86829587D01*
X132194101Y-86771911D01*
X132258460Y-86744712D01*
X132327306Y-86756626D01*
X132360277Y-86780223D01*
X133102206Y-87522152D01*
X133135691Y-87583475D01*
X133136998Y-87590433D01*
X133139353Y-87605300D01*
X133139352Y-87605300D01*
X133139353Y-87605303D01*
X133139354Y-87605304D01*
X133196950Y-87718342D01*
X133196952Y-87718344D01*
X133196954Y-87718347D01*
X133286652Y-87808045D01*
X133286654Y-87808046D01*
X133286658Y-87808050D01*
X133399694Y-87865645D01*
X133399698Y-87865647D01*
X133493475Y-87880499D01*
X133493481Y-87880500D01*
X135084518Y-87880499D01*
X135178304Y-87865646D01*
X135291342Y-87808050D01*
X135381050Y-87718342D01*
X135438646Y-87605304D01*
X135438646Y-87605302D01*
X135438647Y-87605301D01*
X135453499Y-87511524D01*
X135453500Y-87511519D01*
X135453499Y-86852095D01*
X135473183Y-86785057D01*
X135525987Y-86739302D01*
X135595146Y-86729358D01*
X135658702Y-86758383D01*
X135665180Y-86764415D01*
X135863181Y-86962416D01*
X135896666Y-87023739D01*
X135899500Y-87050097D01*
X135899500Y-101971683D01*
X135879815Y-102038722D01*
X135827011Y-102084477D01*
X135757853Y-102094421D01*
X135728050Y-102086245D01*
X135704332Y-102076421D01*
X135704322Y-102076418D01*
X135568995Y-102049500D01*
X135568993Y-102049500D01*
X135431007Y-102049500D01*
X135431005Y-102049500D01*
X135295677Y-102076418D01*
X135295667Y-102076421D01*
X135168190Y-102129223D01*
X135162819Y-102132095D01*
X135162123Y-102130794D01*
X135102438Y-102149480D01*
X135100230Y-102149500D01*
X133086670Y-102149500D01*
X133086654Y-102149499D01*
X133079058Y-102149499D01*
X132920943Y-102149499D01*
X132844579Y-102169961D01*
X132768214Y-102190423D01*
X132768209Y-102190426D01*
X132631290Y-102269475D01*
X132631282Y-102269481D01*
X131519481Y-103381282D01*
X131519480Y-103381284D01*
X131476409Y-103455886D01*
X131440423Y-103518215D01*
X131399499Y-103670943D01*
X131399499Y-103670945D01*
X131399499Y-103839046D01*
X131399500Y-103839059D01*
X131399500Y-105913330D01*
X131399499Y-105913348D01*
X131399499Y-106079054D01*
X131399498Y-106079054D01*
X131408737Y-106113534D01*
X131440423Y-106231785D01*
X131447156Y-106243447D01*
X131447158Y-106243455D01*
X131447161Y-106243454D01*
X131515861Y-106362447D01*
X131519479Y-106368714D01*
X131519481Y-106368717D01*
X131638349Y-106487585D01*
X131638354Y-106487589D01*
X132496284Y-107345520D01*
X132496286Y-107345521D01*
X132496290Y-107345524D01*
X132633209Y-107424573D01*
X132633216Y-107424577D01*
X132785943Y-107465501D01*
X132785945Y-107465501D01*
X132951654Y-107465501D01*
X132951670Y-107465500D01*
X133048691Y-107465500D01*
X133115730Y-107485185D01*
X133161485Y-107537989D01*
X133171429Y-107607147D01*
X133159175Y-107645796D01*
X133139353Y-107684696D01*
X133139352Y-107684698D01*
X133124500Y-107778475D01*
X133124500Y-108491517D01*
X133135292Y-108559657D01*
X133139354Y-108585304D01*
X133196950Y-108698342D01*
X133196951Y-108698343D01*
X133201381Y-108707037D01*
X133199873Y-108707805D01*
X133219538Y-108762928D01*
X133203709Y-108830981D01*
X133197346Y-108840882D01*
X133196951Y-108841656D01*
X133196950Y-108841658D01*
X133182550Y-108869920D01*
X133139352Y-108954698D01*
X133124500Y-109048475D01*
X133124500Y-109761517D01*
X133135292Y-109829657D01*
X133139354Y-109855304D01*
X133196950Y-109968342D01*
X133196952Y-109968344D01*
X133196954Y-109968347D01*
X133286652Y-110058045D01*
X133286654Y-110058046D01*
X133286658Y-110058050D01*
X133399694Y-110115645D01*
X133399698Y-110115647D01*
X133493474Y-110130499D01*
X133493475Y-110130499D01*
X133493481Y-110130500D01*
X133514497Y-110130499D01*
X133581535Y-110150181D01*
X133627292Y-110202983D01*
X133638500Y-110254499D01*
X133638500Y-111225500D01*
X133618815Y-111292539D01*
X133566011Y-111338294D01*
X133514500Y-111349500D01*
X132674361Y-111349500D01*
X132607322Y-111329815D01*
X132586680Y-111313181D01*
X130186819Y-108913319D01*
X130153334Y-108851996D01*
X130150500Y-108825638D01*
X130150500Y-105411308D01*
X130141480Y-105365966D01*
X130141480Y-105365963D01*
X130115896Y-105237341D01*
X130115894Y-105237338D01*
X130115894Y-105237334D01*
X130111317Y-105226284D01*
X130068348Y-105122547D01*
X130048016Y-105073459D01*
X130048009Y-105073446D01*
X129949465Y-104925966D01*
X129889392Y-104865893D01*
X129824035Y-104800536D01*
X129450039Y-104426540D01*
X128324039Y-103300538D01*
X128324038Y-103300537D01*
X128303606Y-103286885D01*
X128242861Y-103246297D01*
X128209471Y-103223986D01*
X128205607Y-103221404D01*
X128160803Y-103167791D01*
X128150500Y-103118303D01*
X128150500Y-87507882D01*
X130345669Y-87507882D01*
X130345670Y-87507883D01*
X130371059Y-87526329D01*
X130539362Y-87612085D01*
X130718997Y-87670451D01*
X130905553Y-87700000D01*
X131094447Y-87700000D01*
X131281002Y-87670451D01*
X131460637Y-87612085D01*
X131628937Y-87526331D01*
X131654328Y-87507883D01*
X131654328Y-87507882D01*
X131000001Y-86853554D01*
X131000000Y-86853554D01*
X130345669Y-87507882D01*
X128150500Y-87507882D01*
X128150500Y-86405552D01*
X129800000Y-86405552D01*
X129800000Y-86594447D01*
X129829548Y-86781002D01*
X129887914Y-86960637D01*
X129973666Y-87128933D01*
X129992116Y-87154328D01*
X130646446Y-86500000D01*
X130646446Y-86499999D01*
X129992116Y-85845669D01*
X129992116Y-85845670D01*
X129973669Y-85871060D01*
X129887914Y-86039362D01*
X129829548Y-86218997D01*
X129800000Y-86405552D01*
X128150500Y-86405552D01*
X128150500Y-86174361D01*
X128170185Y-86107322D01*
X128186819Y-86086680D01*
X129336680Y-84936819D01*
X129398003Y-84903334D01*
X129424361Y-84900500D01*
X130326859Y-84900500D01*
X130393898Y-84920185D01*
G37*
%TD.AperFunction*%
%TA.AperFunction,Conductor*%
G36*
X115719920Y-108884394D02*
G01*
X115667259Y-108975606D01*
X115640000Y-109077339D01*
X115640000Y-109182661D01*
X115667259Y-109284394D01*
X115719920Y-109375606D01*
X115724314Y-109380000D01*
X113815686Y-109380000D01*
X113820080Y-109375606D01*
X113872741Y-109284394D01*
X113900000Y-109182661D01*
X113900000Y-109077339D01*
X113872741Y-108975606D01*
X113820080Y-108884394D01*
X113815686Y-108880000D01*
X115724314Y-108880000D01*
X115719920Y-108884394D01*
G37*
%TD.AperFunction*%
%TD*%
M02*
