%TF.GenerationSoftware,KiCad,Pcbnew,9.0.6+1*%
%TF.CreationDate,2026-02-20T12:15:03+01:00*%
%TF.ProjectId,rc2014_nvram,72633230-3134-45f6-9e76-72616d2e6b69,rev?*%
%TF.SameCoordinates,Original*%
%TF.FileFunction,Copper,L2,Bot*%
%TF.FilePolarity,Positive*%
%FSLAX46Y46*%
G04 Gerber Fmt 4.6, Leading zero omitted, Abs format (unit mm)*
G04 Created by KiCad (PCBNEW 9.0.6+1) date 2026-02-20 12:15:03*
%MOMM*%
%LPD*%
G01*
G04 APERTURE LIST*
G04 Aperture macros list*
%AMRoundRect*
0 Rectangle with rounded corners*
0 $1 Rounding radius*
0 $2 $3 $4 $5 $6 $7 $8 $9 X,Y pos of 4 corners*
0 Add a 4 corners polygon primitive as box body*
4,1,4,$2,$3,$4,$5,$6,$7,$8,$9,$2,$3,0*
0 Add four circle primitives for the rounded corners*
1,1,$1+$1,$2,$3*
1,1,$1+$1,$4,$5*
1,1,$1+$1,$6,$7*
1,1,$1+$1,$8,$9*
0 Add four rect primitives between the rounded corners*
20,1,$1+$1,$2,$3,$4,$5,0*
20,1,$1+$1,$4,$5,$6,$7,0*
20,1,$1+$1,$6,$7,$8,$9,0*
20,1,$1+$1,$8,$9,$2,$3,0*%
G04 Aperture macros list end*
%TA.AperFunction,ComponentPad*%
%ADD10C,1.700000*%
%TD*%
%TA.AperFunction,ComponentPad*%
%ADD11R,1.700000X1.700000*%
%TD*%
%TA.AperFunction,ComponentPad*%
%ADD12C,1.600000*%
%TD*%
%TA.AperFunction,ComponentPad*%
%ADD13C,1.400000*%
%TD*%
%TA.AperFunction,ComponentPad*%
%ADD14O,1.600000X2.400000*%
%TD*%
%TA.AperFunction,ComponentPad*%
%ADD15RoundRect,0.250000X0.550000X-0.950000X0.550000X0.950000X-0.550000X0.950000X-0.550000X-0.950000X0*%
%TD*%
%TA.AperFunction,ComponentPad*%
%ADD16RoundRect,0.250000X0.550000X-0.550000X0.550000X0.550000X-0.550000X0.550000X-0.550000X-0.550000X0*%
%TD*%
%TA.AperFunction,ComponentPad*%
%ADD17R,2.500000X2.000000*%
%TD*%
%TA.AperFunction,ComponentPad*%
%ADD18RoundRect,0.300000X-0.950000X-0.700000X0.950000X-0.700000X0.950000X0.700000X-0.950000X0.700000X0*%
%TD*%
%TA.AperFunction,ViaPad*%
%ADD19C,0.900000*%
%TD*%
%TA.AperFunction,ViaPad*%
%ADD20C,0.600000*%
%TD*%
%TA.AperFunction,Conductor*%
%ADD21C,1.000000*%
%TD*%
%TA.AperFunction,Conductor*%
%ADD22C,0.200000*%
%TD*%
%TA.AperFunction,Conductor*%
%ADD23C,0.500000*%
%TD*%
G04 APERTURE END LIST*
D10*
%TO.P,Z80_BUS1,40,SPARE4*%
%TO.N,unconnected-(Z80_BUS1-SPARE4-Pad40)*%
X181780000Y-130000000D03*
%TO.P,Z80_BUS1,39,SPARE3*%
%TO.N,unconnected-(Z80_BUS1-SPARE3-Pad39)*%
X179240000Y-130000000D03*
%TO.P,Z80_BUS1,38,SPARE2*%
%TO.N,unconnected-(Z80_BUS1-SPARE2-Pad38)*%
X176700000Y-130000000D03*
%TO.P,Z80_BUS1,37,SPARE1*%
%TO.N,Net-(Z80_BUS1-SPARE1)*%
X174160000Y-130000000D03*
%TO.P,Z80_BUS1,36,Rx*%
%TO.N,unconnected-(Z80_BUS1-Rx-Pad36)*%
X171620000Y-130000000D03*
%TO.P,Z80_BUS1,35,Tx*%
%TO.N,unconnected-(Z80_BUS1-Tx-Pad35)*%
X169080000Y-130000000D03*
%TO.P,Z80_BUS1,34,D7*%
%TO.N,/D7*%
X166540000Y-130000000D03*
%TO.P,Z80_BUS1,33,D6*%
%TO.N,/D6*%
X164000000Y-130000000D03*
%TO.P,Z80_BUS1,32,D5*%
%TO.N,/D5*%
X161460000Y-130000000D03*
%TO.P,Z80_BUS1,31,D4*%
%TO.N,/D4*%
X158920000Y-130000000D03*
%TO.P,Z80_BUS1,30,D3*%
%TO.N,/D3*%
X156380000Y-130000000D03*
%TO.P,Z80_BUS1,29,D2*%
%TO.N,/D2*%
X153840000Y-130000000D03*
%TO.P,Z80_BUS1,28,D1*%
%TO.N,/D1*%
X151300000Y-130000000D03*
%TO.P,Z80_BUS1,27,D0*%
%TO.N,/D0*%
X148760000Y-130000000D03*
%TO.P,Z80_BUS1,26,IORQ*%
%TO.N,unconnected-(Z80_BUS1-IORQ-Pad26)*%
X146220000Y-130000000D03*
%TO.P,Z80_BUS1,25,RD*%
%TO.N,Net-(Z80_BUS1-RD)*%
X143680000Y-130000000D03*
%TO.P,Z80_BUS1,24,WR*%
%TO.N,Net-(Z80_BUS1-WR)*%
X141140000Y-130000000D03*
%TO.P,Z80_BUS1,23,MREQ*%
%TO.N,Net-(Z80_BUS1-MREQ)*%
X138600000Y-130000000D03*
%TO.P,Z80_BUS1,22,INT*%
%TO.N,unconnected-(Z80_BUS1-INT-Pad22)*%
X136060000Y-130000000D03*
%TO.P,Z80_BUS1,21,CLK*%
%TO.N,unconnected-(Z80_BUS1-CLK-Pad21)*%
X133520000Y-130000000D03*
%TO.P,Z80_BUS1,20,RESET*%
%TO.N,unconnected-(Z80_BUS1-RESET-Pad20)*%
X130980000Y-130000000D03*
%TO.P,Z80_BUS1,19,M1*%
%TO.N,unconnected-(Z80_BUS1-M1-Pad19)*%
X128440000Y-130000000D03*
%TO.P,Z80_BUS1,18,5V*%
%TO.N,+5V*%
X125900000Y-130000000D03*
%TO.P,Z80_BUS1,17,Gnd*%
%TO.N,GND*%
X123360000Y-130000000D03*
%TO.P,Z80_BUS1,16,A0*%
%TO.N,/A0*%
X120820000Y-130000000D03*
%TO.P,Z80_BUS1,15,A1*%
%TO.N,/A1*%
X118280000Y-130000000D03*
%TO.P,Z80_BUS1,14,A2*%
%TO.N,/A2*%
X115740000Y-130000000D03*
%TO.P,Z80_BUS1,13,A3*%
%TO.N,/A3*%
X113200000Y-130000000D03*
%TO.P,Z80_BUS1,12,A4*%
%TO.N,/A4*%
X110660000Y-130000000D03*
%TO.P,Z80_BUS1,11,A5*%
%TO.N,/A5*%
X108120000Y-130000000D03*
%TO.P,Z80_BUS1,10,A6*%
%TO.N,/A6*%
X105580000Y-130000000D03*
%TO.P,Z80_BUS1,9,A7*%
%TO.N,/A7*%
X103040000Y-130000000D03*
%TO.P,Z80_BUS1,8,A8*%
%TO.N,/A8*%
X100500000Y-130000000D03*
%TO.P,Z80_BUS1,7,A9*%
%TO.N,/A9*%
X97960000Y-130000000D03*
%TO.P,Z80_BUS1,6,A10*%
%TO.N,/A10*%
X95420000Y-130000000D03*
%TO.P,Z80_BUS1,5,A11*%
%TO.N,/A11*%
X92880000Y-130000000D03*
%TO.P,Z80_BUS1,4,A12*%
%TO.N,/A12*%
X90340000Y-130000000D03*
%TO.P,Z80_BUS1,3,A13*%
%TO.N,/A13*%
X87800000Y-130000000D03*
%TO.P,Z80_BUS1,2,A14*%
%TO.N,/A14*%
X85260000Y-130000000D03*
D11*
%TO.P,Z80_BUS1,1,A15*%
%TO.N,/A15*%
X82720000Y-130000000D03*
%TD*%
D12*
%TO.P,R1,2*%
%TO.N,Net-(Z80_BUS1-SPARE1)*%
X85750000Y-116830000D03*
%TO.P,R1,1*%
%TO.N,+5V*%
X85750000Y-106670000D03*
%TD*%
D13*
%TO.P,C2,2*%
%TO.N,GND*%
X91250000Y-105940000D03*
%TO.P,C2,1*%
%TO.N,+5V*%
X88750000Y-105940000D03*
%TD*%
D14*
%TO.P,U6,14,VCC*%
%TO.N,+5V*%
X89135000Y-109190000D03*
%TO.P,U6,13*%
%TO.N,GND*%
X91675000Y-109190000D03*
%TO.P,U6,12*%
%TO.N,unconnected-(U6-Pad12)*%
X94215000Y-109190000D03*
%TO.P,U6,11*%
%TO.N,GND*%
X96755000Y-109190000D03*
%TO.P,U6,10*%
%TO.N,unconnected-(U6-Pad10)*%
X99295000Y-109190000D03*
%TO.P,U6,9*%
%TO.N,GND*%
X101835000Y-109190000D03*
%TO.P,U6,8*%
%TO.N,unconnected-(U6-Pad8)*%
X104375000Y-109190000D03*
%TO.P,U6,7,GND*%
%TO.N,GND*%
X104375000Y-116810000D03*
%TO.P,U6,6*%
%TO.N,unconnected-(U6-Pad6)*%
X101835000Y-116810000D03*
%TO.P,U6,5*%
%TO.N,GND*%
X99295000Y-116810000D03*
%TO.P,U6,4*%
%TO.N,Net-(U2-Pad10)*%
X96755000Y-116810000D03*
%TO.P,U6,3*%
%TO.N,Net-(Z80_BUS1-SPARE1)*%
X94215000Y-116810000D03*
%TO.P,U6,2*%
%TO.N,Net-(BQ2201SN-N1-~{CE})*%
X91675000Y-116810000D03*
D15*
%TO.P,U6,1*%
%TO.N,/A15*%
X89135000Y-116810000D03*
%TD*%
D13*
%TO.P,C3,2*%
%TO.N,GND*%
X131500000Y-109000000D03*
%TO.P,C3,1*%
%TO.N,+5V*%
X131500000Y-106500000D03*
%TD*%
D15*
%TO.P,U2,1*%
%TO.N,Net-(Z80_BUS1-MREQ)*%
X110960000Y-116750000D03*
D14*
%TO.P,U2,2*%
%TO.N,Net-(Z80_BUS1-RD)*%
X113500000Y-116750000D03*
%TO.P,U2,3*%
%TO.N,MEMRD*%
X116040000Y-116750000D03*
%TO.P,U2,4*%
%TO.N,Net-(Z80_BUS1-WR)*%
X118580000Y-116750000D03*
%TO.P,U2,5*%
%TO.N,Net-(Z80_BUS1-MREQ)*%
X121120000Y-116750000D03*
%TO.P,U2,6*%
%TO.N,MEMWR*%
X123660000Y-116750000D03*
%TO.P,U2,7,GND*%
%TO.N,GND*%
X126200000Y-116750000D03*
%TO.P,U2,8*%
%TO.N,Net-(BQ2201SN-N2-~{CE})*%
X126200000Y-109130000D03*
%TO.P,U2,9*%
%TO.N,/A15*%
X123660000Y-109130000D03*
%TO.P,U2,10*%
%TO.N,Net-(U2-Pad10)*%
X121120000Y-109130000D03*
%TO.P,U2,11*%
%TO.N,unconnected-(U2-Pad11)*%
X118580000Y-109130000D03*
%TO.P,U2,12*%
%TO.N,GND*%
X116040000Y-109130000D03*
%TO.P,U2,13*%
X113500000Y-109130000D03*
%TO.P,U2,14,VCC*%
%TO.N,+5V*%
X110960000Y-109130000D03*
%TD*%
D13*
%TO.P,C4,2*%
%TO.N,GND*%
X113215000Y-105940000D03*
%TO.P,C4,1*%
%TO.N,+5V*%
X110715000Y-105940000D03*
%TD*%
D12*
%TO.P,U3,28,VCC*%
%TO.N,Net-(BQ2201SN-N2-VOUT)*%
X145180000Y-88260000D03*
%TO.P,U3,27,~{WE}*%
%TO.N,MEMWR*%
X147720000Y-88260000D03*
%TO.P,U3,26,A13*%
%TO.N,/A13*%
X150260000Y-88260000D03*
%TO.P,U3,25,A8*%
%TO.N,/A8*%
X152800000Y-88260000D03*
%TO.P,U3,24,A9*%
%TO.N,/A9*%
X155340000Y-88260000D03*
%TO.P,U3,23,A11*%
%TO.N,/A11*%
X157880000Y-88260000D03*
%TO.P,U3,22,~{OE}*%
%TO.N,MEMRD*%
X160420000Y-88260000D03*
%TO.P,U3,21,A10*%
%TO.N,/A10*%
X162960000Y-88260000D03*
%TO.P,U3,20,~{CS}*%
%TO.N,Net-(BQ2201SN-N2-~{CECON})*%
X165500000Y-88260000D03*
%TO.P,U3,19,Q7*%
%TO.N,/D7*%
X168040000Y-88260000D03*
%TO.P,U3,18,Q6*%
%TO.N,/D6*%
X170580000Y-88260000D03*
%TO.P,U3,17,Q5*%
%TO.N,/D5*%
X173120000Y-88260000D03*
%TO.P,U3,16,Q4*%
%TO.N,/D4*%
X175660000Y-88260000D03*
%TO.P,U3,15,Q3*%
%TO.N,/D3*%
X178200000Y-88260000D03*
%TO.P,U3,14,GND*%
%TO.N,GND*%
X178200000Y-103500000D03*
%TO.P,U3,13,Q2*%
%TO.N,/D2*%
X175660000Y-103500000D03*
%TO.P,U3,12,Q1*%
%TO.N,/D1*%
X173120000Y-103500000D03*
%TO.P,U3,11,Q0*%
%TO.N,/D0*%
X170580000Y-103500000D03*
%TO.P,U3,10,A0*%
%TO.N,/A0*%
X168040000Y-103500000D03*
%TO.P,U3,9,A1*%
%TO.N,/A1*%
X165500000Y-103500000D03*
%TO.P,U3,8,A2*%
%TO.N,/A2*%
X162960000Y-103500000D03*
%TO.P,U3,7,A3*%
%TO.N,/A3*%
X160420000Y-103500000D03*
%TO.P,U3,6,A4*%
%TO.N,/A4*%
X157880000Y-103500000D03*
%TO.P,U3,5,A5*%
%TO.N,/A5*%
X155340000Y-103500000D03*
%TO.P,U3,4,A6*%
%TO.N,/A6*%
X152800000Y-103500000D03*
%TO.P,U3,3,A7*%
%TO.N,/A7*%
X150260000Y-103500000D03*
%TO.P,U3,2,A12*%
%TO.N,/A12*%
X147720000Y-103500000D03*
D16*
%TO.P,U3,1,A14*%
%TO.N,/A14*%
X145180000Y-103500000D03*
%TD*%
D17*
%TO.P,BT1,1,+*%
%TO.N,Net-(BQ2201SN-N1-BC1)*%
X141000000Y-96000000D03*
D18*
%TO.P,BT1,2,-*%
%TO.N,GND*%
X90000000Y-90920000D03*
X90000000Y-101080000D03*
%TD*%
D13*
%TO.P,C1,1*%
%TO.N,+5V*%
X133500000Y-84250000D03*
%TO.P,C1,2*%
%TO.N,GND*%
X133500000Y-86750000D03*
%TD*%
D12*
%TO.P,U1,28,VCC*%
%TO.N,Net-(BQ2201SN-N1-VOUT)*%
X145180000Y-107760000D03*
%TO.P,U1,27,~{WE}*%
%TO.N,MEMWR*%
X147720000Y-107760000D03*
%TO.P,U1,26,A13*%
%TO.N,/A13*%
X150260000Y-107760000D03*
%TO.P,U1,25,A8*%
%TO.N,/A8*%
X152800000Y-107760000D03*
%TO.P,U1,24,A9*%
%TO.N,/A9*%
X155340000Y-107760000D03*
%TO.P,U1,23,A11*%
%TO.N,/A11*%
X157880000Y-107760000D03*
%TO.P,U1,22,~{OE}*%
%TO.N,MEMRD*%
X160420000Y-107760000D03*
%TO.P,U1,21,A10*%
%TO.N,/A10*%
X162960000Y-107760000D03*
%TO.P,U1,20,~{CS}*%
%TO.N,Net-(BQ2201SN-N1-~{CECON})*%
X165500000Y-107760000D03*
%TO.P,U1,19,Q7*%
%TO.N,/D7*%
X168040000Y-107760000D03*
%TO.P,U1,18,Q6*%
%TO.N,/D6*%
X170580000Y-107760000D03*
%TO.P,U1,17,Q5*%
%TO.N,/D5*%
X173120000Y-107760000D03*
%TO.P,U1,16,Q4*%
%TO.N,/D4*%
X175660000Y-107760000D03*
%TO.P,U1,15,Q3*%
%TO.N,/D3*%
X178200000Y-107760000D03*
%TO.P,U1,14,GND*%
%TO.N,GND*%
X178200000Y-123000000D03*
%TO.P,U1,13,Q2*%
%TO.N,/D2*%
X175660000Y-123000000D03*
%TO.P,U1,12,Q1*%
%TO.N,/D1*%
X173120000Y-123000000D03*
%TO.P,U1,11,Q0*%
%TO.N,/D0*%
X170580000Y-123000000D03*
%TO.P,U1,10,A0*%
%TO.N,/A0*%
X168040000Y-123000000D03*
%TO.P,U1,9,A1*%
%TO.N,/A1*%
X165500000Y-123000000D03*
%TO.P,U1,8,A2*%
%TO.N,/A2*%
X162960000Y-123000000D03*
%TO.P,U1,7,A3*%
%TO.N,/A3*%
X160420000Y-123000000D03*
%TO.P,U1,6,A4*%
%TO.N,/A4*%
X157880000Y-123000000D03*
%TO.P,U1,5,A5*%
%TO.N,/A5*%
X155340000Y-123000000D03*
%TO.P,U1,4,A6*%
%TO.N,/A6*%
X152800000Y-123000000D03*
%TO.P,U1,3,A7*%
%TO.N,/A7*%
X150260000Y-123000000D03*
%TO.P,U1,2,A12*%
%TO.N,/A12*%
X147720000Y-123000000D03*
D16*
%TO.P,U1,1,A14*%
%TO.N,/A14*%
X145180000Y-123000000D03*
%TD*%
D19*
%TO.N,GND*%
X141782500Y-89467500D03*
D20*
%TO.N,/A15*%
X119500000Y-104750000D03*
%TO.N,Net-(U2-Pad10)*%
X95750000Y-105750000D03*
%TO.N,Net-(BQ2201SN-N1-~{CECON})*%
X136750000Y-106000000D03*
X166250000Y-106000000D03*
X142750000Y-106000000D03*
D19*
%TO.N,GND*%
X131250000Y-116750000D03*
D20*
%TO.N,Net-(BQ2201SN-N1-~{CE})*%
X127000000Y-104000000D03*
%TO.N,MEMWR*%
X147500000Y-115000000D03*
%TO.N,Net-(Z80_BUS1-SPARE1)*%
X148000000Y-120250000D03*
X109500000Y-121250000D03*
X147875000Y-117875000D03*
%TO.N,/A14*%
X143250000Y-111947000D03*
%TO.N,/A13*%
X150250000Y-111899000D03*
%TO.N,/A8*%
X101352107Y-122170421D03*
X152750000Y-112250000D03*
%TO.N,/A9*%
X98750000Y-122770421D03*
X155500000Y-112900000D03*
%TO.N,/A11*%
X157750000Y-113500000D03*
X93500000Y-123500000D03*
%TO.N,MEMRD*%
X160500000Y-116750000D03*
%TO.N,/A10*%
X95524766Y-123971421D03*
X163000000Y-117500000D03*
D19*
%TO.N,+5V*%
X128500000Y-111250000D03*
D20*
%TO.N,Net-(Z80_BUS1-MREQ)*%
X138500000Y-119000000D03*
%TO.N,Net-(Z80_BUS1-WR)*%
X140250000Y-115100000D03*
%TO.N,Net-(Z80_BUS1-RD)*%
X141250000Y-114500000D03*
%TO.N,/D3*%
X157750000Y-119500000D03*
%TO.N,/D4*%
X160500000Y-119000000D03*
%TO.N,/D5*%
X163250000Y-118500000D03*
%TO.N,/D6*%
X166000000Y-118000000D03*
%TO.N,GND*%
X145000000Y-84500000D03*
%TO.N,Net-(Z80_BUS1-SPARE1)*%
X176000000Y-120250000D03*
%TD*%
D21*
%TO.N,+5V*%
X125900000Y-130000000D02*
X126000000Y-129900000D01*
X126000000Y-129900000D02*
X126000000Y-122250000D01*
X126000000Y-122250000D02*
X128500000Y-119750000D01*
X128500000Y-119750000D02*
X128500000Y-107500000D01*
%TO.N,GND*%
X126200000Y-116750000D02*
X126200000Y-118800000D01*
X126200000Y-118800000D02*
X123250000Y-121750000D01*
X123250000Y-129890000D02*
X123360000Y-130000000D01*
X123250000Y-121750000D02*
X123250000Y-129890000D01*
D22*
%TO.N,Net-(Z80_BUS1-SPARE1)*%
X147875000Y-117875000D02*
X148000000Y-118000000D01*
X148000000Y-118000000D02*
X148000000Y-120250000D01*
%TO.N,/A9*%
X97960000Y-123540000D02*
X97960000Y-130000000D01*
X98750000Y-122770421D02*
X98270421Y-123250000D01*
X98270421Y-123250000D02*
X98250000Y-123250000D01*
X98250000Y-123250000D02*
X97960000Y-123540000D01*
%TO.N,Net-(Z80_BUS1-MREQ)*%
X111500000Y-119250000D02*
X120500000Y-119250000D01*
X110960000Y-116750000D02*
X110960000Y-118710000D01*
X110960000Y-118710000D02*
X111500000Y-119250000D01*
X120500000Y-119250000D02*
X121120000Y-118630000D01*
X121120000Y-118630000D02*
X121120000Y-116750000D01*
D21*
%TO.N,GND*%
X133500000Y-88500000D02*
X134500000Y-89500000D01*
X141750000Y-89500000D02*
X141782500Y-89467500D01*
X133500000Y-86750000D02*
X133500000Y-88500000D01*
X134500000Y-89500000D02*
X141750000Y-89500000D01*
%TO.N,+5V*%
X133500000Y-84250000D02*
X132500000Y-84250000D01*
X132500000Y-84250000D02*
X131500000Y-85250000D01*
X131500000Y-106500000D02*
X131500000Y-85250000D01*
D23*
%TO.N,GND*%
X176949000Y-86801000D02*
X177000000Y-86750000D01*
X176949000Y-88778182D02*
X176949000Y-86801000D01*
X178200000Y-90029182D02*
X176949000Y-88778182D01*
X178200000Y-103500000D02*
X178200000Y-90029182D01*
X177000000Y-86750000D02*
X174750000Y-84500000D01*
X174750000Y-84500000D02*
X145000000Y-84500000D01*
D22*
%TO.N,/D4*%
X175660000Y-88260000D02*
X175750000Y-88350000D01*
X175750000Y-88350000D02*
X175750000Y-89500000D01*
X175750000Y-89500000D02*
X176761000Y-90511000D01*
X176250000Y-107170000D02*
X175660000Y-107760000D01*
X176761000Y-90511000D02*
X176761000Y-105989000D01*
X176761000Y-105989000D02*
X176250000Y-106500000D01*
X176250000Y-106500000D02*
X176250000Y-107170000D01*
D23*
%TO.N,GND*%
X178200000Y-123000000D02*
X176949000Y-121749000D01*
X176949000Y-121749000D02*
X176949000Y-106580232D01*
X176949000Y-106580232D02*
X178200000Y-105329232D01*
X178200000Y-105329232D02*
X178200000Y-103500000D01*
D21*
X99295000Y-116810000D02*
X99295000Y-113750000D01*
X99295000Y-113750000D02*
X103250000Y-113750000D01*
X103250000Y-113750000D02*
X104375000Y-114875000D01*
X104375000Y-114875000D02*
X104375000Y-116810000D01*
X99295000Y-113750000D02*
X99295000Y-113500000D01*
X96755000Y-110960000D02*
X99295000Y-113500000D01*
X96755000Y-109190000D02*
X96755000Y-110960000D01*
X90000000Y-101080000D02*
X90000000Y-104690000D01*
X90000000Y-104690000D02*
X91250000Y-105940000D01*
%TO.N,+5V*%
X131500000Y-106500000D02*
X129500000Y-106500000D01*
X128500000Y-107500000D02*
X129500000Y-106500000D01*
%TO.N,GND*%
X131500000Y-109000000D02*
X131500000Y-116500000D01*
X131500000Y-116500000D02*
X131250000Y-116750000D01*
X113500000Y-106225000D02*
X113215000Y-105940000D01*
X116040000Y-109130000D02*
X113500000Y-109130000D01*
X126200000Y-116750000D02*
X126200000Y-112200000D01*
X126200000Y-112200000D02*
X125250000Y-111250000D01*
X125250000Y-111250000D02*
X116750000Y-111250000D01*
X116750000Y-111250000D02*
X116040000Y-110540000D01*
X116040000Y-110540000D02*
X116040000Y-109130000D01*
D22*
%TO.N,/A15*%
X123660000Y-109130000D02*
X119500000Y-104970000D01*
X119500000Y-104970000D02*
X119500000Y-104750000D01*
%TO.N,Net-(U2-Pad10)*%
X95750000Y-105750000D02*
X95654000Y-105846000D01*
X95654000Y-105846000D02*
X95654000Y-115709000D01*
X95654000Y-115709000D02*
X96755000Y-116810000D01*
%TO.N,Net-(BQ2201SN-N1-~{CECON})*%
X166250000Y-107010000D02*
X165500000Y-107760000D01*
X136750000Y-106000000D02*
X142750000Y-106000000D01*
X166250000Y-106000000D02*
X166250000Y-107010000D01*
%TO.N,+5V*%
X128500000Y-111250000D02*
X128500000Y-107500000D01*
%TO.N,Net-(BQ2201SN-N1-~{CE})*%
X92776000Y-115709000D02*
X91675000Y-116810000D01*
X127000000Y-104000000D02*
X95000000Y-104000000D01*
X95000000Y-104000000D02*
X92776000Y-106224000D01*
X92776000Y-106224000D02*
X92776000Y-115709000D01*
%TO.N,MEMWR*%
X147500000Y-115000000D02*
X147500000Y-114750000D01*
X147720000Y-114530000D02*
X147720000Y-107760000D01*
X147500000Y-114750000D02*
X147720000Y-114530000D01*
%TO.N,Net-(Z80_BUS1-SPARE1)*%
X98655000Y-121250000D02*
X94215000Y-116810000D01*
X109500000Y-121250000D02*
X98655000Y-121250000D01*
%TO.N,/A15*%
X82720000Y-130000000D02*
X82720000Y-123225000D01*
X82720000Y-123225000D02*
X89135000Y-116810000D01*
%TO.N,/A14*%
X143250000Y-111947000D02*
X143447000Y-111750000D01*
X144079000Y-104601000D02*
X144079000Y-111750000D01*
X143447000Y-111750000D02*
X144079000Y-111750000D01*
%TO.N,/A13*%
X150260000Y-111889000D02*
X150250000Y-111899000D01*
X150260000Y-107760000D02*
X150260000Y-111889000D01*
%TO.N,/A8*%
X152800000Y-107760000D02*
X152800000Y-112200000D01*
X152800000Y-112200000D02*
X152750000Y-112250000D01*
X101352107Y-122170421D02*
X100500000Y-123022528D01*
X100500000Y-123022528D02*
X100500000Y-130000000D01*
%TO.N,/A9*%
X155340000Y-112740000D02*
X155500000Y-112900000D01*
X155340000Y-107760000D02*
X155340000Y-112740000D01*
%TO.N,/A11*%
X157880000Y-113370000D02*
X157750000Y-113500000D01*
X157880000Y-107760000D02*
X157880000Y-113370000D01*
X92880000Y-124120000D02*
X92880000Y-130000000D01*
X93500000Y-123500000D02*
X92880000Y-124120000D01*
%TO.N,MEMRD*%
X160420000Y-107760000D02*
X160420000Y-116670000D01*
X160420000Y-116670000D02*
X160500000Y-116750000D01*
%TO.N,/A10*%
X162960000Y-117460000D02*
X163000000Y-117500000D01*
X95420000Y-124076187D02*
X95420000Y-130000000D01*
X162960000Y-107760000D02*
X162960000Y-117460000D01*
X95524766Y-123971421D02*
X95420000Y-124076187D01*
%TO.N,GND*%
X91675000Y-109190000D02*
X91675000Y-106365000D01*
X91675000Y-106365000D02*
X91250000Y-105940000D01*
%TO.N,+5V*%
X89135000Y-106325000D02*
X88750000Y-105940000D01*
X110715000Y-108885000D02*
X110960000Y-109130000D01*
%TO.N,Net-(Z80_BUS1-MREQ)*%
X138600000Y-119100000D02*
X138500000Y-119000000D01*
X138600000Y-130000000D02*
X138600000Y-119100000D01*
%TO.N,Net-(Z80_BUS1-WR)*%
X140250000Y-129110000D02*
X140250000Y-115100000D01*
X141140000Y-130000000D02*
X140250000Y-129110000D01*
%TO.N,Net-(Z80_BUS1-RD)*%
X141250000Y-127570000D02*
X141250000Y-114500000D01*
X143680000Y-130000000D02*
X141250000Y-127570000D01*
%TO.N,/D3*%
X157750000Y-120897100D02*
X157750000Y-119500000D01*
X159000000Y-122147100D02*
X157750000Y-120897100D01*
X159000000Y-127380000D02*
X159000000Y-122147100D01*
X156380000Y-130000000D02*
X159000000Y-127380000D01*
%TO.N,/D4*%
X160500000Y-121250000D02*
X160500000Y-119000000D01*
X161521000Y-122271000D02*
X160500000Y-121250000D01*
X161521000Y-127399000D02*
X161521000Y-122271000D01*
X158920000Y-130000000D02*
X161521000Y-127399000D01*
%TO.N,/D5*%
X163250000Y-121394950D02*
X163250000Y-118500000D01*
X164399000Y-127061000D02*
X164399000Y-122543950D01*
X164399000Y-122543950D02*
X163250000Y-121394950D01*
X161460000Y-130000000D02*
X164399000Y-127061000D01*
%TO.N,/D6*%
X166000000Y-121527100D02*
X166000000Y-118000000D01*
X166601000Y-122128100D02*
X166000000Y-121527100D01*
X166601000Y-127399000D02*
X166601000Y-122128100D01*
X164000000Y-130000000D02*
X166601000Y-127399000D01*
%TO.N,Net-(Z80_BUS1-SPARE1)*%
X176000000Y-121782950D02*
X176000000Y-120250000D01*
X176761000Y-122543950D02*
X176000000Y-121782950D01*
X176761000Y-127399000D02*
X176761000Y-122543950D01*
X174160000Y-130000000D02*
X176761000Y-127399000D01*
%TO.N,/D7*%
X166540000Y-130000000D02*
X169141000Y-127399000D01*
X169141000Y-127399000D02*
X169141000Y-122543950D01*
X169141000Y-122543950D02*
X168040000Y-121442950D01*
X168040000Y-121442950D02*
X168040000Y-107760000D01*
%TO.N,/A14*%
X145180000Y-103500000D02*
X144079000Y-104601000D01*
X144079000Y-121899000D02*
X145180000Y-123000000D01*
X144079000Y-111750000D02*
X144079000Y-121899000D01*
%TO.N,/A12*%
X147720000Y-103500000D02*
X146619000Y-104601000D01*
X146619000Y-104601000D02*
X146619000Y-121899000D01*
X146619000Y-121899000D02*
X147720000Y-123000000D01*
%TO.N,/A7*%
X150260000Y-103500000D02*
X150260000Y-106202950D01*
X150260000Y-106202950D02*
X149159000Y-107303950D01*
X149159000Y-107303950D02*
X149159000Y-121899000D01*
X149159000Y-121899000D02*
X150260000Y-123000000D01*
%TO.N,/A6*%
X152800000Y-103500000D02*
X152800000Y-106202950D01*
X151699000Y-107303950D02*
X151699000Y-121899000D01*
X152800000Y-106202950D02*
X151699000Y-107303950D01*
X151699000Y-121899000D02*
X152800000Y-123000000D01*
%TO.N,/A5*%
X155340000Y-103500000D02*
X155340000Y-106202950D01*
X155340000Y-106202950D02*
X154239000Y-107303950D01*
X154239000Y-107303950D02*
X154239000Y-121899000D01*
X154239000Y-121899000D02*
X155340000Y-123000000D01*
%TO.N,/A4*%
X157880000Y-103500000D02*
X157880000Y-106202950D01*
X156779000Y-107303950D02*
X156779000Y-121899000D01*
X157880000Y-106202950D02*
X156779000Y-107303950D01*
X156779000Y-121899000D02*
X157880000Y-123000000D01*
%TO.N,/A3*%
X160420000Y-103500000D02*
X160420000Y-106202950D01*
X160420000Y-106202950D02*
X159319000Y-107303950D01*
X159319000Y-107303950D02*
X159319000Y-121899000D01*
X159319000Y-121899000D02*
X160420000Y-123000000D01*
%TO.N,/A2*%
X162960000Y-103500000D02*
X162960000Y-106202950D01*
X162960000Y-106202950D02*
X161859000Y-107303950D01*
X161859000Y-107303950D02*
X161859000Y-121899000D01*
X161859000Y-121899000D02*
X162960000Y-123000000D01*
%TO.N,/A1*%
X165500000Y-103500000D02*
X165500000Y-106202950D01*
X164399000Y-107303950D02*
X164399000Y-121899000D01*
X165500000Y-106202950D02*
X164399000Y-107303950D01*
X164399000Y-121899000D02*
X165500000Y-123000000D01*
%TO.N,/A0*%
X168040000Y-103500000D02*
X166939000Y-104601000D01*
X166939000Y-104601000D02*
X166939000Y-121899000D01*
X166939000Y-121899000D02*
X168040000Y-123000000D01*
%TO.N,/D0*%
X170580000Y-103500000D02*
X170580000Y-106202950D01*
X169479000Y-107303950D02*
X169479000Y-121899000D01*
X170580000Y-106202950D02*
X169479000Y-107303950D01*
X169479000Y-121899000D02*
X170580000Y-123000000D01*
%TO.N,/D1*%
X173120000Y-103500000D02*
X173120000Y-106202950D01*
X173120000Y-106202950D02*
X172019000Y-107303950D01*
X172019000Y-107303950D02*
X172019000Y-121899000D01*
X172019000Y-121899000D02*
X173120000Y-123000000D01*
%TO.N,/D2*%
X175660000Y-103500000D02*
X175660000Y-106202950D01*
X175660000Y-106202950D02*
X174559000Y-107303950D01*
X174559000Y-107303950D02*
X174559000Y-121899000D01*
X174559000Y-121899000D02*
X175660000Y-123000000D01*
%TO.N,GND*%
X177099000Y-107303950D02*
X177099000Y-121899000D01*
X177099000Y-121899000D02*
X178200000Y-123000000D01*
%TO.N,MEMWR*%
X147720000Y-88260000D02*
X148821000Y-89361000D01*
X148821000Y-89361000D02*
X148821000Y-106659000D01*
X148821000Y-106659000D02*
X147720000Y-107760000D01*
%TO.N,/A13*%
X150260000Y-88260000D02*
X151361000Y-89361000D01*
X151361000Y-89361000D02*
X151361000Y-106659000D01*
X151361000Y-106659000D02*
X150260000Y-107760000D01*
%TO.N,/A8*%
X152800000Y-88260000D02*
X153901000Y-89361000D01*
X153901000Y-89361000D02*
X153901000Y-106659000D01*
X153901000Y-106659000D02*
X152800000Y-107760000D01*
%TO.N,/A9*%
X155340000Y-88260000D02*
X156441000Y-89361000D01*
X156441000Y-89361000D02*
X156441000Y-106659000D01*
X156441000Y-106659000D02*
X155340000Y-107760000D01*
%TO.N,/A11*%
X157880000Y-88260000D02*
X158981000Y-89361000D01*
X158981000Y-106659000D02*
X157880000Y-107760000D01*
X158981000Y-89361000D02*
X158981000Y-106659000D01*
%TO.N,MEMRD*%
X160420000Y-88260000D02*
X161521000Y-89361000D01*
X161521000Y-89361000D02*
X161521000Y-106659000D01*
X161521000Y-106659000D02*
X160420000Y-107760000D01*
%TO.N,/A10*%
X162960000Y-88260000D02*
X164061000Y-89361000D01*
X164061000Y-89361000D02*
X164061000Y-106659000D01*
X164061000Y-106659000D02*
X162960000Y-107760000D01*
%TO.N,/D7*%
X168040000Y-88260000D02*
X169141000Y-89361000D01*
X169141000Y-89361000D02*
X169141000Y-106659000D01*
X169141000Y-106659000D02*
X168040000Y-107760000D01*
%TO.N,/D6*%
X170580000Y-88260000D02*
X171681000Y-89361000D01*
X171681000Y-89361000D02*
X171681000Y-106659000D01*
X171681000Y-106659000D02*
X170580000Y-107760000D01*
%TO.N,/D5*%
X173120000Y-88260000D02*
X174221000Y-89361000D01*
X174221000Y-89361000D02*
X174221000Y-106659000D01*
X174221000Y-106659000D02*
X173120000Y-107760000D01*
%TO.N,/D3*%
X178200000Y-88260000D02*
X179301000Y-89361000D01*
X179301000Y-89361000D02*
X179301000Y-106659000D01*
X179301000Y-106659000D02*
X178200000Y-107760000D01*
%TD*%
%TA.AperFunction,Conductor*%
%TO.N,GND*%
G36*
X110250129Y-104620185D02*
G01*
X110295884Y-104672989D01*
X110305828Y-104742147D01*
X110276803Y-104805703D01*
X110239385Y-104834985D01*
X110085800Y-104913240D01*
X109998579Y-104976610D01*
X109932927Y-105024310D01*
X109932925Y-105024312D01*
X109932924Y-105024312D01*
X109799312Y-105157924D01*
X109799312Y-105157925D01*
X109799310Y-105157927D01*
X109751610Y-105223579D01*
X109688240Y-105310800D01*
X109602454Y-105479163D01*
X109544059Y-105658881D01*
X109514500Y-105845513D01*
X109514500Y-106034486D01*
X109544059Y-106221118D01*
X109602454Y-106400836D01*
X109658223Y-106510288D01*
X109688240Y-106569199D01*
X109799310Y-106722073D01*
X109932927Y-106855690D01*
X110085801Y-106966760D01*
X110139716Y-106994231D01*
X110254163Y-107052545D01*
X110254165Y-107052545D01*
X110254168Y-107052547D01*
X110333698Y-107078388D01*
X110433881Y-107110940D01*
X110620514Y-107140500D01*
X110620519Y-107140500D01*
X110809486Y-107140500D01*
X110996118Y-107110940D01*
X110997623Y-107110451D01*
X111175832Y-107052547D01*
X111344199Y-106966760D01*
X111370182Y-106947882D01*
X112560669Y-106947882D01*
X112560670Y-106947883D01*
X112586059Y-106966329D01*
X112754362Y-107052085D01*
X112933997Y-107110451D01*
X113120553Y-107140000D01*
X113309447Y-107140000D01*
X113496002Y-107110451D01*
X113675637Y-107052085D01*
X113843937Y-106966331D01*
X113869328Y-106947883D01*
X113869328Y-106947882D01*
X113215001Y-106293554D01*
X113215000Y-106293554D01*
X112560669Y-106947882D01*
X111370182Y-106947882D01*
X111497073Y-106855690D01*
X111630690Y-106722073D01*
X111741760Y-106569199D01*
X111827547Y-106400832D01*
X111847332Y-106339938D01*
X111886768Y-106282266D01*
X111951126Y-106255067D01*
X112019973Y-106266981D01*
X112071449Y-106314225D01*
X112083193Y-106339941D01*
X112102914Y-106400637D01*
X112188666Y-106568933D01*
X112207116Y-106594328D01*
X112861446Y-105940000D01*
X112861446Y-105939999D01*
X112815369Y-105893922D01*
X112865000Y-105893922D01*
X112865000Y-105986078D01*
X112888852Y-106075095D01*
X112934930Y-106154905D01*
X113000095Y-106220070D01*
X113079905Y-106266148D01*
X113168922Y-106290000D01*
X113261078Y-106290000D01*
X113350095Y-106266148D01*
X113429905Y-106220070D01*
X113495070Y-106154905D01*
X113541148Y-106075095D01*
X113565000Y-105986078D01*
X113565000Y-105939999D01*
X113568554Y-105939999D01*
X113568554Y-105940000D01*
X114222882Y-106594328D01*
X114222883Y-106594328D01*
X114241331Y-106568937D01*
X114327085Y-106400637D01*
X114385451Y-106221002D01*
X114415000Y-106034447D01*
X114415000Y-105845552D01*
X114385451Y-105658997D01*
X114327085Y-105479362D01*
X114241329Y-105311059D01*
X114222883Y-105285670D01*
X114222882Y-105285669D01*
X113568554Y-105939999D01*
X113565000Y-105939999D01*
X113565000Y-105893922D01*
X113541148Y-105804905D01*
X113495070Y-105725095D01*
X113429905Y-105659930D01*
X113350095Y-105613852D01*
X113261078Y-105590000D01*
X113168922Y-105590000D01*
X113079905Y-105613852D01*
X113000095Y-105659930D01*
X112934930Y-105725095D01*
X112888852Y-105804905D01*
X112865000Y-105893922D01*
X112815369Y-105893922D01*
X112207116Y-105285669D01*
X112207116Y-105285670D01*
X112188669Y-105311060D01*
X112102915Y-105479361D01*
X112083193Y-105540059D01*
X112043755Y-105597734D01*
X111979396Y-105624932D01*
X111910550Y-105613017D01*
X111859074Y-105565773D01*
X111847332Y-105540061D01*
X111827547Y-105479168D01*
X111741760Y-105310801D01*
X111630690Y-105157927D01*
X111497073Y-105024310D01*
X111344199Y-104913240D01*
X111270081Y-104875475D01*
X111190615Y-104834985D01*
X111139819Y-104787010D01*
X111123024Y-104719189D01*
X111145561Y-104653054D01*
X111200277Y-104609603D01*
X111246910Y-104600500D01*
X112684191Y-104600500D01*
X112751230Y-104620185D01*
X112796985Y-104672989D01*
X112806929Y-104742147D01*
X112777904Y-104805703D01*
X112740486Y-104834984D01*
X112586065Y-104913666D01*
X112560670Y-104932116D01*
X112560669Y-104932116D01*
X113215000Y-105586446D01*
X113215001Y-105586446D01*
X113869328Y-104932116D01*
X113843933Y-104913666D01*
X113689514Y-104834985D01*
X113638718Y-104787010D01*
X113621923Y-104719189D01*
X113644461Y-104653054D01*
X113699176Y-104609603D01*
X113745809Y-104600500D01*
X118575500Y-104600500D01*
X118642539Y-104620185D01*
X118688294Y-104672989D01*
X118699500Y-104724500D01*
X118699500Y-104828846D01*
X118730261Y-104983489D01*
X118730264Y-104983501D01*
X118790602Y-105129172D01*
X118790609Y-105129185D01*
X118878210Y-105260288D01*
X118878213Y-105260292D01*
X118989710Y-105371789D01*
X119061560Y-105419797D01*
X119120821Y-105459394D01*
X119131046Y-105463629D01*
X119171273Y-105490508D01*
X120925518Y-107244753D01*
X120959003Y-107306076D01*
X120954019Y-107375768D01*
X120912147Y-107431701D01*
X120857236Y-107454907D01*
X120815464Y-107461523D01*
X120620776Y-107524781D01*
X120438386Y-107617715D01*
X120272786Y-107738028D01*
X120128028Y-107882786D01*
X120007715Y-108048386D01*
X119960485Y-108141080D01*
X119912510Y-108191876D01*
X119844689Y-108208671D01*
X119778554Y-108186134D01*
X119739515Y-108141080D01*
X119722991Y-108108650D01*
X119692287Y-108048390D01*
X119651402Y-107992116D01*
X119571971Y-107882786D01*
X119427213Y-107738028D01*
X119261613Y-107617715D01*
X119261612Y-107617714D01*
X119261610Y-107617713D01*
X119196979Y-107584782D01*
X119079223Y-107524781D01*
X118884534Y-107461522D01*
X118696248Y-107431701D01*
X118682352Y-107429500D01*
X118477648Y-107429500D01*
X118463752Y-107431701D01*
X118275465Y-107461522D01*
X118080776Y-107524781D01*
X117898386Y-107617715D01*
X117732786Y-107738028D01*
X117588028Y-107882786D01*
X117467713Y-108048388D01*
X117420203Y-108141630D01*
X117372228Y-108192426D01*
X117304407Y-108209220D01*
X117238272Y-108186682D01*
X117199234Y-108141628D01*
X117151861Y-108048652D01*
X117031582Y-107883105D01*
X117031582Y-107883104D01*
X116886895Y-107738417D01*
X116721349Y-107618140D01*
X116539029Y-107525244D01*
X116344413Y-107462009D01*
X116290000Y-107453390D01*
X116290000Y-108814314D01*
X116285606Y-108809920D01*
X116194394Y-108757259D01*
X116092661Y-108730000D01*
X115987339Y-108730000D01*
X115885606Y-108757259D01*
X115794394Y-108809920D01*
X115790000Y-108814314D01*
X115790000Y-107453390D01*
X115735586Y-107462009D01*
X115540970Y-107525244D01*
X115358650Y-107618140D01*
X115193105Y-107738417D01*
X115193104Y-107738417D01*
X115048417Y-107883104D01*
X115048417Y-107883105D01*
X114928140Y-108048650D01*
X114880485Y-108142179D01*
X114832510Y-108192975D01*
X114764689Y-108209770D01*
X114698554Y-108187232D01*
X114659515Y-108142179D01*
X114611859Y-108048650D01*
X114491582Y-107883105D01*
X114491582Y-107883104D01*
X114346895Y-107738417D01*
X114181349Y-107618140D01*
X113999029Y-107525244D01*
X113804413Y-107462009D01*
X113750000Y-107453390D01*
X113750000Y-108814314D01*
X113745606Y-108809920D01*
X113654394Y-108757259D01*
X113552661Y-108730000D01*
X113447339Y-108730000D01*
X113345606Y-108757259D01*
X113254394Y-108809920D01*
X113250000Y-108814314D01*
X113250000Y-107453390D01*
X113195586Y-107462009D01*
X113000970Y-107525244D01*
X112818650Y-107618140D01*
X112653105Y-107738417D01*
X112653104Y-107738417D01*
X112508417Y-107883104D01*
X112508417Y-107883105D01*
X112388140Y-108048650D01*
X112340765Y-108141629D01*
X112292790Y-108192425D01*
X112224969Y-108209220D01*
X112158834Y-108186682D01*
X112119795Y-108141629D01*
X112102991Y-108108650D01*
X112072287Y-108048390D01*
X112031402Y-107992116D01*
X111951971Y-107882786D01*
X111807213Y-107738028D01*
X111641613Y-107617715D01*
X111641612Y-107617714D01*
X111641610Y-107617713D01*
X111576979Y-107584782D01*
X111459223Y-107524781D01*
X111264534Y-107461522D01*
X111076248Y-107431701D01*
X111062352Y-107429500D01*
X110857648Y-107429500D01*
X110843752Y-107431701D01*
X110655465Y-107461522D01*
X110460776Y-107524781D01*
X110278386Y-107617715D01*
X110112786Y-107738028D01*
X109968028Y-107882786D01*
X109847715Y-108048386D01*
X109754781Y-108230776D01*
X109691522Y-108425465D01*
X109659500Y-108627648D01*
X109659500Y-109632351D01*
X109691522Y-109834534D01*
X109754781Y-110029223D01*
X109804894Y-110127574D01*
X109841797Y-110200000D01*
X109847715Y-110211613D01*
X109968028Y-110377213D01*
X110112786Y-110521971D01*
X110267749Y-110634556D01*
X110278390Y-110642287D01*
X110394241Y-110701316D01*
X110460776Y-110735218D01*
X110460778Y-110735218D01*
X110460781Y-110735220D01*
X110529838Y-110757658D01*
X110655465Y-110798477D01*
X110756557Y-110814488D01*
X110857648Y-110830500D01*
X110857649Y-110830500D01*
X111062351Y-110830500D01*
X111062352Y-110830500D01*
X111264534Y-110798477D01*
X111459219Y-110735220D01*
X111641610Y-110642287D01*
X111734590Y-110574732D01*
X111807213Y-110521971D01*
X111807215Y-110521968D01*
X111807219Y-110521966D01*
X111951966Y-110377219D01*
X111951968Y-110377215D01*
X111951971Y-110377213D01*
X112072284Y-110211614D01*
X112072286Y-110211611D01*
X112072287Y-110211610D01*
X112119795Y-110118369D01*
X112167770Y-110067574D01*
X112235591Y-110050779D01*
X112301725Y-110073316D01*
X112340765Y-110118370D01*
X112388140Y-110211349D01*
X112508417Y-110376894D01*
X112508417Y-110376895D01*
X112653104Y-110521582D01*
X112818650Y-110641859D01*
X113000968Y-110734754D01*
X113195578Y-110797988D01*
X113250000Y-110806607D01*
X113250000Y-109445686D01*
X113254394Y-109450080D01*
X113345606Y-109502741D01*
X113447339Y-109530000D01*
X113552661Y-109530000D01*
X113654394Y-109502741D01*
X113745606Y-109450080D01*
X113750000Y-109445686D01*
X113750000Y-110806606D01*
X113804421Y-110797988D01*
X113999031Y-110734754D01*
X114181349Y-110641859D01*
X114346894Y-110521582D01*
X114346895Y-110521582D01*
X114491582Y-110376895D01*
X114491582Y-110376894D01*
X114611859Y-110211349D01*
X114659515Y-110117820D01*
X114707489Y-110067024D01*
X114775310Y-110050229D01*
X114841445Y-110072766D01*
X114880485Y-110117820D01*
X114928140Y-110211349D01*
X115048417Y-110376894D01*
X115048417Y-110376895D01*
X115193104Y-110521582D01*
X115358650Y-110641859D01*
X115540968Y-110734754D01*
X115735578Y-110797988D01*
X115790000Y-110806607D01*
X115790000Y-109445686D01*
X115794394Y-109450080D01*
X115885606Y-109502741D01*
X115987339Y-109530000D01*
X116092661Y-109530000D01*
X116194394Y-109502741D01*
X116285606Y-109450080D01*
X116290000Y-109445686D01*
X116290000Y-110806606D01*
X116344421Y-110797988D01*
X116539031Y-110734754D01*
X116721349Y-110641859D01*
X116886894Y-110521582D01*
X116886895Y-110521582D01*
X117031582Y-110376895D01*
X117031582Y-110376894D01*
X117151861Y-110211347D01*
X117199234Y-110118371D01*
X117247208Y-110067575D01*
X117315028Y-110050779D01*
X117381164Y-110073316D01*
X117420203Y-110118369D01*
X117467713Y-110211611D01*
X117588028Y-110377213D01*
X117732786Y-110521971D01*
X117887749Y-110634556D01*
X117898390Y-110642287D01*
X118014241Y-110701316D01*
X118080776Y-110735218D01*
X118080778Y-110735218D01*
X118080781Y-110735220D01*
X118149838Y-110757658D01*
X118275465Y-110798477D01*
X118376557Y-110814488D01*
X118477648Y-110830500D01*
X118477649Y-110830500D01*
X118682351Y-110830500D01*
X118682352Y-110830500D01*
X118884534Y-110798477D01*
X119079219Y-110735220D01*
X119261610Y-110642287D01*
X119354590Y-110574732D01*
X119427213Y-110521971D01*
X119427215Y-110521968D01*
X119427219Y-110521966D01*
X119571966Y-110377219D01*
X119571968Y-110377215D01*
X119571971Y-110377213D01*
X119692284Y-110211614D01*
X119692286Y-110211611D01*
X119692287Y-110211610D01*
X119739516Y-110118917D01*
X119787489Y-110068123D01*
X119855310Y-110051328D01*
X119921445Y-110073865D01*
X119960483Y-110118917D01*
X119990777Y-110178371D01*
X120007715Y-110211614D01*
X120128028Y-110377213D01*
X120272786Y-110521971D01*
X120427749Y-110634556D01*
X120438390Y-110642287D01*
X120554241Y-110701316D01*
X120620776Y-110735218D01*
X120620778Y-110735218D01*
X120620781Y-110735220D01*
X120689838Y-110757658D01*
X120815465Y-110798477D01*
X120916557Y-110814488D01*
X121017648Y-110830500D01*
X121017649Y-110830500D01*
X121222351Y-110830500D01*
X121222352Y-110830500D01*
X121424534Y-110798477D01*
X121619219Y-110735220D01*
X121801610Y-110642287D01*
X121894590Y-110574732D01*
X121967213Y-110521971D01*
X121967215Y-110521968D01*
X121967219Y-110521966D01*
X122111966Y-110377219D01*
X122111968Y-110377215D01*
X122111971Y-110377213D01*
X122232284Y-110211614D01*
X122232286Y-110211611D01*
X122232287Y-110211610D01*
X122279516Y-110118917D01*
X122327489Y-110068123D01*
X122395310Y-110051328D01*
X122461445Y-110073865D01*
X122500483Y-110118917D01*
X122530777Y-110178371D01*
X122547715Y-110211614D01*
X122668028Y-110377213D01*
X122812786Y-110521971D01*
X122967749Y-110634556D01*
X122978390Y-110642287D01*
X123094241Y-110701316D01*
X123160776Y-110735218D01*
X123160778Y-110735218D01*
X123160781Y-110735220D01*
X123229838Y-110757658D01*
X123355465Y-110798477D01*
X123456557Y-110814488D01*
X123557648Y-110830500D01*
X123557649Y-110830500D01*
X123762351Y-110830500D01*
X123762352Y-110830500D01*
X123964534Y-110798477D01*
X124159219Y-110735220D01*
X124341610Y-110642287D01*
X124434590Y-110574732D01*
X124507213Y-110521971D01*
X124507215Y-110521968D01*
X124507219Y-110521966D01*
X124651966Y-110377219D01*
X124651968Y-110377215D01*
X124651971Y-110377213D01*
X124772284Y-110211614D01*
X124772286Y-110211611D01*
X124772287Y-110211610D01*
X124819516Y-110118917D01*
X124867489Y-110068123D01*
X124935310Y-110051328D01*
X125001445Y-110073865D01*
X125040483Y-110118917D01*
X125070777Y-110178371D01*
X125087715Y-110211614D01*
X125208028Y-110377213D01*
X125352786Y-110521971D01*
X125507749Y-110634556D01*
X125518390Y-110642287D01*
X125634241Y-110701316D01*
X125700776Y-110735218D01*
X125700778Y-110735218D01*
X125700781Y-110735220D01*
X125769838Y-110757658D01*
X125895465Y-110798477D01*
X125996557Y-110814488D01*
X126097648Y-110830500D01*
X126097649Y-110830500D01*
X126302351Y-110830500D01*
X126302352Y-110830500D01*
X126504534Y-110798477D01*
X126699219Y-110735220D01*
X126881610Y-110642287D01*
X126974590Y-110574732D01*
X127047213Y-110521971D01*
X127047215Y-110521968D01*
X127047219Y-110521966D01*
X127191966Y-110377219D01*
X127275181Y-110262681D01*
X127330511Y-110220016D01*
X127400125Y-110214037D01*
X127461920Y-110246642D01*
X127496277Y-110307481D01*
X127499500Y-110335567D01*
X127499500Y-115545282D01*
X127479815Y-115612321D01*
X127427011Y-115658076D01*
X127357853Y-115668020D01*
X127294297Y-115638995D01*
X127275182Y-115618168D01*
X127191582Y-115503105D01*
X127191582Y-115503104D01*
X127046895Y-115358417D01*
X126881349Y-115238140D01*
X126699029Y-115145244D01*
X126504413Y-115082009D01*
X126450000Y-115073390D01*
X126450000Y-116434314D01*
X126445606Y-116429920D01*
X126354394Y-116377259D01*
X126252661Y-116350000D01*
X126147339Y-116350000D01*
X126045606Y-116377259D01*
X125954394Y-116429920D01*
X125950000Y-116434314D01*
X125950000Y-115073390D01*
X125895586Y-115082009D01*
X125700970Y-115145244D01*
X125518650Y-115238140D01*
X125353105Y-115358417D01*
X125353104Y-115358417D01*
X125208417Y-115503104D01*
X125208417Y-115503105D01*
X125088140Y-115668650D01*
X125040765Y-115761629D01*
X124992790Y-115812425D01*
X124924969Y-115829220D01*
X124858834Y-115806682D01*
X124819795Y-115761629D01*
X124802991Y-115728650D01*
X124772287Y-115668390D01*
X124751019Y-115639117D01*
X124651971Y-115502786D01*
X124507213Y-115358028D01*
X124341613Y-115237715D01*
X124341612Y-115237714D01*
X124341610Y-115237713D01*
X124276979Y-115204782D01*
X124159223Y-115144781D01*
X123964534Y-115081522D01*
X123789995Y-115053878D01*
X123762352Y-115049500D01*
X123557648Y-115049500D01*
X123533329Y-115053351D01*
X123355465Y-115081522D01*
X123160776Y-115144781D01*
X122978386Y-115237715D01*
X122812786Y-115358028D01*
X122668028Y-115502786D01*
X122547715Y-115668386D01*
X122500485Y-115761080D01*
X122452510Y-115811876D01*
X122384689Y-115828671D01*
X122318554Y-115806134D01*
X122279515Y-115761080D01*
X122262991Y-115728650D01*
X122232287Y-115668390D01*
X122211019Y-115639117D01*
X122111971Y-115502786D01*
X121967213Y-115358028D01*
X121801613Y-115237715D01*
X121801612Y-115237714D01*
X121801610Y-115237713D01*
X121736979Y-115204782D01*
X121619223Y-115144781D01*
X121424534Y-115081522D01*
X121249995Y-115053878D01*
X121222352Y-115049500D01*
X121017648Y-115049500D01*
X120993329Y-115053351D01*
X120815465Y-115081522D01*
X120620776Y-115144781D01*
X120438386Y-115237715D01*
X120272786Y-115358028D01*
X120128028Y-115502786D01*
X120007715Y-115668386D01*
X119960485Y-115761080D01*
X119912510Y-115811876D01*
X119844689Y-115828671D01*
X119778554Y-115806134D01*
X119739515Y-115761080D01*
X119722991Y-115728650D01*
X119692287Y-115668390D01*
X119671019Y-115639117D01*
X119571971Y-115502786D01*
X119427213Y-115358028D01*
X119261613Y-115237715D01*
X119261612Y-115237714D01*
X119261610Y-115237713D01*
X119196979Y-115204782D01*
X119079223Y-115144781D01*
X118884534Y-115081522D01*
X118709995Y-115053878D01*
X118682352Y-115049500D01*
X118477648Y-115049500D01*
X118453329Y-115053351D01*
X118275465Y-115081522D01*
X118080776Y-115144781D01*
X117898386Y-115237715D01*
X117732786Y-115358028D01*
X117588028Y-115502786D01*
X117467715Y-115668386D01*
X117420485Y-115761080D01*
X117372510Y-115811876D01*
X117304689Y-115828671D01*
X117238554Y-115806134D01*
X117199515Y-115761080D01*
X117182991Y-115728650D01*
X117152287Y-115668390D01*
X117131019Y-115639117D01*
X117031971Y-115502786D01*
X116887213Y-115358028D01*
X116721613Y-115237715D01*
X116721612Y-115237714D01*
X116721610Y-115237713D01*
X116656979Y-115204782D01*
X116539223Y-115144781D01*
X116344534Y-115081522D01*
X116169995Y-115053878D01*
X116142352Y-115049500D01*
X115937648Y-115049500D01*
X115913329Y-115053351D01*
X115735465Y-115081522D01*
X115540776Y-115144781D01*
X115358386Y-115237715D01*
X115192786Y-115358028D01*
X115048028Y-115502786D01*
X114927715Y-115668386D01*
X114880485Y-115761080D01*
X114832510Y-115811876D01*
X114764689Y-115828671D01*
X114698554Y-115806134D01*
X114659515Y-115761080D01*
X114642991Y-115728650D01*
X114612287Y-115668390D01*
X114591019Y-115639117D01*
X114491971Y-115502786D01*
X114347213Y-115358028D01*
X114181613Y-115237715D01*
X114181612Y-115237714D01*
X114181610Y-115237713D01*
X114116979Y-115204782D01*
X113999223Y-115144781D01*
X113804534Y-115081522D01*
X113629995Y-115053878D01*
X113602352Y-115049500D01*
X113397648Y-115049500D01*
X113373329Y-115053351D01*
X113195465Y-115081522D01*
X113000776Y-115144781D01*
X112818386Y-115237715D01*
X112652786Y-115358028D01*
X112508032Y-115502782D01*
X112508028Y-115502787D01*
X112439978Y-115596451D01*
X112384648Y-115639117D01*
X112315035Y-115645096D01*
X112253240Y-115612490D01*
X112221954Y-115562570D01*
X112221607Y-115561522D01*
X112194814Y-115480666D01*
X112102712Y-115331344D01*
X111978656Y-115207288D01*
X111858848Y-115133390D01*
X111829336Y-115115187D01*
X111829331Y-115115185D01*
X111812175Y-115109500D01*
X111662797Y-115060001D01*
X111662795Y-115060000D01*
X111560010Y-115049500D01*
X110359998Y-115049500D01*
X110359981Y-115049501D01*
X110257203Y-115060000D01*
X110257200Y-115060001D01*
X110090668Y-115115185D01*
X110090663Y-115115187D01*
X109941342Y-115207289D01*
X109817289Y-115331342D01*
X109725187Y-115480663D01*
X109725186Y-115480666D01*
X109670001Y-115647203D01*
X109670001Y-115647204D01*
X109670000Y-115647204D01*
X109659500Y-115749983D01*
X109659500Y-117750001D01*
X109659501Y-117750018D01*
X109670000Y-117852796D01*
X109670001Y-117852799D01*
X109725185Y-118019331D01*
X109725187Y-118019336D01*
X109760069Y-118075888D01*
X109817288Y-118168656D01*
X109941344Y-118292712D01*
X110090666Y-118384814D01*
X110257203Y-118439999D01*
X110257209Y-118439999D01*
X110261448Y-118440907D01*
X110288604Y-118455616D01*
X110316703Y-118468449D01*
X110319057Y-118472112D01*
X110322884Y-118474185D01*
X110337775Y-118501238D01*
X110354477Y-118527227D01*
X110355324Y-118533120D01*
X110356576Y-118535394D01*
X110359500Y-118562162D01*
X110359500Y-118623330D01*
X110359499Y-118623348D01*
X110359499Y-118789054D01*
X110359498Y-118789054D01*
X110400423Y-118941785D01*
X110418365Y-118972861D01*
X110418364Y-118972861D01*
X110418365Y-118972862D01*
X110479475Y-119078709D01*
X110479481Y-119078717D01*
X110598349Y-119197585D01*
X110598355Y-119197590D01*
X111015139Y-119614374D01*
X111015149Y-119614385D01*
X111019479Y-119618715D01*
X111019480Y-119618716D01*
X111131284Y-119730520D01*
X111200341Y-119770389D01*
X111218095Y-119780639D01*
X111218097Y-119780641D01*
X111268213Y-119809576D01*
X111268215Y-119809577D01*
X111420942Y-119850500D01*
X111420943Y-119850500D01*
X120413331Y-119850500D01*
X120413347Y-119850501D01*
X120420943Y-119850501D01*
X120579054Y-119850501D01*
X120579057Y-119850501D01*
X120731785Y-119809577D01*
X120781904Y-119780639D01*
X120868716Y-119730520D01*
X120980520Y-119618716D01*
X120980520Y-119618714D01*
X120990728Y-119608507D01*
X120990730Y-119608504D01*
X121478506Y-119120728D01*
X121478511Y-119120724D01*
X121488714Y-119110520D01*
X121488716Y-119110520D01*
X121600520Y-118998716D01*
X121679577Y-118861784D01*
X121720500Y-118709057D01*
X121720500Y-118379601D01*
X121740185Y-118312562D01*
X121788206Y-118269116D01*
X121801610Y-118262287D01*
X121967219Y-118141966D01*
X122111966Y-117997219D01*
X122111968Y-117997215D01*
X122111971Y-117997213D01*
X122232284Y-117831614D01*
X122232283Y-117831614D01*
X122232287Y-117831610D01*
X122279516Y-117738917D01*
X122327489Y-117688123D01*
X122395310Y-117671328D01*
X122461445Y-117693865D01*
X122500483Y-117738917D01*
X122530777Y-117798371D01*
X122547715Y-117831614D01*
X122668028Y-117997213D01*
X122812786Y-118141971D01*
X122956870Y-118246652D01*
X122978390Y-118262287D01*
X123059499Y-118303614D01*
X123160776Y-118355218D01*
X123160778Y-118355218D01*
X123160781Y-118355220D01*
X123245759Y-118382831D01*
X123355465Y-118418477D01*
X123456557Y-118434488D01*
X123557648Y-118450500D01*
X123557649Y-118450500D01*
X123762351Y-118450500D01*
X123762352Y-118450500D01*
X123964534Y-118418477D01*
X124159219Y-118355220D01*
X124341610Y-118262287D01*
X124470482Y-118168657D01*
X124507213Y-118141971D01*
X124507215Y-118141968D01*
X124507219Y-118141966D01*
X124651966Y-117997219D01*
X124651968Y-117997215D01*
X124651971Y-117997213D01*
X124772284Y-117831614D01*
X124772283Y-117831614D01*
X124772287Y-117831610D01*
X124819795Y-117738369D01*
X124867770Y-117687574D01*
X124935591Y-117670779D01*
X125001725Y-117693316D01*
X125040765Y-117738370D01*
X125088140Y-117831349D01*
X125208417Y-117996894D01*
X125208417Y-117996895D01*
X125353104Y-118141582D01*
X125518650Y-118261859D01*
X125700968Y-118354754D01*
X125895578Y-118417988D01*
X125950000Y-118426607D01*
X125950000Y-117065686D01*
X125954394Y-117070080D01*
X126045606Y-117122741D01*
X126147339Y-117150000D01*
X126252661Y-117150000D01*
X126354394Y-117122741D01*
X126445606Y-117070080D01*
X126450000Y-117065686D01*
X126450000Y-118426606D01*
X126504421Y-118417988D01*
X126699031Y-118354754D01*
X126881349Y-118261859D01*
X127046894Y-118141582D01*
X127046895Y-118141582D01*
X127191582Y-117996895D01*
X127275182Y-117881831D01*
X127330512Y-117839166D01*
X127400125Y-117833187D01*
X127461920Y-117865793D01*
X127496278Y-117926632D01*
X127499500Y-117954717D01*
X127499500Y-119284217D01*
X127479815Y-119351256D01*
X127463181Y-119371898D01*
X126405691Y-120429388D01*
X125362221Y-121472858D01*
X125362218Y-121472861D01*
X125325869Y-121509210D01*
X125222859Y-121612219D01*
X125113371Y-121776079D01*
X125113366Y-121776089D01*
X125082544Y-121850500D01*
X125065505Y-121891637D01*
X125060038Y-121904835D01*
X125037949Y-121958160D01*
X125037471Y-121960566D01*
X125033992Y-121978057D01*
X125025702Y-122019735D01*
X124999500Y-122151456D01*
X124999500Y-128939242D01*
X124979815Y-129006281D01*
X124963181Y-129026923D01*
X124869894Y-129120209D01*
X124869890Y-129120213D01*
X124744949Y-129292182D01*
X124740202Y-129301499D01*
X124692227Y-129352293D01*
X124624405Y-129369087D01*
X124558271Y-129346548D01*
X124519234Y-129301495D01*
X124514626Y-129292452D01*
X124475270Y-129238282D01*
X124475269Y-129238282D01*
X123842962Y-129870589D01*
X123825925Y-129807007D01*
X123760099Y-129692993D01*
X123667007Y-129599901D01*
X123552993Y-129534075D01*
X123489409Y-129517037D01*
X124121716Y-128884728D01*
X124067550Y-128845375D01*
X123878217Y-128748904D01*
X123676129Y-128683242D01*
X123466246Y-128650000D01*
X123253754Y-128650000D01*
X123043872Y-128683242D01*
X123043869Y-128683242D01*
X122841782Y-128748904D01*
X122652439Y-128845380D01*
X122598282Y-128884727D01*
X122598282Y-128884728D01*
X123230591Y-129517037D01*
X123167007Y-129534075D01*
X123052993Y-129599901D01*
X122959901Y-129692993D01*
X122894075Y-129807007D01*
X122877037Y-129870591D01*
X122244728Y-129238282D01*
X122244727Y-129238282D01*
X122205380Y-129292440D01*
X122205376Y-129292446D01*
X122200760Y-129301505D01*
X122152781Y-129352297D01*
X122084959Y-129369087D01*
X122018826Y-129346543D01*
X121979794Y-129301493D01*
X121975051Y-129292184D01*
X121975049Y-129292181D01*
X121975048Y-129292179D01*
X121850109Y-129120213D01*
X121699786Y-128969890D01*
X121527820Y-128844951D01*
X121338414Y-128748444D01*
X121338413Y-128748443D01*
X121338412Y-128748443D01*
X121136243Y-128682754D01*
X121136241Y-128682753D01*
X121136240Y-128682753D01*
X120974957Y-128657208D01*
X120926287Y-128649500D01*
X120713713Y-128649500D01*
X120665042Y-128657208D01*
X120503760Y-128682753D01*
X120301585Y-128748444D01*
X120112179Y-128844951D01*
X119940213Y-128969890D01*
X119789890Y-129120213D01*
X119664949Y-129292182D01*
X119660484Y-129300946D01*
X119612509Y-129351742D01*
X119544688Y-129368536D01*
X119478553Y-129345998D01*
X119439516Y-129300946D01*
X119435050Y-129292182D01*
X119310109Y-129120213D01*
X119159786Y-128969890D01*
X118987820Y-128844951D01*
X118798414Y-128748444D01*
X118798413Y-128748443D01*
X118798412Y-128748443D01*
X118596243Y-128682754D01*
X118596241Y-128682753D01*
X118596240Y-128682753D01*
X118434957Y-128657208D01*
X118386287Y-128649500D01*
X118173713Y-128649500D01*
X118125042Y-128657208D01*
X117963760Y-128682753D01*
X117761585Y-128748444D01*
X117572179Y-128844951D01*
X117400213Y-128969890D01*
X117249890Y-129120213D01*
X117124949Y-129292182D01*
X117120484Y-129300946D01*
X117072509Y-129351742D01*
X117004688Y-129368536D01*
X116938553Y-129345998D01*
X116899516Y-129300946D01*
X116895050Y-129292182D01*
X116770109Y-129120213D01*
X116619786Y-128969890D01*
X116447820Y-128844951D01*
X116258414Y-128748444D01*
X116258413Y-128748443D01*
X116258412Y-128748443D01*
X116056243Y-128682754D01*
X116056241Y-128682753D01*
X116056240Y-128682753D01*
X115894957Y-128657208D01*
X115846287Y-128649500D01*
X115633713Y-128649500D01*
X115585042Y-128657208D01*
X115423760Y-128682753D01*
X115221585Y-128748444D01*
X115032179Y-128844951D01*
X114860213Y-128969890D01*
X114709890Y-129120213D01*
X114584949Y-129292182D01*
X114580484Y-129300946D01*
X114532509Y-129351742D01*
X114464688Y-129368536D01*
X114398553Y-129345998D01*
X114359516Y-129300946D01*
X114355050Y-129292182D01*
X114230109Y-129120213D01*
X114079786Y-128969890D01*
X113907820Y-128844951D01*
X113718414Y-128748444D01*
X113718413Y-128748443D01*
X113718412Y-128748443D01*
X113516243Y-128682754D01*
X113516241Y-128682753D01*
X113516240Y-128682753D01*
X113354957Y-128657208D01*
X113306287Y-128649500D01*
X113093713Y-128649500D01*
X113045042Y-128657208D01*
X112883760Y-128682753D01*
X112681585Y-128748444D01*
X112492179Y-128844951D01*
X112320213Y-128969890D01*
X112169890Y-129120213D01*
X112044949Y-129292182D01*
X112040484Y-129300946D01*
X111992509Y-129351742D01*
X111924688Y-129368536D01*
X111858553Y-129345998D01*
X111819516Y-129300946D01*
X111815050Y-129292182D01*
X111690109Y-129120213D01*
X111539786Y-128969890D01*
X111367820Y-128844951D01*
X111178414Y-128748444D01*
X111178413Y-128748443D01*
X111178412Y-128748443D01*
X110976243Y-128682754D01*
X110976241Y-128682753D01*
X110976240Y-128682753D01*
X110814957Y-128657208D01*
X110766287Y-128649500D01*
X110553713Y-128649500D01*
X110505042Y-128657208D01*
X110343760Y-128682753D01*
X110141585Y-128748444D01*
X109952179Y-128844951D01*
X109780213Y-128969890D01*
X109629890Y-129120213D01*
X109504949Y-129292182D01*
X109500484Y-129300946D01*
X109452509Y-129351742D01*
X109384688Y-129368536D01*
X109318553Y-129345998D01*
X109279516Y-129300946D01*
X109275050Y-129292182D01*
X109150109Y-129120213D01*
X108999786Y-128969890D01*
X108827820Y-128844951D01*
X108638414Y-128748444D01*
X108638413Y-128748443D01*
X108638412Y-128748443D01*
X108436243Y-128682754D01*
X108436241Y-128682753D01*
X108436240Y-128682753D01*
X108274957Y-128657208D01*
X108226287Y-128649500D01*
X108013713Y-128649500D01*
X107965042Y-128657208D01*
X107803760Y-128682753D01*
X107601585Y-128748444D01*
X107412179Y-128844951D01*
X107240213Y-128969890D01*
X107089890Y-129120213D01*
X106964949Y-129292182D01*
X106960484Y-129300946D01*
X106912509Y-129351742D01*
X106844688Y-129368536D01*
X106778553Y-129345998D01*
X106739516Y-129300946D01*
X106735050Y-129292182D01*
X106610109Y-129120213D01*
X106459786Y-128969890D01*
X106287820Y-128844951D01*
X106098414Y-128748444D01*
X106098413Y-128748443D01*
X106098412Y-128748443D01*
X105896243Y-128682754D01*
X105896241Y-128682753D01*
X105896240Y-128682753D01*
X105734957Y-128657208D01*
X105686287Y-128649500D01*
X105473713Y-128649500D01*
X105425042Y-128657208D01*
X105263760Y-128682753D01*
X105061585Y-128748444D01*
X104872179Y-128844951D01*
X104700213Y-128969890D01*
X104549890Y-129120213D01*
X104424949Y-129292182D01*
X104420484Y-129300946D01*
X104372509Y-129351742D01*
X104304688Y-129368536D01*
X104238553Y-129345998D01*
X104199516Y-129300946D01*
X104195050Y-129292182D01*
X104070109Y-129120213D01*
X103919786Y-128969890D01*
X103747820Y-128844951D01*
X103558414Y-128748444D01*
X103558413Y-128748443D01*
X103558412Y-128748443D01*
X103356243Y-128682754D01*
X103356241Y-128682753D01*
X103356240Y-128682753D01*
X103194957Y-128657208D01*
X103146287Y-128649500D01*
X102933713Y-128649500D01*
X102885042Y-128657208D01*
X102723760Y-128682753D01*
X102521585Y-128748444D01*
X102332179Y-128844951D01*
X102160213Y-128969890D01*
X102009890Y-129120213D01*
X101884949Y-129292182D01*
X101880484Y-129300946D01*
X101832509Y-129351742D01*
X101764688Y-129368536D01*
X101698553Y-129345998D01*
X101659516Y-129300946D01*
X101655050Y-129292182D01*
X101530109Y-129120213D01*
X101379786Y-128969890D01*
X101207815Y-128844948D01*
X101207814Y-128844947D01*
X101168205Y-128824765D01*
X101117409Y-128776791D01*
X101100500Y-128714281D01*
X101100500Y-123322625D01*
X101120185Y-123255586D01*
X101136819Y-123234944D01*
X101250949Y-123120814D01*
X101366769Y-123004993D01*
X101428090Y-122971510D01*
X101430257Y-122971059D01*
X101488192Y-122959534D01*
X101585604Y-122940158D01*
X101727735Y-122881286D01*
X101731279Y-122879818D01*
X101731279Y-122879817D01*
X101731286Y-122879815D01*
X101862396Y-122792210D01*
X101973896Y-122680710D01*
X102061501Y-122549600D01*
X102066750Y-122536929D01*
X102096587Y-122464895D01*
X102121844Y-122403918D01*
X102152607Y-122249263D01*
X102152607Y-122091579D01*
X102152607Y-122091576D01*
X102152606Y-122091574D01*
X102134131Y-121998691D01*
X102140358Y-121929100D01*
X102183221Y-121873922D01*
X102249111Y-121850678D01*
X102255748Y-121850500D01*
X108920234Y-121850500D01*
X108987273Y-121870185D01*
X108989125Y-121871398D01*
X109120814Y-121959390D01*
X109120827Y-121959397D01*
X109236750Y-122007413D01*
X109266503Y-122019737D01*
X109421153Y-122050499D01*
X109421156Y-122050500D01*
X109421158Y-122050500D01*
X109578844Y-122050500D01*
X109578845Y-122050499D01*
X109733497Y-122019737D01*
X109879179Y-121959394D01*
X110010289Y-121871789D01*
X110121789Y-121760289D01*
X110209394Y-121629179D01*
X110269737Y-121483497D01*
X110300500Y-121328842D01*
X110300500Y-121171158D01*
X110300500Y-121171155D01*
X110300499Y-121171153D01*
X110269738Y-121016510D01*
X110269737Y-121016503D01*
X110245950Y-120959076D01*
X110209397Y-120870827D01*
X110209390Y-120870814D01*
X110121789Y-120739711D01*
X110121786Y-120739707D01*
X110010292Y-120628213D01*
X110010288Y-120628210D01*
X109879185Y-120540609D01*
X109879172Y-120540602D01*
X109733501Y-120480264D01*
X109733489Y-120480261D01*
X109578845Y-120449500D01*
X109578842Y-120449500D01*
X109421158Y-120449500D01*
X109421155Y-120449500D01*
X109266510Y-120480261D01*
X109266498Y-120480264D01*
X109120827Y-120540602D01*
X109120814Y-120540609D01*
X108989125Y-120628602D01*
X108922447Y-120649480D01*
X108920234Y-120649500D01*
X98955097Y-120649500D01*
X98888058Y-120629815D01*
X98867416Y-120613181D01*
X96949481Y-118695246D01*
X96915996Y-118633923D01*
X96920980Y-118564231D01*
X96962852Y-118508298D01*
X97017760Y-118485093D01*
X97059534Y-118478477D01*
X97254219Y-118415220D01*
X97436610Y-118322287D01*
X97532908Y-118252323D01*
X97602213Y-118201971D01*
X97602215Y-118201968D01*
X97602219Y-118201966D01*
X97746966Y-118057219D01*
X97746968Y-118057215D01*
X97746971Y-118057213D01*
X97867284Y-117891614D01*
X97867286Y-117891611D01*
X97867287Y-117891610D01*
X97914795Y-117798369D01*
X97962770Y-117747574D01*
X98030591Y-117730779D01*
X98096725Y-117753316D01*
X98135765Y-117798370D01*
X98183140Y-117891349D01*
X98303417Y-118056894D01*
X98303417Y-118056895D01*
X98448104Y-118201582D01*
X98613650Y-118321859D01*
X98795968Y-118414754D01*
X98990578Y-118477988D01*
X99045000Y-118486607D01*
X99045000Y-117125686D01*
X99049394Y-117130080D01*
X99140606Y-117182741D01*
X99242339Y-117210000D01*
X99347661Y-117210000D01*
X99449394Y-117182741D01*
X99540606Y-117130080D01*
X99545000Y-117125686D01*
X99545000Y-118486606D01*
X99599421Y-118477988D01*
X99794031Y-118414754D01*
X99976349Y-118321859D01*
X100141894Y-118201582D01*
X100141895Y-118201582D01*
X100286582Y-118056895D01*
X100286582Y-118056894D01*
X100406861Y-117891347D01*
X100454234Y-117798371D01*
X100502208Y-117747575D01*
X100570028Y-117730779D01*
X100636164Y-117753316D01*
X100675203Y-117798369D01*
X100722713Y-117891611D01*
X100843028Y-118057213D01*
X100987786Y-118201971D01*
X101140005Y-118312562D01*
X101153390Y-118322287D01*
X101265875Y-118379601D01*
X101335776Y-118415218D01*
X101335778Y-118415218D01*
X101335781Y-118415220D01*
X101433611Y-118447007D01*
X101530465Y-118478477D01*
X101631557Y-118494488D01*
X101732648Y-118510500D01*
X101732649Y-118510500D01*
X101937351Y-118510500D01*
X101937352Y-118510500D01*
X102139534Y-118478477D01*
X102334219Y-118415220D01*
X102516610Y-118322287D01*
X102612908Y-118252323D01*
X102682213Y-118201971D01*
X102682215Y-118201968D01*
X102682219Y-118201966D01*
X102826966Y-118057219D01*
X102826968Y-118057215D01*
X102826971Y-118057213D01*
X102947284Y-117891614D01*
X102947286Y-117891611D01*
X102947287Y-117891610D01*
X102994795Y-117798369D01*
X103042770Y-117747574D01*
X103110591Y-117730779D01*
X103176725Y-117753316D01*
X103215765Y-117798370D01*
X103263140Y-117891349D01*
X103383417Y-118056894D01*
X103383417Y-118056895D01*
X103528104Y-118201582D01*
X103693650Y-118321859D01*
X103875968Y-118414754D01*
X104070578Y-118477988D01*
X104125000Y-118486607D01*
X104125000Y-117125686D01*
X104129394Y-117130080D01*
X104220606Y-117182741D01*
X104322339Y-117210000D01*
X104427661Y-117210000D01*
X104529394Y-117182741D01*
X104620606Y-117130080D01*
X104625000Y-117125686D01*
X104625000Y-118486607D01*
X104679421Y-118477988D01*
X104874031Y-118414754D01*
X105056349Y-118321859D01*
X105221894Y-118201582D01*
X105221895Y-118201582D01*
X105366582Y-118056895D01*
X105366582Y-118056894D01*
X105486859Y-117891349D01*
X105579755Y-117709031D01*
X105642990Y-117514417D01*
X105675000Y-117312317D01*
X105675000Y-117060000D01*
X104690686Y-117060000D01*
X104695080Y-117055606D01*
X104747741Y-116964394D01*
X104775000Y-116862661D01*
X104775000Y-116757339D01*
X104747741Y-116655606D01*
X104695080Y-116564394D01*
X104690686Y-116560000D01*
X105675000Y-116560000D01*
X105675000Y-116307682D01*
X105642990Y-116105582D01*
X105579755Y-115910968D01*
X105524808Y-115803129D01*
X105486859Y-115728650D01*
X105366582Y-115563105D01*
X105366582Y-115563104D01*
X105221895Y-115418417D01*
X105056349Y-115298140D01*
X104874029Y-115205244D01*
X104679413Y-115142009D01*
X104625000Y-115133390D01*
X104625000Y-116494314D01*
X104620606Y-116489920D01*
X104529394Y-116437259D01*
X104427661Y-116410000D01*
X104322339Y-116410000D01*
X104220606Y-116437259D01*
X104129394Y-116489920D01*
X104125000Y-116494314D01*
X104125000Y-115133390D01*
X104070586Y-115142009D01*
X103875970Y-115205244D01*
X103693650Y-115298140D01*
X103528105Y-115418417D01*
X103528104Y-115418417D01*
X103383417Y-115563104D01*
X103383417Y-115563105D01*
X103263140Y-115728650D01*
X103215765Y-115821629D01*
X103167790Y-115872425D01*
X103099969Y-115889220D01*
X103033834Y-115866682D01*
X102994795Y-115821629D01*
X102978039Y-115788744D01*
X102947287Y-115728390D01*
X102903426Y-115668020D01*
X102826971Y-115562786D01*
X102682213Y-115418028D01*
X102516613Y-115297715D01*
X102516612Y-115297714D01*
X102516610Y-115297713D01*
X102456898Y-115267288D01*
X102334223Y-115204781D01*
X102139534Y-115141522D01*
X101964995Y-115113878D01*
X101937352Y-115109500D01*
X101732648Y-115109500D01*
X101708329Y-115113351D01*
X101530465Y-115141522D01*
X101335776Y-115204781D01*
X101153386Y-115297715D01*
X100987786Y-115418028D01*
X100843028Y-115562786D01*
X100722713Y-115728388D01*
X100675203Y-115821630D01*
X100627228Y-115872426D01*
X100559407Y-115889220D01*
X100493272Y-115866682D01*
X100454234Y-115821628D01*
X100406861Y-115728652D01*
X100286582Y-115563105D01*
X100286582Y-115563104D01*
X100141895Y-115418417D01*
X99976349Y-115298140D01*
X99794029Y-115205244D01*
X99599413Y-115142009D01*
X99545000Y-115133390D01*
X99545000Y-116494314D01*
X99540606Y-116489920D01*
X99449394Y-116437259D01*
X99347661Y-116410000D01*
X99242339Y-116410000D01*
X99140606Y-116437259D01*
X99049394Y-116489920D01*
X99045000Y-116494314D01*
X99045000Y-115133390D01*
X98990586Y-115142009D01*
X98795970Y-115205244D01*
X98613650Y-115298140D01*
X98448105Y-115418417D01*
X98448104Y-115418417D01*
X98303417Y-115563104D01*
X98303417Y-115563105D01*
X98183140Y-115728650D01*
X98135765Y-115821629D01*
X98087790Y-115872425D01*
X98019969Y-115889220D01*
X97953834Y-115866682D01*
X97914795Y-115821629D01*
X97898039Y-115788744D01*
X97867287Y-115728390D01*
X97823426Y-115668020D01*
X97746971Y-115562786D01*
X97602213Y-115418028D01*
X97436613Y-115297715D01*
X97436612Y-115297714D01*
X97436610Y-115297713D01*
X97376898Y-115267288D01*
X97254223Y-115204781D01*
X97059534Y-115141522D01*
X96884995Y-115113878D01*
X96857352Y-115109500D01*
X96652648Y-115109500D01*
X96596652Y-115118369D01*
X96450464Y-115141523D01*
X96450457Y-115141524D01*
X96416817Y-115152455D01*
X96346976Y-115154450D01*
X96287144Y-115118369D01*
X96256316Y-115055668D01*
X96254500Y-115034524D01*
X96254500Y-110964950D01*
X96274185Y-110897911D01*
X96326989Y-110852156D01*
X96396147Y-110842212D01*
X96416819Y-110847019D01*
X96450578Y-110857988D01*
X96505000Y-110866607D01*
X96505000Y-109505686D01*
X96509394Y-109510080D01*
X96600606Y-109562741D01*
X96702339Y-109590000D01*
X96807661Y-109590000D01*
X96909394Y-109562741D01*
X97000606Y-109510080D01*
X97005000Y-109505686D01*
X97005000Y-110866606D01*
X97059421Y-110857988D01*
X97254031Y-110794754D01*
X97436349Y-110701859D01*
X97601894Y-110581582D01*
X97601895Y-110581582D01*
X97746582Y-110436895D01*
X97746582Y-110436894D01*
X97866861Y-110271347D01*
X97914234Y-110178371D01*
X97962208Y-110127575D01*
X98030028Y-110110779D01*
X98096164Y-110133316D01*
X98135203Y-110178369D01*
X98182713Y-110271611D01*
X98303028Y-110437213D01*
X98447786Y-110581971D01*
X98530806Y-110642287D01*
X98613390Y-110702287D01*
X98678021Y-110735218D01*
X98795776Y-110795218D01*
X98795778Y-110795218D01*
X98795781Y-110795220D01*
X98830827Y-110806607D01*
X98990465Y-110858477D01*
X99091557Y-110874488D01*
X99192648Y-110890500D01*
X99192649Y-110890500D01*
X99397351Y-110890500D01*
X99397352Y-110890500D01*
X99599534Y-110858477D01*
X99794219Y-110795220D01*
X99976610Y-110702287D01*
X100069590Y-110634732D01*
X100142213Y-110581971D01*
X100142215Y-110581968D01*
X100142219Y-110581966D01*
X100286966Y-110437219D01*
X100286968Y-110437215D01*
X100286971Y-110437213D01*
X100407284Y-110271614D01*
X100407286Y-110271611D01*
X100407287Y-110271610D01*
X100454795Y-110178369D01*
X100502770Y-110127574D01*
X100570591Y-110110779D01*
X100636725Y-110133316D01*
X100675765Y-110178370D01*
X100723140Y-110271349D01*
X100843417Y-110436894D01*
X100843417Y-110436895D01*
X100988104Y-110581582D01*
X101153650Y-110701859D01*
X101335968Y-110794754D01*
X101530578Y-110857988D01*
X101585000Y-110866607D01*
X101585000Y-109505686D01*
X101589394Y-109510080D01*
X101680606Y-109562741D01*
X101782339Y-109590000D01*
X101887661Y-109590000D01*
X101989394Y-109562741D01*
X102080606Y-109510080D01*
X102085000Y-109505686D01*
X102085000Y-110866606D01*
X102139421Y-110857988D01*
X102334031Y-110794754D01*
X102516349Y-110701859D01*
X102681894Y-110581582D01*
X102681895Y-110581582D01*
X102826582Y-110436895D01*
X102826582Y-110436894D01*
X102946861Y-110271347D01*
X102994234Y-110178371D01*
X103042208Y-110127575D01*
X103110028Y-110110779D01*
X103176164Y-110133316D01*
X103215203Y-110178369D01*
X103262713Y-110271611D01*
X103383028Y-110437213D01*
X103527786Y-110581971D01*
X103610806Y-110642287D01*
X103693390Y-110702287D01*
X103758021Y-110735218D01*
X103875776Y-110795218D01*
X103875778Y-110795218D01*
X103875781Y-110795220D01*
X103910827Y-110806607D01*
X104070465Y-110858477D01*
X104171557Y-110874488D01*
X104272648Y-110890500D01*
X104272649Y-110890500D01*
X104477351Y-110890500D01*
X104477352Y-110890500D01*
X104679534Y-110858477D01*
X104874219Y-110795220D01*
X105056610Y-110702287D01*
X105149590Y-110634732D01*
X105222213Y-110581971D01*
X105222215Y-110581968D01*
X105222219Y-110581966D01*
X105366966Y-110437219D01*
X105366968Y-110437215D01*
X105366971Y-110437213D01*
X105461225Y-110307481D01*
X105487287Y-110271610D01*
X105580220Y-110089219D01*
X105643477Y-109894534D01*
X105675500Y-109692352D01*
X105675500Y-108687648D01*
X105643477Y-108485466D01*
X105580220Y-108290781D01*
X105580218Y-108290778D01*
X105580218Y-108290776D01*
X105538943Y-108209770D01*
X105487287Y-108108390D01*
X105448438Y-108054918D01*
X105366971Y-107942786D01*
X105222213Y-107798028D01*
X105056613Y-107677715D01*
X105056612Y-107677714D01*
X105056610Y-107677713D01*
X104967543Y-107632331D01*
X104874223Y-107584781D01*
X104679534Y-107521522D01*
X104504995Y-107493878D01*
X104477352Y-107489500D01*
X104272648Y-107489500D01*
X104248329Y-107493351D01*
X104070465Y-107521522D01*
X103875776Y-107584781D01*
X103693386Y-107677715D01*
X103527786Y-107798028D01*
X103383028Y-107942786D01*
X103262713Y-108108388D01*
X103215203Y-108201630D01*
X103167228Y-108252426D01*
X103099407Y-108269220D01*
X103033272Y-108246682D01*
X102994234Y-108201628D01*
X102946861Y-108108652D01*
X102826582Y-107943105D01*
X102826582Y-107943104D01*
X102681895Y-107798417D01*
X102516349Y-107678140D01*
X102334029Y-107585244D01*
X102139413Y-107522009D01*
X102085000Y-107513390D01*
X102085000Y-108874314D01*
X102080606Y-108869920D01*
X101989394Y-108817259D01*
X101887661Y-108790000D01*
X101782339Y-108790000D01*
X101680606Y-108817259D01*
X101589394Y-108869920D01*
X101585000Y-108874314D01*
X101585000Y-107513390D01*
X101530586Y-107522009D01*
X101335970Y-107585244D01*
X101153650Y-107678140D01*
X100988105Y-107798417D01*
X100988104Y-107798417D01*
X100843417Y-107943104D01*
X100843417Y-107943105D01*
X100723140Y-108108650D01*
X100675765Y-108201629D01*
X100627790Y-108252425D01*
X100559969Y-108269220D01*
X100493834Y-108246682D01*
X100454795Y-108201629D01*
X100424503Y-108142179D01*
X100407287Y-108108390D01*
X100368438Y-108054918D01*
X100286971Y-107942786D01*
X100142213Y-107798028D01*
X99976613Y-107677715D01*
X99976612Y-107677714D01*
X99976610Y-107677713D01*
X99887543Y-107632331D01*
X99794223Y-107584781D01*
X99599534Y-107521522D01*
X99424995Y-107493878D01*
X99397352Y-107489500D01*
X99192648Y-107489500D01*
X99168329Y-107493351D01*
X98990465Y-107521522D01*
X98795776Y-107584781D01*
X98613386Y-107677715D01*
X98447786Y-107798028D01*
X98303028Y-107942786D01*
X98182713Y-108108388D01*
X98135203Y-108201630D01*
X98087228Y-108252426D01*
X98019407Y-108269220D01*
X97953272Y-108246682D01*
X97914234Y-108201628D01*
X97866861Y-108108652D01*
X97746582Y-107943105D01*
X97746582Y-107943104D01*
X97601895Y-107798417D01*
X97436349Y-107678140D01*
X97254029Y-107585244D01*
X97059413Y-107522009D01*
X97005000Y-107513390D01*
X97005000Y-108874314D01*
X97000606Y-108869920D01*
X96909394Y-108817259D01*
X96807661Y-108790000D01*
X96702339Y-108790000D01*
X96600606Y-108817259D01*
X96509394Y-108869920D01*
X96505000Y-108874314D01*
X96505000Y-107513390D01*
X96450586Y-107522009D01*
X96450581Y-107522010D01*
X96416817Y-107532981D01*
X96346976Y-107534976D01*
X96287144Y-107498895D01*
X96256316Y-107436194D01*
X96254500Y-107415050D01*
X96254500Y-106428941D01*
X96274185Y-106361902D01*
X96290819Y-106341260D01*
X96371786Y-106260292D01*
X96371789Y-106260289D01*
X96459394Y-106129179D01*
X96519737Y-105983497D01*
X96550500Y-105828842D01*
X96550500Y-105671158D01*
X96550500Y-105671155D01*
X96550499Y-105671153D01*
X96536987Y-105603224D01*
X96519737Y-105516503D01*
X96508970Y-105490508D01*
X96459397Y-105370827D01*
X96459390Y-105370814D01*
X96371789Y-105239711D01*
X96371786Y-105239707D01*
X96260292Y-105128213D01*
X96260288Y-105128210D01*
X96129185Y-105040609D01*
X96129172Y-105040602D01*
X95983501Y-104980264D01*
X95983489Y-104980261D01*
X95828845Y-104949500D01*
X95828842Y-104949500D01*
X95671158Y-104949500D01*
X95671155Y-104949500D01*
X95516510Y-104980261D01*
X95516498Y-104980264D01*
X95370827Y-105040602D01*
X95370814Y-105040609D01*
X95239711Y-105128210D01*
X95239707Y-105128213D01*
X95128213Y-105239707D01*
X95128210Y-105239711D01*
X95040609Y-105370814D01*
X95040602Y-105370827D01*
X94980264Y-105516498D01*
X94980261Y-105516510D01*
X94949500Y-105671153D01*
X94949500Y-105828846D01*
X94980261Y-105983489D01*
X94980264Y-105983501D01*
X95042937Y-106134808D01*
X95041257Y-106135503D01*
X95053500Y-106184362D01*
X95053500Y-107555302D01*
X95033815Y-107622341D01*
X94981011Y-107668096D01*
X94911853Y-107678040D01*
X94873205Y-107665787D01*
X94714223Y-107584782D01*
X94714222Y-107584781D01*
X94714219Y-107584780D01*
X94623495Y-107555302D01*
X94519534Y-107521522D01*
X94344995Y-107493878D01*
X94317352Y-107489500D01*
X94112648Y-107489500D01*
X94088329Y-107493351D01*
X93910465Y-107521522D01*
X93759583Y-107570548D01*
X93715781Y-107584780D01*
X93715778Y-107584781D01*
X93715776Y-107584782D01*
X93556795Y-107665787D01*
X93488125Y-107678683D01*
X93423385Y-107652407D01*
X93383128Y-107595300D01*
X93376500Y-107555302D01*
X93376500Y-106524097D01*
X93396185Y-106457058D01*
X93412819Y-106436416D01*
X95212416Y-104636819D01*
X95273739Y-104603334D01*
X95300097Y-104600500D01*
X110183090Y-104600500D01*
X110250129Y-104620185D01*
G37*
%TD.AperFunction*%
%TA.AperFunction,Conductor*%
G36*
X174922502Y-82140417D02*
G01*
X175322259Y-82157871D01*
X175332995Y-82158811D01*
X175727020Y-82210685D01*
X175737658Y-82212560D01*
X176125667Y-82298580D01*
X176136107Y-82301378D01*
X176515120Y-82420880D01*
X176525281Y-82424578D01*
X176892449Y-82576665D01*
X176902241Y-82581231D01*
X177254742Y-82764731D01*
X177264110Y-82770139D01*
X177599288Y-82983671D01*
X177608149Y-82989876D01*
X177923432Y-83231801D01*
X177931719Y-83238755D01*
X178224714Y-83507236D01*
X178232363Y-83514885D01*
X178500844Y-83807880D01*
X178507798Y-83816167D01*
X178749723Y-84131450D01*
X178755928Y-84140311D01*
X178969460Y-84475489D01*
X178974868Y-84484857D01*
X179158365Y-84837352D01*
X179162937Y-84847156D01*
X179315020Y-85214316D01*
X179318720Y-85224482D01*
X179438220Y-85603488D01*
X179441020Y-85613936D01*
X179527037Y-86001933D01*
X179528915Y-86012587D01*
X179580786Y-86406585D01*
X179581729Y-86417361D01*
X179599182Y-86817097D01*
X179599277Y-86820129D01*
X179599300Y-86821328D01*
X179599300Y-86885692D01*
X179600628Y-86890651D01*
X179600877Y-86903594D01*
X179600769Y-86903986D01*
X179600900Y-86905971D01*
X179600900Y-87628326D01*
X179581215Y-87695365D01*
X179528411Y-87741120D01*
X179459253Y-87751064D01*
X179395697Y-87722039D01*
X179366415Y-87684621D01*
X179347461Y-87647424D01*
X179312287Y-87578390D01*
X179304556Y-87567749D01*
X179191971Y-87412786D01*
X179047213Y-87268028D01*
X178881613Y-87147715D01*
X178881612Y-87147714D01*
X178881610Y-87147713D01*
X178824653Y-87118691D01*
X178699223Y-87054781D01*
X178504534Y-86991522D01*
X178329995Y-86963878D01*
X178302352Y-86959500D01*
X178097648Y-86959500D01*
X178073329Y-86963351D01*
X177895465Y-86991522D01*
X177700776Y-87054781D01*
X177518386Y-87147715D01*
X177352786Y-87268028D01*
X177208028Y-87412786D01*
X177087715Y-87578386D01*
X177040485Y-87671080D01*
X176992510Y-87721876D01*
X176924689Y-87738671D01*
X176858554Y-87716134D01*
X176819515Y-87671080D01*
X176818883Y-87669840D01*
X176772287Y-87578390D01*
X176764556Y-87567749D01*
X176651971Y-87412786D01*
X176507213Y-87268028D01*
X176341613Y-87147715D01*
X176341612Y-87147714D01*
X176341610Y-87147713D01*
X176284653Y-87118691D01*
X176159223Y-87054781D01*
X175964534Y-86991522D01*
X175789995Y-86963878D01*
X175762352Y-86959500D01*
X175557648Y-86959500D01*
X175533329Y-86963351D01*
X175355465Y-86991522D01*
X175160776Y-87054781D01*
X174978386Y-87147715D01*
X174812786Y-87268028D01*
X174668028Y-87412786D01*
X174547715Y-87578386D01*
X174500485Y-87671080D01*
X174452510Y-87721876D01*
X174384689Y-87738671D01*
X174318554Y-87716134D01*
X174279515Y-87671080D01*
X174278883Y-87669840D01*
X174232287Y-87578390D01*
X174224556Y-87567749D01*
X174111971Y-87412786D01*
X173967213Y-87268028D01*
X173801613Y-87147715D01*
X173801612Y-87147714D01*
X173801610Y-87147713D01*
X173744653Y-87118691D01*
X173619223Y-87054781D01*
X173424534Y-86991522D01*
X173249995Y-86963878D01*
X173222352Y-86959500D01*
X173017648Y-86959500D01*
X172993329Y-86963351D01*
X172815465Y-86991522D01*
X172620776Y-87054781D01*
X172438386Y-87147715D01*
X172272786Y-87268028D01*
X172128028Y-87412786D01*
X172007715Y-87578386D01*
X171960485Y-87671080D01*
X171912510Y-87721876D01*
X171844689Y-87738671D01*
X171778554Y-87716134D01*
X171739515Y-87671080D01*
X171738883Y-87669840D01*
X171692287Y-87578390D01*
X171684556Y-87567749D01*
X171571971Y-87412786D01*
X171427213Y-87268028D01*
X171261613Y-87147715D01*
X171261612Y-87147714D01*
X171261610Y-87147713D01*
X171204653Y-87118691D01*
X171079223Y-87054781D01*
X170884534Y-86991522D01*
X170709995Y-86963878D01*
X170682352Y-86959500D01*
X170477648Y-86959500D01*
X170453329Y-86963351D01*
X170275465Y-86991522D01*
X170080776Y-87054781D01*
X169898386Y-87147715D01*
X169732786Y-87268028D01*
X169588028Y-87412786D01*
X169467715Y-87578386D01*
X169420485Y-87671080D01*
X169372510Y-87721876D01*
X169304689Y-87738671D01*
X169238554Y-87716134D01*
X169199515Y-87671080D01*
X169198883Y-87669840D01*
X169152287Y-87578390D01*
X169144556Y-87567749D01*
X169031971Y-87412786D01*
X168887213Y-87268028D01*
X168721613Y-87147715D01*
X168721612Y-87147714D01*
X168721610Y-87147713D01*
X168664653Y-87118691D01*
X168539223Y-87054781D01*
X168344534Y-86991522D01*
X168169995Y-86963878D01*
X168142352Y-86959500D01*
X167937648Y-86959500D01*
X167913329Y-86963351D01*
X167735465Y-86991522D01*
X167540776Y-87054781D01*
X167358386Y-87147715D01*
X167192786Y-87268028D01*
X167048028Y-87412786D01*
X166927715Y-87578386D01*
X166880485Y-87671080D01*
X166832510Y-87721876D01*
X166764689Y-87738671D01*
X166698554Y-87716134D01*
X166659515Y-87671080D01*
X166658883Y-87669840D01*
X166612287Y-87578390D01*
X166604556Y-87567749D01*
X166491971Y-87412786D01*
X166347213Y-87268028D01*
X166181613Y-87147715D01*
X166181612Y-87147714D01*
X166181610Y-87147713D01*
X166124653Y-87118691D01*
X165999223Y-87054781D01*
X165804534Y-86991522D01*
X165629995Y-86963878D01*
X165602352Y-86959500D01*
X165397648Y-86959500D01*
X165373329Y-86963351D01*
X165195465Y-86991522D01*
X165000776Y-87054781D01*
X164818386Y-87147715D01*
X164652786Y-87268028D01*
X164508028Y-87412786D01*
X164387715Y-87578386D01*
X164340485Y-87671080D01*
X164292510Y-87721876D01*
X164224689Y-87738671D01*
X164158554Y-87716134D01*
X164119515Y-87671080D01*
X164118883Y-87669840D01*
X164072287Y-87578390D01*
X164064556Y-87567749D01*
X163951971Y-87412786D01*
X163807213Y-87268028D01*
X163641613Y-87147715D01*
X163641612Y-87147714D01*
X163641610Y-87147713D01*
X163584653Y-87118691D01*
X163459223Y-87054781D01*
X163264534Y-86991522D01*
X163089995Y-86963878D01*
X163062352Y-86959500D01*
X162857648Y-86959500D01*
X162833329Y-86963351D01*
X162655465Y-86991522D01*
X162460776Y-87054781D01*
X162278386Y-87147715D01*
X162112786Y-87268028D01*
X161968028Y-87412786D01*
X161847715Y-87578386D01*
X161800485Y-87671080D01*
X161752510Y-87721876D01*
X161684689Y-87738671D01*
X161618554Y-87716134D01*
X161579515Y-87671080D01*
X161578883Y-87669840D01*
X161532287Y-87578390D01*
X161524556Y-87567749D01*
X161411971Y-87412786D01*
X161267213Y-87268028D01*
X161101613Y-87147715D01*
X161101612Y-87147714D01*
X161101610Y-87147713D01*
X161044653Y-87118691D01*
X160919223Y-87054781D01*
X160724534Y-86991522D01*
X160549995Y-86963878D01*
X160522352Y-86959500D01*
X160317648Y-86959500D01*
X160293329Y-86963351D01*
X160115465Y-86991522D01*
X159920776Y-87054781D01*
X159738386Y-87147715D01*
X159572786Y-87268028D01*
X159428028Y-87412786D01*
X159307715Y-87578386D01*
X159260485Y-87671080D01*
X159212510Y-87721876D01*
X159144689Y-87738671D01*
X159078554Y-87716134D01*
X159039515Y-87671080D01*
X159038883Y-87669840D01*
X158992287Y-87578390D01*
X158984556Y-87567749D01*
X158871971Y-87412786D01*
X158727213Y-87268028D01*
X158561613Y-87147715D01*
X158561612Y-87147714D01*
X158561610Y-87147713D01*
X158504653Y-87118691D01*
X158379223Y-87054781D01*
X158184534Y-86991522D01*
X158009995Y-86963878D01*
X157982352Y-86959500D01*
X157777648Y-86959500D01*
X157753329Y-86963351D01*
X157575465Y-86991522D01*
X157380776Y-87054781D01*
X157198386Y-87147715D01*
X157032786Y-87268028D01*
X156888028Y-87412786D01*
X156767715Y-87578386D01*
X156720485Y-87671080D01*
X156672510Y-87721876D01*
X156604689Y-87738671D01*
X156538554Y-87716134D01*
X156499515Y-87671080D01*
X156498883Y-87669840D01*
X156452287Y-87578390D01*
X156444556Y-87567749D01*
X156331971Y-87412786D01*
X156187213Y-87268028D01*
X156021613Y-87147715D01*
X156021612Y-87147714D01*
X156021610Y-87147713D01*
X155964653Y-87118691D01*
X155839223Y-87054781D01*
X155644534Y-86991522D01*
X155469995Y-86963878D01*
X155442352Y-86959500D01*
X155237648Y-86959500D01*
X155213329Y-86963351D01*
X155035465Y-86991522D01*
X154840776Y-87054781D01*
X154658386Y-87147715D01*
X154492786Y-87268028D01*
X154348028Y-87412786D01*
X154227715Y-87578386D01*
X154180485Y-87671080D01*
X154132510Y-87721876D01*
X154064689Y-87738671D01*
X153998554Y-87716134D01*
X153959515Y-87671080D01*
X153958883Y-87669840D01*
X153912287Y-87578390D01*
X153904556Y-87567749D01*
X153791971Y-87412786D01*
X153647213Y-87268028D01*
X153481613Y-87147715D01*
X153481612Y-87147714D01*
X153481610Y-87147713D01*
X153424653Y-87118691D01*
X153299223Y-87054781D01*
X153104534Y-86991522D01*
X152929995Y-86963878D01*
X152902352Y-86959500D01*
X152697648Y-86959500D01*
X152673329Y-86963351D01*
X152495465Y-86991522D01*
X152300776Y-87054781D01*
X152118386Y-87147715D01*
X151952786Y-87268028D01*
X151808028Y-87412786D01*
X151687715Y-87578386D01*
X151640485Y-87671080D01*
X151592510Y-87721876D01*
X151524689Y-87738671D01*
X151458554Y-87716134D01*
X151419515Y-87671080D01*
X151418883Y-87669840D01*
X151372287Y-87578390D01*
X151364556Y-87567749D01*
X151251971Y-87412786D01*
X151107213Y-87268028D01*
X150941613Y-87147715D01*
X150941612Y-87147714D01*
X150941610Y-87147713D01*
X150884653Y-87118691D01*
X150759223Y-87054781D01*
X150564534Y-86991522D01*
X150389995Y-86963878D01*
X150362352Y-86959500D01*
X150157648Y-86959500D01*
X150133329Y-86963351D01*
X149955465Y-86991522D01*
X149760776Y-87054781D01*
X149578386Y-87147715D01*
X149412786Y-87268028D01*
X149268028Y-87412786D01*
X149147715Y-87578386D01*
X149100485Y-87671080D01*
X149052510Y-87721876D01*
X148984689Y-87738671D01*
X148918554Y-87716134D01*
X148879515Y-87671080D01*
X148878883Y-87669840D01*
X148832287Y-87578390D01*
X148824556Y-87567749D01*
X148711971Y-87412786D01*
X148567213Y-87268028D01*
X148401613Y-87147715D01*
X148401612Y-87147714D01*
X148401610Y-87147713D01*
X148344653Y-87118691D01*
X148219223Y-87054781D01*
X148024534Y-86991522D01*
X147849995Y-86963878D01*
X147822352Y-86959500D01*
X147617648Y-86959500D01*
X147593329Y-86963351D01*
X147415465Y-86991522D01*
X147220776Y-87054781D01*
X147038386Y-87147715D01*
X146872786Y-87268028D01*
X146728028Y-87412786D01*
X146607715Y-87578386D01*
X146560485Y-87671080D01*
X146512510Y-87721876D01*
X146444689Y-87738671D01*
X146378554Y-87716134D01*
X146339515Y-87671080D01*
X146338883Y-87669840D01*
X146292287Y-87578390D01*
X146284556Y-87567749D01*
X146171971Y-87412786D01*
X146027213Y-87268028D01*
X145861613Y-87147715D01*
X145861612Y-87147714D01*
X145861610Y-87147713D01*
X145804653Y-87118691D01*
X145679223Y-87054781D01*
X145484534Y-86991522D01*
X145309995Y-86963878D01*
X145282352Y-86959500D01*
X145077648Y-86959500D01*
X145053329Y-86963351D01*
X144875465Y-86991522D01*
X144680776Y-87054781D01*
X144498386Y-87147715D01*
X144332786Y-87268028D01*
X144188028Y-87412786D01*
X144067715Y-87578386D01*
X143974781Y-87760776D01*
X143911522Y-87955465D01*
X143879500Y-88157648D01*
X143879500Y-88362351D01*
X143911522Y-88564534D01*
X143974781Y-88759223D01*
X144067715Y-88941613D01*
X144188028Y-89107213D01*
X144332786Y-89251971D01*
X144423145Y-89317619D01*
X144498390Y-89372287D01*
X144601792Y-89424973D01*
X144680776Y-89465218D01*
X144680778Y-89465218D01*
X144680781Y-89465220D01*
X144763374Y-89492056D01*
X144875465Y-89528477D01*
X144976557Y-89544488D01*
X145077648Y-89560500D01*
X145077649Y-89560500D01*
X145282351Y-89560500D01*
X145282352Y-89560500D01*
X145484534Y-89528477D01*
X145679219Y-89465220D01*
X145861610Y-89372287D01*
X145985959Y-89281943D01*
X146027213Y-89251971D01*
X146027215Y-89251968D01*
X146027219Y-89251966D01*
X146171966Y-89107219D01*
X146171968Y-89107215D01*
X146171971Y-89107213D01*
X146292284Y-88941614D01*
X146292285Y-88941613D01*
X146292287Y-88941610D01*
X146339516Y-88848917D01*
X146387489Y-88798123D01*
X146455310Y-88781328D01*
X146521445Y-88803865D01*
X146560485Y-88848919D01*
X146607715Y-88941614D01*
X146728028Y-89107213D01*
X146872786Y-89251971D01*
X146963145Y-89317619D01*
X147038390Y-89372287D01*
X147141792Y-89424973D01*
X147220776Y-89465218D01*
X147220778Y-89465218D01*
X147220781Y-89465220D01*
X147303374Y-89492056D01*
X147415465Y-89528477D01*
X147516557Y-89544488D01*
X147617648Y-89560500D01*
X147617649Y-89560500D01*
X147822351Y-89560500D01*
X147822352Y-89560500D01*
X148024534Y-89528477D01*
X148038842Y-89523827D01*
X148054054Y-89523392D01*
X148068315Y-89518074D01*
X148088268Y-89522414D01*
X148108682Y-89521831D01*
X148122769Y-89529920D01*
X148136588Y-89532926D01*
X148164842Y-89554077D01*
X148184181Y-89573416D01*
X148217666Y-89634739D01*
X148220500Y-89661097D01*
X148220500Y-102124524D01*
X148200815Y-102191563D01*
X148148011Y-102237318D01*
X148078853Y-102247262D01*
X148058183Y-102242455D01*
X148024542Y-102231524D01*
X148024535Y-102231523D01*
X147923443Y-102215511D01*
X147822352Y-102199500D01*
X147617648Y-102199500D01*
X147593329Y-102203351D01*
X147415465Y-102231522D01*
X147220776Y-102294781D01*
X147038386Y-102387715D01*
X146872786Y-102508028D01*
X146728032Y-102652782D01*
X146728028Y-102652787D01*
X146659978Y-102746451D01*
X146604648Y-102789117D01*
X146535035Y-102795096D01*
X146473240Y-102762490D01*
X146441954Y-102712570D01*
X146422144Y-102652787D01*
X146414814Y-102630666D01*
X146322712Y-102481344D01*
X146198656Y-102357288D01*
X146049334Y-102265186D01*
X145882797Y-102210001D01*
X145882795Y-102210000D01*
X145780010Y-102199500D01*
X144579998Y-102199500D01*
X144579981Y-102199501D01*
X144477203Y-102210000D01*
X144477200Y-102210001D01*
X144310668Y-102265185D01*
X144310663Y-102265187D01*
X144161342Y-102357289D01*
X144037289Y-102481342D01*
X143945187Y-102630663D01*
X143945186Y-102630666D01*
X143890001Y-102797203D01*
X143890001Y-102797204D01*
X143890000Y-102797204D01*
X143879500Y-102899983D01*
X143879500Y-103899902D01*
X143859815Y-103966941D01*
X143843181Y-103987583D01*
X143598481Y-104232282D01*
X143598479Y-104232285D01*
X143548361Y-104319094D01*
X143548359Y-104319096D01*
X143519425Y-104369209D01*
X143519424Y-104369210D01*
X143503544Y-104428472D01*
X143478499Y-104521943D01*
X143478499Y-104521945D01*
X143478499Y-104690046D01*
X143478500Y-104690059D01*
X143478500Y-105297059D01*
X143458815Y-105364098D01*
X143406011Y-105409853D01*
X143336853Y-105419797D01*
X143273297Y-105390772D01*
X143266819Y-105384740D01*
X143260292Y-105378213D01*
X143260288Y-105378210D01*
X143129185Y-105290609D01*
X143129172Y-105290602D01*
X142983501Y-105230264D01*
X142983489Y-105230261D01*
X142828845Y-105199500D01*
X142828842Y-105199500D01*
X142671158Y-105199500D01*
X142671155Y-105199500D01*
X142516510Y-105230261D01*
X142516498Y-105230264D01*
X142370827Y-105290602D01*
X142370814Y-105290609D01*
X142239125Y-105378602D01*
X142172447Y-105399480D01*
X142170234Y-105399500D01*
X137329766Y-105399500D01*
X137262727Y-105379815D01*
X137260875Y-105378602D01*
X137129185Y-105290609D01*
X137129172Y-105290602D01*
X136983501Y-105230264D01*
X136983489Y-105230261D01*
X136828845Y-105199500D01*
X136828842Y-105199500D01*
X136671158Y-105199500D01*
X136671155Y-105199500D01*
X136516510Y-105230261D01*
X136516498Y-105230264D01*
X136370827Y-105290602D01*
X136370814Y-105290609D01*
X136239711Y-105378210D01*
X136239707Y-105378213D01*
X136128213Y-105489707D01*
X136128210Y-105489711D01*
X136040609Y-105620814D01*
X136040602Y-105620827D01*
X135980264Y-105766498D01*
X135980261Y-105766510D01*
X135949500Y-105921153D01*
X135949500Y-106078846D01*
X135980261Y-106233489D01*
X135980264Y-106233501D01*
X136040602Y-106379172D01*
X136040609Y-106379185D01*
X136128210Y-106510288D01*
X136128213Y-106510292D01*
X136239707Y-106621786D01*
X136239711Y-106621789D01*
X136370814Y-106709390D01*
X136370827Y-106709397D01*
X136516498Y-106769735D01*
X136516503Y-106769737D01*
X136669127Y-106800096D01*
X136671153Y-106800499D01*
X136671156Y-106800500D01*
X136671158Y-106800500D01*
X136828844Y-106800500D01*
X136828845Y-106800499D01*
X136983497Y-106769737D01*
X137129179Y-106709394D01*
X137221002Y-106648040D01*
X137260875Y-106621398D01*
X137327553Y-106600520D01*
X137329766Y-106600500D01*
X142170234Y-106600500D01*
X142237273Y-106620185D01*
X142239125Y-106621398D01*
X142370814Y-106709390D01*
X142370827Y-106709397D01*
X142516498Y-106769735D01*
X142516503Y-106769737D01*
X142669127Y-106800096D01*
X142671153Y-106800499D01*
X142671156Y-106800500D01*
X142671158Y-106800500D01*
X142828844Y-106800500D01*
X142828845Y-106800499D01*
X142983497Y-106769737D01*
X143129179Y-106709394D01*
X143260289Y-106621789D01*
X143261893Y-106620185D01*
X143266819Y-106615260D01*
X143328142Y-106581775D01*
X143397834Y-106586759D01*
X143453767Y-106628631D01*
X143478184Y-106694095D01*
X143478500Y-106702941D01*
X143478500Y-111025174D01*
X143458815Y-111092213D01*
X143406011Y-111137968D01*
X143336853Y-111147912D01*
X143330310Y-111146792D01*
X143328842Y-111146500D01*
X143171158Y-111146500D01*
X143171155Y-111146500D01*
X143016510Y-111177261D01*
X143016498Y-111177264D01*
X142870827Y-111237602D01*
X142870814Y-111237609D01*
X142739711Y-111325210D01*
X142739707Y-111325213D01*
X142628213Y-111436707D01*
X142628210Y-111436711D01*
X142540609Y-111567814D01*
X142540602Y-111567827D01*
X142480264Y-111713498D01*
X142480261Y-111713510D01*
X142449500Y-111868153D01*
X142449500Y-112025846D01*
X142480261Y-112180489D01*
X142480264Y-112180501D01*
X142540602Y-112326172D01*
X142540609Y-112326185D01*
X142628210Y-112457288D01*
X142628213Y-112457292D01*
X142739707Y-112568786D01*
X142739711Y-112568789D01*
X142870814Y-112656390D01*
X142870827Y-112656397D01*
X143016498Y-112716735D01*
X143016503Y-112716737D01*
X143168157Y-112746903D01*
X143171153Y-112747499D01*
X143171156Y-112747500D01*
X143171158Y-112747500D01*
X143328838Y-112747500D01*
X143328842Y-112747500D01*
X143330298Y-112747210D01*
X143331078Y-112747280D01*
X143334907Y-112746903D01*
X143334978Y-112747628D01*
X143399887Y-112753430D01*
X143455069Y-112796287D01*
X143478321Y-112862174D01*
X143478500Y-112868825D01*
X143478500Y-121812330D01*
X143478499Y-121812348D01*
X143478499Y-121978054D01*
X143478498Y-121978054D01*
X143519423Y-122130785D01*
X143545084Y-122175232D01*
X143545086Y-122175234D01*
X143598479Y-122267714D01*
X143598481Y-122267717D01*
X143717349Y-122386585D01*
X143717355Y-122386590D01*
X143843181Y-122512416D01*
X143876666Y-122573739D01*
X143879500Y-122600097D01*
X143879500Y-123600001D01*
X143879501Y-123600019D01*
X143890000Y-123702796D01*
X143890001Y-123702799D01*
X143945185Y-123869331D01*
X143945187Y-123869336D01*
X143980069Y-123925888D01*
X144037288Y-124018656D01*
X144161344Y-124142712D01*
X144310666Y-124234814D01*
X144477203Y-124289999D01*
X144579991Y-124300500D01*
X145780008Y-124300499D01*
X145882797Y-124289999D01*
X146049334Y-124234814D01*
X146198656Y-124142712D01*
X146322712Y-124018656D01*
X146414814Y-123869334D01*
X146441955Y-123787427D01*
X146481726Y-123729984D01*
X146546242Y-123703161D01*
X146615018Y-123715476D01*
X146659977Y-123753547D01*
X146685543Y-123788735D01*
X146728034Y-123847219D01*
X146872786Y-123991971D01*
X146993226Y-124079474D01*
X147038390Y-124112287D01*
X147147062Y-124167658D01*
X147220776Y-124205218D01*
X147220778Y-124205218D01*
X147220781Y-124205220D01*
X147311502Y-124234697D01*
X147415465Y-124268477D01*
X147516557Y-124284488D01*
X147617648Y-124300500D01*
X147617649Y-124300500D01*
X147822351Y-124300500D01*
X147822352Y-124300500D01*
X148024534Y-124268477D01*
X148219219Y-124205220D01*
X148401610Y-124112287D01*
X148530482Y-124018657D01*
X148567213Y-123991971D01*
X148567215Y-123991968D01*
X148567219Y-123991966D01*
X148711966Y-123847219D01*
X148711968Y-123847215D01*
X148711971Y-123847213D01*
X148832284Y-123681614D01*
X148832283Y-123681614D01*
X148832287Y-123681610D01*
X148879516Y-123588917D01*
X148927489Y-123538123D01*
X148995310Y-123521328D01*
X149061445Y-123543865D01*
X149100483Y-123588917D01*
X149126246Y-123639478D01*
X149147715Y-123681614D01*
X149268028Y-123847213D01*
X149412786Y-123991971D01*
X149533226Y-124079474D01*
X149578390Y-124112287D01*
X149687062Y-124167658D01*
X149760776Y-124205218D01*
X149760778Y-124205218D01*
X149760781Y-124205220D01*
X149851502Y-124234697D01*
X149955465Y-124268477D01*
X150056557Y-124284488D01*
X150157648Y-124300500D01*
X150157649Y-124300500D01*
X150362351Y-124300500D01*
X150362352Y-124300500D01*
X150564534Y-124268477D01*
X150759219Y-124205220D01*
X150941610Y-124112287D01*
X151070482Y-124018657D01*
X151107213Y-123991971D01*
X151107215Y-123991968D01*
X151107219Y-123991966D01*
X151251966Y-123847219D01*
X151251968Y-123847215D01*
X151251971Y-123847213D01*
X151372284Y-123681614D01*
X151372283Y-123681614D01*
X151372287Y-123681610D01*
X151419516Y-123588917D01*
X151467489Y-123538123D01*
X151535310Y-123521328D01*
X151601445Y-123543865D01*
X151640483Y-123588917D01*
X151666246Y-123639478D01*
X151687715Y-123681614D01*
X151808028Y-123847213D01*
X151952786Y-123991971D01*
X152073226Y-124079474D01*
X152118390Y-124112287D01*
X152227062Y-124167658D01*
X152300776Y-124205218D01*
X152300778Y-124205218D01*
X152300781Y-124205220D01*
X152391502Y-124234697D01*
X152495465Y-124268477D01*
X152596557Y-124284488D01*
X152697648Y-124300500D01*
X152697649Y-124300500D01*
X152902351Y-124300500D01*
X152902352Y-124300500D01*
X153104534Y-124268477D01*
X153299219Y-124205220D01*
X153481610Y-124112287D01*
X153610482Y-124018657D01*
X153647213Y-123991971D01*
X153647215Y-123991968D01*
X153647219Y-123991966D01*
X153791966Y-123847219D01*
X153791968Y-123847215D01*
X153791971Y-123847213D01*
X153912284Y-123681614D01*
X153912283Y-123681614D01*
X153912287Y-123681610D01*
X153959516Y-123588917D01*
X154007489Y-123538123D01*
X154075310Y-123521328D01*
X154141445Y-123543865D01*
X154180483Y-123588917D01*
X154206246Y-123639478D01*
X154227715Y-123681614D01*
X154348028Y-123847213D01*
X154492786Y-123991971D01*
X154613226Y-124079474D01*
X154658390Y-124112287D01*
X154767062Y-124167658D01*
X154840776Y-124205218D01*
X154840778Y-124205218D01*
X154840781Y-124205220D01*
X154931502Y-124234697D01*
X155035465Y-124268477D01*
X155136557Y-124284488D01*
X155237648Y-124300500D01*
X155237649Y-124300500D01*
X155442351Y-124300500D01*
X155442352Y-124300500D01*
X155644534Y-124268477D01*
X155839219Y-124205220D01*
X156021610Y-124112287D01*
X156150482Y-124018657D01*
X156187213Y-123991971D01*
X156187215Y-123991968D01*
X156187219Y-123991966D01*
X156331966Y-123847219D01*
X156331968Y-123847215D01*
X156331971Y-123847213D01*
X156452284Y-123681614D01*
X156452283Y-123681614D01*
X156452287Y-123681610D01*
X156499516Y-123588917D01*
X156547489Y-123538123D01*
X156615310Y-123521328D01*
X156681445Y-123543865D01*
X156720483Y-123588917D01*
X156746246Y-123639478D01*
X156767715Y-123681614D01*
X156888028Y-123847213D01*
X157032786Y-123991971D01*
X157153226Y-124079474D01*
X157198390Y-124112287D01*
X157307062Y-124167658D01*
X157380776Y-124205218D01*
X157380778Y-124205218D01*
X157380781Y-124205220D01*
X157471502Y-124234697D01*
X157575465Y-124268477D01*
X157676557Y-124284488D01*
X157777648Y-124300500D01*
X157777649Y-124300500D01*
X157982351Y-124300500D01*
X157982352Y-124300500D01*
X158184534Y-124268477D01*
X158237181Y-124251371D01*
X158307023Y-124249376D01*
X158366856Y-124285456D01*
X158397684Y-124348157D01*
X158399500Y-124369302D01*
X158399500Y-127079902D01*
X158379815Y-127146941D01*
X158363181Y-127167583D01*
X156864522Y-128666241D01*
X156803199Y-128699726D01*
X156738523Y-128696491D01*
X156696245Y-128682754D01*
X156536386Y-128657435D01*
X156486287Y-128649500D01*
X156273713Y-128649500D01*
X156225042Y-128657208D01*
X156063760Y-128682753D01*
X155861585Y-128748444D01*
X155672179Y-128844951D01*
X155500213Y-128969890D01*
X155349890Y-129120213D01*
X155224949Y-129292182D01*
X155220484Y-129300946D01*
X155172509Y-129351742D01*
X155104688Y-129368536D01*
X155038553Y-129345998D01*
X154999516Y-129300946D01*
X154995050Y-129292182D01*
X154870109Y-129120213D01*
X154719786Y-128969890D01*
X154547820Y-128844951D01*
X154358414Y-128748444D01*
X154358413Y-128748443D01*
X154358412Y-128748443D01*
X154156243Y-128682754D01*
X154156241Y-128682753D01*
X154156240Y-128682753D01*
X153994957Y-128657208D01*
X153946287Y-128649500D01*
X153733713Y-128649500D01*
X153685042Y-128657208D01*
X153523760Y-128682753D01*
X153321585Y-128748444D01*
X153132179Y-128844951D01*
X152960213Y-128969890D01*
X152809890Y-129120213D01*
X152684949Y-129292182D01*
X152680484Y-129300946D01*
X152632509Y-129351742D01*
X152564688Y-129368536D01*
X152498553Y-129345998D01*
X152459516Y-129300946D01*
X152455050Y-129292182D01*
X152330109Y-129120213D01*
X152179786Y-128969890D01*
X152007820Y-128844951D01*
X151818414Y-128748444D01*
X151818413Y-128748443D01*
X151818412Y-128748443D01*
X151616243Y-128682754D01*
X151616241Y-128682753D01*
X151616240Y-128682753D01*
X151454957Y-128657208D01*
X151406287Y-128649500D01*
X151193713Y-128649500D01*
X151145042Y-128657208D01*
X150983760Y-128682753D01*
X150781585Y-128748444D01*
X150592179Y-128844951D01*
X150420213Y-128969890D01*
X150269890Y-129120213D01*
X150144949Y-129292182D01*
X150140484Y-129300946D01*
X150092509Y-129351742D01*
X150024688Y-129368536D01*
X149958553Y-129345998D01*
X149919516Y-129300946D01*
X149915050Y-129292182D01*
X149790109Y-129120213D01*
X149639786Y-128969890D01*
X149467820Y-128844951D01*
X149278414Y-128748444D01*
X149278413Y-128748443D01*
X149278412Y-128748443D01*
X149076243Y-128682754D01*
X149076241Y-128682753D01*
X149076240Y-128682753D01*
X148914957Y-128657208D01*
X148866287Y-128649500D01*
X148653713Y-128649500D01*
X148605042Y-128657208D01*
X148443760Y-128682753D01*
X148241585Y-128748444D01*
X148052179Y-128844951D01*
X147880213Y-128969890D01*
X147729890Y-129120213D01*
X147604949Y-129292182D01*
X147600484Y-129300946D01*
X147552509Y-129351742D01*
X147484688Y-129368536D01*
X147418553Y-129345998D01*
X147379516Y-129300946D01*
X147375050Y-129292182D01*
X147250109Y-129120213D01*
X147099786Y-128969890D01*
X146927820Y-128844951D01*
X146738414Y-128748444D01*
X146738413Y-128748443D01*
X146738412Y-128748443D01*
X146536243Y-128682754D01*
X146536241Y-128682753D01*
X146536240Y-128682753D01*
X146374957Y-128657208D01*
X146326287Y-128649500D01*
X146113713Y-128649500D01*
X146065042Y-128657208D01*
X145903760Y-128682753D01*
X145701585Y-128748444D01*
X145512179Y-128844951D01*
X145340213Y-128969890D01*
X145189890Y-129120213D01*
X145064949Y-129292182D01*
X145060484Y-129300946D01*
X145012509Y-129351742D01*
X144944688Y-129368536D01*
X144878553Y-129345998D01*
X144839516Y-129300946D01*
X144835050Y-129292182D01*
X144710109Y-129120213D01*
X144559786Y-128969890D01*
X144387820Y-128844951D01*
X144198414Y-128748444D01*
X144198413Y-128748443D01*
X144198412Y-128748443D01*
X143996243Y-128682754D01*
X143996241Y-128682753D01*
X143996240Y-128682753D01*
X143834957Y-128657208D01*
X143786287Y-128649500D01*
X143573713Y-128649500D01*
X143545006Y-128654046D01*
X143363757Y-128682753D01*
X143321473Y-128696492D01*
X143251632Y-128698486D01*
X143195476Y-128666241D01*
X141886819Y-127357584D01*
X141853334Y-127296261D01*
X141850500Y-127269903D01*
X141850500Y-115079765D01*
X141870185Y-115012726D01*
X141871398Y-115010874D01*
X141959390Y-114879185D01*
X141959390Y-114879184D01*
X141959394Y-114879179D01*
X142019737Y-114733497D01*
X142050500Y-114578842D01*
X142050500Y-114421158D01*
X142050500Y-114421155D01*
X142050499Y-114421153D01*
X142026499Y-114300499D01*
X142019737Y-114266503D01*
X141959794Y-114121786D01*
X141959397Y-114120827D01*
X141959390Y-114120814D01*
X141871789Y-113989711D01*
X141871786Y-113989707D01*
X141760292Y-113878213D01*
X141760288Y-113878210D01*
X141629185Y-113790609D01*
X141629172Y-113790602D01*
X141483501Y-113730264D01*
X141483489Y-113730261D01*
X141328845Y-113699500D01*
X141328842Y-113699500D01*
X141171158Y-113699500D01*
X141171155Y-113699500D01*
X141016510Y-113730261D01*
X141016498Y-113730264D01*
X140870827Y-113790602D01*
X140870814Y-113790609D01*
X140739711Y-113878210D01*
X140739707Y-113878213D01*
X140628213Y-113989707D01*
X140628210Y-113989711D01*
X140540609Y-114120814D01*
X140540604Y-114120824D01*
X140495052Y-114230797D01*
X140451211Y-114285200D01*
X140384917Y-114307265D01*
X140356301Y-114304962D01*
X140328842Y-114299500D01*
X140171158Y-114299500D01*
X140171155Y-114299500D01*
X140016510Y-114330261D01*
X140016498Y-114330264D01*
X139870827Y-114390602D01*
X139870814Y-114390609D01*
X139739711Y-114478210D01*
X139739707Y-114478213D01*
X139628213Y-114589707D01*
X139628210Y-114589711D01*
X139540609Y-114720814D01*
X139540602Y-114720827D01*
X139480264Y-114866498D01*
X139480261Y-114866510D01*
X139449500Y-115021153D01*
X139449500Y-115178846D01*
X139480261Y-115333489D01*
X139480264Y-115333501D01*
X139540602Y-115479172D01*
X139540609Y-115479185D01*
X139628602Y-115610874D01*
X139649480Y-115677551D01*
X139649500Y-115679765D01*
X139649500Y-128849831D01*
X139646561Y-128859837D01*
X139647817Y-128870189D01*
X139636886Y-128892787D01*
X139629815Y-128916870D01*
X139621935Y-128923697D01*
X139617394Y-128933087D01*
X139595978Y-128946189D01*
X139577011Y-128962625D01*
X139566690Y-128964108D01*
X139557794Y-128969552D01*
X139532698Y-128968996D01*
X139507853Y-128972569D01*
X139496512Y-128968195D01*
X139487942Y-128968006D01*
X139461941Y-128954864D01*
X139456169Y-128952638D01*
X139454347Y-128951409D01*
X139307816Y-128844949D01*
X139261451Y-128821324D01*
X139255169Y-128817088D01*
X139237517Y-128795782D01*
X139217409Y-128776791D01*
X139215288Y-128768951D01*
X139210594Y-128763285D01*
X139208025Y-128742099D01*
X139200500Y-128714281D01*
X139200500Y-119425316D01*
X139209939Y-119377864D01*
X139248728Y-119284217D01*
X139269737Y-119233497D01*
X139300500Y-119078842D01*
X139300500Y-118921158D01*
X139300500Y-118921155D01*
X139300499Y-118921153D01*
X139274531Y-118790606D01*
X139269737Y-118766503D01*
X139256066Y-118733497D01*
X139209397Y-118620827D01*
X139209390Y-118620814D01*
X139121789Y-118489711D01*
X139121786Y-118489707D01*
X139010292Y-118378213D01*
X139010288Y-118378210D01*
X138879185Y-118290609D01*
X138879172Y-118290602D01*
X138733501Y-118230264D01*
X138733489Y-118230261D01*
X138578845Y-118199500D01*
X138578842Y-118199500D01*
X138421158Y-118199500D01*
X138421155Y-118199500D01*
X138266510Y-118230261D01*
X138266498Y-118230264D01*
X138120827Y-118290602D01*
X138120814Y-118290609D01*
X137989711Y-118378210D01*
X137989707Y-118378213D01*
X137878213Y-118489707D01*
X137878210Y-118489711D01*
X137790609Y-118620814D01*
X137790602Y-118620827D01*
X137730264Y-118766498D01*
X137730261Y-118766510D01*
X137699500Y-118921153D01*
X137699500Y-119078846D01*
X137730261Y-119233489D01*
X137730264Y-119233501D01*
X137790602Y-119379172D01*
X137790609Y-119379185D01*
X137878209Y-119510287D01*
X137878210Y-119510288D01*
X137878211Y-119510289D01*
X137963182Y-119595260D01*
X137996666Y-119656581D01*
X137999500Y-119682940D01*
X137999500Y-128714281D01*
X137979815Y-128781320D01*
X137931795Y-128824765D01*
X137892185Y-128844947D01*
X137892184Y-128844948D01*
X137720213Y-128969890D01*
X137569890Y-129120213D01*
X137444949Y-129292182D01*
X137440484Y-129300946D01*
X137392509Y-129351742D01*
X137324688Y-129368536D01*
X137258553Y-129345998D01*
X137219516Y-129300946D01*
X137215050Y-129292182D01*
X137090109Y-129120213D01*
X136939786Y-128969890D01*
X136767820Y-128844951D01*
X136578414Y-128748444D01*
X136578413Y-128748443D01*
X136578412Y-128748443D01*
X136376243Y-128682754D01*
X136376241Y-128682753D01*
X136376240Y-128682753D01*
X136214957Y-128657208D01*
X136166287Y-128649500D01*
X135953713Y-128649500D01*
X135905042Y-128657208D01*
X135743760Y-128682753D01*
X135541585Y-128748444D01*
X135352179Y-128844951D01*
X135180213Y-128969890D01*
X135029890Y-129120213D01*
X134904949Y-129292182D01*
X134900484Y-129300946D01*
X134852509Y-129351742D01*
X134784688Y-129368536D01*
X134718553Y-129345998D01*
X134679516Y-129300946D01*
X134675050Y-129292182D01*
X134550109Y-129120213D01*
X134399786Y-128969890D01*
X134227820Y-128844951D01*
X134038414Y-128748444D01*
X134038413Y-128748443D01*
X134038412Y-128748443D01*
X133836243Y-128682754D01*
X133836241Y-128682753D01*
X133836240Y-128682753D01*
X133674957Y-128657208D01*
X133626287Y-128649500D01*
X133413713Y-128649500D01*
X133365042Y-128657208D01*
X133203760Y-128682753D01*
X133001585Y-128748444D01*
X132812179Y-128844951D01*
X132640213Y-128969890D01*
X132489890Y-129120213D01*
X132364949Y-129292182D01*
X132360484Y-129300946D01*
X132312509Y-129351742D01*
X132244688Y-129368536D01*
X132178553Y-129345998D01*
X132139516Y-129300946D01*
X132135050Y-129292182D01*
X132010109Y-129120213D01*
X131859786Y-128969890D01*
X131687820Y-128844951D01*
X131498414Y-128748444D01*
X131498413Y-128748443D01*
X131498412Y-128748443D01*
X131296243Y-128682754D01*
X131296241Y-128682753D01*
X131296240Y-128682753D01*
X131134957Y-128657208D01*
X131086287Y-128649500D01*
X130873713Y-128649500D01*
X130825042Y-128657208D01*
X130663760Y-128682753D01*
X130461585Y-128748444D01*
X130272179Y-128844951D01*
X130100213Y-128969890D01*
X129949890Y-129120213D01*
X129824949Y-129292182D01*
X129820484Y-129300946D01*
X129772509Y-129351742D01*
X129704688Y-129368536D01*
X129638553Y-129345998D01*
X129599516Y-129300946D01*
X129595050Y-129292182D01*
X129470109Y-129120213D01*
X129319786Y-128969890D01*
X129147820Y-128844951D01*
X128958414Y-128748444D01*
X128958413Y-128748443D01*
X128958412Y-128748443D01*
X128756243Y-128682754D01*
X128756241Y-128682753D01*
X128756240Y-128682753D01*
X128594957Y-128657208D01*
X128546287Y-128649500D01*
X128333713Y-128649500D01*
X128285042Y-128657208D01*
X128123760Y-128682753D01*
X127921585Y-128748444D01*
X127732179Y-128844951D01*
X127560213Y-128969890D01*
X127409890Y-129120213D01*
X127284949Y-129292182D01*
X127280484Y-129300946D01*
X127276958Y-129304678D01*
X127275609Y-129309633D01*
X127253211Y-129329822D01*
X127232509Y-129351742D01*
X127227524Y-129352976D01*
X127223711Y-129356414D01*
X127193955Y-129361288D01*
X127164688Y-129368536D01*
X127159827Y-129366879D01*
X127154760Y-129367710D01*
X127127094Y-129355724D01*
X127098553Y-129345998D01*
X127094083Y-129341423D01*
X127090648Y-129339935D01*
X127081783Y-129328833D01*
X127067018Y-129313720D01*
X127062882Y-129307553D01*
X127055051Y-129292184D01*
X127022819Y-129247821D01*
X127021518Y-129245880D01*
X127011692Y-129214692D01*
X127000702Y-129183887D01*
X127000573Y-129179397D01*
X127000524Y-129179239D01*
X127000565Y-129179088D01*
X127000500Y-129176810D01*
X127000500Y-122715781D01*
X127020185Y-122648742D01*
X127036814Y-122628105D01*
X129137778Y-120527141D01*
X129137782Y-120527139D01*
X129277139Y-120387782D01*
X129386632Y-120223914D01*
X129462051Y-120041835D01*
X129474632Y-119978582D01*
X129500500Y-119848543D01*
X129500500Y-110007882D01*
X130845669Y-110007882D01*
X130845670Y-110007883D01*
X130871059Y-110026329D01*
X131039362Y-110112085D01*
X131218997Y-110170451D01*
X131405553Y-110200000D01*
X131594447Y-110200000D01*
X131781002Y-110170451D01*
X131960637Y-110112085D01*
X132128937Y-110026331D01*
X132154328Y-110007883D01*
X132154328Y-110007882D01*
X131500001Y-109353554D01*
X131500000Y-109353554D01*
X130845669Y-110007882D01*
X129500500Y-110007882D01*
X129500500Y-108905552D01*
X130300000Y-108905552D01*
X130300000Y-109094447D01*
X130329548Y-109281002D01*
X130387914Y-109460637D01*
X130473666Y-109628933D01*
X130492116Y-109654328D01*
X131146446Y-109000000D01*
X131146446Y-108999999D01*
X131100369Y-108953922D01*
X131150000Y-108953922D01*
X131150000Y-109046078D01*
X131173852Y-109135095D01*
X131219930Y-109214905D01*
X131285095Y-109280070D01*
X131364905Y-109326148D01*
X131453922Y-109350000D01*
X131546078Y-109350000D01*
X131635095Y-109326148D01*
X131714905Y-109280070D01*
X131780070Y-109214905D01*
X131826148Y-109135095D01*
X131850000Y-109046078D01*
X131850000Y-108999999D01*
X131853554Y-108999999D01*
X131853554Y-109000000D01*
X132507882Y-109654328D01*
X132507883Y-109654328D01*
X132526331Y-109628937D01*
X132612085Y-109460637D01*
X132670451Y-109281002D01*
X132700000Y-109094447D01*
X132700000Y-108905552D01*
X132670451Y-108718997D01*
X132612085Y-108539362D01*
X132526329Y-108371059D01*
X132507883Y-108345670D01*
X132507882Y-108345669D01*
X131853554Y-108999999D01*
X131850000Y-108999999D01*
X131850000Y-108953922D01*
X131826148Y-108864905D01*
X131780070Y-108785095D01*
X131714905Y-108719930D01*
X131635095Y-108673852D01*
X131546078Y-108650000D01*
X131453922Y-108650000D01*
X131364905Y-108673852D01*
X131285095Y-108719930D01*
X131219930Y-108785095D01*
X131173852Y-108864905D01*
X131150000Y-108953922D01*
X131100369Y-108953922D01*
X130492116Y-108345669D01*
X130492116Y-108345670D01*
X130473669Y-108371060D01*
X130387914Y-108539362D01*
X130329548Y-108718997D01*
X130300000Y-108905552D01*
X129500500Y-108905552D01*
X129500500Y-107965782D01*
X129520185Y-107898743D01*
X129536819Y-107878101D01*
X129878102Y-107536819D01*
X129939425Y-107503334D01*
X129965783Y-107500500D01*
X130794367Y-107500500D01*
X130861406Y-107520185D01*
X130867254Y-107524183D01*
X130870799Y-107526759D01*
X130870801Y-107526760D01*
X131039168Y-107612547D01*
X131100059Y-107632331D01*
X131157734Y-107671768D01*
X131184932Y-107736127D01*
X131173017Y-107804973D01*
X131125773Y-107856449D01*
X131100059Y-107868193D01*
X131039361Y-107887915D01*
X130871060Y-107973669D01*
X130845670Y-107992116D01*
X130845669Y-107992116D01*
X131500000Y-108646446D01*
X131500001Y-108646446D01*
X132154328Y-107992116D01*
X132128933Y-107973666D01*
X131960637Y-107887914D01*
X131899941Y-107868193D01*
X131842265Y-107828756D01*
X131815067Y-107764397D01*
X131826982Y-107695551D01*
X131874226Y-107644075D01*
X131899934Y-107632333D01*
X131960832Y-107612547D01*
X132129199Y-107526760D01*
X132282073Y-107415690D01*
X132415690Y-107282073D01*
X132526760Y-107129199D01*
X132612547Y-106960832D01*
X132670940Y-106781118D01*
X132680167Y-106722859D01*
X132700500Y-106594486D01*
X132700500Y-106405513D01*
X132670940Y-106218881D01*
X132624220Y-106075095D01*
X132612547Y-106039168D01*
X132612545Y-106039165D01*
X132612545Y-106039163D01*
X132565565Y-105946962D01*
X132526760Y-105870801D01*
X132526758Y-105870798D01*
X132526757Y-105870796D01*
X132524179Y-105867247D01*
X132500702Y-105801439D01*
X132500500Y-105794366D01*
X132500500Y-94952135D01*
X139249500Y-94952135D01*
X139249500Y-97047870D01*
X139249501Y-97047876D01*
X139255908Y-97107483D01*
X139306202Y-97242328D01*
X139306206Y-97242335D01*
X139392452Y-97357544D01*
X139392455Y-97357547D01*
X139507664Y-97443793D01*
X139507671Y-97443797D01*
X139642517Y-97494091D01*
X139642516Y-97494091D01*
X139649444Y-97494835D01*
X139702127Y-97500500D01*
X142297872Y-97500499D01*
X142357483Y-97494091D01*
X142492331Y-97443796D01*
X142607546Y-97357546D01*
X142693796Y-97242331D01*
X142744091Y-97107483D01*
X142750500Y-97047873D01*
X142750499Y-94952128D01*
X142744091Y-94892517D01*
X142693796Y-94757669D01*
X142693795Y-94757668D01*
X142693793Y-94757664D01*
X142607547Y-94642455D01*
X142607544Y-94642452D01*
X142492335Y-94556206D01*
X142492328Y-94556202D01*
X142357482Y-94505908D01*
X142357483Y-94505908D01*
X142297883Y-94499501D01*
X142297881Y-94499500D01*
X142297873Y-94499500D01*
X142297864Y-94499500D01*
X139702129Y-94499500D01*
X139702123Y-94499501D01*
X139642516Y-94505908D01*
X139507671Y-94556202D01*
X139507664Y-94556206D01*
X139392455Y-94642452D01*
X139392452Y-94642455D01*
X139306206Y-94757664D01*
X139306202Y-94757671D01*
X139255908Y-94892517D01*
X139249501Y-94952116D01*
X139249501Y-94952123D01*
X139249500Y-94952135D01*
X132500500Y-94952135D01*
X132500500Y-87757882D01*
X132845669Y-87757882D01*
X132845670Y-87757883D01*
X132871059Y-87776329D01*
X133039362Y-87862085D01*
X133218997Y-87920451D01*
X133405553Y-87950000D01*
X133594447Y-87950000D01*
X133781002Y-87920451D01*
X133960637Y-87862085D01*
X134128937Y-87776331D01*
X134154328Y-87757883D01*
X134154328Y-87757882D01*
X133500001Y-87103554D01*
X133500000Y-87103554D01*
X132845669Y-87757882D01*
X132500500Y-87757882D01*
X132500500Y-87447308D01*
X132520185Y-87380269D01*
X132536819Y-87359627D01*
X133146446Y-86750000D01*
X133100368Y-86703922D01*
X133150000Y-86703922D01*
X133150000Y-86796078D01*
X133173852Y-86885095D01*
X133219930Y-86964905D01*
X133285095Y-87030070D01*
X133364905Y-87076148D01*
X133453922Y-87100000D01*
X133546078Y-87100000D01*
X133635095Y-87076148D01*
X133714905Y-87030070D01*
X133780070Y-86964905D01*
X133826148Y-86885095D01*
X133850000Y-86796078D01*
X133850000Y-86749999D01*
X133853554Y-86749999D01*
X133853554Y-86750000D01*
X134507882Y-87404328D01*
X134507883Y-87404328D01*
X134526331Y-87378937D01*
X134612085Y-87210637D01*
X134670451Y-87031002D01*
X134700000Y-86844447D01*
X134700000Y-86655552D01*
X134670451Y-86468997D01*
X134612085Y-86289362D01*
X134526329Y-86121059D01*
X134507883Y-86095670D01*
X134507882Y-86095669D01*
X133853554Y-86749999D01*
X133850000Y-86749999D01*
X133850000Y-86703922D01*
X133826148Y-86614905D01*
X133780070Y-86535095D01*
X133714905Y-86469930D01*
X133635095Y-86423852D01*
X133546078Y-86400000D01*
X133453922Y-86400000D01*
X133364905Y-86423852D01*
X133285095Y-86469930D01*
X133219930Y-86535095D01*
X133173852Y-86614905D01*
X133150000Y-86703922D01*
X133100368Y-86703922D01*
X132536819Y-86140373D01*
X132503334Y-86079050D01*
X132500500Y-86052692D01*
X132500500Y-85715782D01*
X132520185Y-85648743D01*
X132536819Y-85628101D01*
X132673213Y-85491707D01*
X132818598Y-85346321D01*
X132836679Y-85336448D01*
X132851905Y-85322560D01*
X132866726Y-85320041D01*
X132879919Y-85312838D01*
X132900471Y-85314307D01*
X132920787Y-85310856D01*
X132941970Y-85317275D01*
X132949610Y-85317822D01*
X132954894Y-85319932D01*
X132958792Y-85321593D01*
X133039168Y-85362547D01*
X133105300Y-85384034D01*
X133110357Y-85386190D01*
X133133252Y-85405028D01*
X133157734Y-85421768D01*
X133159939Y-85426985D01*
X133164311Y-85430583D01*
X133173387Y-85458808D01*
X133184932Y-85486127D01*
X133183966Y-85491707D01*
X133185700Y-85497099D01*
X133178072Y-85525759D01*
X133173017Y-85554973D01*
X133169188Y-85559144D01*
X133167732Y-85564618D01*
X133145820Y-85584606D01*
X133125773Y-85606449D01*
X133117966Y-85610014D01*
X133116112Y-85611706D01*
X133113166Y-85612206D01*
X133100059Y-85618193D01*
X133039361Y-85637915D01*
X132871060Y-85723669D01*
X132845670Y-85742116D01*
X132845669Y-85742116D01*
X133500000Y-86396446D01*
X133500001Y-86396446D01*
X134154328Y-85742116D01*
X134128933Y-85723666D01*
X133960637Y-85637914D01*
X133899941Y-85618193D01*
X133842265Y-85578756D01*
X133815067Y-85514397D01*
X133826982Y-85445551D01*
X133874226Y-85394075D01*
X133899934Y-85382333D01*
X133960832Y-85362547D01*
X134129199Y-85276760D01*
X134282073Y-85165690D01*
X134415690Y-85032073D01*
X134526760Y-84879199D01*
X134612547Y-84710832D01*
X134670940Y-84531118D01*
X134680167Y-84472859D01*
X134700500Y-84344486D01*
X134700500Y-84155513D01*
X134670940Y-83968881D01*
X134643846Y-83885497D01*
X134612547Y-83789168D01*
X134612545Y-83789165D01*
X134612545Y-83789163D01*
X134567290Y-83700347D01*
X134526760Y-83620801D01*
X134415690Y-83467927D01*
X134282073Y-83334310D01*
X134129199Y-83223240D01*
X133960836Y-83137454D01*
X133781118Y-83079059D01*
X133594486Y-83049500D01*
X133594481Y-83049500D01*
X133405519Y-83049500D01*
X133405514Y-83049500D01*
X133218881Y-83079059D01*
X133039163Y-83137454D01*
X132870799Y-83223240D01*
X132867254Y-83225817D01*
X132847207Y-83232970D01*
X132829302Y-83244477D01*
X132805278Y-83247931D01*
X132801448Y-83249298D01*
X132794367Y-83249500D01*
X132604675Y-83249500D01*
X132604655Y-83249499D01*
X132598541Y-83249499D01*
X132401460Y-83249499D01*
X132401457Y-83249499D01*
X132208172Y-83287946D01*
X132208164Y-83287948D01*
X132026088Y-83363366D01*
X132026079Y-83363371D01*
X131862219Y-83472859D01*
X131862215Y-83472862D01*
X130990598Y-84344481D01*
X130862220Y-84472859D01*
X130862218Y-84472861D01*
X130803961Y-84531118D01*
X130722859Y-84612219D01*
X130613371Y-84776079D01*
X130613364Y-84776092D01*
X130537950Y-84958160D01*
X130537947Y-84958170D01*
X130499500Y-85151456D01*
X130499500Y-105375500D01*
X130479815Y-105442539D01*
X130427011Y-105488294D01*
X130375500Y-105499500D01*
X129604675Y-105499500D01*
X129604655Y-105499499D01*
X129598541Y-105499499D01*
X129401460Y-105499499D01*
X129401457Y-105499499D01*
X129208172Y-105537946D01*
X129208164Y-105537948D01*
X129026088Y-105613366D01*
X129026079Y-105613371D01*
X128862219Y-105722859D01*
X128862215Y-105722862D01*
X128105355Y-106479724D01*
X127862220Y-106722859D01*
X127862218Y-106722861D01*
X127823380Y-106761699D01*
X127722859Y-106862219D01*
X127613371Y-107026080D01*
X127613366Y-107026089D01*
X127567617Y-107136538D01*
X127567612Y-107136551D01*
X127565977Y-107140500D01*
X127537949Y-107208164D01*
X127531262Y-107241784D01*
X127529721Y-107249526D01*
X127529719Y-107249535D01*
X127499500Y-107401456D01*
X127499500Y-107924432D01*
X127479815Y-107991471D01*
X127427011Y-108037226D01*
X127357853Y-108047170D01*
X127294297Y-108018145D01*
X127275182Y-107997317D01*
X127191971Y-107882787D01*
X127191967Y-107882782D01*
X127047213Y-107738028D01*
X126881613Y-107617715D01*
X126881612Y-107617714D01*
X126881610Y-107617713D01*
X126816979Y-107584782D01*
X126699223Y-107524781D01*
X126504534Y-107461522D01*
X126316248Y-107431701D01*
X126302352Y-107429500D01*
X126097648Y-107429500D01*
X126083752Y-107431701D01*
X125895465Y-107461522D01*
X125700776Y-107524781D01*
X125518386Y-107617715D01*
X125352786Y-107738028D01*
X125208028Y-107882786D01*
X125087715Y-108048386D01*
X125040485Y-108141080D01*
X124992510Y-108191876D01*
X124924689Y-108208671D01*
X124858554Y-108186134D01*
X124819515Y-108141080D01*
X124802991Y-108108650D01*
X124772287Y-108048390D01*
X124731402Y-107992116D01*
X124651971Y-107882786D01*
X124507213Y-107738028D01*
X124341613Y-107617715D01*
X124341612Y-107617714D01*
X124341610Y-107617713D01*
X124276979Y-107584782D01*
X124159223Y-107524781D01*
X123964534Y-107461522D01*
X123776248Y-107431701D01*
X123762352Y-107429500D01*
X123557648Y-107429500D01*
X123490254Y-107440174D01*
X123355464Y-107461523D01*
X123355461Y-107461523D01*
X123160782Y-107524779D01*
X123160781Y-107524779D01*
X123070954Y-107570548D01*
X123002285Y-107583444D01*
X122937544Y-107557167D01*
X122926979Y-107547744D01*
X120332032Y-104952797D01*
X120298547Y-104891474D01*
X120295785Y-104860897D01*
X120296128Y-104850819D01*
X120300500Y-104828842D01*
X120300500Y-104722395D01*
X120300572Y-104720281D01*
X120310914Y-104689032D01*
X120320185Y-104657461D01*
X120321838Y-104656028D01*
X120322526Y-104653950D01*
X120348134Y-104633242D01*
X120372989Y-104611706D01*
X120375423Y-104611176D01*
X120376856Y-104610018D01*
X120384670Y-104609164D01*
X120424500Y-104600500D01*
X126420234Y-104600500D01*
X126487273Y-104620185D01*
X126489125Y-104621398D01*
X126620814Y-104709390D01*
X126620827Y-104709397D01*
X126766047Y-104769548D01*
X126766503Y-104769737D01*
X126876556Y-104791628D01*
X126921153Y-104800499D01*
X126921156Y-104800500D01*
X126921158Y-104800500D01*
X127078844Y-104800500D01*
X127078845Y-104800499D01*
X127233497Y-104769737D01*
X127379179Y-104709394D01*
X127510289Y-104621789D01*
X127621789Y-104510289D01*
X127709394Y-104379179D01*
X127769737Y-104233497D01*
X127800500Y-104078842D01*
X127800500Y-103921158D01*
X127800500Y-103921155D01*
X127800499Y-103921153D01*
X127769738Y-103766510D01*
X127769737Y-103766503D01*
X127761081Y-103745606D01*
X127709397Y-103620827D01*
X127709390Y-103620814D01*
X127621789Y-103489711D01*
X127621786Y-103489707D01*
X127510292Y-103378213D01*
X127510288Y-103378210D01*
X127379185Y-103290609D01*
X127379172Y-103290602D01*
X127233501Y-103230264D01*
X127233489Y-103230261D01*
X127078845Y-103199500D01*
X127078842Y-103199500D01*
X126921158Y-103199500D01*
X126921155Y-103199500D01*
X126766510Y-103230261D01*
X126766498Y-103230264D01*
X126620827Y-103290602D01*
X126620814Y-103290609D01*
X126489125Y-103378602D01*
X126422447Y-103399480D01*
X126420234Y-103399500D01*
X95086669Y-103399500D01*
X95086653Y-103399499D01*
X95079057Y-103399499D01*
X94920943Y-103399499D01*
X94813587Y-103428265D01*
X94768210Y-103440424D01*
X94768209Y-103440425D01*
X94718096Y-103469359D01*
X94718095Y-103469360D01*
X94682853Y-103489707D01*
X94631285Y-103519479D01*
X94631282Y-103519481D01*
X94519478Y-103631286D01*
X92581023Y-105569739D01*
X92519700Y-105603224D01*
X92450008Y-105598240D01*
X92394075Y-105556368D01*
X92375411Y-105520375D01*
X92362086Y-105479364D01*
X92276329Y-105311059D01*
X92257883Y-105285670D01*
X92257882Y-105285669D01*
X91600000Y-105943553D01*
X91600000Y-105893922D01*
X91576148Y-105804905D01*
X91530070Y-105725095D01*
X91464905Y-105659930D01*
X91385095Y-105613852D01*
X91296078Y-105590000D01*
X91203922Y-105590000D01*
X91114905Y-105613852D01*
X91035095Y-105659930D01*
X90969930Y-105725095D01*
X90923852Y-105804905D01*
X90900000Y-105893922D01*
X90900000Y-105986078D01*
X90923852Y-106075095D01*
X90969930Y-106154905D01*
X91035095Y-106220070D01*
X91114905Y-106266148D01*
X91203922Y-106290000D01*
X91253553Y-106290000D01*
X90595669Y-106947882D01*
X90595670Y-106947883D01*
X90621059Y-106966329D01*
X90789362Y-107052085D01*
X90968997Y-107110451D01*
X91155553Y-107140000D01*
X91344447Y-107140000D01*
X91531002Y-107110451D01*
X91710637Y-107052085D01*
X91878940Y-106966329D01*
X91978615Y-106893913D01*
X92044421Y-106870433D01*
X92112475Y-106886259D01*
X92161170Y-106936365D01*
X92175500Y-106994231D01*
X92175500Y-107415050D01*
X92155815Y-107482089D01*
X92103011Y-107527844D01*
X92033853Y-107537788D01*
X92013183Y-107532981D01*
X91979418Y-107522010D01*
X91979413Y-107522009D01*
X91925000Y-107513390D01*
X91925000Y-108874314D01*
X91920606Y-108869920D01*
X91829394Y-108817259D01*
X91727661Y-108790000D01*
X91622339Y-108790000D01*
X91520606Y-108817259D01*
X91429394Y-108869920D01*
X91425000Y-108874314D01*
X91425000Y-107513390D01*
X91370586Y-107522009D01*
X91175970Y-107585244D01*
X90993650Y-107678140D01*
X90828105Y-107798417D01*
X90828104Y-107798417D01*
X90683417Y-107943104D01*
X90683417Y-107943105D01*
X90563140Y-108108650D01*
X90515765Y-108201629D01*
X90467790Y-108252425D01*
X90399969Y-108269220D01*
X90333834Y-108246682D01*
X90294795Y-108201629D01*
X90264503Y-108142179D01*
X90247287Y-108108390D01*
X90208438Y-108054918D01*
X90126971Y-107942786D01*
X89982213Y-107798028D01*
X89816613Y-107677715D01*
X89816612Y-107677714D01*
X89816610Y-107677713D01*
X89727543Y-107632331D01*
X89634223Y-107584781D01*
X89439534Y-107521522D01*
X89264995Y-107493878D01*
X89237352Y-107489500D01*
X89032648Y-107489500D01*
X89008329Y-107493351D01*
X88830465Y-107521522D01*
X88635776Y-107584781D01*
X88453386Y-107677715D01*
X88287786Y-107798028D01*
X88143028Y-107942786D01*
X88022715Y-108108386D01*
X87929781Y-108290776D01*
X87866522Y-108485465D01*
X87834500Y-108687648D01*
X87834500Y-109692351D01*
X87866522Y-109894534D01*
X87929781Y-110089223D01*
X88022715Y-110271613D01*
X88143028Y-110437213D01*
X88287786Y-110581971D01*
X88370806Y-110642287D01*
X88453390Y-110702287D01*
X88518021Y-110735218D01*
X88635776Y-110795218D01*
X88635778Y-110795218D01*
X88635781Y-110795220D01*
X88670827Y-110806607D01*
X88830465Y-110858477D01*
X88931557Y-110874488D01*
X89032648Y-110890500D01*
X89032649Y-110890500D01*
X89237351Y-110890500D01*
X89237352Y-110890500D01*
X89439534Y-110858477D01*
X89634219Y-110795220D01*
X89816610Y-110702287D01*
X89909590Y-110634732D01*
X89982213Y-110581971D01*
X89982215Y-110581968D01*
X89982219Y-110581966D01*
X90126966Y-110437219D01*
X90126968Y-110437215D01*
X90126971Y-110437213D01*
X90247284Y-110271614D01*
X90247286Y-110271611D01*
X90247287Y-110271610D01*
X90294795Y-110178369D01*
X90342770Y-110127574D01*
X90410591Y-110110779D01*
X90476725Y-110133316D01*
X90515765Y-110178370D01*
X90563140Y-110271349D01*
X90683417Y-110436894D01*
X90683417Y-110436895D01*
X90828104Y-110581582D01*
X90993650Y-110701859D01*
X91175968Y-110794754D01*
X91370578Y-110857988D01*
X91425000Y-110866607D01*
X91425000Y-109505686D01*
X91429394Y-109510080D01*
X91520606Y-109562741D01*
X91622339Y-109590000D01*
X91727661Y-109590000D01*
X91829394Y-109562741D01*
X91920606Y-109510080D01*
X91925000Y-109505686D01*
X91925000Y-110866606D01*
X91979421Y-110857988D01*
X92013181Y-110847019D01*
X92083022Y-110845023D01*
X92142855Y-110881103D01*
X92173684Y-110943804D01*
X92175500Y-110964950D01*
X92175500Y-115034524D01*
X92155815Y-115101563D01*
X92103011Y-115147318D01*
X92033853Y-115157262D01*
X92013183Y-115152455D01*
X91979542Y-115141524D01*
X91979535Y-115141523D01*
X91878443Y-115125511D01*
X91777352Y-115109500D01*
X91572648Y-115109500D01*
X91548329Y-115113351D01*
X91370465Y-115141522D01*
X91175776Y-115204781D01*
X90993386Y-115297715D01*
X90827786Y-115418028D01*
X90683032Y-115562782D01*
X90683028Y-115562787D01*
X90614978Y-115656451D01*
X90559648Y-115699117D01*
X90490035Y-115705096D01*
X90428240Y-115672490D01*
X90396954Y-115622570D01*
X90369814Y-115540666D01*
X90277712Y-115391344D01*
X90153656Y-115267288D01*
X90010268Y-115178846D01*
X90004336Y-115175187D01*
X90004331Y-115175185D01*
X90002862Y-115174698D01*
X89837797Y-115120001D01*
X89837795Y-115120000D01*
X89735010Y-115109500D01*
X88534998Y-115109500D01*
X88534981Y-115109501D01*
X88432203Y-115120000D01*
X88432200Y-115120001D01*
X88265668Y-115175185D01*
X88265663Y-115175187D01*
X88116342Y-115267289D01*
X87992289Y-115391342D01*
X87900187Y-115540663D01*
X87900185Y-115540668D01*
X87892858Y-115562781D01*
X87845001Y-115707203D01*
X87845001Y-115707204D01*
X87845000Y-115707204D01*
X87834500Y-115809983D01*
X87834500Y-117209902D01*
X87814815Y-117276941D01*
X87798181Y-117297583D01*
X82239481Y-122856282D01*
X82239479Y-122856285D01*
X82225893Y-122879818D01*
X82200653Y-122923535D01*
X82160423Y-122993215D01*
X82119499Y-123145943D01*
X82119499Y-123145945D01*
X82119499Y-123314046D01*
X82119500Y-123314059D01*
X82119500Y-128525500D01*
X82099815Y-128592539D01*
X82047011Y-128638294D01*
X81995501Y-128649500D01*
X81822130Y-128649500D01*
X81822123Y-128649501D01*
X81762515Y-128655909D01*
X81667832Y-128691223D01*
X81598141Y-128696207D01*
X81536818Y-128662721D01*
X81503334Y-128601398D01*
X81500500Y-128575041D01*
X81500500Y-116727648D01*
X84449500Y-116727648D01*
X84449500Y-116932351D01*
X84481522Y-117134534D01*
X84544781Y-117329223D01*
X84592534Y-117422941D01*
X84634303Y-117504918D01*
X84637715Y-117511613D01*
X84758028Y-117677213D01*
X84902786Y-117821971D01*
X85057749Y-117934556D01*
X85068390Y-117942287D01*
X85175562Y-117996894D01*
X85250776Y-118035218D01*
X85250778Y-118035218D01*
X85250781Y-118035220D01*
X85318487Y-118057219D01*
X85445465Y-118098477D01*
X85546557Y-118114488D01*
X85647648Y-118130500D01*
X85647649Y-118130500D01*
X85852351Y-118130500D01*
X85852352Y-118130500D01*
X86054534Y-118098477D01*
X86249219Y-118035220D01*
X86431610Y-117942287D01*
X86537332Y-117865476D01*
X86597213Y-117821971D01*
X86597215Y-117821968D01*
X86597219Y-117821966D01*
X86741966Y-117677219D01*
X86741968Y-117677215D01*
X86741971Y-117677213D01*
X86834032Y-117550500D01*
X86862287Y-117511610D01*
X86955220Y-117329219D01*
X87018477Y-117134534D01*
X87050500Y-116932352D01*
X87050500Y-116727648D01*
X87045699Y-116697339D01*
X87018477Y-116525465D01*
X86980960Y-116410000D01*
X86955220Y-116330781D01*
X86955218Y-116330778D01*
X86955218Y-116330776D01*
X86921503Y-116264607D01*
X86862287Y-116148390D01*
X86854556Y-116137749D01*
X86741971Y-115982786D01*
X86597213Y-115838028D01*
X86431613Y-115717715D01*
X86431612Y-115717714D01*
X86431610Y-115717713D01*
X86352788Y-115677551D01*
X86249223Y-115624781D01*
X86054534Y-115561522D01*
X85879995Y-115533878D01*
X85852352Y-115529500D01*
X85647648Y-115529500D01*
X85623329Y-115533351D01*
X85445465Y-115561522D01*
X85250776Y-115624781D01*
X85068386Y-115717715D01*
X84902786Y-115838028D01*
X84758028Y-115982786D01*
X84637715Y-116148386D01*
X84544781Y-116330776D01*
X84481522Y-116525465D01*
X84449500Y-116727648D01*
X81500500Y-116727648D01*
X81500500Y-106567648D01*
X84449500Y-106567648D01*
X84449500Y-106772352D01*
X84453878Y-106799995D01*
X84481522Y-106974534D01*
X84544781Y-107169223D01*
X84637715Y-107351613D01*
X84758028Y-107517213D01*
X84902786Y-107661971D01*
X85043766Y-107764397D01*
X85068390Y-107782287D01*
X85184607Y-107841503D01*
X85250776Y-107875218D01*
X85250778Y-107875218D01*
X85250781Y-107875220D01*
X85355137Y-107909127D01*
X85445465Y-107938477D01*
X85546557Y-107954488D01*
X85647648Y-107970500D01*
X85647649Y-107970500D01*
X85852351Y-107970500D01*
X85852352Y-107970500D01*
X86054534Y-107938477D01*
X86249219Y-107875220D01*
X86431610Y-107782287D01*
X86574210Y-107678683D01*
X86597213Y-107661971D01*
X86597215Y-107661968D01*
X86597219Y-107661966D01*
X86741966Y-107517219D01*
X86741968Y-107517215D01*
X86741971Y-107517213D01*
X86805697Y-107429500D01*
X86862287Y-107351610D01*
X86955220Y-107169219D01*
X87018477Y-106974534D01*
X87050500Y-106772352D01*
X87050500Y-106567648D01*
X87034958Y-106469520D01*
X87018477Y-106365465D01*
X86982606Y-106255067D01*
X86955220Y-106170781D01*
X86955218Y-106170778D01*
X86955218Y-106170776D01*
X86862287Y-105988390D01*
X86807900Y-105913532D01*
X86807899Y-105913529D01*
X86758482Y-105845513D01*
X87549500Y-105845513D01*
X87549500Y-106034486D01*
X87579059Y-106221118D01*
X87637454Y-106400836D01*
X87693223Y-106510288D01*
X87723240Y-106569199D01*
X87834310Y-106722073D01*
X87967927Y-106855690D01*
X88120801Y-106966760D01*
X88174716Y-106994231D01*
X88289163Y-107052545D01*
X88289165Y-107052545D01*
X88289168Y-107052547D01*
X88368698Y-107078388D01*
X88468881Y-107110940D01*
X88655514Y-107140500D01*
X88655519Y-107140500D01*
X88844486Y-107140500D01*
X89031118Y-107110940D01*
X89032623Y-107110451D01*
X89210832Y-107052547D01*
X89379199Y-106966760D01*
X89532073Y-106855690D01*
X89665690Y-106722073D01*
X89776760Y-106569199D01*
X89862547Y-106400832D01*
X89882332Y-106339938D01*
X89921768Y-106282266D01*
X89986126Y-106255067D01*
X90054973Y-106266981D01*
X90106449Y-106314225D01*
X90118193Y-106339941D01*
X90137914Y-106400637D01*
X90223666Y-106568933D01*
X90242116Y-106594328D01*
X90896446Y-105940000D01*
X90896446Y-105939999D01*
X90242116Y-105285669D01*
X90242116Y-105285670D01*
X90223669Y-105311060D01*
X90137915Y-105479361D01*
X90118193Y-105540059D01*
X90078755Y-105597734D01*
X90014396Y-105624932D01*
X89945550Y-105613017D01*
X89894074Y-105565773D01*
X89882332Y-105540061D01*
X89862547Y-105479168D01*
X89776760Y-105310801D01*
X89665690Y-105157927D01*
X89532073Y-105024310D01*
X89405179Y-104932116D01*
X90595669Y-104932116D01*
X91250000Y-105586446D01*
X91250001Y-105586446D01*
X91904328Y-104932116D01*
X91878933Y-104913666D01*
X91710637Y-104827914D01*
X91531002Y-104769548D01*
X91344447Y-104740000D01*
X91155553Y-104740000D01*
X90968997Y-104769548D01*
X90789362Y-104827914D01*
X90621060Y-104913669D01*
X90595670Y-104932116D01*
X90595669Y-104932116D01*
X89405179Y-104932116D01*
X89379199Y-104913240D01*
X89336481Y-104891474D01*
X89210836Y-104827454D01*
X89031118Y-104769059D01*
X88844486Y-104739500D01*
X88844481Y-104739500D01*
X88655519Y-104739500D01*
X88655514Y-104739500D01*
X88468881Y-104769059D01*
X88289163Y-104827454D01*
X88120800Y-104913240D01*
X88033579Y-104976610D01*
X87967927Y-105024310D01*
X87967925Y-105024312D01*
X87967924Y-105024312D01*
X87834312Y-105157924D01*
X87834312Y-105157925D01*
X87834310Y-105157927D01*
X87786610Y-105223579D01*
X87723240Y-105310800D01*
X87637454Y-105479163D01*
X87579059Y-105658881D01*
X87549500Y-105845513D01*
X86758482Y-105845513D01*
X86741971Y-105822787D01*
X86741967Y-105822782D01*
X86597213Y-105678028D01*
X86431613Y-105557715D01*
X86431612Y-105557714D01*
X86431610Y-105557713D01*
X86350731Y-105516503D01*
X86249223Y-105464781D01*
X86054534Y-105401522D01*
X85879995Y-105373878D01*
X85852352Y-105369500D01*
X85647648Y-105369500D01*
X85639308Y-105370821D01*
X85445465Y-105401522D01*
X85250776Y-105464781D01*
X85068386Y-105557715D01*
X84902786Y-105678028D01*
X84758028Y-105822786D01*
X84637715Y-105988386D01*
X84544781Y-106170776D01*
X84481522Y-106365465D01*
X84458585Y-106510288D01*
X84449500Y-106567648D01*
X81500500Y-106567648D01*
X81500500Y-100335069D01*
X88250000Y-100335069D01*
X88250000Y-100830000D01*
X89566988Y-100830000D01*
X89534075Y-100887007D01*
X89500000Y-101014174D01*
X89500000Y-101145826D01*
X89534075Y-101272993D01*
X89566988Y-101330000D01*
X88250000Y-101330000D01*
X88250000Y-101824930D01*
X88265122Y-101959141D01*
X88324663Y-102129301D01*
X88420577Y-102281948D01*
X88548051Y-102409422D01*
X88700698Y-102505336D01*
X88870858Y-102564877D01*
X89005069Y-102579999D01*
X89005070Y-102580000D01*
X89750000Y-102580000D01*
X89750000Y-101513012D01*
X89807007Y-101545925D01*
X89934174Y-101580000D01*
X90065826Y-101580000D01*
X90192993Y-101545925D01*
X90250000Y-101513012D01*
X90250000Y-102580000D01*
X90994930Y-102580000D01*
X90994930Y-102579999D01*
X91129141Y-102564877D01*
X91299301Y-102505336D01*
X91451948Y-102409422D01*
X91579422Y-102281948D01*
X91675336Y-102129301D01*
X91734877Y-101959141D01*
X91749999Y-101824930D01*
X91750000Y-101824930D01*
X91750000Y-101330000D01*
X90433012Y-101330000D01*
X90465925Y-101272993D01*
X90500000Y-101145826D01*
X90500000Y-101014174D01*
X90465925Y-100887007D01*
X90433012Y-100830000D01*
X91750000Y-100830000D01*
X91750000Y-100335070D01*
X91749999Y-100335069D01*
X91734877Y-100200858D01*
X91675336Y-100030698D01*
X91579422Y-99878051D01*
X91451948Y-99750577D01*
X91299301Y-99654663D01*
X91129141Y-99595122D01*
X90994930Y-99580000D01*
X90250000Y-99580000D01*
X90250000Y-100646988D01*
X90192993Y-100614075D01*
X90065826Y-100580000D01*
X89934174Y-100580000D01*
X89807007Y-100614075D01*
X89750000Y-100646988D01*
X89750000Y-99580000D01*
X89005070Y-99580000D01*
X88870858Y-99595122D01*
X88700698Y-99654663D01*
X88548051Y-99750577D01*
X88420577Y-99878051D01*
X88324663Y-100030698D01*
X88265122Y-100200858D01*
X88250000Y-100335069D01*
X81500500Y-100335069D01*
X81500500Y-96909875D01*
X81520185Y-96842836D01*
X81536814Y-96822199D01*
X88038321Y-90320692D01*
X88099642Y-90287209D01*
X88169334Y-90292193D01*
X88225267Y-90334065D01*
X88249684Y-90399529D01*
X88250000Y-90408375D01*
X88250000Y-90670000D01*
X89566988Y-90670000D01*
X89534075Y-90727007D01*
X89500000Y-90854174D01*
X89500000Y-90985826D01*
X89534075Y-91112993D01*
X89566988Y-91170000D01*
X88250000Y-91170000D01*
X88250000Y-91664930D01*
X88265122Y-91799141D01*
X88324663Y-91969301D01*
X88420577Y-92121948D01*
X88548051Y-92249422D01*
X88700698Y-92345336D01*
X88870858Y-92404877D01*
X89005069Y-92419999D01*
X89005070Y-92420000D01*
X89750000Y-92420000D01*
X89750000Y-91353012D01*
X89807007Y-91385925D01*
X89934174Y-91420000D01*
X90065826Y-91420000D01*
X90192993Y-91385925D01*
X90250000Y-91353012D01*
X90250000Y-92420000D01*
X90994930Y-92420000D01*
X90994930Y-92419999D01*
X91129141Y-92404877D01*
X91299301Y-92345336D01*
X91451948Y-92249422D01*
X91579422Y-92121948D01*
X91675336Y-91969301D01*
X91734877Y-91799141D01*
X91749999Y-91664930D01*
X91750000Y-91664930D01*
X91750000Y-91170000D01*
X90433012Y-91170000D01*
X90465925Y-91112993D01*
X90500000Y-90985826D01*
X90500000Y-90854174D01*
X90465925Y-90727007D01*
X90433012Y-90670000D01*
X91750000Y-90670000D01*
X91750000Y-90175070D01*
X91749999Y-90175069D01*
X91734877Y-90040858D01*
X91675336Y-89870698D01*
X91579422Y-89718051D01*
X91451948Y-89590577D01*
X91299301Y-89494663D01*
X91129141Y-89435122D01*
X90994930Y-89420000D01*
X90250000Y-89420000D01*
X90250000Y-90486988D01*
X90192993Y-90454075D01*
X90065826Y-90420000D01*
X89934174Y-90420000D01*
X89807007Y-90454075D01*
X89750000Y-90486988D01*
X89750000Y-89420000D01*
X89238375Y-89420000D01*
X89171336Y-89400315D01*
X89125581Y-89347511D01*
X89115637Y-89278353D01*
X89144662Y-89214797D01*
X89150680Y-89208333D01*
X96182395Y-82176619D01*
X96243718Y-82143134D01*
X96270076Y-82140300D01*
X174853908Y-82140300D01*
X174917094Y-82140300D01*
X174922502Y-82140417D01*
G37*
%TD.AperFunction*%
%TA.AperFunction,Conductor*%
G36*
X179279474Y-123725922D02*
G01*
X179279474Y-123725921D01*
X179311859Y-123681349D01*
X179366415Y-123574278D01*
X179414389Y-123523482D01*
X179482210Y-123506687D01*
X179548345Y-123529224D01*
X179591797Y-123583939D01*
X179600900Y-123630573D01*
X179600900Y-128544641D01*
X179581215Y-128611680D01*
X179528411Y-128657435D01*
X179459253Y-128667379D01*
X179457503Y-128667114D01*
X179346287Y-128649500D01*
X179133713Y-128649500D01*
X179085042Y-128657208D01*
X178923760Y-128682753D01*
X178721585Y-128748444D01*
X178532179Y-128844951D01*
X178360213Y-128969890D01*
X178209890Y-129120213D01*
X178084949Y-129292182D01*
X178080484Y-129300946D01*
X178032509Y-129351742D01*
X177964688Y-129368536D01*
X177898553Y-129345998D01*
X177859516Y-129300946D01*
X177855050Y-129292182D01*
X177730109Y-129120213D01*
X177579786Y-128969890D01*
X177407820Y-128844951D01*
X177218414Y-128748444D01*
X177218413Y-128748443D01*
X177218412Y-128748443D01*
X177016243Y-128682754D01*
X177016241Y-128682753D01*
X177016240Y-128682753D01*
X176854957Y-128657208D01*
X176806287Y-128649500D01*
X176659096Y-128649500D01*
X176592057Y-128629815D01*
X176546302Y-128577011D01*
X176536358Y-128507853D01*
X176565383Y-128444297D01*
X176571415Y-128437819D01*
X177119506Y-127889728D01*
X177119511Y-127889724D01*
X177129714Y-127879520D01*
X177129716Y-127879520D01*
X177241520Y-127767716D01*
X177320577Y-127630784D01*
X177361500Y-127478057D01*
X177361500Y-124234137D01*
X177381185Y-124167098D01*
X177433989Y-124121343D01*
X177503147Y-124111399D01*
X177541795Y-124123652D01*
X177700968Y-124204755D01*
X177895582Y-124267990D01*
X178097683Y-124300000D01*
X178302317Y-124300000D01*
X178504417Y-124267990D01*
X178699031Y-124204755D01*
X178881349Y-124111859D01*
X178925921Y-124079474D01*
X178246446Y-123400000D01*
X178252661Y-123400000D01*
X178354394Y-123372741D01*
X178445606Y-123320080D01*
X178520080Y-123245606D01*
X178572741Y-123154394D01*
X178600000Y-123052661D01*
X178600000Y-123046448D01*
X179279474Y-123725922D01*
G37*
%TD.AperFunction*%
%TA.AperFunction,Conductor*%
G36*
X179548346Y-108290324D02*
G01*
X179591797Y-108345040D01*
X179600900Y-108391673D01*
X179600900Y-122369426D01*
X179581215Y-122436465D01*
X179528411Y-122482220D01*
X179459253Y-122492164D01*
X179395697Y-122463139D01*
X179366415Y-122425721D01*
X179311859Y-122318650D01*
X179279474Y-122274077D01*
X179279474Y-122274076D01*
X178600000Y-122953551D01*
X178600000Y-122947339D01*
X178572741Y-122845606D01*
X178520080Y-122754394D01*
X178445606Y-122679920D01*
X178354394Y-122627259D01*
X178252661Y-122600000D01*
X178246446Y-122600000D01*
X178925922Y-121920524D01*
X178925921Y-121920523D01*
X178881359Y-121888147D01*
X178881350Y-121888141D01*
X178699031Y-121795244D01*
X178504417Y-121732009D01*
X178302317Y-121700000D01*
X178097683Y-121700000D01*
X177895582Y-121732009D01*
X177700968Y-121795244D01*
X177518644Y-121888143D01*
X177474077Y-121920523D01*
X177474077Y-121920524D01*
X178153554Y-122600000D01*
X178147339Y-122600000D01*
X178045606Y-122627259D01*
X177954394Y-122679920D01*
X177879920Y-122754394D01*
X177827259Y-122845606D01*
X177800000Y-122947339D01*
X177800000Y-122953553D01*
X177397820Y-122551373D01*
X177364335Y-122490050D01*
X177362205Y-122470245D01*
X177361501Y-122464895D01*
X177361501Y-122464893D01*
X177320577Y-122312166D01*
X177294913Y-122267714D01*
X177241524Y-122175240D01*
X177241521Y-122175236D01*
X177241520Y-122175234D01*
X176636819Y-121570533D01*
X176603334Y-121509210D01*
X176600500Y-121482852D01*
X176600500Y-120829765D01*
X176620185Y-120762726D01*
X176621398Y-120760874D01*
X176709390Y-120629185D01*
X176709390Y-120629184D01*
X176709394Y-120629179D01*
X176769737Y-120483497D01*
X176800500Y-120328842D01*
X176800500Y-120171158D01*
X176800500Y-120171155D01*
X176800499Y-120171153D01*
X176769737Y-120016503D01*
X176767163Y-120010289D01*
X176709397Y-119870827D01*
X176709390Y-119870814D01*
X176621789Y-119739711D01*
X176621786Y-119739707D01*
X176510292Y-119628213D01*
X176510288Y-119628210D01*
X176379185Y-119540609D01*
X176379172Y-119540602D01*
X176233501Y-119480264D01*
X176233489Y-119480261D01*
X176078845Y-119449500D01*
X176078842Y-119449500D01*
X175921158Y-119449500D01*
X175921155Y-119449500D01*
X175766510Y-119480261D01*
X175766498Y-119480264D01*
X175620827Y-119540602D01*
X175620814Y-119540609D01*
X175489711Y-119628210D01*
X175489707Y-119628213D01*
X175373903Y-119744018D01*
X175372722Y-119742837D01*
X175321594Y-119777657D01*
X175251749Y-119779519D01*
X175191985Y-119743325D01*
X175161276Y-119680566D01*
X175159500Y-119659653D01*
X175159500Y-109135475D01*
X175179185Y-109068436D01*
X175231989Y-109022681D01*
X175301147Y-109012737D01*
X175321820Y-109017545D01*
X175355458Y-109028475D01*
X175355461Y-109028475D01*
X175355466Y-109028477D01*
X175557648Y-109060500D01*
X175557649Y-109060500D01*
X175762351Y-109060500D01*
X175762352Y-109060500D01*
X175964534Y-109028477D01*
X176159219Y-108965220D01*
X176341610Y-108872287D01*
X176434590Y-108804732D01*
X176507213Y-108751971D01*
X176507215Y-108751968D01*
X176507219Y-108751966D01*
X176651966Y-108607219D01*
X176651968Y-108607215D01*
X176651971Y-108607213D01*
X176772284Y-108441614D01*
X176772285Y-108441613D01*
X176772287Y-108441610D01*
X176819516Y-108348917D01*
X176867489Y-108298123D01*
X176935310Y-108281328D01*
X177001445Y-108303865D01*
X177040483Y-108348917D01*
X177051766Y-108371060D01*
X177087715Y-108441614D01*
X177208028Y-108607213D01*
X177352786Y-108751971D01*
X177507749Y-108864556D01*
X177518390Y-108872287D01*
X177599499Y-108913614D01*
X177700776Y-108965218D01*
X177700778Y-108965218D01*
X177700781Y-108965220D01*
X177791502Y-108994697D01*
X177895465Y-109028477D01*
X177996557Y-109044488D01*
X178097648Y-109060500D01*
X178097649Y-109060500D01*
X178302351Y-109060500D01*
X178302352Y-109060500D01*
X178504534Y-109028477D01*
X178699219Y-108965220D01*
X178881610Y-108872287D01*
X178974590Y-108804732D01*
X179047213Y-108751971D01*
X179047215Y-108751968D01*
X179047219Y-108751966D01*
X179191966Y-108607219D01*
X179191968Y-108607215D01*
X179191971Y-108607213D01*
X179280424Y-108485466D01*
X179312287Y-108441610D01*
X179366415Y-108335378D01*
X179414390Y-108284582D01*
X179482211Y-108267787D01*
X179548346Y-108290324D01*
G37*
%TD.AperFunction*%
%TA.AperFunction,Conductor*%
G36*
X115719920Y-108884394D02*
G01*
X115667259Y-108975606D01*
X115640000Y-109077339D01*
X115640000Y-109182661D01*
X115667259Y-109284394D01*
X115719920Y-109375606D01*
X115724314Y-109380000D01*
X113815686Y-109380000D01*
X113820080Y-109375606D01*
X113872741Y-109284394D01*
X113900000Y-109182661D01*
X113900000Y-109077339D01*
X113872741Y-108975606D01*
X113820080Y-108884394D01*
X113815686Y-108880000D01*
X115724314Y-108880000D01*
X115719920Y-108884394D01*
G37*
%TD.AperFunction*%
%TA.AperFunction,Conductor*%
G36*
X177506488Y-104612458D02*
G01*
X177508387Y-104612268D01*
X177541795Y-104623652D01*
X177700968Y-104704755D01*
X177895582Y-104767990D01*
X178097683Y-104800000D01*
X178302317Y-104800000D01*
X178504418Y-104767989D01*
X178504424Y-104767988D01*
X178538180Y-104757020D01*
X178608021Y-104755023D01*
X178667854Y-104791103D01*
X178698684Y-104853803D01*
X178700500Y-104874950D01*
X178700500Y-106358901D01*
X178691855Y-106388340D01*
X178685331Y-106418331D01*
X178681576Y-106423345D01*
X178680815Y-106425940D01*
X178664179Y-106446585D01*
X178644839Y-106465924D01*
X178583515Y-106499407D01*
X178518845Y-106496172D01*
X178504535Y-106491523D01*
X178365621Y-106469521D01*
X178302352Y-106459500D01*
X178097648Y-106459500D01*
X178073329Y-106463351D01*
X177895465Y-106491522D01*
X177700776Y-106554781D01*
X177518386Y-106647715D01*
X177352786Y-106768028D01*
X177208028Y-106912786D01*
X177087713Y-107078388D01*
X177084984Y-107083745D01*
X177080609Y-107088376D01*
X177078815Y-107094488D01*
X177056915Y-107113464D01*
X177037009Y-107134541D01*
X177030823Y-107136072D01*
X177026011Y-107140243D01*
X176997324Y-107144367D01*
X176969188Y-107151335D01*
X176963158Y-107149280D01*
X176956853Y-107150187D01*
X176930487Y-107138146D01*
X176903053Y-107128797D01*
X176899091Y-107123808D01*
X176893297Y-107121162D01*
X176877628Y-107096780D01*
X176859602Y-107074081D01*
X176858102Y-107066397D01*
X176855523Y-107062384D01*
X176850500Y-107027449D01*
X176850500Y-106800096D01*
X176870185Y-106733057D01*
X176886815Y-106712419D01*
X177119506Y-106479727D01*
X177119511Y-106479724D01*
X177129714Y-106469520D01*
X177129716Y-106469520D01*
X177241520Y-106357716D01*
X177307489Y-106243453D01*
X177320577Y-106220785D01*
X177361500Y-106068057D01*
X177361500Y-105909943D01*
X177361500Y-104734137D01*
X177362275Y-104731497D01*
X177361614Y-104728827D01*
X177372061Y-104698167D01*
X177381185Y-104667098D01*
X177383263Y-104665297D01*
X177384151Y-104662692D01*
X177409525Y-104642541D01*
X177433989Y-104621343D01*
X177436710Y-104620951D01*
X177438866Y-104619240D01*
X177471089Y-104616008D01*
X177503147Y-104611399D01*
X177506488Y-104612458D01*
G37*
%TD.AperFunction*%
%TA.AperFunction,Conductor*%
G36*
X177001445Y-88803865D02*
G01*
X177040485Y-88848919D01*
X177087715Y-88941614D01*
X177208028Y-89107213D01*
X177352786Y-89251971D01*
X177443145Y-89317619D01*
X177518390Y-89372287D01*
X177621792Y-89424973D01*
X177700776Y-89465218D01*
X177700778Y-89465218D01*
X177700781Y-89465220D01*
X177783374Y-89492056D01*
X177895465Y-89528477D01*
X177996557Y-89544488D01*
X178097648Y-89560500D01*
X178097649Y-89560500D01*
X178302351Y-89560500D01*
X178302352Y-89560500D01*
X178504534Y-89528477D01*
X178518842Y-89523827D01*
X178534054Y-89523392D01*
X178548315Y-89518074D01*
X178568268Y-89522414D01*
X178588682Y-89521831D01*
X178602769Y-89529920D01*
X178616588Y-89532926D01*
X178644842Y-89554077D01*
X178664181Y-89573416D01*
X178697666Y-89634739D01*
X178700500Y-89661097D01*
X178700500Y-102125049D01*
X178680815Y-102192088D01*
X178628011Y-102237843D01*
X178558853Y-102247787D01*
X178538183Y-102242980D01*
X178504425Y-102232011D01*
X178504418Y-102232010D01*
X178302317Y-102200000D01*
X178097683Y-102200000D01*
X177895582Y-102232009D01*
X177700965Y-102295245D01*
X177541794Y-102376347D01*
X177473125Y-102389243D01*
X177408385Y-102362966D01*
X177368128Y-102305860D01*
X177361500Y-102265862D01*
X177361500Y-90600059D01*
X177361501Y-90600046D01*
X177361501Y-90431945D01*
X177361501Y-90431943D01*
X177320577Y-90279215D01*
X177291639Y-90229095D01*
X177241520Y-90142284D01*
X177129716Y-90030480D01*
X177129715Y-90030479D01*
X177125385Y-90026149D01*
X177125374Y-90026139D01*
X176516891Y-89417656D01*
X176483406Y-89356333D01*
X176488390Y-89286641D01*
X176516891Y-89242294D01*
X176550866Y-89208319D01*
X176651966Y-89107219D01*
X176651968Y-89107215D01*
X176651971Y-89107213D01*
X176772284Y-88941614D01*
X176772285Y-88941613D01*
X176772287Y-88941610D01*
X176819516Y-88848917D01*
X176867489Y-88798123D01*
X176935310Y-88781328D01*
X177001445Y-88803865D01*
G37*
%TD.AperFunction*%
%TD*%
M02*
