M48
; DRILL file {KiCad 9.0.6+1} date 2026-03-15T16:38:30+0100
; FORMAT={-:-/ absolute / metric / decimal}
; #@! TF.CreationDate,2026-03-15T16:38:30+01:00
; #@! TF.GenerationSoftware,Kicad,Pcbnew,9.0.6+1
; #@! TF.FileFunction,Plated,1,2,PTH
FMAT,2
METRIC
; #@! TA.AperFunction,Plated,PTH,ViaDrill
T1C0.300
; #@! TA.AperFunction,Plated,PTH,ViaDrill
T2C0.600
; #@! TA.AperFunction,Plated,PTH,ComponentDrill
T3C0.700
; #@! TA.AperFunction,Plated,PTH,ComponentDrill
T4C0.800
; #@! TA.AperFunction,Plated,PTH,ComponentDrill
T5C1.000
%
G90
G05
T1
X120.0Y-119.5
X121.25Y-113.5
X121.909Y-118.75
X122.5Y-113.75
X124.434Y-113.848
X132.0Y-82.44
X132.75Y-105.75
X135.5Y-102.75
X136.193Y-118.7
X138.6Y-119.45
X139.5Y-118.3
X139.711Y-104.25
X140.5Y-118.3
X140.75Y-102.75
X141.5Y-105.25
X141.75Y-114.75
X142.25Y-115.75
X143.25Y-98.25
X159.0Y-115.25
X159.0Y-120.5
X159.0Y-123.25
X160.25Y-106.5
X164.0Y-88.0
X164.0Y-98.75
X164.059Y-120.5
X164.25Y-115.25
X164.75Y-123.75
X165.25Y-106.5
X165.25Y-116.25
X167.85Y-117.05
T2
X83.5Y-126.25
X90.5Y-120.75
X93.5Y-104.0
X95.0Y-124.75
X99.375Y-99.125
X104.375Y-99.125
X106.25Y-122.25
X107.0Y-91.5
X109.0Y-117.75
X112.125Y-91.375
X114.75Y-83.75
X117.051Y-128.449
X119.75Y-83.75
X125.5Y-104.0
X126.25Y-107.0
X127.0Y-83.75
X127.199Y-128.449
X128.75Y-112.0
X129.0Y-104.75
X132.7Y-113.75
X132.75Y-110.5
X135.25Y-96.0
X137.25Y-128.449
X137.75Y-94.75
X138.0Y-97.25
X138.25Y-89.0
X144.949Y-128.449
X161.0Y-83.75
X165.5Y-83.75
X173.0Y-127.5
X175.5Y-127.5
X178.0Y-127.5
T3
X88.75Y-105.94
X91.25Y-105.94
X110.715Y-105.94
X113.215Y-105.94
X131.0Y-84.0
X131.0Y-86.5
X135.5Y-112.25
X138.0Y-112.25
T4
X85.75Y-106.67
X85.75Y-116.83
X89.135Y-109.19
X89.135Y-116.81
X91.675Y-109.19
X91.675Y-116.81
X94.215Y-109.19
X94.215Y-116.81
X96.755Y-109.19
X96.755Y-116.81
X99.295Y-109.19
X99.295Y-116.81
X101.835Y-109.19
X101.835Y-116.81
X104.375Y-109.19
X104.375Y-116.81
X110.96Y-109.13
X110.96Y-116.75
X113.5Y-109.13
X113.5Y-116.75
X116.04Y-109.13
X116.04Y-116.75
X118.58Y-109.13
X118.58Y-116.75
X121.12Y-109.13
X121.12Y-116.75
X123.66Y-109.13
X123.66Y-116.75
X126.2Y-109.13
X126.2Y-116.75
X144.99Y-86.26
X144.99Y-101.5
X144.99Y-104.01
X144.99Y-119.25
X147.53Y-86.26
X147.53Y-101.5
X147.53Y-104.01
X147.53Y-119.25
X150.07Y-86.26
X150.07Y-101.5
X150.07Y-104.01
X150.07Y-119.25
X152.61Y-86.26
X152.61Y-101.5
X152.61Y-104.01
X152.61Y-119.25
X155.15Y-86.26
X155.15Y-101.5
X155.15Y-104.01
X155.15Y-119.25
X157.69Y-86.26
X157.69Y-101.5
X157.69Y-104.01
X157.69Y-119.25
X160.23Y-86.26
X160.23Y-101.5
X160.23Y-104.01
X160.23Y-119.25
X162.77Y-86.26
X162.77Y-101.5
X162.77Y-104.01
X162.77Y-119.25
X165.31Y-86.26
X165.31Y-101.5
X165.31Y-104.01
X165.31Y-119.25
X167.85Y-86.26
X167.85Y-101.5
X167.85Y-104.01
X167.85Y-119.25
X170.39Y-86.26
X170.39Y-101.5
X170.39Y-104.01
X170.39Y-119.25
X172.93Y-86.26
X172.93Y-101.5
X172.93Y-104.01
X172.93Y-119.25
X175.47Y-86.26
X175.47Y-101.5
X175.47Y-104.01
X175.47Y-119.25
X178.01Y-86.26
X178.01Y-101.5
X178.01Y-104.01
X178.01Y-119.25
T5
X82.72Y-130.0
X85.26Y-130.0
X87.8Y-130.0
X90.0Y-90.92
X90.0Y-101.08
X90.34Y-130.0
X92.88Y-130.0
X95.42Y-130.0
X97.96Y-130.0
X100.5Y-130.0
X103.04Y-130.0
X105.58Y-130.0
X108.12Y-130.0
X110.66Y-130.0
X113.2Y-130.0
X115.74Y-130.0
X118.28Y-130.0
X120.82Y-130.0
X123.36Y-130.0
X125.9Y-130.0
X128.44Y-130.0
X130.98Y-130.0
X133.52Y-130.0
X136.06Y-130.0
X138.6Y-130.0
X141.0Y-96.0
X141.14Y-130.0
X143.68Y-130.0
X146.22Y-130.0
X148.76Y-130.0
X151.3Y-130.0
X153.84Y-130.0
X156.38Y-130.0
X158.92Y-130.0
X161.46Y-130.0
X164.0Y-130.0
X166.54Y-130.0
X169.08Y-130.0
X171.62Y-130.0
X174.16Y-130.0
X176.7Y-130.0
X179.24Y-130.0
X181.78Y-130.0
M30
