M48
; DRILL file {KiCad 9.0.6+1} date 2026-02-20T12:16:25+0100
; FORMAT={-:-/ absolute / metric / decimal}
; #@! TF.CreationDate,2026-02-20T12:16:25+01:00
; #@! TF.GenerationSoftware,Kicad,Pcbnew,9.0.6+1
; #@! TF.FileFunction,Plated,1,2,PTH
FMAT,2
METRIC
; #@! TA.AperFunction,Plated,PTH,ViaDrill
T1C0.300
; #@! TA.AperFunction,Plated,PTH,ViaDrill
T2C0.600
; #@! TA.AperFunction,Plated,PTH,ComponentDrill
T3C0.700
; #@! TA.AperFunction,Plated,PTH,ComponentDrill
T4C0.800
; #@! TA.AperFunction,Plated,PTH,ComponentDrill
T5C1.000
%
G90
G05
T1
X93.5Y-123.5
X95.525Y-123.971
X95.75Y-105.75
X98.75Y-122.77
X101.352Y-122.17
X109.5Y-121.25
X119.5Y-104.75
X127.0Y-104.0
X136.75Y-106.0
X138.5Y-119.0
X140.25Y-115.1
X141.25Y-114.5
X142.75Y-106.0
X143.25Y-111.947
X145.0Y-84.5
X147.5Y-115.0
X147.875Y-117.875
X148.0Y-120.25
X150.25Y-111.899
X152.75Y-112.25
X155.5Y-112.9
X157.75Y-113.5
X157.75Y-119.5
X160.5Y-116.75
X160.5Y-119.0
X163.0Y-117.5
X163.25Y-118.5
X166.0Y-118.0
X166.25Y-106.0
X176.0Y-120.25
T2
X128.5Y-111.25
X131.25Y-116.75
X141.782Y-89.468
T3
X88.75Y-105.94
X91.25Y-105.94
X110.715Y-105.94
X113.215Y-105.94
X131.5Y-106.5
X131.5Y-109.0
X133.5Y-84.25
X133.5Y-86.75
T4
X85.75Y-106.67
X85.75Y-116.83
X89.135Y-109.19
X89.135Y-116.81
X91.675Y-109.19
X91.675Y-116.81
X94.215Y-109.19
X94.215Y-116.81
X96.755Y-109.19
X96.755Y-116.81
X99.295Y-109.19
X99.295Y-116.81
X101.835Y-109.19
X101.835Y-116.81
X104.375Y-109.19
X104.375Y-116.81
X110.96Y-109.13
X110.96Y-116.75
X113.5Y-109.13
X113.5Y-116.75
X116.04Y-109.13
X116.04Y-116.75
X118.58Y-109.13
X118.58Y-116.75
X121.12Y-109.13
X121.12Y-116.75
X123.66Y-109.13
X123.66Y-116.75
X126.2Y-109.13
X126.2Y-116.75
X145.18Y-88.26
X145.18Y-103.5
X145.18Y-107.76
X145.18Y-123.0
X147.72Y-88.26
X147.72Y-103.5
X147.72Y-107.76
X147.72Y-123.0
X150.26Y-88.26
X150.26Y-103.5
X150.26Y-107.76
X150.26Y-123.0
X152.8Y-88.26
X152.8Y-103.5
X152.8Y-107.76
X152.8Y-123.0
X155.34Y-88.26
X155.34Y-103.5
X155.34Y-107.76
X155.34Y-123.0
X157.88Y-88.26
X157.88Y-103.5
X157.88Y-107.76
X157.88Y-123.0
X160.42Y-88.26
X160.42Y-103.5
X160.42Y-107.76
X160.42Y-123.0
X162.96Y-88.26
X162.96Y-103.5
X162.96Y-107.76
X162.96Y-123.0
X165.5Y-88.26
X165.5Y-103.5
X165.5Y-107.76
X165.5Y-123.0
X168.04Y-88.26
X168.04Y-103.5
X168.04Y-107.76
X168.04Y-123.0
X170.58Y-88.26
X170.58Y-103.5
X170.58Y-107.76
X170.58Y-123.0
X173.12Y-88.26
X173.12Y-103.5
X173.12Y-107.76
X173.12Y-123.0
X175.66Y-88.26
X175.66Y-103.5
X175.66Y-107.76
X175.66Y-123.0
X178.2Y-88.26
X178.2Y-103.5
X178.2Y-107.76
X178.2Y-123.0
T5
X82.72Y-130.0
X85.26Y-130.0
X87.8Y-130.0
X90.0Y-90.92
X90.0Y-101.08
X90.34Y-130.0
X92.88Y-130.0
X95.42Y-130.0
X97.96Y-130.0
X100.5Y-130.0
X103.04Y-130.0
X105.58Y-130.0
X108.12Y-130.0
X110.66Y-130.0
X113.2Y-130.0
X115.74Y-130.0
X118.28Y-130.0
X120.82Y-130.0
X123.36Y-130.0
X125.9Y-130.0
X128.44Y-130.0
X130.98Y-130.0
X133.52Y-130.0
X136.06Y-130.0
X138.6Y-130.0
X141.0Y-96.0
X141.14Y-130.0
X143.68Y-130.0
X146.22Y-130.0
X148.76Y-130.0
X151.3Y-130.0
X153.84Y-130.0
X156.38Y-130.0
X158.92Y-130.0
X161.46Y-130.0
X164.0Y-130.0
X166.54Y-130.0
X169.08Y-130.0
X171.62Y-130.0
X174.16Y-130.0
X176.7Y-130.0
X179.24Y-130.0
X181.78Y-130.0
M30
